<?xml version="1.0" encoding="UTF-8"?>
<svg width="183px" height="28px" viewBox="0 0 183 28" version="1.1" xmlns="http://www.w3.org/2000/svg" xmlns:xlink="http://www.w3.org/1999/xlink">
    <!-- Generator: Sketch 52.5 (67469) - http://www.bohemiancoding.com/sketch -->
    <title>Group Copy 12</title>
    <desc>Created with Sketch.</desc>
    <g id="Page-1" stroke="none" stroke-width="1" fill="none" fill-rule="evenodd">
        <g id="Artboard" fill="#FEFEFE">
            <g id="Group-Copy-12">
                <polygon id="Path" points="51.5515695 1 63 28 60.1121076 28 51.6547085 7.46332046 43.0941704 28 40 28"></polygon>
                <path d="M71.5319149,14.7538462 L69.9148936,12.0615385 L74.9680851,3.76923077 L78,3.76923077 L71.5319149,14.7538462 Z M70.9255319,15.8307692 L70.9255319,28 L68.1968085,28 L68.1968085,15.8307692 L59,0 L62.1329787,0 L70.9255319,15.8307692 Z" id="Shape" fill-rule="nonzero"></path>
                <polygon id="Path" points="86.4479638 1 98 28 95.0859729 28 86.5520362 7.46332046 77.9140271 28 75 28"></polygon>
                <polygon id="Path" points="76.6666667 0 75 3 78.3333333 3 80 0"></polygon>
                <path d="M39.8927614,13.8583899 C39.7855228,12.8108632 39.463807,11.6585839 39.1420912,10.6110572 C38.2841823,7.99224054 36.7828418,5.79243453 34.7453083,3.90688652 C33.458445,2.75460718 32.0643432,1.81183317 30.4557641,1.0785645 C30.2412869,0.973811833 30.1340483,0.973811833 29.919571,1.0785645 C29.2761394,1.3928225 28.7399464,1.60232784 28.2037534,1.91658584 C27.0241287,2.44034918 25.9517426,3.06886518 24.772118,3.80213385 C23.5924933,4.64015519 22.4128686,5.47817653 21.233244,6.31619787 C20.9115282,6.5257032 20.5898123,6.8399612 20.2680965,7.04946654 C20.0536193,7.25897187 19.9463807,7.25897187 19.7319035,7.04946654 C19.3029491,6.73520854 18.8739946,6.42095053 18.4450402,6.10669253 C16.3002681,4.43064985 14.0482574,2.96411251 11.5817694,1.81183317 C11.0455764,1.60232784 10.616622,1.3928225 10.080429,1.0785645 C9.86595174,0.973811833 9.65147453,0.973811833 9.54423592,1.0785645 C9.43699732,1.18331717 9.32975871,1.18331717 9.32975871,1.18331717 C8.68632708,1.49757517 8.15013405,1.81183317 7.50670241,2.23084384 C6.43431635,2.96411251 5.4691689,3.69738118 4.61126005,4.64015519 C3.53887399,5.79243453 2.57372654,7.04946654 1.8230563,8.41125121 C0.643431635,10.7158099 0.107238606,13.2298739 0,15.8486906 C0,16.6867119 0,17.4199806 0.107238606,18.2580019 C0.214477212,18.9912706 0.214477212,19.7245393 0.428954424,20.457808 C0.750670241,21.9243453 1.17962466,23.28613 2.03753351,24.543162 C2.68096515,25.6954413 3.43163539,26.8477207 4.18230563,27.8952473 L9.22252011,27.8952473 C9.1152815,27.5809893 9.0080429,27.2667313 8.90080429,27.057226 C8.25737265,25.3811833 7.72117962,23.7051406 7.2922252,22.029098 C7.07774799,21.086324 6.86327078,20.0387973 6.64879357,19.0960233 C6.54155496,18.4675073 6.54155496,17.9437439 6.43431635,17.3152279 C6.43431635,17.0009699 6.32707775,16.6867119 6.43431635,16.2677013 C6.43431635,15.6391853 6.54155496,15.0106693 6.64879357,14.3821532 C6.75603217,13.7536372 6.86327078,13.1251212 6.97050938,12.4966052 C7.2922252,11.5538312 7.82841823,10.6110572 8.57908847,9.98254122 C9.43699732,9.24927255 10.5093834,8.72550921 11.7962466,8.62075655 C12.7613941,8.51600388 13.5120643,8.72550921 14.2627346,9.24927255 C14.7989276,9.66828322 15.227882,10.1920466 15.4423592,10.8205626 C15.8713137,11.6585839 16.0857909,12.4966052 16.3002681,13.4393792 C16.6219839,14.6964113 16.7292225,15.9534433 16.7292225,17.2104753 C16.7292225,18.1532493 16.7292225,18.9912706 16.7292225,19.9340446 C16.7292225,20.8768186 16.7292225,21.8195926 16.6219839,22.657614 C16.6219839,23.600388 16.6219839,26.8477207 16.4075067,27.685742 C16.4075067,27.8952473 16.4075067,27.8952473 16.6219839,27.8952473 C18.8739946,27.8952473 21.1260054,27.8952473 23.3780161,27.8952473 C23.3780161,27.8952473 23.4852547,27.8952473 23.4852547,27.8952473 C23.5924933,27.8952473 23.5924933,27.8952473 23.5924933,27.7904947 C23.5924933,27.7904947 23.5924933,27.685742 23.5924933,27.685742 C23.4852547,27.1619787 23.4852547,24.3336566 23.4852547,23.8098933 C23.3780161,22.8671193 23.3780161,21.9243453 23.3780161,20.8768186 C23.3780161,19.6197866 23.3780161,18.4675073 23.3780161,17.2104753 C23.3780161,16.0581959 23.4852547,14.9059166 23.6997319,13.7536372 C23.8069705,12.9156159 24.0214477,12.0775946 24.3431635,11.3443259 C24.6648794,10.6110572 25.0938338,9.87778855 25.6300268,9.35402522 C26.2734584,8.72550921 27.1313673,8.41125121 27.9892761,8.41125121 C28.4182306,8.41125121 28.9544236,8.51600388 29.383378,8.62075655 C30.4557641,8.93501455 31.4209115,9.56353055 32.1715818,10.5063046 C32.8150134,11.3443259 33.2439678,12.3918526 33.3512064,13.5441319 C33.458445,14.3821532 33.5656836,15.2201746 33.5656836,16.0581959 C33.5656836,16.3724539 33.5656836,16.7914646 33.5656836,17.1057226 C33.5656836,17.9437439 33.458445,18.6770126 33.2439678,19.4102813 C33.0294906,20.8768186 32.6005362,22.343356 32.1715818,23.8098933 C31.7426273,25.171678 31.2064343,26.6382153 30.6702413,28 L35.7104558,28 C36.3538874,27.057226 36.997319,26.0096993 37.5335121,25.0669253 C38.3914209,23.7051406 39.0348525,22.2386033 39.3565684,20.5625606 C39.5710456,19.4102813 39.7855228,18.1532493 39.7855228,16.8962173 C40.1072386,15.9534433 40,14.9059166 39.8927614,13.8583899 Z" id="Path"></path>
                <path d="M103,1 L110.269231,1 C110.774038,1 111.278846,1 111.985577,1.10671937 C112.692308,1.10671937 113.298077,1.21343874 113.903846,1.3201581 C115.317308,1.64031621 116.629808,2.06719368 117.841346,2.81422925 C119.052885,3.56126482 120.163462,4.41501976 121.072115,5.58893281 C121.980769,6.76284585 122.6875,8.04347826 123.192308,9.53754941 C123.697115,11.0316206 124,12.6324111 124,14.4466403 C124,16.1541502 123.798077,17.6482213 123.293269,19.1422925 C122.788462,20.5296443 122.182692,21.8102767 121.274038,22.9841897 C120.466346,24.1581028 119.456731,25.1185771 118.245192,25.8656126 C117.134615,26.6126482 115.822115,27.2529644 114.509615,27.5731225 C113.903846,27.7865613 113.298077,27.8932806 112.591346,27.8932806 C111.884615,27.8932806 111.177885,28 110.370192,28 L103.100962,28 L103.100962,1 L103,1 Z M110.168269,25.6521739 C110.875,25.6521739 111.581731,25.6521739 112.1875,25.5454545 C112.793269,25.5454545 113.399038,25.4387352 113.903846,25.2252964 C115.014423,24.9051383 116.024038,24.4782609 116.831731,23.8379447 C117.740385,23.1976285 118.548077,22.3438735 119.153846,21.4901186 C119.759615,20.5296443 120.264423,19.56917 120.668269,18.3952569 C121.072115,17.2213439 121.173077,15.9407115 121.173077,14.6600791 C121.173077,13.1660079 120.971154,11.8853755 120.567308,10.6047431 C120.163462,9.43083004 119.658654,8.36363636 118.951923,7.40316206 C118.245192,6.44268775 117.4375,5.69565217 116.528846,5.05533597 C115.620192,4.41501976 114.509615,3.98814229 113.399038,3.66798419 C112.894231,3.56126482 112.389423,3.45454545 111.682692,3.45454545 C111.076923,3.45454545 110.471154,3.34782609 109.966346,3.34782609 L105.524038,3.34782609 L105.524038,25.6521739 L110.168269,25.6521739 Z" id="Shape" fill-rule="nonzero"></path>
                <polygon id="Path" points="136.052863 0 148 28 144.933921 28 136.052863 6.73684211 127.066079 28 124 28"></polygon>
                <polygon id="Path" points="152.555556 3.44488189 145 3.44488189 145 1 163 1 163 3.44488189 155.444444 3.44488189 155.444444 28 152.555556 28"></polygon>
                <polygon id="Path" points="171.052863 0 183 28 179.933921 28 171.052863 6.73684211 162.066079 28 159 28"></polygon>
            </g>
        </g>
    </g>
</svg>