<?xml version="1.0" encoding="utf-8"?>
<!-- Generator: Adobe Illustrator 23.0.3, SVG Export Plug-In . SVG Version: 6.00 Build 0)  -->
<svg version="1.1" id="Layer_1" xmlns="http://www.w3.org/2000/svg" xmlns:xlink="http://www.w3.org/1999/xlink" x="0px" y="0px"
	 viewBox="0 0 60.1977692 14.8427773" style="enable-background:new 0 0 60.1977692 14.8427773;" xml:space="preserve">
<style type="text/css">
	.st0{fill:#001959;}
	.st1{fill:#0063FF;}
	.st2{enable-background:new    ;}
	.st3{fill:#9FB2DC;}
	.st4{fill:#8EA0C5;}
	.st5{fill:#636F89;}
	.st6{fill:#23232A;}
	.st7{fill:#FFFFFF;}
	.st8{fill:#14BBC4;}
	.st9{fill:#8AFFFF;}
	.st10{fill:#231F20;}
	.st11{fill:#1BE0E6;}
	.st12{fill:#262B3E;}
	.st13{fill:#F26D00;}
	.st14{fill:#744729;stroke:#FEFEFE;stroke-miterlimit:10;}
	.st15{fill:#2D1D0D;stroke:#FEFEFE;stroke-miterlimit:10;}
	.st16{fill:#060707;stroke:#FEFEFE;stroke-miterlimit:10;}
	.st17{fill:#FFFFFF;stroke:#FEFEFE;stroke-miterlimit:10;}
	.st18{fill:#4B3938;stroke:#FEFEFE;stroke-miterlimit:10;}
	.st19{fill:#C5875D;stroke:#FEFEFE;stroke-miterlimit:10;}
	.st20{fill:#663399;}
	.st21{fill:#F05A2B;}
	.st22{fill:#020202;}
	.st23{fill:#060707;}
	.st24{fill:#AF8070;}
	.st25{fill:#4B3938;}
	.st26{fill:#563A39;}
	.st27{opacity:0.27;fill:#F05A2B;enable-background:new    ;}
	.st28{fill:none;stroke:#262B3E;stroke-width:0.5;stroke-miterlimit:10;}
	.st29{fill:#6976F4;stroke:#6976F4;stroke-width:0.3;}
	.st30{fill:#6976F4;stroke:#6976F4;}
	.st31{fill:none;stroke:#FFFFFF;stroke-width:2;}
	.st32{fill:none;stroke:#6976F4;stroke-width:2;}
	.st33{fill:url(#Path_1_);}
	.st34{fill:#EFEDED;}
	.st35{fill:#6666FF;}
	.st36{clip-path:url(#Path_7_);}
	.st37{fill:#684FF1;}
	.st38{opacity:0.24;enable-background:new    ;}
	.st39{fill:#C48C62;}
	.st40{fill:#FEFEFE;}
	.st41{opacity:0.1;fill:#262B3E;}
	.st42{fill:#454745;}
	.st43{fill:#75451D;}
	.st44{fill:#684FF1;stroke:#21201F;stroke-width:0.75;}
	.st45{fill:#6466AD;}
	.st46{fill:#C5875D;}
	.st47{clip-path:url(#Path_8_);}
	.st48{fill:#6445FF;}
	.st49{fill:#744729;}
	.st50{fill:#7A5DFF;}
	.st51{fill:#F15A29;}
	.st52{fill:#348FC0;}
	.st53{fill:#51331A;}
	.st54{fill:#895F3D;}
	.st55{fill:#5333FF;}
	.st56{fill:#4C3520;}
	.st57{fill:#2D1D0D;}
	.st58{fill:#2B83FF;}
	.st59{fill:#212127;}
	.st60{fill:#579BFF;}
	.st61{fill:#626372;}
	.st62{fill:none;stroke:#F26D00;stroke-width:2;stroke-miterlimit:10;}
	.st63{opacity:0.4;fill:#F26D00;}
	.st64{fill:#744729;stroke:#FFFFFF;stroke-width:2;stroke-miterlimit:10;}
	.st65{fill:#C5875D;stroke:#FFFFFF;stroke-width:2;stroke-miterlimit:10;}
	.st66{fill:none;stroke:#5333FF;stroke-width:2;stroke-miterlimit:10;}
	.st67{fill:none;stroke:#262B3E;stroke-width:2;stroke-miterlimit:10;}
	.st68{fill:none;stroke:#FFFFFF;stroke-width:0.25;stroke-miterlimit:10;}
	.st69{fill:none;stroke:#262B3E;stroke-width:0.25;stroke-miterlimit:10;}
	.st70{stroke:#000000;}
	.st71{fill:#0063FF;stroke:#0063FF;stroke-miterlimit:10;}
	.st72{fill:#03A678;}
	.st73{fill:none;stroke:#000000;stroke-linecap:round;stroke-miterlimit:10;}
	.st74{fill:none;stroke:#23232A;stroke-width:1.3;stroke-linecap:round;stroke-miterlimit:10;}
	.st75{fill:none;stroke:#23232A;stroke-width:2;stroke-linecap:round;stroke-miterlimit:10;}
	.st76{fill:none;stroke:#FFFFFF;stroke-width:0.75;stroke-linecap:round;stroke-miterlimit:10;}
	.st77{fill:none;stroke:#FFFFFF;stroke-width:0.5;stroke-linecap:round;stroke-miterlimit:10;}
	.st78{fill:none;stroke:#23232A;stroke-width:0.5;stroke-linecap:round;stroke-miterlimit:10;}
	.st79{fill:#7D7E8D;}
	.st80{fill:#383842;}
	.st81{fill:#D1D2D9;}
	.st82{fill:url(#SVGID_1_);}
	.st83{fill:url(#SVGID_2_);}
	.st84{fill:url(#SVGID_3_);}
	.st85{fill:url(#SVGID_4_);}
	.st86{fill:url(#SVGID_5_);}
	.st87{fill:url(#SVGID_6_);}
	.st88{fill:url(#SVGID_7_);}
	.st89{fill:url(#SVGID_8_);}
	.st90{fill:url(#SVGID_9_);}
	.st91{fill:url(#SVGID_10_);}
	.st92{fill:url(#SVGID_11_);}
	.st93{fill:url(#SVGID_12_);}
	.st94{fill:url(#SVGID_13_);}
	.st95{fill:url(#SVGID_14_);}
	.st96{fill:url(#SVGID_15_);}
	.st97{fill:url(#SVGID_16_);}
	.st98{fill:url(#SVGID_17_);}
	.st99{fill:url(#SVGID_18_);}
	.st100{fill:url(#SVGID_19_);}
	.st101{fill:url(#SVGID_20_);}
	.st102{fill:url(#SVGID_21_);}
	.st103{fill:url(#SVGID_22_);}
	.st104{fill:url(#SVGID_23_);}
	.st105{fill:url(#SVGID_24_);}
	.st106{fill:url(#SVGID_25_);}
	.st107{fill:url(#SVGID_26_);}
	.st108{fill:url(#SVGID_27_);}
	.st109{fill:url(#SVGID_28_);}
	.st110{fill:url(#SVGID_29_);}
	.st111{fill:url(#SVGID_30_);}
	.st112{fill:url(#SVGID_31_);}
	.st113{fill:url(#SVGID_32_);}
	.st114{fill:url(#SVGID_33_);}
	.st115{fill:url(#SVGID_34_);}
	.st116{fill:url(#SVGID_35_);}
	.st117{fill:url(#SVGID_36_);}
	.st118{fill:url(#SVGID_37_);}
	.st119{stroke:#000000;stroke-miterlimit:10;}
	.st120{fill:#1BE0E6;stroke:#1BE0E6;stroke-width:0.5;stroke-miterlimit:10;}
	.st121{fill:#1BE0E6;stroke:#FFFFFF;stroke-linecap:round;stroke-linejoin:round;stroke-miterlimit:10;}
	.st122{fill:#1BE0E6;stroke:#23232A;stroke-linecap:round;stroke-linejoin:round;stroke-miterlimit:10;}
	.st123{fill:none;stroke:#23232A;stroke-width:2;stroke-miterlimit:10;}
	.st124{fill:none;stroke:#23232A;stroke-width:4;stroke-miterlimit:10;}
	.st125{fill:none;stroke:#FFFFFF;stroke-width:2;stroke-linecap:round;stroke-miterlimit:10;}
	.st126{fill:none;stroke:#FFFFFF;stroke-width:2;stroke-miterlimit:10;}
	.st127{fill:#FFFFFF;stroke:#FFFFFF;stroke-width:0.3;stroke-miterlimit:10;}
	.st128{fill:#23232A;stroke:#23232A;stroke-width:0.4;stroke-miterlimit:10;}
	.st129{fill:none;stroke:#FFFFFF;stroke-miterlimit:10;}
	.st130{fill:none;stroke:#23232A;stroke-miterlimit:10;}
	.st131{fill:none;stroke:#FFFFFF;stroke-width:0.75;stroke-miterlimit:10;}
	.st132{fill:none;stroke:#000000;stroke-width:0.05;stroke-miterlimit:10;}
	.st133{fill:none;stroke:#000000;stroke-width:3;stroke-miterlimit:10;}
	.st134{fill:none;stroke:#606060;stroke-width:3;stroke-miterlimit:10;}
	.st135{fill:none;stroke:#000000;stroke-miterlimit:10;}
	.st136{fill:#606060;}
	.st137{fill:#382F32;}
	.st138{fill:#544C4F;}
	.st139{fill:none;stroke:#000000;stroke-width:4;stroke-linecap:round;stroke-linejoin:round;stroke-miterlimit:10;}
	.st140{fill:none;stroke:#000000;stroke-width:3;stroke-linecap:round;stroke-linejoin:round;stroke-miterlimit:10;}
	.st141{fill:#BDBDBD;}
	.st142{fill:#6E6E6E;}
	.st143{fill:#4D4E5A;}
	.st144{fill:#B5B5C0;}
	.st145{fill:#E3147C;}
	.st146{fill:none;stroke:#E3147C;}
	.st147{fill:#001959;stroke:#001959;stroke-width:0.25;}
	.st148{fill:#23232A;stroke:#03A678;}
	.st149{fill-rule:evenodd;clip-rule:evenodd;fill:#23232A;}
	.st150{fill:#00ABFF;}
	.st151{fill:#003E31;}
	.st152{fill:#2EC396;}
	.st153{fill:#FFFFFF;stroke:#231F20;stroke-miterlimit:10;}
	.st154{fill:none;stroke:#FFFFFF;stroke-width:0.5;stroke-linecap:round;stroke-linejoin:round;stroke-miterlimit:10;}
	.st155{fill:none;stroke:#FFFFFF;stroke-width:4;stroke-miterlimit:10;}
	.st156{fill:#005183;}
	.st157{fill:none;stroke:#001959;stroke-miterlimit:10;}
</style>
<g>
	<g>
		<path class="st7" d="M2.8333907,9.7172832c0,0,0.4569197,0.0717392,0.6870296-0.337018
			c0,0,0.1200466-0.2271185,0.0631173-0.4297953c0,0-0.0674901-0.1503267-0.2077508-0.0330648
			c0,0-0.0716155,0.0828161-0.1942196,0.0602713c-0.1179841-0.0216789-0.197355-0.1126213-0.197355-0.2487354
			c0,0-0.0008249-0.1035252,0.1152613-0.1808128c0,0,0.1143537-0.1011114-0.0074255-0.2171774
			c0,0-0.0510714-0.0507412-0.1808538-0.0443258c0,0-0.3288698-0.0139847-0.5425611,0.2351017
			c0,0-0.2522216,0.2345438-0.160722,0.6570587C2.2994928,9.6013002,2.6680481,9.7115698,2.8333907,9.7172832z"/>
		<path class="st7" d="M2.8263779,12.957118c0,0,0.2631948,0.1812248,0.5950348,0.3247852
			c0,0,0.1428185,0.0793095,0.2061007,0.0506182c0,0,0.0721929-0.0223389,0.0770609-0.0886736
			c0,0-0.0023928-0.0345087-0.0249169-0.063736c0,0-0.2844815-0.3546333-0.3594799-0.6685696
			c0,0-0.0311873-0.0704393-0.0373752-0.2351427c0,0,0.0054455-0.2610493-0.2020578-0.3860464
			c0,0-0.1220267-0.0926752-0.3103886-0.0775356c0,0-0.3836539,0.0259275-0.424082,0.432539
			c0,0-0.0040429,0.2084732,0.1226869,0.3888521C2.5956078,12.8146086,2.8263779,12.957118,2.8263779,12.957118z"/>
		<path class="st7" d="M6.0027509,8.9863043c0.0064149-0.1297827-0.0443263-0.1808538-0.0443263-0.1808538
			C5.8423591,8.683671,5.7412477,8.7980251,5.7412477,8.7980251C5.66396,8.9140282,5.5604353,8.9132862,5.5604353,8.9132862
			c-0.1361151,0-0.2270575-0.0794535-0.2487359-0.1973553C5.2891545,8.5932446,5.3719702,8.5217113,5.3719702,8.5217113
			c0.1172619-0.1402607-0.0330644-0.2077513-0.0330644-0.2077513c-0.2026768-0.0570116-0.4297957,0.063118-0.4297957,0.063118
			C4.5003533,8.6071873,4.5720925,9.0640249,4.5720925,9.0640249C4.5778065,9.2294502,4.688076,9.5980053,5.1105905,9.6895876
			c0.4225144,0.0914993,0.6570592-0.1607227,0.6570592-0.1607227C6.016736,9.3151741,6.0027509,8.9863043,6.0027509,8.9863043z"/>
		<path class="st7" d="M4.5511708,13.3325214c0.0632825,0.0286913,0.2061005-0.0506182,0.2061005-0.0506182
			c0.3318405-0.1435604,0.5950351-0.3247852,0.5950351-0.3247852s0.2306876-0.1425095,0.3574171-0.3229094
			c0.1267295-0.1803789,0.1226044-0.3888521,0.1226044-0.3888521c-0.0403457-0.4066114-0.4239998-0.432539-0.4239998-0.432539
			C5.2199664,11.797678,5.09794,11.8903532,5.09794,11.8903532c-0.2075033,0.1249971-0.2020578,0.3860464-0.2020578,0.3860464
			c-0.0062709,0.1647034-0.0374579,0.2351427-0.0374579,0.2351427c-0.0749159,0.3139362-0.3593974,0.6685696-0.3593974,0.6685696
			c-0.0226064,0.0292273-0.0249166,0.063736-0.0249166,0.063736C4.4788952,13.3101826,4.5511708,13.3325214,4.5511708,13.3325214z"
			/>
		<path class="st7" d="M2.2772987,13.5609608c0.6933825,0.9779663,1.7757819,0.9377241,1.8090317,0.9362392
			c0.0333328,0.0014849,1.1216726,0.0417271,1.8150554-0.9362392c0,0-0.8985758,0.612155-1.8153028,0.6134338
			C3.1695213,14.1728888,2.2772987,13.5609608,2.2772987,13.5609608z"/>
		<path class="st7" d="M7.9727049,0.8107749c0,0-0.3187218-0.6537795-1.0392485-0.7897704
			C6.594768-0.0429379,6.2507997,0.0387845,5.9957728,0.2706477C5.7579899,0.4867522,5.4834914,0.8786156,5.319469,1.5846422
			c0,0-0.2978473,1.0968792-0.3377805,2.1425636c0,0-0.0074258,0.2410419-0.0268145,0.605864
			c-0.1882792,0.0222559-0.310966,0.120913-0.3777962,0.2043471C4.5052972,4.298974,4.3425951,4.0732369,4.3346744,4.062016
			L4.1713119,3.8372691l0.073431,0.2679803C4.327909,4.4088721,4.2155356,4.6407146,4.1477151,4.7448378
			C4.0025043,4.4565611,4.000854,4.1837955,4.000854,4.1809902l0.000165-0.141911L3.9110873,4.1486478
			C3.7927735,4.2927036,3.7358441,4.4360995,3.7092772,4.5507832C3.5563104,4.204257,3.3578005,4.1007938,3.3478997,4.0958438
			L3.2417967,4.0423794l0.0348177,0.1135287c0.0442233,0.1442208,0.0019801,0.3230944-0.0331676,0.4310126
			C3.2410541,4.5821767,3.2397339,4.5774326,3.2374239,4.5726681c-0.0225241-0.3762083-0.034075-0.6652482-0.0382004-0.7840984
			l0.0168312-0.0765452L3.1975734,3.7397673C3.1973259,3.7339711,3.1971607,3.7272058,3.1971607,3.7272058
			c-0.039933-1.0456843-0.3377805-2.1425636-0.3377805-2.1425636C2.6953578,0.8786156,2.4208596,0.4867522,2.1830766,0.2706477
			C1.9280497,0.0387845,1.5840812-0.0429379,1.245393,0.0210044C0.524866,0.1569954,0.2061443,0.8107749,0.2061443,0.8107749
			c-0.3310151,0.6599675-0.1640224,1.5799534-0.1640224,1.5799534c0.1026378,0.86481,0.6184668,2.0161021,0.6184668,2.0161021
			c0.2522216,0.6298113,0.8285278,1.6481862,0.8285278,1.6481862C1.5575967,6.176507,1.4809483,6.2317858,1.4809483,6.2317858
			C1.1807082,6.5183921,0.9901187,6.857101,0.9901187,6.857101c-0.39702,0.6520672-0.290917,1.7199874-0.2445485,2.0578294
			c0.0108908,0.0792675,0.0202966,0.158721,0.0266495,0.2384634l0.1468611,1.8649302
			c0.0483487,0.9436445,0.4549395,1.9066782,0.5965202,2.2164478c-0.0095707,0.2819242,0.0613021,0.6346588,0.3740833,0.9464703
			c0.013201,0.0151815,0.3343154,0.3739185,1.1724137,0.5750685c0.0051155,0.0008259,0.5097237,0.0864668,1.0273681,0.0864668
			c0.5174789,0,1.0220871-0.0856409,1.0305028-0.0871267c0.8347983-0.20049,1.1557474-0.559227,1.1666384-0.5717678
			c0.3139362-0.3131323,0.3859644-0.6670637,0.3767233-0.949358c0.1416636-0.3100586,0.548089-1.2728243,0.5964379-2.2162008
			l0.1468611-1.8649302C7.4129825,9.0736513,7.4223881,8.9941978,7.433279,8.9149303
			c0.0463686-0.337842,0.1524715-1.4057622-0.2445483-2.0578294c0,0-0.1905894-0.3387089-0.4908299-0.6253152
			c0,0-0.0766482-0.0552788-0.0081682-0.1767693c0,0,0.5763063-1.0183749,0.8285279-1.6481862
			c0,0,0.5158296-1.1512921,0.6184669-2.0161021C8.1367273,2.3907282,8.3037195,1.4707423,7.9727049,0.8107749z
			 M3.2998812,4.7250361c0.0051153-0.0113859,0.1074231-0.2394328,0.0962021-0.464345
			c0.0853114,0.0833311,0.210391,0.2463636,0.2947123,0.5372806l0.0990076-0.0202966
			C3.7894731,4.7751999,3.7667015,4.562499,3.9114175,4.3230658C3.9298987,4.4539208,3.9770923,4.658371,4.0973864,4.8643069
			L4.132369,4.9242063l0.0463686-0.0514836c0.0097356-0.010891,0.1958699-0.2222719,0.1968598-0.5503168
			c0.0552793,0.1034627,0.1117134,0.2323375,0.1285448,0.3513117l0.0257421,0.1825037l0.0711203-0.1699629
			c0.0011549-0.0026402,0.1041231-0.2402582,0.3872843-0.2595649c-0.0699654,0.1084132-0.158577,0.3141842-0.0655098,0.5780392
			L4.93466,5.0382299l0.0353127,0.00033c0.00033,0,0.000495,0,0.0006599,0c0.0113859,0,0.0889416-0.0031352,0.1653428-0.0851464
			c0.0978522-0.104948,0.1491709-0.2866268,0.1534615-0.5419011C5.3902593,4.6648068,5.503293,5.0817933,5.3174887,5.380796
			L5.2980175,5.4128084l0.0245867,0.0282168C5.3325052,5.4524112,5.5376158,5.696795,5.382339,6.2190595
			C5.3552766,6.0740132,5.2940569,5.896625,5.1554465,5.8014126L5.0452185,5.7258372l0.0323424,0.1298647
			c0.0008249,0.0034652,0.0717802,0.3065929-0.168643,0.8412337C4.9018226,6.435226,4.8080955,6.028965,4.3737826,5.6672578
			L4.2112451,5.5321126l0.0834966,0.1943846c0.0019798,0.0042901,0.1686425,0.411541-0.2483439,1.0095463
			c0.0018148-0.199995-0.0303621-0.5333204-0.2303574-0.7843041L3.8011889,5.9329276l-0.0239267-0.00033
			C3.7643912,5.9357328,3.7170327,5.934413,3.6571331,5.9943123C3.5551555,6.0967851,3.4384916,6.3573399,3.4224854,7.0099645
			C3.3460846,6.7553501,3.2629182,6.3542047,3.3340387,5.9598246l0.0247519-0.13696L3.2518625,5.9118061
			c-0.0085807,0.0069304-0.1833289,0.157752-0.1886094,0.5711083c-0.1079183-0.1920748-0.2499938-0.52705-0.1359704-0.8130164
			L2.941144,5.6345849L2.9116068,5.6111531C2.8858647,5.590857,2.3286176,5.1334424,2.7193673,4.0539303
			c0.0066004,0.1643524,0.0318472,0.39537,0.1036277,0.6790266l0.1128685,0.4455338l-0.013036-0.4593949
			c0-0.0029702-0.0051153-0.2471886,0.1191392-0.5282049c0.0054452,0.1508212,0.041913,0.3523016,0.1696327,0.5415711
			l0.0506589,0.0749154L3.2998812,4.7250361z M0.7907836,3.2920678c0,0-0.5773787-1.496519-0.223757-2.1944599
			c0,0,0.3065107-0.6444976,0.9159843-0.6086486c0,0,0.038613-0.0022277,0.1024728,0.0127266
			c0.1916621,0.0448627,0.6107938,0.2444454,0.8976679,1.1232812c0,0,0.2070084,0.5605268,0.2701256,1.3983572
			c0,0,0.0219467,0.2549651,0.0292897,0.624531L2.7312481,3.7592182C2.3642602,4.5558987,2.4657428,5.0790706,2.6140068,5.3780317
			C2.5946176,5.4424691,2.5743213,5.5062881,2.5528696,5.5597725L2.4830692,5.7157712c0,0-0.0779684,0.1926317-0.2286248,0.0490499
			c0,0-0.2559342-0.2336164-0.4004853-0.4398408C1.8539591,5.3249803,1.2176709,4.4886351,0.7907836,3.2920678z
			 M1.3945644,8.8547831c-0.0672426-0.2083902-0.0174088-0.379776-0.0174088-0.379776
			c0.0419132-0.1713448,0.1346501-0.3414726,0.1346501-0.3414726C1.6771482,7.8235173,1.8779684,7.653018,2.0142689,7.5655203
			C2.1080785,7.505311,2.1712782,7.4844165,2.1712782,7.4844165C2.485462,7.3348947,2.7284429,7.468823,2.7284429,7.468823
			c0.6801815,0.311564,0.864913,0.9917245,0.864913,0.9917245c0.081681,0.2059364,0.1064329,0.5051241,0.1064329,0.5051241
			c0.0408406,0.3907499-0.1847315,0.6921034-0.1847315,0.6921034C3.3840375,9.8388147,2.988585,9.8022852,2.988585,9.8022852
			C2.7536073,9.7992325,2.4466014,9.7055254,2.4466014,9.7055254C2.1446285,9.6176977,1.9079182,9.4501486,1.8329201,9.393033
			C1.8165838,9.3805952,1.8079206,9.3734179,1.8079206,9.3734179c-0.264845-0.2079363-0.356427-0.3882332-0.356427-0.3882332
			C1.4267417,8.9409409,1.4082603,8.8970881,1.3945644,8.8547831z M6.2126818,14.1144123
			c-0.0029702,0.0034647-0.316494,0.3504868-1.1131744,0.5419006c-0.0049505,0.0008249-0.501143,0.0851469-1.0102062,0.0851469
			c-0.5085688,0-1.0050914-0.084322-1.0067415-0.084487c-0.7999804-0.1920738-1.1136693-0.5390959-1.1189497-0.5450363
			c-0.5948701-0.5930548-0.2585746-1.3247194-0.2425684-1.3587122c0.2823364-0.7158241,0.6409086-1.0907326,0.647509-1.0976629
			c0.5193768-0.6401663,1.2089641-0.800971,1.5352764-0.8414202c0.1144359-0.0119009,0.1852262-0.010808,0.1856391-0.010808
			c0.000495,0,0.1149311-0.0012379,0.2905045,0.0248137c0.353374,0.0610132,0.9622703,0.2506332,1.4332161,0.8307142
			c0.0034652,0.0036306,0.3620372,0.3785391,0.6443734,1.0943632l0.0014853,0.0031347
			C6.4625106,12.7639503,6.811182,13.5175619,6.2126818,14.1144123z M6.6670437,8.1335344
			c0,0,0.0927367,0.1701279,0.1346502,0.3414726c0,0,0.0498338,0.1713858-0.0174088,0.379776
			c-0.0136962,0.042305-0.0321774,0.0861578-0.0569296,0.1304016c0,0-0.0915818,0.1802969-0.3564267,0.3882332
			c0,0-0.0086632,0.0071774-0.0249996,0.0196152C6.2709312,9.4501486,6.0342207,9.6176977,5.7322478,9.7055254
			c0,0-0.3070059,0.0937071-0.5419836,0.0967598c0,0-0.3954525,0.0365295-0.5264726-0.1445103
			c0,0-0.2255716-0.3013535-0.1847315-0.6921034c0,0,0.0247521-0.2991877,0.1064334-0.5051241
			c0,0,0.1847315-0.6801605,0.864913-0.9917245c0,0,0.242981-0.1339283,0.5571647,0.0155935
			c0,0,0.0631995,0.0208945,0.1570091,0.0811038C6.3008809,7.653018,6.5017009,7.8235173,6.6670437,8.1335344z M7.3880658,3.2920678
			C6.9611783,4.4886351,6.3248901,5.3249803,6.3248901,5.3249803C6.1803393,5.5312047,5.9244046,5.7648211,5.9244046,5.7648211
			C5.7737484,5.9084029,5.6957798,5.7157712,5.6957798,5.7157712L5.6259799,5.5597725
			c-0.0485964-0.121222-0.095295-0.2940111-0.1239247-0.4078693c0.0368805-0.226748-0.010148-0.4626541-0.0734305-0.6522741
			C5.4097309,4.2500892,5.3947973,4.0299416,5.3947973,4.0299416C5.387289,3.4650009,5.4255719,3.0233243,5.4255719,3.0233243
			c0.0631175-0.8378303,0.2701254-1.3983572,0.2701254-1.3983572c0.2868743-0.8788359,0.7060061-1.0784185,0.8976684-1.1232812
			c0.0638595-0.0149543,0.1024728-0.0127266,0.1024728-0.0127266c0.6094732-0.035849,0.9159842,0.6086486,0.9159842,0.6086486
			C7.9654446,1.7955488,7.3880658,3.2920678,7.3880658,3.2920678z"/>
	</g>
	<g>
		<path class="st7" d="M16.25313,5.0438433h-2.3668823h-0.0065308H11.865984c0,0-1.6699829-0.0756836-1.6682129,1.6367188v4.3842773
			c0,0,0.0250854,1.4941406,1.6945801,1.4881592l2.4351807,0.0008545l0.0002441-0.0008545h1.8990479
			c1.6694336,0.0059814,1.694519-1.3572998,1.694519-1.3572998V6.680562
			C17.9231129,4.9681597,16.25313,5.0438433,16.25313,5.0438433z M16.9121876,7.0194292v3.7214355
			c0,0.9296875-0.835083,0.8540039-0.835083,0.8540039h-1.7155762c-0.0057983,0.0001221-0.0107422,0.0021973-0.0163574,0.0030518
			c-0.0060425-0.0012207-0.0125122-0.0029297-0.0176392-0.0030518h-2.2855225c0,0-0.835083,0.0756836-0.835083-0.8540039V7.0194292
			c0,0-0.1173096-1.0240479,1.0598145-1.0240479h1.6129761h0.0065308h1.9661255
			C17.0295582,5.9953814,16.9121876,7.0194292,16.9121876,7.0194292z"/>
		<path class="st7" d="M22.7012501,7.0241899h-4.0089111c-0.0689087,0-0.1247559,0.0557861-0.1247559,0.1246338v7.4133301
			c0,0.0689697,0.0558472,0.1247559,0.1247559,0.1247559h0.7329712c0.0688477,0,0.1246948-0.0557861,0.1246948-0.1247559v-2.0091553
			h3.3596802c1.2964478,0,1.296814-1.3275146,1.296814-1.3275146s0-1.2868652,0-2.7116699
			C24.2064991,7.0891314,22.7012501,7.0241899,22.7012501,7.0241899z M23.2268238,10.8114214
			c0,0.8450928-0.8271484,0.7834473-0.8271484,0.7834473h-1.6756592H19.550005V8.1063433
			c0-0.0688477,0.0558472-0.1247559,0.1247559-0.1247559h2.6849365c0.8939819,0,0.8671265,0.6789551,0.8671265,0.6789551
			S23.2268238,9.8884478,23.2268238,10.8114214z"/>
		<path class="st7" d="M28.9323292,7.0235796h-2.6178589c-1.4411621,0-1.4821167,1.4145508-1.4821167,1.4145508v2.8144531
			c0,1.3391113,1.1627197,1.2998047,1.1627197,1.2998047h3.8383179c0.0689087,0,0.1247559-0.0559082,0.1247559-0.1247559v-0.7080078
			c0-0.0688477-0.0558472-0.1247559-0.1247559-0.1247559h-3.2265015c-0.8623657,0-0.8129272-0.7165527-0.8129272-0.7165527
			v-0.5843506h4.5466919c0.0689087,0,0.1247559-0.0557861,0.1247559-0.1246338v-1.751709
			C30.4654102,6.9830523,28.9323292,7.0235796,28.9323292,7.0235796z M29.4986744,9.2070513
			c0,0.0689697-0.0407104,0.1248779-0.1247559,0.1248779h-3.5799561V8.8687944c0-0.979248,0.7241821-0.887207,0.7241821-0.887207
			h2.2095947c0.7740479,0,0.7709351,0.6789551,0.7709351,0.6789551V9.2070513z"/>
		<path class="st7" d="M35.3237457,7.0241899h-2.758728c0,0-1.473875-0.0321045-1.473875,1.5931396v3.8103027
			c0,0.0689697,0.0558472,0.1247559,0.1247559,0.1247559h0.725708c0.0689068,0,0.124754-0.0557861,0.124754-0.1247559V8.7634478
			c0,0-0.0289917-0.7818604,0.868042-0.7818604h2.0990601c0,0,0.8079834-0.0734863,0.8079834,0.8193359v3.626709
			c0,0.0688477,0.0558472,0.1247559,0.1246948,0.1247559h0.7229004c0.0688477,0,0.1246948-0.0559082,0.1246948-0.1247559V8.3983355
			C36.813736,8.3983355,36.7315826,7.0241899,35.3237457,7.0241899z"/>
		<path class="st7" d="M44.4855499,5.0372515h-5.2408447c-1.8511353,0-1.8106689,1.5750732-1.8106689,1.5750732
			s0,2.696167,0,4.3572998c0,1.661377,1.6872559,1.5827637,1.6872559,1.5827637h5.3642578
			c0.0689087,0,0.1247559-0.0557861,0.1247559-0.1247559v-0.7050781c0-0.0701904-0.0574341-0.1276855-0.1276855-0.1276855
			h-4.7727661c-1.3601685,0.0916748-1.2601318-0.9091797-1.2601318-0.9091797V9.1159868h5.06604
			c0.0370483,0,0.0671387-0.0301514,0.0671387-0.0672607V8.2890825c0-0.0369873-0.0300903-0.0671387-0.0671387-0.0671387h-5.06604
			V7.0846148c0-1.2270508,0.9753418-1.0891113,0.9753418-1.0891113h5.0604858c0.0689087,0,0.1247559-0.0559082,0.1247559-0.1247559
			V5.1620073C44.6103058,5.0931597,44.5544586,5.0372515,44.4855499,5.0372515z"/>
		<path class="st7" d="M58.711319,8.2219439h-3.774353c-0.84729,0-0.8336792-0.7713623-0.8336792-0.7713623V6.8582964
			c0-0.93396,0.8220825-0.862793,0.8220825-0.862793h4.7347412c0.0692139,0,0.1253662-0.0561523,0.1253662-0.1254883V5.1627398
			c0-0.0693359-0.0561523-0.1254883-0.1253662-0.1254883h-5.0947266c-1.6486206,0-1.4777832,1.4378662-1.4777832,1.4378662
			v1.3122559c0,1.4066162,1.4661255,1.3286133,1.4661255,1.3286133h3.6697998c1.1032715,0,0.9755249,0.8895264,0.9755249,0.8895264
			v0.6154785c0,1.1264648-0.859375,0.973877-0.859375,0.973877h-5.2520752v0.9581299h5.6469116
			c1.4284058,0,1.4632568-1.4210205,1.4632568-1.4210205V9.5874224C60.1977692,8.2054644,58.711319,8.2219439,58.711319,8.2219439z"
			/>
		<path class="st7" d="M51.0658112,5.0372515h-4.8251953h-1.0152588v7.2116699c0,0.1677246,0.1358643,0.3034668,0.3034668,0.3034668
			h0.5968628v0.0048828l4.9401245-0.0192871c1.47052,0,1.4241333-1.3615723,1.4241333-1.3615723V9.5423784
			c0-0.8305664-0.6994629-0.8734131-0.6994629-0.8734131c0.7663574-0.1976318,0.6994629-0.8829346,0.6994629-0.8829346
			l0.019165-1.3752441C52.5091095,5.0631304,51.0658112,5.0372515,51.0658112,5.0372515z M51.4558258,10.9039507
			c0,0.6948242-0.6487427,0.690918-0.6487427,0.690918h-4.5664673V9.1159868h4.5528564
			c0.6812134,0,0.6623535,0.5898438,0.6623535,0.5898438V10.9039507z M51.4558258,7.6225786
			c0,0.5037842-0.6487427,0.5855713-0.6487427,0.5855713h-4.5664673V5.9749956h4.5392456
			c0.6127319,0,0.6759644,0.5855713,0.6759644,0.5855713V7.6225786z"/>
	</g>
</g>
</svg>
