<svg xmlns="http://www.w3.org/2000/svg" xmlns:xlink="http://www.w3.org/1999/xlink" version="1.1" x="0px" y="0px" viewBox="0 0 512 640" style="enable-background:new 0 0 512 512;" xml:space="preserve"><g><g><g><path fill="#f26d00" d="M315.76,216.74c-2.13,0-4.16-0.65-5.88-1.9L260,178.6l-49.88,36.24c-1.72,1.25-3.75,1.9-5.88,1.9s-4.17-0.65-5.88-1.9     c-3.52-2.55-4.98-7.05-3.63-11.18l19.05-58.64l-8.29-6.03c-2.16-1.57-3.59-3.89-4-6.53c-0.42-2.63,0.21-5.28,1.78-7.44     c1.88-2.58,4.91-4.12,8.1-4.12c2.12,0,4.15,0.66,5.87,1.91l14.17,10.3c3.52,2.55,4.98,7.04,3.64,11.18l-11.79,36.28l30.86-22.42     c1.72-1.25,3.75-1.91,5.88-1.91s4.16,0.66,5.88,1.91l30.86,22.42l-11.79-36.28c-1.341-4.13,0.119-8.63,3.63-11.18l30.87-22.43     H281.3c-4.35,0-8.17-2.77-9.51-6.91L260,67.49l-11.79,36.28c-1.34,4.14-5.16,6.91-9.51,6.91h-20.33c-5.52,0-10-4.48-10-10     c0-5.51,4.48-10,10-10h13.06l19.06-58.64c1.34-4.13,5.16-6.91,9.51-6.91c4.35,0,8.17,2.78,9.51,6.91l19.05,58.64h61.67     c4.34,0,8.16,2.78,9.511,6.91c1.34,4.14-0.12,8.63-3.641,11.18l-49.88,36.25l19.05,58.64c1.34,4.13-0.12,8.63-3.63,11.18     C319.92,216.09,317.89,216.74,315.76,216.74z M170.9,111.51c-2.12,0-4.14-0.66-5.86-1.91c-2.17-1.57-3.59-3.89-4-6.53     c-0.42-2.63,0.21-5.28,1.78-7.44c1.88-2.58,4.91-4.12,8.1-4.12c2.12,0,4.15,0.66,5.87,1.91c4.46,3.24,5.45,9.51,2.21,13.97     C177.13,109.97,174.1,111.51,170.9,111.51z"/></g><g><path fill="#f26d00" d="M389.72,288.22c-0.91,0-1.82-0.12-2.7-0.37c-5.31-1.49-8.42-7.02-6.93-12.33c0.29-1.05,0.67-2.34,1.1-3.83     c1.74-6.01,4.38-15.09,6.83-25.57c2.61-11.08,5.71-27.01,5.681-39.95c0.02-5.66-0.61-10.67-1.771-14.1     c-0.979-2.89-2.14-4.66-3.64-5.57c-0.771-0.45-1.87-0.91-4.16-0.93c-0.771,0-1.61,0.06-2.5,0.18c-0.01,0.01-0.01,0.01-0.021,0.01     c-0.449,0.06-0.92,0.09-1.38,0.09c-4.96,0-9.21-3.71-9.89-8.63c-0.75-5.46,3.08-10.52,8.54-11.27c1.79-0.25,3.56-0.38,5.25-0.38     h0.12c5.31,0,10.27,1.31,14.359,3.79c3.921,2.35,7.25,5.88,9.631,10.22c4.76,8.8,5.42,18.84,5.46,26.59     c-0.021,12.07-2.051,26.63-6.21,44.5c-2.561,10.979-5.391,20.7-7.07,26.51c-0.43,1.49-0.8,2.771-1.07,3.74     C398.14,285.22,394.18,288.22,389.72,288.22z"/></g><g><path fill="#f26d00" d="M130.28,288.22L130.28,288.22c-4.46,0-8.42-3-9.63-7.3c-0.26-0.96-0.63-2.23-1.06-3.7c-1.69-5.81-4.52-15.55-7.09-26.54     c-4.16-17.88-6.19-32.43-6.21-44.51c0.02-8.17,0.91-14.65,2.79-20.39c1.67-5.12,5.17-12.12,12.31-16.42     c4.09-2.48,9.05-3.79,14.36-3.79h0.12c1.68,0,3.45,0.13,5.25,0.38c2.65,0.36,4.99,1.73,6.6,3.86c1.62,2.13,2.3,4.76,1.94,7.41     c-0.68,4.92-4.93,8.63-9.9,8.63c-0.45,0-0.91-0.03-1.37-0.09c-0.9-0.13-1.75-0.19-2.52-0.19c-2.3,0.02-3.4,0.48-4.17,0.93     c-0.95,0.58-1.68,1.41-2.43,2.75c-1.89,3.23-3.03,9.72-2.98,16.92c-0.02,12.96,3.08,28.88,5.69,39.95     c2.45,10.49,5.09,19.581,6.84,25.6c0.43,1.48,0.8,2.76,1.09,3.8c1.49,5.311-1.62,10.84-6.92,12.33     C132.1,288.1,131.19,288.22,130.28,288.22z"/></g><g><path fill="#f26d00" d="M480,430H340c-2.63,0-5.21-1.07-7.07-2.931c-1.86-1.859-2.93-4.439-2.93-7.069v-50c0-2.63,1.069-5.21,2.93-7.07     S337.37,360,340,360h120c4.05,0,7.78,2.53,9.29,6.29l19.99,49.99l0,0c1.239,3.09,0.859,6.569-1,9.329     C486.42,428.359,483.319,430,480,430z M350,410h115.229l-12-30H350V410z"/></g><g><path fill="#f26d00" d="M451.64,379.859h-0.01l-114.66-0.05c-3.95-0.01-7.54-2.34-9.14-5.95c-2.86-6.529-3.86-13.35-4.57-19.229     c-0.25-2.23-0.46-4.44-0.65-6.4c-0.329-3.359-0.609-6.27-0.979-8.21v-0.01c-1.09-5.78-1.62-13.04-1.63-22.22     c0-17.38,1.97-37.88,5.53-57.71c4.25-23.51,10.14-43.26,17.51-58.72c6.229-12.94,12.83-21.82,20.779-27.93     c3.561-2.73,7.37-4.76,11.33-6.06c-6.43-9.59-12.699-20.32-18.119-31.04c-10.33-20.56-16.54-38.57-18.44-53.53h-0.01     c-0.271-2.11-0.41-4.37-0.41-6.74c0.02-7.21,1.22-14.54,3.49-21.21c2.979-8.6,7.25-15,13.05-19.57     c4.66-3.67,10.5-5.86,16.45-6.16l0,0c0.38-0.02,0.75-0.03,1.149-0.03c7.05,0.08,12.63,3.1,17.17,6.05     c4.84,3.2,9.91,7.6,15.49,13.45c9.74,10.23,20.34,24.15,31.51,41.39c10.28,15.89,20.221,33.34,28.761,50.46     c8.659,17.37,15.42,33.5,19.55,46.65c2.64,8.53,4.04,15.17,4.39,20.88c0.15,2.56,0.22,5.11,0.22,7.59     c0.011,13.07-2.1,25.79-6.46,38.88c-2.729,8.18-5.909,15.52-8.979,22.61c-1.16,2.66-2.25,5.17-3.311,7.71     c-1.56,3.74-5.18,6.15-9.229,6.15c-1.32,0-2.62-0.261-3.851-0.78c-3.72-1.55-6.13-5.16-6.149-9.19c0-1.33,0.26-2.64,0.77-3.88     c0.011,0,0.011-0.01,0.011-0.01c0.029-0.07,0.05-0.13,0.08-0.2c1.1-2.62,2.229-5.22,3.319-7.74c3.09-7.13,6-13.859,8.36-20.97     c3.75-11.35,5.43-21.4,5.439-32.58c0-2.09-0.06-4.26-0.189-6.43c-0.24-4.92-2.4-13.45-5.78-22.82     c-3.479-9.76-8.45-21.33-14.38-33.47c-12.16-24.91-27.92-51.29-42.16-70.58c-9.92-13.51-19.74-24.22-26.95-29.4     c-3.89-2.92-6.92-3.81-7.54-3.78c-0.01,0-0.01,0.01-0.02,0.01h-0.09c-2.11,0.14-3.601,0.69-5.29,1.97     c-1.67,1.29-3.25,3.32-4.57,5.89c-3,5.67-4.29,13.69-4.25,19.11c0,1.5,0.08,2.94,0.24,4.17l0.01,0.05     c1.45,12.14,7.45,29.29,16.46,47.04c8.08,16.04,18.4,32.29,27.61,43.49c1.41,1.72,2.22,3.91,2.26,6.16     c0.04,2.24-0.68,4.46-2.03,6.23c-1.88,2.47-4.859,3.95-7.979,3.95c-1.4,0-2.76-0.29-4.04-0.86c-0.71-0.31-1.98-0.69-4-0.69     c-0.86,0-1.78,0.07-2.74,0.2l-0.12,0.02c-2.689,0.35-5.21,1.47-7.91,3.51c-2.88,2.19-5.87,5.52-8.64,9.62     c-5.57,8.2-10.79,20.18-15.06,34.65c-8.49,28.46-12.271,62.79-12.24,84.19c-0.01,7.5,0.45,14.24,1.28,18.479l0.01,0.05     c0.59,3.311,0.93,6.851,1.25,10.271c0.18,1.88,0.359,3.83,0.59,5.729c0.31,2.761,0.7,5.28,1.17,7.49l107.34,0.05     c5.51,0.011,10,4.49,9.99,10.011C461.63,375.38,457.14,379.859,451.64,379.859z M451.189,339.35c-5.38,0-9.76-4.21-9.979-9.59     c-0.23-5.51,4.07-10.17,9.58-10.4c5.51-0.229,10.16,4.061,10.399,9.561c0,0.01,0,0.01,0,0.02c0.23,5.511-4.069,10.181-9.58,10.4     C451.47,339.35,451.33,339.35,451.189,339.35z"/></g><g><path fill="#f26d00" d="M180,430H40c-3.32,0-6.42-1.641-8.28-4.391c-1.86-2.76-2.24-6.239-1.01-9.319l20-50c1.51-3.76,5.24-6.29,9.29-6.29h120     c2.63,0,5.21,1.069,7.07,2.93S190,367.37,190,370v50c0,2.63-1.07,5.21-2.93,7.069C185.21,428.93,182.63,430,180,430z M66.77,380     l-12,30H170v-30H66.77z"/></g><g><path fill="#f26d00" d="M68.37,379.859h-0.01c-5.51,0-9.99-4.479-10-9.989c0-2.67,1.04-5.181,2.93-7.07c1.88-1.89,4.4-2.94,7.07-2.94     l107.34-0.05c0.47-2.21,0.87-4.729,1.17-7.49c0.23-1.89,0.41-3.829,0.59-5.71c0.32-3.43,0.66-6.97,1.25-10.29l0.01-0.039     c0.82-4.271,1.29-11.011,1.28-18.49c0.01-15.98-1.9-35.721-5.22-54.17c-3.79-21.15-9.42-40.2-15.86-53.64     c-4.51-9.51-9.79-16.85-14.86-20.65c-2.71-2.04-5.22-3.16-7.91-3.51l-0.11-0.02c-0.97-0.13-1.9-0.2-2.75-0.2     c-2.02,0-3.29,0.38-4,0.69c-1.28,0.57-2.64,0.86-4.04,0.86c-3.12,0-6.1-1.48-7.98-3.94c-1.35-1.78-2.07-4-2.03-6.24     c0.04-2.25,0.85-4.44,2.27-6.16c9.2-11.2,19.52-27.45,27.6-43.49c9.01-17.76,15.01-34.9,16.46-47.04l0.01-0.03     c0.16-1.25,0.24-2.7,0.24-4.19c0.02-4.82-0.88-10.33-2.4-14.73c-1.54-4.56-3.94-8.4-6.42-10.27c-1.7-1.28-3.18-1.83-5.29-1.97     h-0.03c-0.01,0-0.02,0-0.05,0l-0.01-0.01c-0.56-0.04-3.01,0.67-6.08,2.74c-3.47,2.29-7.64,5.94-12.04,10.57     c-8.76,9.17-18.85,22.47-29.2,38.46c-19.61,30.22-38.53,68.13-46,92.2c-2.04,6.48-3.32,12.34-3.51,16.1     c-0.13,2.12-0.2,4.28-0.2,6.41c0.01,11.19,1.69,21.24,5.45,32.58c2.36,7.11,5.27,13.851,8.36,20.98     c1.12,2.569,2.27,5.229,3.39,7.92h0.01c0.52,1.25,0.78,2.56,0.77,3.899c-0.01,4.03-2.42,7.63-6.14,9.19     c-1.23,0.51-2.53,0.78-3.85,0.78c-4.05,0-7.67-2.42-9.23-6.15c-1.06-2.53-2.15-5.05-3.31-7.71c-3.07-7.09-6.25-14.42-8.98-22.61     c-4.36-13.09-6.48-25.8-6.47-38.88c0-2.49,0.08-5.04,0.23-7.59c0.47-7.47,2.6-16.22,6.91-28.39c3.79-10.6,8.92-22.55,15.25-35.52     c12.86-26.31,28.91-53.16,44.04-73.68c11.92-16.09,21.86-26.8,31.27-33.7c5.44-3.87,11.55-7.46,19.39-7.59     c0.25,0,0.61,0,1.05,0.03c0.01,0,0.01,0,0.02,0c5.98,0.28,11.85,2.47,16.54,6.16c3.99,3.12,7.37,7.32,10.05,12.49     c5.29,10.39,6.45,21.12,6.48,28.29c0,2.33-0.13,4.58-0.4,6.67c0,0.01,0,0.01,0,0.01l0,0v0.01v0.02l0,0     c-1.91,14.97-8.12,32.98-18.46,53.56c-5.42,10.73-11.68,21.46-18.11,31.04c3.96,1.3,7.77,3.34,11.33,6.06     c4.72,3.6,8.99,8.28,13.08,14.31c6.87,10.19,12.65,23.32,17.67,40.16c9.6,32.41,13.05,67.69,13.07,89.89     c-0.01,9.17-0.54,16.43-1.63,22.21c0,0.01,0,0.01,0,0.02c-0.37,1.931-0.65,4.84-0.98,8.21c-0.18,1.96-0.4,4.17-0.65,6.4     c-0.71,5.88-1.71,12.7-4.57,19.229c-1.6,3.61-5.19,5.94-9.14,5.95L68.37,379.859z M68.81,339.35c-0.14,0-0.28,0-0.42-0.01     c-5.51-0.23-9.81-4.9-9.58-10.4c0-0.01,0-0.01,0-0.01c0.23-5.51,4.88-9.81,10.4-9.57c5.51,0.221,9.81,4.891,9.58,10.4     C78.57,335.14,74.18,339.35,68.81,339.35z"/></g><g><path fill="#f26d00" d="M480,490H40c-5.51,0-10-4.49-10-10c0-5.521,4.49-10,10-10h440c5.51,0,10,4.479,10,10C490,485.51,485.51,490,480,490z"/></g><g><path fill="#f26d00" d="M300,450h-80c-5.51,0-10-4.49-10-10s4.49-10,10-10h80c5.51,0,10,4.49,10,10S305.51,450,300,450z"/></g></g></g></svg>
