<?xml version="1.0" encoding="utf-8"?>
<!-- Generator: Adobe Illustrator 23.0.3, SVG Export Plug-In . SVG Version: 6.00 Build 0)  -->
<svg version="1.1" id="Layer_1" xmlns="http://www.w3.org/2000/svg" xmlns:xlink="http://www.w3.org/1999/xlink" x="0px" y="0px"
	 viewBox="0 0 60.2277069 14.8461266" style="enable-background:new 0 0 60.2277069 14.8461266;" xml:space="preserve">
<style type="text/css">
	.st0{fill:#001959;}
	.st1{fill:#0063FF;}
	.st2{enable-background:new    ;}
	.st3{fill:#9FB2DC;}
	.st4{fill:#8EA0C5;}
	.st5{fill:#636F89;}
	.st6{fill:#23232A;}
	.st7{fill:#FFFFFF;}
	.st8{fill:#14BBC4;}
	.st9{fill:#8AFFFF;}
	.st10{fill:#231F20;}
	.st11{fill:#1BE0E6;}
	.st12{fill:#262B3E;}
	.st13{fill:#F26D00;}
	.st14{fill:#744729;stroke:#FEFEFE;stroke-miterlimit:10;}
	.st15{fill:#2D1D0D;stroke:#FEFEFE;stroke-miterlimit:10;}
	.st16{fill:#060707;stroke:#FEFEFE;stroke-miterlimit:10;}
	.st17{fill:#FFFFFF;stroke:#FEFEFE;stroke-miterlimit:10;}
	.st18{fill:#4B3938;stroke:#FEFEFE;stroke-miterlimit:10;}
	.st19{fill:#C5875D;stroke:#FEFEFE;stroke-miterlimit:10;}
	.st20{fill:#663399;}
	.st21{fill:#F05A2B;}
	.st22{fill:#020202;}
	.st23{fill:#060707;}
	.st24{fill:#AF8070;}
	.st25{fill:#4B3938;}
	.st26{fill:#563A39;}
	.st27{opacity:0.27;fill:#F05A2B;enable-background:new    ;}
	.st28{fill:none;stroke:#262B3E;stroke-width:0.5;stroke-miterlimit:10;}
	.st29{fill:#6976F4;stroke:#6976F4;stroke-width:0.3;}
	.st30{fill:#6976F4;stroke:#6976F4;}
	.st31{fill:none;stroke:#FFFFFF;stroke-width:2;}
	.st32{fill:none;stroke:#6976F4;stroke-width:2;}
	.st33{fill:url(#Path_1_);}
	.st34{fill:#EFEDED;}
	.st35{fill:#6666FF;}
	.st36{clip-path:url(#Path_7_);}
	.st37{fill:#684FF1;}
	.st38{opacity:0.24;enable-background:new    ;}
	.st39{fill:#C48C62;}
	.st40{fill:#FEFEFE;}
	.st41{opacity:0.1;fill:#262B3E;}
	.st42{fill:#454745;}
	.st43{fill:#75451D;}
	.st44{fill:#684FF1;stroke:#21201F;stroke-width:0.75;}
	.st45{fill:#6466AD;}
	.st46{fill:#C5875D;}
	.st47{clip-path:url(#Path_8_);}
	.st48{fill:#6445FF;}
	.st49{fill:#744729;}
	.st50{fill:#7A5DFF;}
	.st51{fill:#F15A29;}
	.st52{fill:#348FC0;}
	.st53{fill:#51331A;}
	.st54{fill:#895F3D;}
	.st55{fill:#5333FF;}
	.st56{fill:#4C3520;}
	.st57{fill:#2D1D0D;}
	.st58{fill:#2B83FF;}
	.st59{fill:#212127;}
	.st60{fill:#579BFF;}
	.st61{fill:#626372;}
	.st62{fill:none;stroke:#F26D00;stroke-width:2;stroke-miterlimit:10;}
	.st63{opacity:0.4;fill:#F26D00;}
	.st64{fill:#744729;stroke:#FFFFFF;stroke-width:2;stroke-miterlimit:10;}
	.st65{fill:#C5875D;stroke:#FFFFFF;stroke-width:2;stroke-miterlimit:10;}
	.st66{fill:none;stroke:#5333FF;stroke-width:2;stroke-miterlimit:10;}
	.st67{fill:none;stroke:#262B3E;stroke-width:2;stroke-miterlimit:10;}
	.st68{fill:none;stroke:#FFFFFF;stroke-width:0.25;stroke-miterlimit:10;}
	.st69{fill:none;stroke:#262B3E;stroke-width:0.25;stroke-miterlimit:10;}
	.st70{stroke:#000000;}
	.st71{fill:#0063FF;stroke:#0063FF;stroke-miterlimit:10;}
	.st72{fill:#03A678;}
	.st73{fill:none;stroke:#000000;stroke-linecap:round;stroke-miterlimit:10;}
	.st74{fill:none;stroke:#23232A;stroke-width:1.3;stroke-linecap:round;stroke-miterlimit:10;}
	.st75{fill:none;stroke:#23232A;stroke-width:2;stroke-linecap:round;stroke-miterlimit:10;}
	.st76{fill:none;stroke:#FFFFFF;stroke-width:0.75;stroke-linecap:round;stroke-miterlimit:10;}
	.st77{fill:none;stroke:#FFFFFF;stroke-width:0.5;stroke-linecap:round;stroke-miterlimit:10;}
	.st78{fill:none;stroke:#23232A;stroke-width:0.5;stroke-linecap:round;stroke-miterlimit:10;}
	.st79{fill:#7D7E8D;}
	.st80{fill:#383842;}
	.st81{fill:#D1D2D9;}
	.st82{fill:url(#SVGID_1_);}
	.st83{fill:url(#SVGID_2_);}
	.st84{fill:url(#SVGID_3_);}
	.st85{fill:url(#SVGID_4_);}
	.st86{fill:url(#SVGID_5_);}
	.st87{fill:url(#SVGID_6_);}
	.st88{fill:url(#SVGID_7_);}
	.st89{fill:url(#SVGID_8_);}
	.st90{fill:url(#SVGID_9_);}
	.st91{fill:url(#SVGID_10_);}
	.st92{fill:url(#SVGID_11_);}
	.st93{fill:url(#SVGID_12_);}
	.st94{fill:url(#SVGID_13_);}
	.st95{fill:url(#SVGID_14_);}
	.st96{fill:url(#SVGID_15_);}
	.st97{fill:url(#SVGID_16_);}
	.st98{fill:url(#SVGID_17_);}
	.st99{fill:url(#SVGID_18_);}
	.st100{fill:url(#SVGID_19_);}
	.st101{fill:url(#SVGID_20_);}
	.st102{fill:url(#SVGID_21_);}
	.st103{fill:url(#SVGID_22_);}
	.st104{fill:url(#SVGID_23_);}
	.st105{fill:url(#SVGID_24_);}
	.st106{fill:url(#SVGID_25_);}
	.st107{fill:url(#SVGID_26_);}
	.st108{fill:url(#SVGID_27_);}
	.st109{fill:url(#SVGID_28_);}
	.st110{fill:url(#SVGID_29_);}
	.st111{fill:url(#SVGID_30_);}
	.st112{fill:url(#SVGID_31_);}
	.st113{fill:url(#SVGID_32_);}
	.st114{fill:url(#SVGID_33_);}
	.st115{fill:url(#SVGID_34_);}
	.st116{fill:url(#SVGID_35_);}
	.st117{fill:url(#SVGID_36_);}
	.st118{fill:url(#SVGID_37_);}
	.st119{stroke:#000000;stroke-miterlimit:10;}
	.st120{fill:#1BE0E6;stroke:#1BE0E6;stroke-width:0.5;stroke-miterlimit:10;}
	.st121{fill:#1BE0E6;stroke:#FFFFFF;stroke-linecap:round;stroke-linejoin:round;stroke-miterlimit:10;}
	.st122{fill:#1BE0E6;stroke:#23232A;stroke-linecap:round;stroke-linejoin:round;stroke-miterlimit:10;}
	.st123{fill:none;stroke:#23232A;stroke-width:2;stroke-miterlimit:10;}
	.st124{fill:none;stroke:#23232A;stroke-width:4;stroke-miterlimit:10;}
	.st125{fill:none;stroke:#FFFFFF;stroke-width:2;stroke-linecap:round;stroke-miterlimit:10;}
	.st126{fill:none;stroke:#FFFFFF;stroke-width:2;stroke-miterlimit:10;}
	.st127{fill:#FFFFFF;stroke:#FFFFFF;stroke-width:0.3;stroke-miterlimit:10;}
	.st128{fill:#23232A;stroke:#23232A;stroke-width:0.4;stroke-miterlimit:10;}
	.st129{fill:none;stroke:#FFFFFF;stroke-miterlimit:10;}
	.st130{fill:none;stroke:#23232A;stroke-miterlimit:10;}
	.st131{fill:none;stroke:#FFFFFF;stroke-width:0.75;stroke-miterlimit:10;}
	.st132{fill:none;stroke:#000000;stroke-width:0.05;stroke-miterlimit:10;}
	.st133{fill:none;stroke:#000000;stroke-width:3;stroke-miterlimit:10;}
	.st134{fill:none;stroke:#606060;stroke-width:3;stroke-miterlimit:10;}
	.st135{fill:none;stroke:#000000;stroke-miterlimit:10;}
	.st136{fill:#606060;}
	.st137{fill:#382F32;}
	.st138{fill:#544C4F;}
	.st139{fill:none;stroke:#000000;stroke-width:4;stroke-linecap:round;stroke-linejoin:round;stroke-miterlimit:10;}
	.st140{fill:none;stroke:#000000;stroke-width:3;stroke-linecap:round;stroke-linejoin:round;stroke-miterlimit:10;}
	.st141{fill:#BDBDBD;}
	.st142{fill:#6E6E6E;}
	.st143{fill:#4D4E5A;}
	.st144{fill:#B5B5C0;}
	.st145{fill:#E3147C;}
	.st146{fill:none;stroke:#E3147C;}
	.st147{fill:#001959;stroke:#001959;stroke-width:0.25;}
	.st148{fill:#23232A;stroke:#03A678;}
	.st149{fill-rule:evenodd;clip-rule:evenodd;fill:#23232A;}
	.st150{fill:#00ABFF;}
	.st151{fill:#003E31;}
	.st152{fill:#2EC396;}
	.st153{fill:#FFFFFF;stroke:#231F20;stroke-miterlimit:10;}
	.st154{fill:none;stroke:#FFFFFF;stroke-width:0.5;stroke-linecap:round;stroke-linejoin:round;stroke-miterlimit:10;}
	.st155{fill:none;stroke:#FFFFFF;stroke-width:4;stroke-miterlimit:10;}
	.st156{fill:#005183;}
	.st157{fill:none;stroke:#001959;stroke-miterlimit:10;}
</style>
<g>
	<g>
		<path class="st58" d="M1.8543168,5.3261733c0,0-0.6364555-0.8365364-1.0634153-2.0333631
			c0,0-0.5775509-1.496866-0.2238383-2.1949477c0,0,0.3065468-0.6446501,0.9161439-0.6087865
			c0,0,0.0386139-0.0022364,0.1025122,0.0127216C1.7774162,0.546672,2.1966777,0.7462992,2.4835985,1.6253275
			c0,0,0.2070456,0.5606576,0.2701581,1.3986729c0,0,0.038301,0.4417789,0.0308166,1.006851
			c0,0-0.039366,0.5818481-0.0714889,0.9272065C2.7079167,5.0136137,2.698961,5.0660152,2.6856184,5.1201921
			c-0.0272989,0.1108451-0.0791597,0.3083601-0.132303,0.4408269L2.4835272,5.7170596c0,0-0.0779755,0.1926665-0.2287269,0.0490589
			C2.2548003,5.7661185,1.9988356,5.5324597,1.8543168,5.3261733z"/>
		<path class="st7" d="M3.5939736,8.4624691c0,0-0.1847498-0.6803255-0.8651202-0.9919605
			c0,0-0.2430017-0.1339593-0.5572977,0.0156026c0,0-0.0632141,0.0209007-0.1570184,0.0811281
			C1.8782394,7.6547499,1.6773587,7.8252873,1.5119733,8.135375c0,0-0.0927633,0.170167-0.1346939,0.3415594
			c0,0-0.0498312,0.171423,0.0174476,0.3798485c0.013662,0.0423241,0.0321532,0.086174,0.0568714,0.1304245
			c0,0,0.091694,0.1803398,0.3565428,0.3883228c0,0,0.0086617,0.0071974,0.02499,0.0196304
			C1.9081383,9.4522762,2.1449239,9.6198711,2.4469998,9.707715c0,0,0.3070214,0.0937433,0.5420923,0.0967798
			c0,0,0.3954999,0.0365391,0.5265777-0.1445274c0,0,0.2255952-0.3014355,0.1847897-0.6922646
			C3.7004595,8.9677029,3.6756775,8.6684523,3.5939736,8.4624691z"/>
		<path class="st7" d="M4.5867214,8.4624691c0,0,0.1847496-0.6803255,0.8651199-0.9919605
			c0,0,0.2430019-0.1339593,0.5572977,0.0156026c0,0,0.0632143,0.0209007,0.1570182,0.0811281
			C6.3024554,7.6547499,6.503336,7.8252873,6.6687217,8.135375c0,0,0.0927629,0.170167,0.1346936,0.3415594
			c0,0,0.0498314,0.171423-0.0174475,0.3798485C6.772306,8.899107,6.7538147,8.9429569,6.7290964,8.9872074
			c0,0-0.0916939,0.1803398-0.3565426,0.3883228c0,0-0.0086617,0.0071974-0.0249901,0.0196304
			C6.2725568,9.4522762,6.0357709,9.6198711,5.733695,9.707715c0,0-0.3070211,0.0937433-0.5420923,0.0967798
			c0,0-0.3955002,0.0365391-0.5265775-0.1445274c0,0-0.2255955-0.3014355-0.1847897-0.6922646
			C4.4802356,8.9677029,4.5050173,8.6684523,4.5867214,8.4624691z"/>
		<path class="st58" d="M6.3263779,5.3261733c0,0,0.6364555-0.8365364,1.0634155-2.0333631
			c0,0,0.5775509-1.496866,0.2238383-2.1949477c0,0-0.3065467-0.6446501-0.9161439-0.6087865
			c0,0-0.0386138-0.0022364-0.1025124,0.0127216C6.4032788,0.546672,5.9840174,0.7462992,5.6970963,1.6253275
			c0,0-0.2070456,0.5606576-0.2701583,1.3986729c0,0-0.0383005,0.4417789-0.0308161,1.006851
			c0,0,0.0393658,0.5818481,0.0714889,0.9272065c0.0051675,0.0555558,0.014123,0.1079574,0.0274658,0.1621342
			c0.0272985,0.1108451,0.0791597,0.3083601,0.1323028,0.4408269l0.069788,0.1560407c0,0,0.0779757,0.1926665,0.2287273,0.0490589
			C5.9258947,5.7661185,6.181859,5.5324597,6.3263779,5.3261733z"/>
		<path class="st23" d="M2.8340302,9.7194757c0,0,0.4570227,0.0717554,0.6871846-0.3370934
			c0,0,0.1200736-0.22717,0.0631316-0.4298925c0,0-0.0675054-0.1503601-0.2077978-0.0330725
			c0,0-0.0716314,0.0828352-0.1942635,0.0602846C3.0642745,8.9580193,2.9848857,8.8670559,2.9848857,8.7309103
			c0,0-0.0008254-0.103548,0.1152871-0.1808529c0,0,0.1143796-0.1011343-0.0074272-0.217226
			c0,0-0.0510828-0.0507536-0.1808944-0.0443373c0,0-0.3289442-0.0139875-0.5426836,0.2351551
			c0,0-0.2522786,0.2345972-0.1607585,0.6572075C2.3000116,9.603466,2.6686504,9.7137613,2.8340302,9.7194757z"/>
		<path class="st23" d="M6.0041056,8.9883318c0.0064163-0.1298113-0.0443363-0.1808949-0.0443363-0.1808949
			c-0.1160922-0.1218061-0.217226-0.0074272-0.217226-0.0074272C5.6652379,8.9160395,5.5616899,8.9152975,5.5616899,8.9152975
			c-0.1361456,0-0.2271085-0.0794716-0.2487917-0.1974001C5.2903481,8.5951834,5.3731823,8.523634,5.3731823,8.523634
			c0.1172886-0.1402922-0.033072-0.2077971-0.033072-0.2077971C5.1373882,8.258812,4.9102178,8.3789682,4.9102178,8.3789682
			C4.501369,8.6091299,4.5731244,9.0660706,4.5731244,9.0660706c0.0057149,0.1654615,0.1160092,0.5341005,0.538619,0.6257029
			c0.4226098,0.0915203,0.6572075-0.160758,0.6572075-0.160758C6.0180936,9.317276,6.0041056,8.9883318,6.0041056,8.9883318z"/>
		<path class="st49" d="M7.974504,0.8109578c0,0-0.3187938-0.6539271-1.0394831-0.7899486
			C6.5962563-0.0429476,6.2522101,0.0387933,5.9971256,0.2707088c-0.2378368,0.2161533-0.5123968,0.6081051-0.6764565,1.314291
			c0,0-0.2979145,1.0971267-0.3378568,2.1430469c0,0-0.0074272,0.2410965-0.0268207,0.6060007
			C4.7676702,4.3563085,4.6449556,4.4549875,4.5781107,4.5384407C4.5063138,4.2999439,4.343575,4.0741558,4.3356524,4.0629325
			L4.1722531,3.838135l0.0734472,0.2680409c0.0831852,0.3036914-0.0292139,0.5355864-0.0970492,0.6397324
			c-0.1452436-0.2883415-0.146894-0.5611691-0.146894-0.5639749l0.000165-0.1419425L3.9119699,4.1495838
			C3.7936292,4.2936721,3.7366872,4.4371004,3.710114,4.5518098C3.5571129,4.2052054,3.3585582,4.1017194,3.3486552,4.0967679
			l-0.106127-0.0534763L3.2773538,4.156846c0.0442333,0.1442533,0.0019805,0.3231673-0.033175,0.4311099
			C3.2417855,4.5832105,3.2404652,4.5784655,3.2381544,4.5736995C3.215625,4.1974068,3.2040715,3.9083016,3.1999454,3.7894247
			l0.016835-0.0765624L3.1982949,3.7406111C3.1980474,3.7348137,3.1978822,3.7280467,3.1978822,3.7280467
			c-0.039942-1.0459201-0.3378568-2.1430469-0.3378568-2.1430469C2.695966,0.8788139,2.4214058,0.4868621,2.1835692,0.2707088
			C1.9284848,0.0387933,1.5844387-0.0429476,1.245674,0.0210092C0.5249844,0.1570308,0.2061909,0.8109578,0.2061909,0.8109578
			c-0.3310898,0.6601164-0.1640594,1.5803099-0.1640594,1.5803099c0.1026609,0.865005,0.6186064,2.0165567,0.6186064,2.0165567
			c0.2522785,0.6299539,0.8287147,1.6485581,0.8287147,1.6485581C1.5579481,6.1779003,1.4812826,6.233192,1.4812826,6.233192
			c-0.300308,0.2866712-0.4909405,0.6254563-0.4909405,0.6254563C0.5932325,7.5108628,0.6993595,8.5790234,0.7457384,8.9169416
			c0.0108933,0.0792866,0.0203011,0.1587572,0.0266555,0.2385178l0.1468943,1.8653507
			c0.0483596,0.9438581,0.4550421,1.9071083,0.5966548,2.2169485c-0.009573,0.2819872,0.0613159,0.6348019,0.3741677,0.9466839
			c0.013204,0.0151844,0.3343906,0.3740025,1.1726782,0.5751982c0.0051167,0.0008249,0.5098388,0.0864859,1.0275998,0.0864859
			c0.5175958,0,1.0223179-0.0856609,1.0307355-0.0871458c0.8349867-0.2005358,1.1560082-0.5593538,1.1669016-0.5718975
			c0.3140073-0.3132029,0.3860512-0.6672134,0.3768086-0.9495726c0.141695-0.3101282,0.5482125-1.2731113,0.5965719-2.2167006
			l0.1468945-1.8653507c0.0063543-0.0797606,0.0157623-0.1592312,0.0266557-0.2385178
			c0.0463786-0.3379183,0.1525059-1.4060788-0.2446036-2.0582933c0,0-0.1906328-0.3387852-0.4909406-0.6254563
			c0,0-0.0766659-0.0552917-0.0081701-0.1768093c0,0,0.576436-1.0186043,0.8287148-1.6485581
			c0,0,0.515945-1.1515517,0.6186061-2.0165567C8.1385632,2.3912678,8.3055935,1.4710742,7.974504,0.8109578z M3.3006258,4.7261024
			c0.0051165-0.0113883,0.1074474-0.2394872,0.0962238-0.4644499c0.0853307,0.0833502,0.2104385,0.2464194,0.2947788,0.5374022
			l0.09903-0.0203013C3.7903283,4.7762775,3.7675514,4.5635285,3.9123001,4.3240414
			c0.0184855,0.1308842,0.0656898,0.335381,0.1860108,0.5413632l0.0349908,0.0599127l0.0463786-0.0514956
			c0.009738-0.0108929,0.1959143-0.222322,0.1969047-0.5504408c0.0552917,0.1034865,0.1117387,0.2323904,0.1285734,0.3513908
			L4.5309062,4.857317l0.0711365-0.170001c0.0011554-0.0026412,0.1041465-0.2403126,0.387372-0.2596235
			C4.9194336,4.5361304,4.830802,4.7419472,4.9238896,5.0058618l0.0118837,0.033505l0.0353208,0.0003304
			c0.00033,0,0.000495,0,0.0006599,0c0.0113888,0,0.0889621-0.0031362,0.16538-0.085166
			C5.2350087,4.8495598,5.2863388,4.66784,5.2906303,4.412508C5.3914757,4.6658592,5.5045347,5.0829401,5.3186889,5.38201
			L5.2992129,5.4140296l0.0245924,0.0282235c0.009903,0.0113888,0.2150598,0.2558274,0.0597482,0.7782097
			C5.3564854,6.0753841,5.2952518,5.8979554,5.15661,5.802722L5.0463567,5.727129l0.0323496,0.1298943
			c0.0008254,0.0034661,0.0717969,0.3066626-0.1686807,0.8414235C4.9029284,6.4366779,4.8091803,6.0303254,4.3747692,5.6685362
			L4.2121954,5.5333605l0.0835152,0.1944289c0.0019808,0.0042911,0.1686807,0.411634-0.2483997,1.0097742
			C4.0491261,6.5375233,4.0169415,6.204123,3.8169012,5.9530821L3.8020468,5.9342666l-0.0239322-0.00033
			C3.7652407,5.9370723,3.7178714,5.9357519,3.6579583,5.9956651C3.5559576,6.0981607,3.4392674,6.3587742,3.4232576,7.0115461
			C3.3468397,6.7568746,3.2636545,6.3556385,3.3347909,5.9611697l0.0247576-0.1369915L3.2525961,5.9131403
			C3.2440135,5.9200721,3.069226,6.0709276,3.0639443,6.4843774c-0.1079423-0.1921182-0.2500503-0.5271692-0.1360009-0.8132
			l0.013864-0.0353208l-0.0295439-0.023437C2.8865159,5.5921183,2.329143,5.1346006,2.7199807,4.0548453
			C2.7265828,4.2192349,2.7518353,4.4503045,2.823632,4.734025l0.1128941,0.4456339L2.9234872,4.7201605
			c0-0.0029707-0.0051167-0.2472444,0.1191659-0.5283241c0.0054464,0.1508555,0.0419226,0.3523812,0.1696711,0.5416932
			l0.0506701,0.0749326L3.3006258,4.7261024z M0.790962,3.2928107c0,0-0.577509-1.4968567-0.2238074-2.1949551
			c0,0,0.3065798-0.6446431,0.916191-0.608786c0,0,0.0386217-0.0022282,0.1024959,0.0127295
			c0.1917052,0.0448729,0.6109315,0.2445005,0.8978707,1.1235347c0,0,0.2070549,0.5606534,0.2701862,1.3986728
			c0,0,0.0219517,0.2550223,0.0292964,0.6246719L2.7318645,3.7600663c-0.3670707,0.79686-0.2655652,1.3201506-0.1172678,1.619179
			c-0.0193934,0.0644522-0.0396945,0.1282849-0.061151,0.1817818L2.4836295,5.717061c0,0-0.077986,0.1926751-0.2286763,0.0490608
			c0,0-0.2559922-0.2336688-0.4005756-0.43994C1.8543775,5.3261819,1.2179457,4.4896479,0.790962,3.2928107z M1.394879,8.856781
			C1.3276212,8.648344,1.3774663,8.4769192,1.3774663,8.4769192c0.0419226-0.1713829,0.1346805-0.3415499,0.1346805-0.3415499
			c0.1653799-0.3100867,0.3662454-0.4806247,0.5025765-0.5681419c0.0938308-0.0602226,0.1570449-0.0811219,0.1570449-0.0811219
			c0.3142545-0.1495557,0.5572903-0.0155973,0.5572903-0.0155973c0.680335,0.3116345,0.8651083,0.9919486,0.8651083,0.9919486
			c0.0816996,0.2059822,0.106457,0.5052385,0.106457,0.5052385C3.7414734,9.3585329,3.5158505,9.659955,3.5158505,9.659955
			C3.3848011,9.8410349,2.9892595,9.8044968,2.9892595,9.8044968C2.7542286,9.8014431,2.4471536,9.707716,2.4471536,9.707716
			c-0.3020411-0.0878477-0.5388049-0.255435-0.61382-0.3125629c-0.0163399-0.0124407-0.025005-0.0196199-0.025005-0.0196199
			c-0.2649049-0.207984-0.3565074-0.3883209-0.3565074-0.3883209C1.4270637,8.9429579,1.4085782,8.8990965,1.394879,8.856781z
			 M6.2140837,14.1175976c-0.0029712,0.0034657-0.3165655,0.350565-1.1134257,0.5420227
			c-0.0049515,0.0008249-0.501256,0.085166-1.0104342,0.085166c-0.5086834,0-1.0053182-0.084341-1.0069685-0.084506
			c-0.8001611-0.1921177-1.1139207-0.539217-1.1192023-0.5451584c-0.5950043-0.5931892-0.2586329-1.3250198-0.2426231-1.3590202
			c0.2824-0.7159853,0.6410531-1.0909786,0.6476551-1.0979109c0.5194941-0.6403103,1.2092369-0.8011513,1.5356226-0.841609
			c0.1144621-0.0119038,0.1852682-0.0108109,0.1856811-0.0108109c0.000495,0,0.1149569-0.0012379,0.2905698,0.0248194
			c0.3534541,0.0610275,0.9624877,0.2506905,1.4335394,0.8309021c0.0034661,0.0036306,0.3621192,0.378624,0.6445193,1.0946093
			l0.0014853,0.0031366C6.4639688,12.7668304,6.8127189,13.5206127,6.2140837,14.1175976z M6.6685481,8.1353693
			c0,0,0.0927577,0.170167,0.1346803,0.3415499c0,0,0.0498452,0.1714249-0.0174127,0.3798618
			c-0.0136991,0.0423155-0.0321846,0.0861769-0.056942,0.1304312c0,0-0.0916028,0.180337-0.3565073,0.3883209
			c0,0-0.0086651,0.0071793-0.0250053,0.0196199C6.272346,9.452281,6.0355821,9.6198683,5.7335415,9.707716
			c0,0-0.307075,0.0937271-0.5421062,0.0967808c0,0-0.3955417,0.0365381-0.5265913-0.1445417
			c0,0-0.2256227-0.3014221-0.184773-0.6922598c0,0,0.0247574-0.2992563,0.1064572-0.5052385
			c0,0,0.184773-0.6803141,0.865108-0.9919486c0,0,0.2430358-0.1339583,0.5572906,0.0155973
			c0,0,0.0632138,0.0208993,0.1570449,0.0811219C6.3023028,7.6547446,6.5031681,7.8252826,6.6685481,8.1353693z
			 M7.3897328,3.2928107C6.962749,4.4896479,6.3263173,5.3261819,6.3263173,5.3261819
			c-0.1445837,0.2062712-0.4005756,0.43994-0.4005756,0.43994C5.7750511,5.9097362,5.6970654,5.717061,5.6970654,5.717061
			l-0.0698161-0.156034C5.5786419,5.4397774,5.5319328,5.2669497,5.5032969,5.1530657
			c0.0368886-0.226799-0.0101504-0.4627585-0.0734472-0.652421c-0.018898-0.2495966-0.0338349-0.4697938-0.0338349-0.4697938
			C5.388505,3.4657826,5.4267964,3.0240066,5.4267964,3.0240066c0.0631313-0.8380194,0.2701864-1.3986728,0.2701864-1.3986728
			C5.9839215,0.7462996,6.4031482,0.5466719,6.5948534,0.501799c0.0638742-0.0149576,0.1024957-0.0127295,0.1024957-0.0127295
			c0.609611-0.0358571,0.9161911,0.608786,0.9161911,0.608786C7.9672418,1.795954,7.3897328,3.2928107,7.3897328,3.2928107z"/>
		<path d="M5.4228134,5.3972707C5.702991,4.8909788,5.2929606,4.1621661,5.2749949,4.1307473L5.1605177,3.930537
			l0.0188007,0.2298744c0.00493,0.0609155,0.007771,0.1169844,0.0086904,0.1687083l-0.0922503-0.009192
			C4.8239369,4.2926035,4.6609106,4.4263,4.5778518,4.5291629C4.5060735,4.2909322,4.3436322,4.0656538,4.3356104,4.0546241
			L4.1702447,3.8270893l0.074285,0.2712369c0.0828919,0.3025713-0.0284939,0.533783-0.0962615,0.6383166
			c-0.1447263-0.2877817-0.1463141-0.5597701-0.1463141-0.562695l0.0001674-0.14364L3.9109571,4.1412759
			c-0.1176529,0.1433058-0.1746409,0.286027-0.2015474,0.4005046c-0.1529989-0.3453546-0.3510365-0.4486351-0.3608968-0.453649
			L3.241138,4.0340681l0.0352623,0.1149788C3.320353,4.2924366,3.2787402,4.4703364,3.2437284,4.5783796
			C3.0931528,4.280571,3.1582463,3.9716487,3.1589983,3.9683063l0.0585756-0.2666409L3.0661628,3.9286985
			C2.9541085,4.0966549,2.8931096,4.2659478,2.859936,4.4042401C2.796263,4.0168548,2.8278489,3.7835543,2.8282666,3.7807133
			L2.877985,3.4324341L2.7308354,3.7518852C2.1778336,4.9521451,2.687217,5.5351448,2.8201613,5.6598167
			c-0.159266,0.4728675,0.244163,1.0121655,0.2618778,1.0354791l0.1102996,0.1453114L3.1739554,6.6590304
			C3.1526477,6.4488764,3.1742063,6.2963791,3.2065439,6.1900902c-0.0233133,0.5824151,0.208483,1.0994864,0.2197635,1.1242199
			l0.1025286,0.225028L3.5243237,7.2920833C3.5057733,6.2693057,3.6965415,6.0729389,3.7575405,6.0361724
			c0.2462523,0.340508,0.1782341,0.8462982,0.1774821,0.8515625L3.9090352,7.0713172L4.0256853,6.927259
			c0.3919811-0.4839811,0.4257398-0.8705306,0.4026771-1.0792642c0.5136452,0.5165696,0.3641558,1.0641398,0.3570533,1.0887899
			L4.6622477,7.364697l0.2172565-0.388555c0.2646356-0.4732018,0.3120141-0.8143787,0.3120141-0.9978771
			c0.1145611,0.1797385,0.1106339,0.4589968,0.1105504,0.4624228l-0.0052643,0.263382l0.1037817-0.242074
			C5.6658063,5.8435659,5.4909148,5.4978771,5.4228134,5.3972707z M5.1270099,4.4072485l0.0612497-0.0617514
			c0.003593,0.3124318-0.0614171,0.4585791-0.1220818,0.5269313C5.0440345,4.8974128,5.0225596,4.9115348,5.005764,4.9194727
			C4.9234571,4.6170683,5.1182361,4.4160223,5.1270099,4.4072485z"/>
		<path class="st46" d="M6.5629473,12.732583c-0.2980027-0.7552834-0.6731334-1.141284-0.6731334-1.141284
			c-0.7400908-0.9119978-1.8065777-0.8979492-1.8081031-0.8979063l0,0H4.0816259H4.0815411l0,0
			c-0.0016103-0.0000429-1.0680971-0.0140915-1.808188,0.8979063c0,0-0.3751308,0.3860006-0.6731335,1.141284
			c0,0-0.3847082,0.8079805,0.2609643,1.451746c0,0,0.3226666,0.3693466,1.1739576,0.5736933
			c0,0,0.5131137,0.0881042,1.0463996,0.0881042l0,0c0,0,0,0,0.0000849,0c0,0,0,0,0.0000849,0l0,0
			c0.5332856,0,1.0463996-0.0881042,1.0463996-0.0881042c0.8512907-0.2043467,1.1738725-0.5736933,1.1738725-0.5736933
			C6.9476557,13.5405636,6.5629473,12.732583,6.5629473,12.732583z"/>
		<path class="st23" d="M2.8270156,12.960041c0,0,0.2632542,0.1812658,0.5951693,0.3248596
			c0,0,0.1428504,0.0793266,0.206147,0.0506287c0,0,0.0722094-0.0223436,0.0770783-0.0886936
			c0,0-0.0023932-0.0345154-0.0249226-0.0637503c0,0-0.2845457-0.3547125-0.3595607-0.6687193
			c0,0-0.0311944-0.0704556-0.0373838-0.2351961c0,0,0.0054467-0.2611084-0.2021034-0.3861341
			c0,0-0.1220543-0.0926962-0.3104587-0.0775528c0,0-0.3837407,0.0259342-0.4241776,0.4326372
			c0,0-0.0040438,0.2085199,0.1227143,0.3889399C2.5961936,12.8175001,2.8270156,12.960041,2.8270156,12.960041z"/>
		<path class="st23" d="M4.5521979,13.3355293c0.0632963,0.028698,0.2061472-0.0506287,0.2061472-0.0506287
			C5.09026,13.1413069,5.3535142,12.960041,5.3535142,12.960041s0.2307396-0.1425409,0.3574977-0.3229809
			c0.1267581-0.1804199,0.122632-0.3889399,0.122632-0.3889399c-0.0403547-0.406703-0.4240952-0.4326372-0.4240952-0.4326372
			c-0.1884046-0.0151434-0.3104587,0.0775528-0.3104587,0.0775528c-0.20755,0.1250257-0.2021036,0.3861341-0.2021036,0.3861341
			c-0.0062718,0.1647406-0.037466,0.2351961-0.037466,0.2351961C4.7845879,12.828373,4.500042,13.1830854,4.500042,13.1830854
			c-0.0226116,0.0292349-0.0249224,0.0637503-0.0249224,0.0637503C4.4799061,13.3131857,4.5521979,13.3355293,4.5521979,13.3355293z
			"/>
		<path class="st7" d="M2.2778125,13.5640202c0.6935391,0.9781876,1.7761827,0.9379368,1.8094401,0.936451
			c0.03334,0.0014858,1.1219258,0.0417366,1.8154645-0.936451c0,0-0.898778,0.6122932-1.815712,0.6135721
			C3.1702363,14.1760864,2.2778125,13.5640202,2.2778125,13.5640202z"/>
	</g>
	<g>
		<path class="st13" d="M16.2830658,5.0472302h-2.3668833h-0.0065308h-2.0137329c0,0-1.6699829-0.0756836-1.6682129,1.6367188
			v4.3842769c0,0,0.0250854,1.4941406,1.6945801,1.4881592l2.4351807,0.0008545l0.0002441-0.0008545h1.8990488
			c1.6694336,0.0059814,1.694519-1.3572998,1.694519-1.3572998V6.683949
			C17.9530487,4.9715466,16.2830658,5.0472302,16.2830658,5.0472302z M16.9421234,7.0228162v3.7214351
			c0,0.9296875-0.835083,0.8540039-0.835083,0.8540039h-1.7155771c-0.0057983,0.0001221-0.0107422,0.0021973-0.0163574,0.0030518
			c-0.0060425-0.0012207-0.0125122-0.0029297-0.0176392-0.0030518h-2.2855225c0,0-0.835083,0.0756836-0.835083-0.8540039V7.0228162
			c0,0-0.1173096-1.0240479,1.0598145-1.0240479h1.6129761h0.0065308h1.9661255
			C17.059494,5.9987683,16.9421234,7.0228162,16.9421234,7.0228162z"/>
		<path class="st13" d="M22.7311859,7.0275769h-4.0089111c-0.0689087,0-0.1247559,0.0557861-0.1247559,0.1246338v7.4133296
			c0,0.0689697,0.0558472,0.1247559,0.1247559,0.1247559h0.7329712c0.0688477,0,0.1246948-0.0557861,0.1246948-0.1247559V12.556385
			h3.3596802c1.2964478,0,1.296814-1.3275146,1.296814-1.3275146s0-1.2868652,0-2.7116699
			C24.2364349,7.0925183,22.7311859,7.0275769,22.7311859,7.0275769z M23.2567596,10.8148079
			c0,0.8450928-0.8271484,0.7834473-0.8271484,0.7834473H20.753952h-1.1740112V8.1097298
			c0-0.0688477,0.0558472-0.1247554,0.1247559-0.1247554h2.6849365c0.8939819,0,0.8671265,0.6789546,0.8671265,0.6789546
			S23.2567596,9.8918343,23.2567596,10.8148079z"/>
		<path class="st13" d="M28.962265,7.0269666h-2.6178589c-1.4411621,0-1.4821167,1.4145503-1.4821167,1.4145503V11.25597
			c0,1.3391113,1.1627197,1.2998047,1.1627197,1.2998047h3.8383179c0.0689087,0,0.1247559-0.0559082,0.1247559-0.1247559V11.723011
			c0-0.0688477-0.0558472-0.1247559-0.1247559-0.1247559h-3.2265015c-0.8623657,0-0.8129272-0.7165527-0.8129272-0.7165527
			v-0.5843506h4.5466919c0.0689087,0,0.1247559-0.0557861,0.1247559-0.1246338v-1.751709
			C30.4953461,6.9864392,28.962265,7.0269666,28.962265,7.0269666z M29.5286102,9.2104378
			c0,0.0689697-0.0407104,0.1248779-0.1247559,0.1248779h-3.5799561V8.8721809c0-0.9792476,0.7241821-0.8872066,0.7241821-0.8872066
			h2.2095947c0.7740479,0,0.7709351,0.6789546,0.7709351,0.6789546V9.2104378z"/>
		<path class="st13" d="M35.3536835,7.0275769h-2.758728c0,0-1.473877-0.0321045-1.473877,1.5931392v3.8103027
			c0,0.0689697,0.0558472,0.1247559,0.1247559,0.1247559h0.725708c0.0689087,0,0.1247559-0.0557861,0.1247559-0.1247559V8.7668343
			c0,0-0.0289917-0.7818599,0.868042-0.7818599h2.0990601c0,0,0.8079834-0.0734863,0.8079834,0.8193355v3.626709
			c0,0.0688477,0.0558472,0.1247559,0.1246948,0.1247559h0.7229004c0.0688477,0,0.1246948-0.0559082,0.1246948-0.1247559V8.401722
			C36.8436737,8.401722,36.7615204,7.0275769,35.3536835,7.0275769z"/>
		<path class="st13" d="M44.5154877,5.0406384h-5.2408447c-1.8511353,0-1.8106689,1.5750732-1.8106689,1.5750732
			s0,2.6961665,0,4.3572993c0,1.661377,1.6872559,1.5827637,1.6872559,1.5827637h5.3642578
			c0.0689087,0,0.1247559-0.0557861,0.1247559-0.1247559v-0.7050781c0-0.0701904-0.0574341-0.1276855-0.1276855-0.1276855
			h-4.7727661C38.3796234,11.68993,38.47966,10.6890755,38.47966,10.6890755V9.1193733h5.06604
			c0.0370483,0,0.0671387-0.0301514,0.0671387-0.0672607V8.292469c0-0.0369873-0.0300903-0.0671387-0.0671387-0.0671387h-5.06604
			V7.0880017c0-1.2270508,0.9753418-1.0891113,0.9753418-1.0891113h5.0604858c0.0689087,0,0.1247559-0.0559082,0.1247559-0.1247559
			V5.1653943C44.6402435,5.0965466,44.5843964,5.0406384,44.5154877,5.0406384z"/>
		<path class="st13" d="M58.7412567,8.2253304h-3.774353c-0.84729,0-0.8336792-0.7713618-0.8336792-0.7713618V6.8616834
			c0-0.93396,0.8220825-0.862793,0.8220825-0.862793h4.7347412c0.0692139,0,0.1253662-0.0561523,0.1253662-0.1254883V5.1661267
			c0-0.0693359-0.0561523-0.1254883-0.1253662-0.1254883h-5.0947266c-1.6486206,0-1.4777832,1.4378662-1.4777832,1.4378662
			v1.3122559c0,1.4066157,1.4661255,1.3286128,1.4661255,1.3286128h3.6697998c1.1032715,0,0.9755249,0.8895264,0.9755249,0.8895264
			v0.6154785c0,1.1264648-0.859375,0.973877-0.859375,0.973877h-5.2520752v0.9581299h5.6469116
			c1.4284058,0,1.4632568-1.4210205,1.4632568-1.4210205V9.5908089C60.2277069,8.2088509,58.7412567,8.2253304,58.7412567,8.2253304
			z"/>
		<path class="st13" d="M51.0957489,5.0406384h-4.8251953h-1.0152588v7.2116694
			c0,0.1677246,0.1358643,0.3034668,0.3034668,0.3034668h0.5968628v0.0048828l4.9401245-0.0192871
			c1.47052,0,1.4241333-1.3615723,1.4241333-1.3615723V9.5457649c0-0.8305664-0.6994629-0.8734131-0.6994629-0.8734131
			c0.7663574-0.1976318,0.6994629-0.8829341,0.6994629-0.8829341l0.019165-1.3752441
			C52.5390472,5.0665174,51.0957489,5.0406384,51.0957489,5.0406384z M51.4857635,10.9073372
			c0,0.6948242-0.6487427,0.690918-0.6487427,0.690918h-4.5664673V9.1193733H50.82341
			c0.6812134,0,0.6623535,0.5898438,0.6623535,0.5898438V10.9073372z M51.4857635,7.6259656
			c0,0.5037837-0.6487427,0.5855708-0.6487427,0.5855708h-4.5664673V5.9783826h4.5392456
			c0.6127319,0,0.6759644,0.5855713,0.6759644,0.5855713V7.6259656z"/>
	</g>
</g>
</svg>
