<svg width="32" height="28" viewBox="0 0 32 28" fill="none" xmlns="http://www.w3.org/2000/svg">
<g clip-path="url(#clip0)">
<path d="M29.9607 21.6675C28.2948 22.5856 19.6649 26.3372 17.8276 27.3497C15.9903 28.3623 14.9697 28.3528 13.5183 27.6194C12.067 26.886 2.8832 22.9637 1.22889 22.1277C0.402012 21.7098 -0.0327148 21.3574 -0.0327148 21.0241V17.6879C-0.0327148 17.6879 11.9233 14.936 13.8536 14.2039C15.7839 13.4719 16.4533 13.4473 18.0959 14.0817C19.7385 14.7161 29.5603 16.5915 31.1836 17.2202L31.1828 20.5088C31.183 20.8386 30.8085 21.2005 29.9607 21.6677V21.6675Z" fill="#A41E11"/>
<path d="M29.9606 18.3303C28.2947 19.248 19.6648 23 17.8275 24.0126C15.9902 25.0252 14.9696 25.0157 13.5182 24.2823C12.0669 23.5489 2.88311 19.6262 1.2288 18.7905C-0.425514 17.9549 -0.460198 17.379 1.16494 16.7064L13.8537 11.5125C15.7838 10.7806 16.4534 10.7558 18.096 11.3902C19.7385 12.0247 28.3173 15.6365 29.9404 16.2652C31.5635 16.8938 31.6265 17.4124 29.9588 18.3305L29.9606 18.3303Z" fill="#D82C20"/>
<path d="M29.9607 16.2281C28.2948 17.1462 19.6649 20.8978 17.8276 21.9109C15.9903 22.9241 14.9697 22.9136 13.5183 22.1801C12.067 21.4465 2.8832 17.5244 1.22889 16.6883C0.402012 16.2704 -0.0327148 15.9181 -0.0327148 15.5851V12.2486C-0.0327148 12.2486 11.9233 9.49678 13.8536 8.76455C15.7839 8.03232 16.4533 8.00787 18.0959 8.64232C19.7385 9.27676 29.5603 11.1518 31.1836 11.7806L31.1828 15.0698C31.183 15.3996 30.8085 15.7613 29.9607 16.2285V16.2281Z" fill="#A41E11"/>
<path d="M29.9606 12.8907C28.2947 13.8088 19.6648 17.5604 17.8275 18.5736C15.9902 19.5867 14.9696 19.5763 13.5182 18.8427C12.0669 18.1091 2.88311 14.1868 1.2288 13.351C-0.425514 12.5151 -0.460198 11.9396 1.16494 11.2666L13.8537 6.07308C15.7838 5.34104 16.4534 5.3164 18.096 5.95084C19.7385 6.58529 28.3173 10.197 29.9404 10.8258C31.5635 11.4546 31.6265 11.973 29.9588 12.8911L29.9606 12.8907Z" fill="#D82C20"/>
<path d="M29.9607 10.5851C28.2948 11.5032 19.6649 15.2551 17.8276 16.2699C15.9903 17.2846 14.9697 17.2725 13.5183 16.539C12.067 15.8054 2.8832 11.8831 1.22889 11.0472C0.402012 10.6293 -0.0327148 10.277 -0.0327148 9.94403V6.60572C-0.0327148 6.60572 11.9233 3.85394 13.8536 3.1219C15.7839 2.38986 16.4533 2.36523 18.0959 2.99967C19.7385 3.63412 29.5603 5.50912 31.1836 6.13794L31.1828 9.42696C31.183 9.75641 30.8085 10.1183 29.9607 10.5853V10.5851Z" fill="#A41E11"/>
<path d="M29.9606 7.24804C28.2947 8.16614 19.6648 11.9181 17.8275 12.9309C15.9902 13.9437 14.9696 13.9336 13.5182 13.2002C12.0669 12.4668 2.88311 8.54428 1.2288 7.70844C-0.425514 6.8726 -0.460198 6.29695 1.16494 5.62409L13.8537 0.430566C15.7838 -0.301665 16.4534 -0.326113 18.096 0.308332C19.7385 0.942777 28.3173 4.55446 29.9404 5.18328C31.5635 5.8121 31.6265 6.33032 29.9588 7.24823L29.9606 7.24804Z" fill="#D82C20"/>
<path d="M15.3772 4.15294L12.2539 3.85609L14.5844 2.96748L13.8871 1.60352L16.0708 2.50571L18.1261 1.79365L17.5701 3.20418L19.6675 4.03458L16.9627 4.33143L16.3571 5.87195L15.3772 4.15294ZM11.1455 9.29446L18.3793 8.12064L16.1956 11.5082L11.1455 9.29446Z" fill="white"/>
<path d="M9.19491 8.05975C11.3302 8.05975 13.0612 7.35031 13.0612 6.47518C13.0612 5.60006 11.3302 4.89062 9.19491 4.89062C7.05961 4.89062 5.32861 5.60006 5.32861 6.47518C5.32861 7.35031 7.05961 8.05975 9.19491 8.05975Z" fill="white"/>
<path d="M27.1434 6.24588L22.8677 8.03086V4.45508L27.1434 6.24588Z" fill="#7A0C00"/>
<path d="M22.8645 4.45703V8.03282L22.4002 8.22684L18.1245 6.44185L22.8645 4.45703Z" fill="#AD2115"/>
</g>
<defs>
<clipPath id="clip0">
<rect width="32" height="28" fill="white"/>
</clipPath>
</defs>
</svg>
