<?xml version="1.0" encoding="UTF-8"?>
<svg width="24px" height="24px" viewBox="0 0 24 24" version="1.1" xmlns="http://www.w3.org/2000/svg" xmlns:xlink="http://www.w3.org/1999/xlink">
    <!-- Generator: Sketch 54.1 (76490) - https://sketchapp.com -->
    <title>FACEBOOK Copy 3</title>
    <desc>Created with Sketch.</desc>
    <g id="FACEBOOK-Copy-3" stroke="none" stroke-width="1" fill="none" fill-rule="evenodd">
        <path d="M2.20547471,0.680161943 C1.36314141,0.680161943 0.680161943,1.36314141 0.680161943,2.20547471 L0.680161943,21.7945253 C0.680161943,22.6368586 1.36314141,23.3198381 2.20547471,23.3198381 L21.7945253,23.3198381 C22.6368586,23.3198381 23.3198381,22.6368586 23.3198381,21.7945253 L23.3198381,2.20547471 C23.3198381,1.36314141 22.6368586,0.680161943 21.7945253,0.680161943 L2.20547471,0.680161943 Z M2.20547471,0 L21.7945253,0 C23.0125017,0 24,0.987498344 24,2.20547471 L24,21.7945253 C24,23.0125017 23.0125017,24 21.7945253,24 L2.20547471,24 C0.987498344,24 0,23.0125017 0,21.7945253 L0,2.20547471 C0,0.987498344 0.987498344,0 2.20547471,0 Z" id="Rectangle-Copy-14_11_" fill="#FFFFFF" fill-rule="nonzero"></path>
        <path d="M13.9526507,24 C13.9526507,21.1642617 13.9510722,18.3285234 13.9558077,15.492785 C13.9558077,15.3444397 13.9179231,15.3077437 13.7695414,15.3085245 C12.8958262,15.3155514 12.0221109,15.310086 11.1483956,15.3147706 C11.038688,15.3155514 11.000014,15.2944707 11.000014,15.1757945 C11.0047496,14.1553347 11.0047496,13.1340941 11.000014,12.1128535 C10.9992247,11.9980811 11.0315846,11.9699736 11.1452386,11.9707543 C12.0244787,11.9754389 12.9037188,11.9707543 13.7821697,11.9762197 C13.9139768,11.9770004 13.956597,11.9512352 13.9550185,11.8114783 C13.9471258,11.0393017 13.9510722,10.2663444 13.9510722,9.49416788 C13.9510722,8.75322194 14.0528872,8.02867206 14.3543861,7.34472196 C14.9123957,6.08066349 15.9108147,5.36860585 17.2580884,5.10002271 C17.9013386,4.97197726 18.5509028,4.99696173 19.2004671,5.01413856 C19.7458486,5.0289731 20.29123,5.05629987 20.8358222,5.09924194 C20.9557903,5.10861112 21.0007783,5.14062249 20.9999891,5.27101023 C20.993675,6.18918982 20.993675,7.10736941 20.9999891,8.025549 C21.0007783,8.15827904 20.9589473,8.18326352 20.8358222,8.18248275 C20.2462419,8.17623664 19.6566617,8.1793597 19.0670815,8.18014046 C18.8089922,8.18014046 18.5548492,8.20980953 18.3085988,8.28710526 C17.8026805,8.44716208 17.561955,8.81568313 17.490132,9.31693424 C17.445144,9.62924022 17.46014,9.94232697 17.4585614,10.2554137 C17.4561936,10.779307 17.4625078,11.3032003 17.4546151,11.8270936 C17.4530366,11.9535775 17.4924998,11.9762197 17.6108894,11.9754389 C18.6377219,11.9707543 19.6637651,11.9730966 20.6905976,11.9723159 C20.7766274,11.9723159 20.8484504,11.9590428 20.829508,12.0933344 C20.689019,13.114575 20.5516871,14.1365963 20.4238263,15.1593984 C20.4064625,15.2983746 20.3520033,15.3155514 20.2296674,15.3147706 C19.361477,15.310086 18.4932866,15.3155514 17.6250961,15.3085245 C17.4893427,15.3077437 17.4546151,15.3405359 17.4554044,15.476389 C17.4593507,18.3175926 17.4585614,21.1587963 17.4585614,24 C16.2904507,24 15.1215507,24 13.9526507,24 Z" id="Path" fill="#FFFFFF" fill-rule="nonzero"></path>
    </g>
</svg>