<?xml version="1.0" encoding="UTF-8"?>
<svg width="24px" height="24px" viewBox="0 0 24 24" version="1.1" xmlns="http://www.w3.org/2000/svg" xmlns:xlink="http://www.w3.org/1999/xlink">
    <!-- Generator: Sketch 54.1 (76490) - https://sketchapp.com -->
    <title>LINKEDIN Copy 3</title>
    <desc>Created with Sketch.</desc>
    <g id="LINKEDIN-Copy-3" stroke="none" stroke-width="1" fill="none" fill-rule="evenodd">
        <path d="M1.92,0.672 C1.23074863,0.672 0.672,1.23074863 0.672,1.92 L0.672,22.08 C0.672,22.7692514 1.23074863,23.328 1.92,23.328 L22.08,23.328 C22.7692514,23.328 23.328,22.7692514 23.328,22.08 L23.328,1.92 C23.328,1.23074863 22.7692514,0.672 22.08,0.672 L1.92,0.672 Z M1.92,4.26325641e-16 L22.08,0 C23.1403867,-1.9478988e-16 24,0.85961328 24,1.92 L24,22.08 C24,23.1403867 23.1403867,24 22.08,24 L1.92,24 C0.85961328,24 5.56185562e-16,23.1403867 4.26325641e-16,22.08 L0,1.92 C-1.2985992e-16,0.85961328 0.85961328,6.21115522e-16 1.92,4.26325641e-16 Z" id="Rectangle-Copy-14" fill="#FFFFFF" fill-rule="nonzero"></path>
        <path d="M20.3284016,20.49584 C19.1118118,20.49584 17.9032258,20.49584 16.6386127,20.49584 C16.6386127,20.3361514 16.6386127,20.200416 16.6386127,20.0646806 C16.6386127,18.2921363 16.6386127,16.5116076 16.6386127,14.7390633 C16.6386127,14.3957327 16.614601,14.052402 16.5585739,13.7090714 C16.3744846,12.5433441 15.678147,11.9684648 14.5656076,12.0483092 C13.5731264,12.1201691 12.7407228,12.9824879 12.7327189,14.0124799 C12.7167111,15.4576624 12.724715,16.8948604 12.724715,18.3400429 C12.724715,19.0426731 12.724715,19.7373188 12.724715,20.4639023 C11.4921174,20.4639023 10.2835314,20.4639023 9.05093379,20.4639023 C9.05093379,16.7830784 9.05093379,13.1022544 9.05093379,9.39747719 C10.2675236,9.39747719 11.4761096,9.39747719 12.7167111,9.39747719 C12.7167111,9.87654321 12.7167111,10.3476248 12.7167111,10.8905663 C12.8207616,10.7787842 12.8847926,10.7308776 12.9328159,10.6670021 C13.8852777,9.34158615 15.2219258,8.9743022 16.7586709,9.17391304 C18.2714043,9.36553945 19.3439243,10.1799517 19.8801843,11.6091653 C20.104293,12.2000134 20.1923357,12.8307837 20.3364055,13.4455851 C20.3284016,15.7930086 20.3284016,18.1484165 20.3284016,20.49584 Z" id="Path" fill="#FFFFFF"></path>
        <path d="M3.0400194,5.54898014 C3.54426389,4.35131508 4.37666748,3.85628019 5.54523405,4.05589104 C6.61775406,4.23953301 7.25806452,5.02999195 7.20203735,6.1078905 C7.14601019,7.05005368 6.353626,7.79260601 5.33713316,7.85648148 C4.16856658,7.92834138 3.53626,7.5051664 3.04802328,6.32347021 C3.0400194,6.0599839 3.0400194,5.80448202 3.0400194,5.54898014 Z" id="Path" fill="#FFFFFF"></path>
        <path d="M3.2881397,9.39747719 C4.51273345,9.39747719 5.71331555,9.39747719 6.93790929,9.39747719 C6.93790929,13.09427 6.93790929,16.7750939 6.93790929,20.4798712 C5.72131943,20.4798712 4.52073733,20.4798712 3.2881397,20.4798712 C3.2881397,16.7910628 3.2881397,13.1102389 3.2881397,9.39747719 Z" id="Path" fill="#FFFFFF"></path>
    </g>
</svg>