<?xml version="1.0" encoding="UTF-8"?>
<svg width="24px" height="24px" viewBox="0 0 24 24" version="1.1" xmlns="http://www.w3.org/2000/svg" xmlns:xlink="http://www.w3.org/1999/xlink">
    <!-- Generator: Sketch 54.1 (76490) - https://sketchapp.com -->
    <title>SLACK Copy 3</title>
    <desc>Created with Sketch.</desc>
    <g id="SLACK-Copy-3" stroke="none" stroke-width="1" fill="none" fill-rule="evenodd">
        <g id="Group-22" fill="#FFFFFF" fill-rule="nonzero">
            <path d="M1.92,0.672 C1.23074863,0.672 0.672,1.23074863 0.672,1.92 L0.672,22.08 C0.672,22.7692514 1.23074863,23.328 1.92,23.328 L22.08,23.328 C22.7692514,23.328 23.328,22.7692514 23.328,22.08 L23.328,1.92 C23.328,1.23074863 22.7692514,0.672 22.08,0.672 L1.92,0.672 Z M1.92,0 L22.08,0 C23.1403867,-1.9478988e-16 24,0.85961328 24,1.92 L24,22.08 C24,23.1403867 23.1403867,24 22.08,24 L1.92,24 C0.85961328,24 1.2985992e-16,23.1403867 0,22.08 L0,1.92 C-1.2985992e-16,0.85961328 0.85961328,1.9478988e-16 1.92,0 Z" id="Rectangle-Copy-12"></path>
        </g>
        <path d="M7.18421053,11.6842105 C6.47368421,11.6842105 5.68421053,11.6842105 4.97368421,11.6842105 C4.18421053,11.6842105 3.55263158,11.2105263 3.31578947,10.5 C3,9.47368421 3.55263158,8.44736842 4.57894737,8.21052632 C4.73684211,8.21052632 4.89473684,8.13157895 5.05263158,8.13157895 C6.47368421,8.13157895 7.97368421,8.13157895 9.39473684,8.13157895 C10.2631579,8.13157895 10.8947368,8.68421053 11.1315789,9.39473684 C11.3684211,10.1052632 11.2105263,10.7368421 10.6578947,11.2105263 C10.3421053,11.5263158 9.94736842,11.6842105 9.47368421,11.6842105 C8.68421053,11.6842105 7.89473684,11.6842105 7.18421053,11.6842105 Z" id="Path" fill="#FFFFFF" fill-rule="nonzero"></path>
        <path d="M16.1052632,12.5526316 C16.8157895,12.5526316 17.6052632,12.5526316 18.3157895,12.5526316 C19.1842105,12.5526316 19.8947368,13.1842105 20.0526316,13.9736842 C20.2105263,14.9210526 19.5789474,15.8684211 18.6315789,16.0263158 C18.4736842,16.0263158 18.3947368,16.0263158 18.2368421,16.0263158 C16.8157895,16.0263158 15.3157895,16.0263158 13.8947368,16.0263158 C13.1052632,16.0263158 12.4736842,15.5526316 12.1578947,14.8421053 C11.8421053,13.8947368 12.3157895,12.8684211 13.2631579,12.5526316 C13.5,12.4736842 13.6578947,12.4736842 13.8947368,12.4736842 C14.6052632,12.5526316 15.3157895,12.5526316 16.1052632,12.5526316 Z" id="Path" fill="#FFFFFF" fill-rule="nonzero"></path>
        <path d="M7.57894737,16.5789474 C7.57894737,15.8684211 7.57894737,15.1578947 7.57894737,14.3684211 C7.57894737,13.6578947 7.89473684,13.1052632 8.60526316,12.7105263 C9.63157895,12.1578947 10.9736842,12.8684211 11.1315789,13.9736842 C11.1315789,14.0526316 11.1315789,14.2105263 11.1315789,14.2894737 C11.1315789,15.7894737 11.1315789,17.2105263 11.1315789,18.7105263 C11.1315789,19.6578947 10.4210526,20.3684211 9.63157895,20.5263158 C8.68421053,20.6842105 7.81578947,20.0526316 7.65789474,19.1842105 C7.65789474,19.0263158 7.57894737,18.8684211 7.57894737,18.7105263 C7.57894737,18 7.57894737,17.2894737 7.57894737,16.5789474 Z" id="Path" fill="#FFFFFF" fill-rule="nonzero"></path>
        <path d="M12.0789474,7.65789474 C12.0789474,6.94736842 12.0789474,6.15789474 12.0789474,5.44736842 C12.0789474,4.65789474 12.5526316,4.02631579 13.3421053,3.78947368 C14.2105263,3.47368421 15.2368421,3.94736842 15.5526316,4.81578947 C15.5526316,4.97368421 15.6315789,5.21052632 15.6315789,5.44736842 C15.6315789,6.94736842 15.6315789,8.36842105 15.6315789,9.86842105 C15.6315789,10.6578947 15.1578947,11.3684211 14.3684211,11.6052632 C13.6578947,11.8421053 12.8684211,11.5263158 12.3947368,10.9736842 C12.1578947,10.6578947 12.0789474,10.3421053 12.0789474,9.94736842 C12.0789474,9.15789474 12.0789474,8.36842105 12.0789474,7.65789474 Z" id="Path" fill="#FFFFFF" fill-rule="nonzero"></path>
        <path d="M13.0263158,17.0526316 C13.2631579,17.0526316 13.5789474,17.0526316 13.8157895,17.0526316 C14.6842105,17.0526316 15.3947368,17.6052632 15.6315789,18.4736842 C15.7105263,19.0263158 15.6315789,19.5789474 15.1578947,19.9736842 C14.7631579,20.4473684 14.2894737,20.6052632 13.6578947,20.5263158 C12.8684211,20.4473684 12.2368421,19.8157895 12.0789474,19.0263158 C12.0789474,18.9473684 12.0789474,18.7894737 12.0789474,18.7105263 C12.0789474,18.1578947 12.0789474,17.6052632 12.0789474,17.0526316 C12.0789474,16.9736842 12.0789474,16.9736842 12.1578947,16.9736842 C12.4736842,17.0526316 12.7105263,17.0526316 13.0263158,17.0526316 Z" id="Path" fill="#FFFFFF" fill-rule="nonzero"></path>
        <path d="M10.1842105,7.18421053 C9.94736842,7.18421053 9.63157895,7.18421053 9.39473684,7.18421053 C8.52631579,7.18421053 7.81578947,6.55263158 7.65789474,5.76315789 C7.5,4.89473684 8.05263158,3.94736842 8.92105263,3.71052632 C9.94736842,3.47368421 10.8947368,4.10526316 11.1315789,5.05263158 C11.1315789,5.21052632 11.1315789,5.28947368 11.1315789,5.44736842 C11.1315789,6 11.1315789,6.55263158 11.1315789,7.10526316 C11.1315789,7.18421053 11.1315789,7.18421053 11.0526316,7.18421053 C10.8157895,7.18421053 10.5,7.18421053 10.1842105,7.18421053 Z" id="Path" fill="#FFFFFF" fill-rule="nonzero"></path>
        <path d="M5.76315789,12.5526316 C6.07894737,12.5526316 6.39473684,12.5526316 6.63157895,12.5526316 C6.71052632,12.5526316 6.71052632,12.5526316 6.71052632,12.6315789 C6.71052632,13.1842105 6.71052632,13.8157895 6.71052632,14.3684211 C6.71052632,15.2368421 6.07894737,15.8684211 5.28947368,16.0263158 C4.26315789,16.2631579 3.31578947,15.5526316 3.15789474,14.5263158 C3,13.5789474 3.71052632,12.7105263 4.57894737,12.5526316 C4.65789474,12.5526316 4.81578947,12.5526316 4.89473684,12.5526316 C5.21052632,12.5526316 5.44736842,12.5526316 5.76315789,12.5526316 Z" id="Path" fill="#FFFFFF" fill-rule="nonzero"></path>
        <path d="M17.5263158,11.6842105 C17.2105263,11.6842105 16.8947368,11.6842105 16.6578947,11.6842105 C16.5789474,11.6842105 16.5789474,11.6842105 16.5789474,11.6052632 C16.5789474,11.0526316 16.5789474,10.5 16.5789474,9.94736842 C16.5789474,9.07894737 17.1315789,8.36842105 18,8.21052632 C18.7894737,8.05263158 19.7368421,8.44736842 20.0526316,9.31578947 C20.2894737,10.0263158 20.2105263,10.6578947 19.6578947,11.2105263 C19.3421053,11.5263158 18.8684211,11.7631579 18.3947368,11.7631579 C18.0789474,11.6842105 17.7631579,11.6842105 17.5263158,11.6842105 Z" id="Path" fill="#FFFFFF" fill-rule="nonzero"></path>
    </g>
</svg>