<svg width="843" height="381" viewBox="0 0 843 381" fill="none" xmlns="http://www.w3.org/2000/svg">
<g clip-path="url(#clip0)">
<g filter="url(#filter0_d)">
<ellipse cx="453" cy="318" rx="318" ry="10" fill="#F2F8FF"/>
</g>
<path d="M620.846 308.645C613.563 321.428 535.074 330.335 483 337.406L483.501 340.501C539.115 332.948 624.196 323.007 620.846 308.645C623.656 303.713 615.866 298.204 591.866 292L591.249 294.595C611.02 299.706 619.849 304.371 620.846 308.645Z" fill="#563B39"/>
<path d="M483 337.406C555.166 327.606 678.065 314.282 591.866 292L591.249 294.595C677.448 316.877 555.667 330.7 483.501 340.501L483 337.406Z" stroke="#563B39"/>
<path d="M302.2 231.02H263.44V281H209.72V231.02H81.54V193.96L193.74 43H251.54L147.5 186.14H211.42V141.6H263.44V186.14H302.2V231.02ZM420.674 285.08C400.954 285.08 383.387 280.207 367.974 270.46C352.561 260.713 340.434 246.66 331.594 228.3C322.981 209.713 318.674 187.613 318.674 162C318.674 136.387 322.981 114.4 331.594 96.04C340.434 77.4533 352.561 63.2867 367.974 53.54C383.387 43.7933 400.954 38.92 420.674 38.92C440.394 38.92 457.961 43.7933 473.374 53.54C488.787 63.2867 500.801 77.4533 509.414 96.04C518.254 114.4 522.674 136.387 522.674 162C522.674 187.613 518.254 209.713 509.414 228.3C500.801 246.66 488.787 260.713 473.374 270.46C457.961 280.207 440.394 285.08 420.674 285.08ZM420.674 238.5C435.181 238.5 446.514 232.267 454.674 219.8C463.061 207.333 467.254 188.067 467.254 162C467.254 135.933 463.061 116.667 454.674 104.2C446.514 91.7333 435.181 85.5 420.674 85.5C406.394 85.5 395.061 91.7333 386.674 104.2C378.514 116.667 374.434 135.933 374.434 162C374.434 188.067 378.514 207.333 386.674 219.8C395.061 232.267 406.394 238.5 420.674 238.5ZM767.376 231.02H728.616V281H674.896V231.02H546.716V193.96L658.916 43H716.716L612.676 186.14H676.596V141.6H728.616V186.14H767.376V231.02Z" fill="#DBF0F7" fill-opacity="0.6"/>
<rect x="264" y="292" width="331" height="4" fill="#563B39"/>
<path d="M393.185 248.352L393.185 310.352L465.185 310.352L465.185 248.352L393.185 248.352Z" fill="#2F2E41"/>
<path d="M381 304.766L477.185 304.766L477.185 266.585L381 266.585L381 304.766Z" fill="#62A7BD"/>
<path d="M381 262.18L477.185 262.18L477.185 224L381 224L381 262.18Z" fill="#5B99B0"/>
<path d="M449 289L477 289L477 283L449 283L449 289Z" fill="#B8DBD2"/>
<path d="M449 246L477 246L477 240L449 240L449 246Z" fill="#B8DBD2"/>
<path d="M404.622 241.001C403.405 241.001 402.419 241.987 402.419 243.204C402.419 244.42 403.405 245.406 404.622 245.406C405.838 245.406 406.824 244.42 406.824 243.204C406.824 241.987 405.838 241.001 404.622 241.001Z" fill="#B8DBD2"/>
<path d="M396.913 241.001C395.696 241.001 394.71 241.987 394.71 243.204C394.71 244.42 395.696 245.406 396.913 245.406C398.129 245.406 399.115 244.42 399.115 243.204C399.115 241.987 398.129 241.001 396.913 241.001Z" fill="#B8DBD2"/>
<path d="M389.203 241.001C387.986 241.001 387 241.987 387 243.204C387 244.42 387.986 245.406 389.203 245.406C390.419 245.406 391.405 244.42 391.405 243.204C391.405 241.987 390.419 241.001 389.203 241.001Z" fill="#B8DBD2"/>
<path d="M404.622 284.001C403.405 284.001 402.419 284.987 402.419 286.204C402.419 287.42 403.405 288.406 404.622 288.406C405.838 288.406 406.824 287.42 406.824 286.204C406.824 284.987 405.838 284.001 404.622 284.001Z" fill="#266074"/>
<path d="M396.913 284.001C395.696 284.001 394.71 284.987 394.71 286.204C394.71 287.42 395.696 288.406 396.913 288.406C398.129 288.406 399.115 287.42 399.115 286.204C399.115 284.987 398.129 284.001 396.913 284.001Z" fill="#266074"/>
<path d="M389.203 284.001C387.986 284.001 387 284.987 387 286.204C387 287.42 387.986 288.406 389.203 288.406C390.419 288.406 391.405 287.42 391.405 286.204C391.405 284.987 390.419 284.001 389.203 284.001Z" fill="#266074"/>
<path d="M271.185 248.352L271.185 310.352L343.185 310.352L343.185 248.352L271.185 248.352Z" fill="#2F2E41"/>
<path d="M259 304.766L355.185 304.766L355.185 266.585L259 266.585L259 304.766Z" fill="#62A7BD"/>
<path d="M259 262.18L355.185 262.18L355.185 224L259 224L259 262.18Z" fill="#5B99B0"/>
<path d="M327 289L355 289L355 283L327 283L327 289Z" fill="#B8DBD2"/>
<path d="M327 246L355 246L355 240L327 240L327 246Z" fill="#B8DBD2"/>
<path d="M282.622 241.001C281.405 241.001 280.419 241.987 280.419 243.204C280.419 244.42 281.405 245.406 282.622 245.406C283.838 245.406 284.824 244.42 284.824 243.204C284.824 241.987 283.838 241.001 282.622 241.001Z" fill="#B8DBD2"/>
<path d="M274.913 241.001C273.696 241.001 272.71 241.987 272.71 243.204C272.71 244.42 273.696 245.406 274.913 245.406C276.129 245.406 277.115 244.42 277.115 243.204C277.115 241.987 276.129 241.001 274.913 241.001Z" fill="#B8DBD2"/>
<path d="M267.203 241.001C265.986 241.001 265 241.987 265 243.204C265 244.42 265.986 245.406 267.203 245.406C268.419 245.406 269.405 244.42 269.405 243.204C269.405 241.987 268.419 241.001 267.203 241.001Z" fill="#B8DBD2"/>
<path d="M282.622 284.001C281.405 284.001 280.419 284.987 280.419 286.204C280.419 287.42 281.405 288.406 282.622 288.406C283.838 288.406 284.824 287.42 284.824 286.204C284.824 284.987 283.838 284.001 282.622 284.001Z" fill="#B8DBD2"/>
<path d="M274.913 284.001C273.696 284.001 272.71 284.987 272.71 286.204C272.71 287.42 273.696 288.406 274.913 288.406C276.129 288.406 277.115 287.42 277.115 286.204C277.115 284.987 276.129 284.001 274.913 284.001Z" fill="#B8DBD2"/>
<path d="M267.203 284.001C265.986 284.001 265 284.987 265 286.204C265 287.42 265.986 288.406 267.203 288.406C268.419 288.406 269.405 287.42 269.405 286.204C269.405 284.987 268.419 284.001 267.203 284.001Z" fill="#B8DBD2"/>
<path d="M271.185 248.352L271.185 310.352L343.185 310.352L343.185 248.352L271.185 248.352Z" fill="#2F2E41"/>
<path d="M259 304.766L355.185 304.766L355.185 266.585L259 266.585L259 304.766Z" fill="#62A7BD"/>
<path d="M259 262.18L355.185 262.18L355.185 224L259 224L259 262.18Z" fill="#5B99B0"/>
<path d="M327 289L355 289L355 283L327 283L327 289Z" fill="#B8DBD2"/>
<path d="M327 246L355 246L355 240L327 240L327 246Z" fill="#B8DBD2"/>
<path d="M282.622 241.001C281.405 241.001 280.419 241.987 280.419 243.204C280.419 244.42 281.405 245.406 282.622 245.406C283.838 245.406 284.824 244.42 284.824 243.204C284.824 241.987 283.838 241.001 282.622 241.001Z" fill="#296175"/>
<path d="M274.913 241.001C273.696 241.001 272.71 241.987 272.71 243.204C272.71 244.42 273.696 245.406 274.913 245.406C276.129 245.406 277.115 244.42 277.115 243.204C277.115 241.987 276.129 241.001 274.913 241.001Z" fill="#296175"/>
<path d="M267.203 241.001C265.986 241.001 265 241.987 265 243.204C265 244.42 265.986 245.406 267.203 245.406C268.419 245.406 269.405 244.42 269.405 243.204C269.405 241.987 268.419 241.001 267.203 241.001Z" fill="#296175"/>
<path d="M282.622 284.001C281.405 284.001 280.419 284.987 280.419 286.204C280.419 287.42 281.405 288.406 282.622 288.406C283.838 288.406 284.824 287.42 284.824 286.204C284.824 284.987 283.838 284.001 282.622 284.001Z" fill="#B8DBD2"/>
<path d="M274.913 284.001C273.696 284.001 272.71 284.987 272.71 286.204C272.71 287.42 273.696 288.406 274.913 288.406C276.129 288.406 277.115 287.42 277.115 286.204C277.115 284.987 276.129 284.001 274.913 284.001Z" fill="#B8DBD2"/>
<path d="M267.203 284.001C265.986 284.001 265 284.987 265 286.204C265 287.42 265.986 288.406 267.203 288.406C268.419 288.406 269.405 287.42 269.405 286.204C269.405 284.987 268.419 284.001 267.203 284.001Z" fill="#B8DBD2"/>
<path d="M393 181L393 224L465 224L465 181L393 181Z" fill="#2F2E41"/>
<path d="M381 218.766L477.185 218.766L477.185 180.585L381 180.585L381 218.766Z" fill="#62A7BD"/>
<path d="M449 203L477 203L477 197L449 197L449 203Z" fill="#B8DBD2"/>
<path d="M404.622 198.001C403.405 198.001 402.419 198.987 402.419 200.204C402.419 201.42 403.405 202.406 404.622 202.406C405.838 202.406 406.824 201.42 406.824 200.204C406.824 198.987 405.838 198.001 404.622 198.001Z" fill="#296175"/>
<path d="M396.913 198.001C395.696 198.001 394.71 198.987 394.71 200.204C394.71 201.42 395.696 202.406 396.913 202.406C398.129 202.406 399.115 201.42 399.115 200.204C399.115 198.987 398.129 198.001 396.913 198.001Z" fill="#296175"/>
<path d="M389.203 198.001C387.986 198.001 387 198.987 387 200.204C387 201.42 387.986 202.406 389.203 202.406C390.419 202.406 391.405 201.42 391.405 200.204C391.405 198.987 390.419 198.001 389.203 198.001Z" fill="#296175"/>
<path d="M511.185 248.352L511.185 310.352L583.185 310.352L583.185 248.352L511.185 248.352Z" fill="#2F2E41"/>
<path d="M499 304.766L595.185 304.766L595.185 266.585L499 266.585L499 304.766Z" fill="#62A7BD"/>
<path d="M499 262.18L595.185 262.18L595.185 224L499 224L499 262.18Z" fill="#5B99B0"/>
<path d="M567 289L595 289L595 283L567 283L567 289Z" fill="#B8DBD2"/>
<path d="M567 246L595 246L595 240L567 240L567 246Z" fill="#B8DBD2"/>
<path d="M522.622 241.001C521.405 241.001 520.419 241.987 520.419 243.204C520.419 244.42 521.405 245.406 522.622 245.406C523.838 245.406 524.824 244.42 524.824 243.204C524.824 241.987 523.838 241.001 522.622 241.001Z" fill="#B8DBD2"/>
<path d="M514.913 241.001C513.696 241.001 512.71 241.987 512.71 243.204C512.71 244.42 513.696 245.406 514.913 245.406C516.129 245.406 517.115 244.42 517.115 243.204C517.115 241.987 516.129 241.001 514.913 241.001Z" fill="#B8DBD2"/>
<path d="M507.203 241.001C505.986 241.001 505 241.987 505 243.204C505 244.42 505.986 245.406 507.203 245.406C508.419 245.406 509.405 244.42 509.405 243.204C509.405 241.987 508.419 241.001 507.203 241.001Z" fill="#B8DBD2"/>
<path d="M522.622 284.001C521.405 284.001 520.419 284.987 520.419 286.204C520.419 287.42 521.405 288.406 522.622 288.406C523.838 288.406 524.824 287.42 524.824 286.204C524.824 284.987 523.838 284.001 522.622 284.001Z" fill="#296175"/>
<path d="M514.913 284.001C513.696 284.001 512.71 284.987 512.71 286.204C512.71 287.42 513.696 288.406 514.913 288.406C516.129 288.406 517.115 287.42 517.115 286.204C517.115 284.987 516.129 284.001 514.913 284.001Z" fill="#296175"/>
<path d="M507.203 284.001C505.986 284.001 505 284.987 505 286.204C505 287.42 505.986 288.406 507.203 288.406C508.419 288.406 509.405 287.42 509.405 286.204C509.405 284.987 508.419 284.001 507.203 284.001Z" fill="#296175"/>
<path d="M229.451 308.08C236.096 320.69 314.65 329.619 366.807 336.5L366.307 339.5C310.106 332.084 223.746 322.293 229.451 308.08C226.923 303.283 234.803 297.953 258.505 292L258.806 295C239.935 299.74 231.055 304.085 229.451 308.08Z" fill="#563B39"/>
<path d="M366.807 336.5C294.807 327 172.505 313.6 258.505 292L258.806 295C172.807 316.6 294.307 330 366.307 339.5L366.807 336.5Z" stroke="#563B39"/>
<rect x="359.076" y="333" width="13.6478" height="8.52905" rx="4.26452" transform="rotate(7.25182 359.076 333)" fill="#313131"/>
<circle cx="367.587" cy="338.453" r="3.98062" transform="rotate(-1.63633 367.587 338.453)" fill="#FEFFDC"/>
<rect x="488.287" y="343.99" width="14.5174" height="9.07248" rx="4.53624" transform="rotate(172.252 488.287 343.99)" fill="#313131"/>
<circle cx="478.043" cy="340.731" r="4.23424" transform="rotate(163.364 478.043 340.731)" fill="#FEFFDC"/>
<rect x="476" y="340.141" width="4.28102" height="1.67581" rx="0.837907" transform="rotate(-30 476 340.141)" fill="#D7BF45"/>
<rect x="473" y="344.068" width="4.13713" height="1.67581" rx="0.837907" transform="rotate(-30 473 344.068)" fill="#D7BF45"/>
<circle cx="369" cy="337" r="1" fill="#313131" fill-opacity="0.5"/>
<circle cx="367" cy="340" r="1" fill="#313131" fill-opacity="0.5"/>
</g>
<defs>
<filter id="filter0_d" x="-239" y="-39" width="1456" height="840" filterUnits="userSpaceOnUse" color-interpolation-filters="sRGB">
<feFlood flood-opacity="0" result="BackgroundImageFix"/>
<feColorMatrix in="SourceAlpha" type="matrix" values="0 0 0 0 0 0 0 0 0 0 0 0 0 0 0 0 0 0 127 0"/>
<feMorphology radius="10" operator="dilate" in="SourceAlpha" result="effect1_dropShadow"/>
<feOffset dx="36" dy="63"/>
<feGaussianBlur stdDeviation="200"/>
<feColorMatrix type="matrix" values="0 0 0 0 0.841667 0 0 0 0 0.697882 0 0 0 0 0.697882 0 0 0 0.25 0"/>
<feBlend mode="normal" in2="BackgroundImageFix" result="effect1_dropShadow"/>
<feBlend mode="normal" in="SourceGraphic" in2="effect1_dropShadow" result="shape"/>
</filter>
<clipPath id="clip0">
<rect width="843" height="381" fill="white"/>
</clipPath>
</defs>
</svg>
