<svg width="100" height="100" viewBox="0 0 100 100" fill="none" xmlns="http://www.w3.org/2000/svg">
<path d="M73.2444 63.6847C72.7684 63.6847 72.3944 63.3107 72.3944 62.8347C72.3944 62.3587 72.7684 61.9847 73.2444 61.9847C82.1692 61.9847 89.445 54.7089 89.445 45.7841C89.445 41.8402 87.983 38.0153 85.3481 35.0404C85.2291 34.9044 85.1611 34.7344 85.1441 34.5644C84.2261 25.2316 76.4573 18.1938 67.0735 18.1938C62.7556 18.1938 58.5567 19.7408 55.2928 22.5457C55.0888 22.7157 54.8338 22.7837 54.5788 22.7327C54.3238 22.6817 54.1029 22.5117 53.9839 22.2907C50.6179 15.7459 43.9711 11.683 36.6273 11.683C25.8666 11.683 17.1118 20.4377 17.1118 31.1985C17.1118 31.3685 17.1118 31.5385 17.1288 31.7085C17.1458 31.9975 16.9928 32.2694 16.7548 32.4394C12.3349 35.4824 9.69996 40.4632 9.69996 45.7841C9.69996 54.7259 16.9758 61.9847 25.9006 61.9847C26.3765 61.9847 26.7505 62.3587 26.7505 62.8347C26.7505 63.3107 26.3765 63.6847 25.9006 63.6847C16.0238 63.6847 8 55.6439 8 45.7841C8 40.0552 10.7539 34.6834 15.4118 31.3175C15.4118 31.2835 15.4118 31.2495 15.4118 31.2155C15.4118 19.5198 24.9316 10 36.6273 10C44.2601 10 51.2129 14.0289 55.0038 20.6077C58.4547 17.9558 62.7046 16.5108 67.0905 16.5108C72.0544 16.5108 76.7973 18.3468 80.4692 21.6957C84.0391 24.9596 86.2831 29.3625 86.827 34.1394C89.632 37.4033 91.1619 41.5342 91.1619 45.8011C91.1449 55.6439 83.1211 63.6847 73.2444 63.6847Z" fill="#F26D00"/>
<path d="M65.4587 49.473H33.7035C33.2275 49.473 32.8535 49.099 32.8535 48.6231V32.2695C32.8535 31.7935 33.2275 31.4195 33.7035 31.4195H65.4587C65.9347 31.4195 66.3087 31.7935 66.3087 32.2695V48.6231C66.3087 49.082 65.9177 49.473 65.4587 49.473ZM34.5535 47.7731H64.6087V33.1194H34.5535V47.7731Z" fill="#F26D00"/>
<path d="M49.5804 76.0264C49.1045 76.0264 48.7305 75.6524 48.7305 75.1764V48.623C48.7305 48.1471 49.1045 47.7731 49.5804 47.7731C50.0564 47.7731 50.4304 48.1471 50.4304 48.623V75.1764C50.4304 75.6354 50.0394 76.0264 49.5804 76.0264Z" fill="#F26D00"/>
<path d="M78.0051 76.0264H21.1415C20.6655 76.0264 20.2915 75.6524 20.2915 75.1764C20.2915 74.7004 20.6655 74.3264 21.1415 74.3264H78.0051C78.4811 74.3264 78.855 74.7004 78.855 75.1764C78.855 75.6524 78.4811 76.0264 78.0051 76.0264Z" fill="#F26D00"/>
<path d="M49.5804 83.2342C49.1045 83.2342 48.7305 82.8602 48.7305 82.3842V75.1594C48.7305 74.6834 49.1045 74.3094 49.5804 74.3094C50.0564 74.3094 50.4304 74.6834 50.4304 75.1594V82.3842C50.4304 82.8602 50.0394 83.2342 49.5804 83.2342Z" fill="#F26D00"/>
<path d="M78.0048 83.2342C77.5288 83.2342 77.1548 82.8602 77.1548 82.3842V75.1594C77.1548 74.6834 77.5288 74.3094 78.0048 74.3094C78.4808 74.3094 78.8547 74.6834 78.8547 75.1594V82.3842C78.8547 82.8602 78.4808 83.2342 78.0048 83.2342Z" fill="#F26D00"/>
<path d="M21.1415 83.2342C20.6655 83.2342 20.2915 82.8602 20.2915 82.3842V75.1594C20.2915 74.6834 20.6655 74.3094 21.1415 74.3094C21.6175 74.3094 21.9915 74.6834 21.9915 75.1594V82.3842C21.9915 82.8602 21.6175 83.2342 21.1415 83.2342Z" fill="#F26D00"/>
<path d="M24.8802 90H17.4174C16.9414 90 16.5674 89.626 16.5674 89.15V82.3842C16.5674 81.9082 16.9414 81.5342 17.4174 81.5342H24.8802C25.3562 81.5342 25.7302 81.9082 25.7302 82.3842V89.15C25.7302 89.626 25.3392 90 24.8802 90ZM18.2673 88.3H24.0302V83.2342H18.2673V88.3Z" fill="#F26D00"/>
<path d="M53.304 90H45.8412C45.3652 90 44.9912 89.626 44.9912 89.15V82.3842C44.9912 81.9082 45.3652 81.5342 45.8412 81.5342H53.304C53.78 81.5342 54.154 81.9082 54.154 82.3842V89.15C54.154 89.626 53.78 90 53.304 90ZM46.6912 88.3H52.454V83.2342H46.6912V88.3Z" fill="#F26D00"/>
<path d="M81.7439 90H74.2811C73.8051 90 73.4312 89.626 73.4312 89.15V82.3842C73.4312 81.9082 73.8051 81.5342 74.2811 81.5342H81.7439C82.2199 81.5342 82.5939 81.9082 82.5939 82.3842V89.15C82.5939 89.626 82.2029 90 81.7439 90ZM75.1311 88.3H80.894V83.2342H75.1311V88.3Z" fill="#F26D00"/>
<path d="M39.4828 42.9452C38.1059 42.9452 36.9839 41.8232 36.9839 40.4293C36.9839 39.0523 38.1059 37.9303 39.4828 37.9303C40.8598 37.9303 41.9818 39.0523 41.9818 40.4293C41.9818 41.8232 40.8598 42.9452 39.4828 42.9452ZM39.4828 39.6303C39.0408 39.6303 38.6838 39.9873 38.6838 40.4293C38.6838 40.8712 39.0408 41.2452 39.4828 41.2452C39.9248 41.2452 40.2818 40.8882 40.2818 40.4293C40.2818 39.9873 39.9248 39.6303 39.4828 39.6303Z" fill="#F26D00"/>
<path d="M49.5814 42.9452C48.2044 42.9452 47.0654 41.8232 47.0654 40.4293C47.0654 39.0523 48.1874 37.9303 49.5814 37.9303C50.9583 37.9303 52.0803 39.0523 52.0803 40.4293C52.0803 41.8232 50.9583 42.9452 49.5814 42.9452ZM49.5814 39.6303C49.1394 39.6303 48.7654 39.9873 48.7654 40.4293C48.7654 40.8712 49.1224 41.2452 49.5814 41.2452C50.0234 41.2452 50.3803 40.8882 50.3803 40.4293C50.3803 39.9873 50.0234 39.6303 49.5814 39.6303Z" fill="#F26D00"/>
<path d="M59.6786 42.9452C58.3017 42.9452 57.1797 41.8232 57.1797 40.4293C57.1797 39.0523 58.3017 37.9303 59.6786 37.9303C61.0556 37.9303 62.1776 39.0523 62.1776 40.4293C62.1776 41.8232 61.0556 42.9452 59.6786 42.9452ZM59.6786 39.6303C59.2366 39.6303 58.8796 39.9873 58.8796 40.4293C58.8796 40.8712 59.2366 41.2452 59.6786 41.2452C60.1206 41.2452 60.4776 40.8882 60.4776 40.4293C60.4776 39.9873 60.1206 39.6303 59.6786 39.6303Z" fill="#F26D00"/>
</svg>
