<svg xmlns="http://www.w3.org/2000/svg" width="28" height="32" fill="none" xmlns:v="https://vecta.io/nano"><path d="M16.567 16.253l-1.428.83V32L28 24.545V9.627l-11.434 6.626z" fill="url(#A)"/><path d="M18.894 2.875L13.948 0 .729 7.661l4.953 2.875 13.212-7.661z" fill="url(#B)"/><path d="M27.16 7.662l-5.7-3.26-13.212 7.661.754.392 4.946 2.868 4.92-2.848 8.293-4.813z" fill="url(#C)"/><path d="M7.248 17.548L4.88 16.326v-3.797L0 9.707v14.812l12.769 7.403V17.11l-5.522-3.193v3.631z" fill="url(#D)"/><defs><linearGradient id="A" x1="18.314" y1="9.627" x2="31.091" y2="25.937" gradientUnits="userSpaceOnUse"><stop stop-color="#d7d1fd"/><stop offset="1" stop-color="#6c639f"/></linearGradient><linearGradient id="B" x1="5.213" y1="0" x2="8.244" y2="11.603" gradientUnits="userSpaceOnUse"><stop stop-color="#d7d1fd"/><stop offset="1" stop-color="#6c639f"/></linearGradient><linearGradient id="C" x1="12.917" y1="4.402" x2="16.046" y2="16.436" gradientUnits="userSpaceOnUse"><stop stop-color="#d7d1fd"/><stop offset="1" stop-color="#6c639f"/></linearGradient><linearGradient id="D" x1="3.153" y1="9.707" x2="15.839" y2="25.9" gradientUnits="userSpaceOnUse"><stop stop-color="#d7d1fd"/><stop offset="1" stop-color="#6c639f"/></linearGradient></defs></svg>