<svg xmlns="http://www.w3.org/2000/svg" width="32" height="24" fill="none" xmlns:v="https://vecta.io/nano"><g clip-path="url(#C)"><path d="M25.612 15.802h-5.039V12.93c.004-.039.004-.078 0-.117v-.029c-.004-.02-.012-.04-.022-.059.001-.009.001-.018 0-.026-.009-.012-.019-.023-.031-.032l-.022-.015h-.044-.043-.047-.022l-.05.029-.025.018c-.027.021-.053.043-.078.067l-4.906 5.098c-.031.033-.059.069-.081.108-.001.009-.001.018 0 .026-.018.03-.032.061-.043.094v.023a.73.73 0 0 0-.022.114.6.6 0 0 0 .031.26c.029.084.077.161.14.226l4.896 4.976c.23.237.423.164.423-.155v-2.868h5.039a.64.64 0 0 0 .439-.171.57.57 0 0 0 .182-.414v-3.697c0-.082-.017-.162-.052-.237s-.085-.142-.149-.197a.63.63 0 0 0-.221-.123.66.66 0 0 0-.255-.028z" fill="url(#A)"/><path d="M24.646 4.683a7.82 7.82 0 0 0-1.864.222C22.151 3.26 20.937 1.87 19.345.969S15.88-.288 14.042-.04s-3.53 1.085-4.79 2.37S7.24 5.27 7.124 7.016c-.265-.037-.533-.057-.802-.059a6.41 6.41 0 0 0-2.423.34 6.14 6.14 0 0 0-2.083 1.215C1.217 9.046.739 9.69.413 10.404s-.495 1.483-.495 2.261.168 1.546.495 2.26.804 1.358 1.403 1.892a6.14 6.14 0 0 0 2.083 1.215c.775.267 1.599.383 2.423.34h6.875c-.022-.62.211-1.225.652-1.686l4.906-5.098c.203-.221.452-.399.733-.522s.586-.19.895-.195c.278.003.553.059.808.164s.484.259.674.45.337.417.432.664a1.84 1.84 0 0 1 .12.77v1.112h3.175c.659 0 1.291.247 1.757.686s.728 1.035.728 1.656v1.171c1.422-.725 2.548-1.876 3.198-3.271s.789-2.954.393-4.432-1.303-2.788-2.578-3.726-2.845-1.448-4.462-1.45l.015.018z" fill="url(#B)"/></g><defs><linearGradient id="A" x1="20.713" y1="12.652" x2="20.713" y2="23.832" gradientUnits="userSpaceOnUse"><stop stop-color="#ffacd9"/><stop offset="1" stop-color="#4f0d30"/></linearGradient><linearGradient id="B" x1="15.905" y1="-.117" x2="15.905" y2="18.381" gradientUnits="userSpaceOnUse"><stop stop-color="#ffacd9"/><stop offset="1" stop-color="#4f0d30"/></linearGradient><clipPath id="C"><path fill="#fff" d="M0 0h32v24H0z"/></clipPath></defs></svg>