<svg width="100" height="100" viewBox="0 0 100 100" fill="none" xmlns="http://www.w3.org/2000/svg">
<path d="M57.4 9V12.7H50.925V16.8625C50.925 17.6472 50.9953 18.1497 51.3297 18.6547C51.6644 19.1596 52.3342 19.7215 53.7 20.3312C53.7098 20.3406 53.7193 20.3502 53.7287 20.3599C56.9497 21.8538 59.2498 25.1048 59.2498 29.003C59.2498 32.502 57.4345 35.593 54.7116 37.2701L78.0101 49.7H86.075C86.3203 49.7 86.5556 49.7975 86.729 49.971C86.9025 50.1445 87 50.3797 87 50.625V89.475C87 89.7203 86.9025 89.9556 86.729 90.1291C86.5556 90.3026 86.3203 90.4 86.075 90.4H13.925C13.6797 90.4 13.4444 90.3026 13.271 90.1291C13.0975 89.9556 13 89.7203 13 89.475V50.625C13 50.3797 13.0975 50.1445 13.271 49.971C13.4444 49.7975 13.6797 49.7 13.925 49.7H21.9899L45.2882 37.2703C42.5653 35.5932 40.75 32.5022 40.75 29.0031C40.7483 28.8806 40.7709 28.7589 40.8166 28.6451C40.8623 28.5314 40.9302 28.4278 41.0163 28.3405C41.1023 28.2532 41.2049 28.1839 41.318 28.1366C41.4311 28.0893 41.5524 28.065 41.675 28.065C41.7976 28.065 41.919 28.0893 42.032 28.1366C42.1451 28.1839 42.2477 28.2532 42.3338 28.3405C42.4198 28.4278 42.4877 28.5314 42.5334 28.6451C42.5791 28.7589 42.6017 28.8806 42.6 29.0031C42.6 32.3016 44.5412 35.0744 47.2828 36.2007L49.5664 34.9868C49.7612 34.8828 49.9868 34.852 50.2024 34.8998C50.283 34.9183 50.3608 34.9476 50.4336 34.9868L52.7172 36.2007C55.4588 35.0745 57.4 32.3016 57.4 29.0031C57.4 25.8319 55.5516 23.2441 52.9484 22.0368C51.4005 21.3457 50.3996 20.6035 49.7976 19.6953C49.1959 18.7871 49.075 17.7965 49.075 16.8625V12.7H42.6V9H57.4V9ZM52.5438 38.2243C51.7343 38.4653 50.8848 38.6 50 38.6C49.1152 38.6 48.2657 38.4653 47.4563 38.2243L25.95 49.7H74.05L52.5438 38.2243V38.2243ZM85.15 51.55H14.85V88.55H85.15V51.55ZM74.975 57.1V83H73.125V57.1H74.975ZM62.95 57.1V83H61.1V57.1H62.95ZM50.925 57.1V83H49.075V57.1H50.925ZM38.9 57.1V83H37.05V57.1H38.9ZM26.875 57.1V83H25.025V57.1H26.875Z" fill="#F26D00"/>
</svg>
