<svg xmlns="http://www.w3.org/2000/svg" width="24" height="32" fill="none" xmlns:v="https://vecta.io/nano"><path fill-rule="evenodd" d="M2.813 32h18.75c1.551 0 2.813-1.262 2.813-2.812V9.375h-6.562C16.262 9.375 15 8.113 15 6.563V0H2.813C1.262 0 0 1.262 0 2.813v26.375C0 30.738 1.262 32 2.813 32zm11.695-20.756c-.094-.086-.203-.152-.32-.193s-.242-.058-.366-.049-.245.044-.355.103-.21.14-.291.239a1.02 1.02 0 0 0-.182.339l-3.778 12c-.079.252-.061.526.051.764s.309.418.546.501.497.064.721-.054.394-.327.474-.579l3.778-12c.039-.125.055-.256.046-.387s-.042-.259-.098-.376-.132-.222-.226-.308zM8.222 15a1.03 1.03 0 0 0-.277-.707.92.92 0 0 0-.668-.293.92.92 0 0 0-.668.293l-2.833 3A1.03 1.03 0 0 0 3.5 18a1.03 1.03 0 0 0 .277.707l2.833 3c.087.095.191.172.307.224a.9.9 0 0 0 .73.007c.116-.05.222-.125.31-.218s.159-.206.206-.328a1.05 1.05 0 0 0-.006-.773c-.05-.122-.121-.232-.212-.325L5.78 18l2.166-2.293A1.03 1.03 0 0 0 8.222 15zm8.5-1a.92.92 0 0 0-.668.293 1.03 1.03 0 0 0-.277.707 1.03 1.03 0 0 0 .277.707L18.22 18l-2.166 2.293c-.09.092-.162.203-.212.325a1.05 1.05 0 0 0-.006.773c.047.123.118.235.206.328s.194.168.31.218a.9.9 0 0 0 .73-.007c.115-.052.219-.129.307-.224l2.833-3A1.03 1.03 0 0 0 20.5 18a1.03 1.03 0 0 0-.276-.707l-2.833-3a.92.92 0 0 0-.668-.293z" fill="url(#A)"/><defs><linearGradient id="A" x1="12.188" y1="0" x2="12.188" y2="32" gradientUnits="userSpaceOnUse"><stop stop-color="#184a85"/><stop offset="1" stop-color="#8dd6e4"/></linearGradient></defs></svg>