<svg width="100" height="100" viewBox="0 0 100 100" fill="none" xmlns="http://www.w3.org/2000/svg">
<path d="M26.7601 82.6437C28.8586 82.6437 30.9672 82.6437 33.0657 82.6437C38.1143 82.6437 43.1629 82.6437 48.2114 82.6437C54.2839 82.6437 60.3462 82.6437 66.4187 82.6437C71.6902 82.6437 76.972 82.6437 82.2436 82.6437C84.7983 82.6437 87.3631 82.7233 89.9178 82.6437C89.9482 82.6437 89.9887 82.6437 90.0191 82.6437C91.3269 82.6437 91.3269 80.6548 90.0191 80.6548C87.9206 80.6548 85.812 80.6548 83.7135 80.6548C78.665 80.6548 73.6164 80.6548 68.5678 80.6548C62.4954 80.6548 56.4331 80.6548 50.3606 80.6548C45.089 80.6548 39.8073 80.6548 34.5357 80.6548C31.981 80.6548 29.4162 80.5753 26.8615 80.6548C26.8311 80.6548 26.7905 80.6548 26.7601 80.6548C25.4524 80.6548 25.4524 82.6437 26.7601 82.6437Z" fill="#F26D00"/>
<path d="M18.2749 74.539C21.2554 74.5589 24.0635 76.3986 25.0773 79.193C26.1113 82.057 25.2294 85.2094 22.8571 87.1585C20.5255 89.0777 17.0685 89.2567 14.4936 87.7253C11.9389 86.2038 10.55 83.1708 11.1481 80.2869C11.8476 76.9655 14.8281 74.5689 18.2749 74.539C19.5827 74.5291 19.5827 72.5402 18.2749 72.5502C14.3618 72.58 10.8846 74.9965 9.53625 78.5963C8.22849 82.0868 9.37404 86.2336 12.3038 88.6004C15.3249 91.0467 19.6942 91.4445 23.07 89.4357C26.4155 87.4468 28.1084 83.5685 27.3583 79.8195C26.5168 75.613 22.5936 72.5899 18.2749 72.5502C16.9773 72.5402 16.9672 74.5291 18.2749 74.539Z" fill="#F26D00"/>
<path d="M74.7416 51.3686C79.192 51.3686 83.6526 51.3686 88.103 51.3686C88.7417 51.3686 89.3803 51.3686 90.019 51.3686C91.3268 51.3686 91.3268 49.3798 90.019 49.3798C85.5686 49.3798 81.108 49.3798 76.6576 49.3798C76.0189 49.3798 75.3802 49.3798 74.7416 49.3798C73.4338 49.3798 73.4338 51.3686 74.7416 51.3686Z" fill="#F26D00"/>
<path d="M10.0128 51.3686C11.5841 51.3686 13.1554 51.3686 14.7268 51.3686C18.498 51.3686 22.2692 51.3686 26.0404 51.3686C30.6024 51.3686 35.1643 51.3686 39.7263 51.3686C43.6698 51.3686 47.6134 51.3686 51.5671 51.3686C53.4831 51.3686 55.4092 51.4383 57.3252 51.3686C57.3557 51.3686 57.3759 51.3686 57.4064 51.3686C58.7141 51.3686 58.7141 49.3798 57.4064 49.3798C55.835 49.3798 54.2637 49.3798 52.6923 49.3798C48.9211 49.3798 45.1499 49.3798 41.3787 49.3798C36.8168 49.3798 32.2548 49.3798 27.6929 49.3798C23.7493 49.3798 19.8058 49.3798 15.8521 49.3798C13.936 49.3798 12.0099 49.3102 10.0939 49.3798C10.0635 49.3798 10.0432 49.3798 10.0128 49.3798C8.71515 49.3798 8.71515 51.3686 10.0128 51.3686Z" fill="#F26D00"/>
<path d="M66.104 43.264C69.0845 43.2839 71.8926 45.1236 72.9064 47.9179C73.9404 50.7819 73.0585 53.9343 70.6862 55.8834C68.3546 57.8027 64.8976 57.9817 62.3227 56.4502C59.768 54.9287 58.3791 51.8957 58.9772 49.0118C59.6767 45.6904 62.6572 43.2938 66.104 43.264C67.4118 43.254 67.4118 41.2652 66.104 41.2751C62.1909 41.3049 58.7137 43.7214 57.3653 47.3213C56.0576 50.8118 57.2031 54.9586 60.1329 57.3253C63.154 59.7716 67.5233 60.1694 70.8991 58.1607C74.2446 56.1718 75.9375 52.2935 75.1874 48.5444C74.3459 44.338 70.4227 41.3149 66.104 41.2751C64.7963 41.2652 64.7963 43.254 66.104 43.264Z" fill="#F26D00"/>
<path d="M44.3085 20.0936C45.819 20.0936 47.3295 20.0936 48.84 20.0936C52.4896 20.0936 56.1391 20.0936 59.7785 20.0936C64.1783 20.0936 68.5679 20.0936 72.9676 20.0936C76.7693 20.0936 80.5709 20.0936 84.3725 20.0936C86.2176 20.0936 88.0829 20.1532 89.928 20.0936C89.9584 20.0936 89.9786 20.0936 90.0091 20.0936C91.3168 20.0936 91.3168 18.1047 90.0091 18.1047C88.4985 18.1047 86.988 18.1047 85.4775 18.1047C81.828 18.1047 78.1784 18.1047 74.539 18.1047C70.1392 18.1047 65.7496 18.1047 61.3499 18.1047C57.5482 18.1047 53.7466 18.1047 49.945 18.1047C48.0999 18.1047 46.2346 18.045 44.3896 18.1047C44.3591 18.1047 44.3389 18.1047 44.3085 18.1047C43.0007 18.1047 43.0007 20.0936 44.3085 20.0936Z" fill="#F26D00"/>
<path d="M10.0128 20.0936C14.9701 20.0936 19.9274 20.0936 24.8847 20.0936C25.5842 20.0936 26.2736 20.0936 26.9731 20.0936C28.2808 20.0936 28.2808 18.1047 26.9731 18.1047C22.0158 18.1047 17.0584 18.1047 12.1011 18.1047C11.4016 18.1047 10.7123 18.1047 10.0128 18.1047C8.71515 18.1047 8.71515 20.0936 10.0128 20.0936Z" fill="#F26D00"/>
<path d="M35.6709 11.9889C38.6514 12.0088 41.4595 13.8485 42.4733 16.6429C43.5073 19.5069 42.6254 22.6592 40.2531 24.6083C37.9215 26.5276 34.4645 26.7066 31.8896 25.1752C29.3349 23.6537 27.946 20.6206 28.5441 17.7368C29.2436 14.4153 32.2241 12.0187 35.6709 11.9889C36.9787 11.979 36.9787 9.99009 35.6709 10C31.7578 10.0299 28.2806 12.4464 26.9322 16.0462C25.6245 19.5367 26.77 23.6835 29.6998 26.0503C32.7209 28.4966 37.0902 28.8943 40.466 26.8856C43.8115 24.8967 45.5044 21.0184 44.7543 17.2694C43.9128 13.0629 39.9896 10.0398 35.6709 10C34.3632 9.99009 34.3632 11.979 35.6709 11.9889Z" fill="#F26D00"/>
</svg>
