<svg xmlns="http://www.w3.org/2000/svg" width="24" height="32" fill="none" xmlns:v="https://vecta.io/nano"><path d="M22.286 12.824H6.857V8.19c0-2.397 1.714-4.474 4.114-4.954 3.257-.479 6.172 1.758 6.172 4.794 0 .959.857 1.598 1.714 1.598s1.714-.639 1.714-1.598c0-4.634-4.286-8.469-9.429-7.99C6.686.52 3.429 4.195 3.429 8.35v4.474H1.714c-.857 0-1.714.639-1.714 1.598v15.98C0 31.201.857 32 1.714 32h20.571C23.314 32 24 31.201 24 30.402v-15.98c0-.959-.686-1.598-1.714-1.598zm-8.571 10.707v2.077c0 .959-.686 1.598-1.714 1.598s-1.714-.639-1.714-1.598v-2.077c-1.029-.639-1.714-1.598-1.714-2.717 0-2.077 2.057-3.515 4.286-3.036 1.2.32 2.229 1.278 2.571 2.397.343 1.438-.514 2.717-1.714 3.356z" fill="url(#A)"/><defs><linearGradient id="A" x1="12" y1="0" x2="12" y2="32" gradientUnits="userSpaceOnUse"><stop stop-color="#e5632a"/><stop offset="1" stop-color="#ffc4aa"/></linearGradient></defs></svg>