<svg xmlns="http://www.w3.org/2000/svg" xmlns:xlink="http://www.w3.org/1999/xlink" width="28" height="32" fill="none" xmlns:v="https://vecta.io/nano"><g clip-path="url(#H)"><path d="M15.902 21.257c-.121-.131-.275-.229-.433-.31-.345-.177-.723-.285-1.097-.382v2.863c.608-.068 1.307-.285 1.626-.845.153-.267.183-.596.121-.893-.034-.161-.103-.309-.216-.431z" fill="url(#A)"/><path d="M15.994 22.586z" fill="url(#B)"/><path d="M11.518 16.681c-.105.151-.17.322-.188.503a1.19 1.19 0 0 0 .062.556c.067.163.207.284.351.381.162.109.341.194.522.266l.509.174v-2.59c-.467.098-.977.308-1.256.71z" fill="url(#C)"/><path d="M16.009 22.561l-.012.021.012-.021z" fill="url(#D)"/><path d="M16.024 22.536h0z" fill="url(#E)"/><path d="M15.985 22.602l-.012.021.012-.021z" fill="url(#F)"/><path d="M15.675 6.963C18.19 4.918 19.871.311 18.837.109c-1.375-.268-4.359.907-5.802 1.114-2.046.239-4.275-2.147-5.526-.817-1.017 1.081.729 5.014 3.461 6.728-8.151 3.877-19.607 23.338.379 24.75 27.655 1.954 13.807-21.143 4.325-24.92zm2.375 15.348c-.085.759-.501 1.445-1.122 1.911-.656.492-1.478.721-2.296.785v.838a.78.78 0 0 1-.275.59.84.84 0 0 1-.878.125c-.286-.127-.474-.411-.474-.715v-.916c-.14-.026-.279-.056-.417-.093-.764-.203-1.472-.599-1.99-1.184-.258-.292-.468-.623-.613-.981-.038-.093-.072-.189-.101-.285-.027-.087-.055-.176-.064-.266-.016-.152.015-.308.088-.443.151-.279.469-.448.793-.42.319.027.599.242.7.536.031.091.052.184.087.274s.076.176.125.258a2.02 2.02 0 0 0 .357.442c.287.268.654.442 1.035.546v-3.114c-.746-.187-1.517-.428-2.133-.892a2.42 2.42 0 0 1-.72-.837c-.176-.35-.248-.74-.251-1.127a2.61 2.61 0 0 1 .244-1.141c.159-.335.387-.636.667-.886.599-.534 1.395-.831 2.193-.941v-.069-.802a.78.78 0 0 1 .275-.59.84.84 0 0 1 .878-.125c.286.127.474.411.474.715v.802.064c.106.013.212.029.318.047.784.137 1.551.45 2.124.997.271.259.494.568.65.904.044.094.082.19.115.288.031.091.062.185.076.281.023.152-.001.309-.068.449-.138.285-.447.467-.772.453a.82.82 0 0 1-.724-.504c-.034-.086-.051-.177-.086-.263s-.081-.17-.133-.248c-.102-.152-.234-.283-.384-.39-.326-.233-.721-.354-1.117-.422v2.98c.47.109.94.228 1.39.399.68.26 1.324.657 1.695 1.285-.058-.098-.114-.193.002.003s.059.101.002.004c.295.504.392 1.106.328 1.678z" fill="url(#G)"/></g><defs><linearGradient id="A" x1="14.81" y1="20.565" x2="16.411" y2="22.771" xlink:href="#I"><stop stop-color="#d7d1fd"/><stop offset="1" stop-color="#6c639f"/></linearGradient><linearGradient id="B" x1="15.995" y1="22.582" x2="15.995" y2="22.586" xlink:href="#I"><stop stop-color="#76f2af"/><stop offset="1" stop-color="#59b483"/></linearGradient><linearGradient id="C" x1="11.68" y1="15.971" x2="13.168" y2="17.823" xlink:href="#I"><stop stop-color="#d7d1fd"/><stop offset="1" stop-color="#6c639f"/></linearGradient><linearGradient id="D" x1="16.003" y1="22.561" x2="16.003" y2="22.582" xlink:href="#I"><stop stop-color="#76f2af"/><stop offset="1" stop-color="#59b483"/></linearGradient><linearGradient id="E" x1="16.025" y1="22.533" x2="16.025" y2="22.536" xlink:href="#I"><stop stop-color="#76f2af"/><stop offset="1" stop-color="#59b483"/></linearGradient><linearGradient id="F" x1="15.979" y1="22.602" x2="15.979" y2="22.623" xlink:href="#I"><stop stop-color="#76f2af"/><stop offset="1" stop-color="#59b483"/></linearGradient><linearGradient id="G" x1="13.942" y1="0" x2="13.942" y2="32" xlink:href="#I"><stop stop-color="#188557"/><stop offset="1" stop-color="#8de4ab"/></linearGradient><clipPath id="H"><path fill="#fff" d="M0 0h28v32H0z"/></clipPath><linearGradient id="I" gradientUnits="userSpaceOnUse"/></defs></svg>