<svg xmlns="http://www.w3.org/2000/svg" width="32" height="32" fill="none" xmlns:v="https://vecta.io/nano"><path d="M32 7.563V2.875C32 1.324 30.738.063 29.188.063H2.813C1.262.063 0 1.324 0 2.875v4.688h32zm-10.375-3.75h5.625a.94.94 0 0 1 .938.938.94.94 0 0 1-.937.938h-5.625a.94.94 0 0 1-.937-.937.94.94 0 0 1 .938-.937zm-9.375 0a.94.94 0 0 1 .938.938.94.94 0 0 1-.937.938.94.94 0 0 1-.937-.937.94.94 0 0 1 .938-.937zm-3.75 0a.94.94 0 0 1 .938.938.94.94 0 0 1-.937.938.94.94 0 0 1-.937-.937.94.94 0 0 1 .938-.937zm-3.75 0a.94.94 0 0 1 .938.938.94.94 0 0 1-.937.938.94.94 0 0 1-.937-.937.94.94 0 0 1 .938-.937z" fill="url(#A)"/><path d="M0 9.438v19.688c0 1.551 1.262 2.813 2.813 2.813h26.375c1.551 0 2.813-1.262 2.813-2.812V9.438H0zm10.961 13.33a.94.94 0 0 1 .147 1.318.94.94 0 0 1-1.318.146l-4.688-3.75a.94.94 0 0 1 0-1.464l4.688-3.75a.94.94 0 0 1 1.318.146.94.94 0 0 1-.147 1.318L7.188 19.75l3.772 3.018zm8.714-9.211l-5.625 13.125a.94.94 0 0 1-1.231.492.94.94 0 0 1-.492-1.231l5.625-13.125a.94.94 0 0 1 1.231-.492.94.94 0 0 1 .492 1.231zm7.224 6.925l-4.687 3.75a.94.94 0 0 1-1.318-.146.94.94 0 0 1 .146-1.318l3.772-3.018-3.772-3.018a.94.94 0 0 1-.146-1.318.94.94 0 0 1 1.318-.146l4.688 3.75a.94.94 0 0 1 0 1.464z" fill="url(#B)"/><defs><linearGradient id="A" x1="16" y1=".063" x2="16" y2="7.563" gradientUnits="userSpaceOnUse"><stop stop-color="#184a85"/><stop offset="1" stop-color="#8dd6e4"/></linearGradient><linearGradient id="B" x1="16" y1="9.438" x2="16" y2="31.938" gradientUnits="userSpaceOnUse"><stop stop-color="#184a85"/><stop offset="1" stop-color="#8dd6e4"/></linearGradient></defs></svg>