<svg xmlns="http://www.w3.org/2000/svg" width="24" height="24" fill="none" xmlns:v="https://vecta.io/nano"><path d="M12 0A12 12 0 0 0 .913 7.408a12 12 0 0 0 2.601 13.077 12 12 0 0 0 13.077 2.601A12 12 0 0 0 24 12 12 12 0 0 0 12 0zm6.411 12.754l-9.429 5.143c-.13.075-.278.115-.429.115s-.298-.04-.429-.115-.235-.189-.307-.322-.108-.282-.104-.432V6.857c0-.149.039-.295.112-.424s.18-.237.308-.313.278-.115.429-.115.298.04.429.115l9.429 5.143c.136.073.25.182.329.315s.121.285.121.439-.042.306-.121.439-.193.242-.329.315l-.009-.017z" fill="#f26d00"/></svg>