<svg width="100" height="100" viewBox="0 0 100 100" fill="none" xmlns="http://www.w3.org/2000/svg">
<path d="M49.5002 70.9618C37.6662 70.9618 28.0386 61.3342 28.0386 49.5002C28.0386 37.6662 37.6662 28.0386 49.5002 28.0386C61.3342 28.0386 70.9618 37.6662 70.9618 49.5002C70.9618 61.3342 61.3342 70.9618 49.5002 70.9618ZM49.5002 29.4232C38.4298 29.4232 29.4232 38.4298 29.4232 49.5002C29.4232 60.5707 38.4298 69.5772 49.5002 69.5772C60.5707 69.5772 69.5771 60.5707 69.5771 49.5002C69.5771 38.4298 60.5707 29.4232 49.5002 29.4232Z" fill="#F26D00"/>
<path d="M49.4999 62.6842C42.2303 62.6842 36.3159 56.7698 36.3159 49.5002C36.3159 42.2306 42.2301 36.3162 49.4999 36.3162C56.7695 36.3162 62.6839 42.2304 62.6839 49.5002C62.6839 56.7698 56.7695 62.6842 49.4999 62.6842ZM49.4999 37.7008C42.9938 37.7008 37.7005 42.994 37.7005 49.5002C37.7005 56.0063 42.9938 61.2996 49.4999 61.2996C56.0061 61.2996 61.2993 56.0063 61.2993 49.5002C61.2993 42.994 56.0061 37.7008 49.4999 37.7008Z" fill="#F26D00"/>
<path d="M49.5002 22.5001C49.1178 22.5001 48.8078 22.1901 48.8078 21.8078V11.077L42.9924 15.4386C42.6866 15.6677 42.2527 15.6059 42.0232 15.3001C41.7939 14.9943 41.8559 14.5604 42.1617 14.3309L49.0848 9.13854C49.2947 8.98104 49.5753 8.95578 49.8098 9.07329C50.0443 9.19047 50.1925 9.43018 50.1925 9.69239V21.8078C50.1925 22.1901 49.8825 22.5001 49.5002 22.5001Z" fill="#F26D00"/>
<path d="M56.423 15.577C56.2785 15.577 56.1326 15.532 56.0081 15.4385L49.085 10.2462C48.7792 10.0167 48.7172 9.58282 48.9466 9.27699C49.1762 8.97116 49.61 8.9092 49.916 9.13853L56.8391 14.3308C57.1449 14.5603 57.2068 14.9943 56.9775 15.3001C56.8413 15.4815 56.6334 15.577 56.423 15.577Z" fill="#F26D00"/>
<path d="M49.5002 90.0003C49.3531 90.0003 49.207 89.9534 49.0848 89.8618L42.1617 84.6695C41.8557 84.44 41.7939 84.0061 42.0233 83.7001C42.2528 83.3944 42.6867 83.3327 42.9925 83.5616L48.8079 87.9234V77.1926C48.8079 76.8102 49.1179 76.5003 49.5002 76.5003C49.8825 76.5003 50.1925 76.8102 50.1925 77.1926V89.308C50.1925 89.5702 50.0444 89.8099 49.8098 89.9272C49.7119 89.9761 49.6058 90.0003 49.5002 90.0003Z" fill="#F26D00"/>
<path d="M49.5009 90.0003C49.2905 90.0003 49.0826 89.9048 48.9466 89.7234C48.7172 89.4174 48.7792 88.9835 49.085 88.754L56.0081 83.5616C56.3143 83.3327 56.748 83.3943 56.9775 83.7001C57.2068 84.0061 57.1449 84.44 56.8391 84.6695L49.916 89.8618C49.7913 89.9551 49.6454 90.0003 49.5009 90.0003Z" fill="#F26D00"/>
<path d="M69.1324 30.611C68.9553 30.611 68.7781 30.5434 68.6429 30.4084C68.3724 30.1378 68.3724 29.6996 68.6429 29.4293L76.2306 21.8416L69.0346 20.8136C68.6559 20.7595 68.393 20.4088 68.447 20.0305C68.5011 19.6518 68.8534 19.389 69.2302 19.4429L77.797 20.6667C78.0566 20.7037 78.2729 20.8844 78.3558 21.1331C78.4387 21.382 78.3738 21.6562 78.1885 21.8417L69.6217 30.4087C69.4867 30.5434 69.3094 30.611 69.1324 30.611Z" fill="#F26D00"/>
<path d="M78.9223 30.611C78.5832 30.611 78.2871 30.362 78.2377 30.0165L77.0139 21.4495C76.9597 21.071 77.2228 20.7204 77.6015 20.6662C77.9797 20.6122 78.3307 20.8751 78.3847 21.2536L79.6085 29.8206C79.6627 30.1991 79.3996 30.5498 79.0209 30.604C78.9879 30.6088 78.955 30.611 78.9223 30.611Z" fill="#F26D00"/>
<path d="M21.4021 78.3409C21.3289 78.3409 21.255 78.3293 21.1831 78.3055C20.9344 78.2225 20.7539 78.0062 20.7167 77.7466L19.4929 69.1796C19.4389 68.8011 19.7019 68.4504 20.0805 68.3964C20.4585 68.3424 20.8096 68.6055 20.8636 68.984L21.8915 76.1802L29.4793 68.5924C29.7498 68.3218 30.188 68.3218 30.4584 68.5924C30.7287 68.8627 30.7287 69.3011 30.4584 69.5713L21.8914 78.1383C21.7598 78.2701 21.5828 78.3409 21.4021 78.3409Z" fill="#F26D00"/>
<path d="M29.9698 79.5649C29.9372 79.5649 29.9044 79.5625 29.8709 79.5578L21.304 78.334C20.9254 78.2798 20.6624 77.9292 20.7165 77.5508C20.7707 77.1721 21.1198 76.9087 21.4999 76.9632L30.0669 78.1871C30.4454 78.2412 30.7085 78.5919 30.6543 78.9702C30.605 79.3157 30.3088 79.5649 29.9698 79.5649Z" fill="#F26D00"/>
<path d="M89.3077 50.1925H77.1923C76.81 50.1925 76.5 49.8825 76.5 49.5002C76.5 49.1179 76.81 48.8079 77.1923 48.8079H87.9231L83.5616 42.9925C83.3322 42.6867 83.3942 42.2527 83.7 42.0232C84.0062 41.7939 84.4399 41.8559 84.6694 42.1617L89.8617 49.0848C90.0191 49.2947 90.0443 49.5753 89.9272 49.8098C89.8096 50.0443 89.5699 50.1925 89.3077 50.1925Z" fill="#F26D00"/>
<path d="M84.1156 57.1156C83.9711 57.1156 83.8252 57.0704 83.7007 56.9771C83.3949 56.7478 83.333 56.3137 83.5623 56.0077L88.7546 49.0846C88.9841 48.779 89.4182 48.7168 89.724 48.9462C90.0298 49.1755 90.0918 49.6096 89.8625 49.9156L84.6701 56.8387C84.5339 57.0199 84.3261 57.1156 84.1156 57.1156Z" fill="#F26D00"/>
<path d="M21.8078 50.1925H9.69239C9.43017 50.1925 9.19046 50.0443 9.07312 49.8098C8.95577 49.5753 8.98121 49.2946 9.13837 49.0848L14.3307 42.1617C14.5604 41.8557 14.9941 41.7939 15.2999 42.0232C15.6059 42.2527 15.6677 42.6866 15.4384 42.9925L11.077 48.8079H21.8078C22.1901 48.8079 22.5001 49.1178 22.5001 49.5002C22.5001 49.8825 22.1901 50.1925 21.8078 50.1925Z" fill="#F26D00"/>
<path d="M14.8851 57.1156C14.6747 57.1156 14.4668 57.02 14.3308 56.8387L9.13845 49.9156C8.90912 49.6096 8.97109 49.1757 9.27691 48.9462C9.58257 48.7168 10.0165 48.7788 10.2461 49.0846L15.4385 56.0077C15.6678 56.3137 15.6058 56.7476 15.3 56.9771C15.1756 57.0704 15.0297 57.1156 14.8851 57.1156Z" fill="#F26D00"/>
<path d="M77.6998 78.3409C77.5189 78.3409 77.342 78.2701 77.2101 78.1381L68.6433 69.5711C68.3728 69.3007 68.3728 68.8623 68.6433 68.5922C68.9135 68.3216 69.3519 68.3216 69.6222 68.5922L77.2101 76.1801L78.238 68.9838C78.2922 68.6051 78.6436 68.3424 79.0212 68.3962C79.3999 68.4504 79.6628 68.8011 79.6088 69.1794L78.385 77.7464C78.3478 78.006 78.1672 78.2224 77.9185 78.3053C77.8467 78.3292 77.773 78.3409 77.6998 78.3409Z" fill="#F26D00"/>
<path d="M69.132 79.5649C68.793 79.5649 68.4968 79.3157 68.4475 78.9702C68.3933 78.5917 68.6564 78.241 69.0351 78.187L77.6019 76.9632C77.9801 76.9099 78.3311 77.1721 78.3851 77.5508C78.4393 77.9293 78.1762 78.28 77.7975 78.334L69.2307 79.5578C69.1976 79.5625 69.1646 79.5649 69.132 79.5649Z" fill="#F26D00"/>
<path d="M29.9693 30.611C29.7921 30.611 29.615 30.5434 29.4797 30.4084L20.9127 21.8414C20.7273 21.656 20.6626 21.3817 20.7455 21.1328C20.8284 20.8841 21.0448 20.7036 21.3044 20.6663L29.8713 19.4425C30.2493 19.3885 30.6005 19.6514 30.6545 20.0301C30.7085 20.4086 30.4454 20.7593 30.0669 20.8133L22.8707 21.8412L30.4586 29.4289C30.7289 29.6994 30.7289 30.1377 30.4586 30.408C30.3238 30.5434 30.1465 30.611 29.9693 30.611Z" fill="#F26D00"/>
<path d="M20.1796 30.611C20.1471 30.611 20.1142 30.6088 20.081 30.6039C19.7024 30.5498 19.4394 30.1991 19.4934 29.8208L20.7172 21.2539C20.7714 20.8754 21.1215 20.6123 21.5004 20.6663C21.8789 20.7205 22.142 21.0712 22.088 21.4495L20.8641 30.0165C20.8148 30.3618 20.5185 30.611 20.1796 30.611Z" fill="#F26D00"/>
</svg>
