<svg width="100" height="100" viewBox="0 0 100 100" fill="none" xmlns="http://www.w3.org/2000/svg">
<path d="M70.8005 46.7126C74.7242 46.7126 78.2766 48.3031 80.8479 50.8744C83.4193 53.4458 85.0098 56.9981 85.0098 60.9218C85.0098 64.8454 83.4192 68.3978 80.8479 70.9692C78.2766 73.5405 74.7242 75.131 70.8005 75.131C66.8769 75.131 63.3246 73.5405 60.7531 70.9692C58.1818 68.3978 56.5913 64.8454 56.5913 60.9218C56.5913 56.9981 58.1818 53.4458 60.7532 50.8744C63.3246 48.303 66.8769 46.7126 70.8005 46.7126V46.7126ZM79.662 52.0604C77.3942 49.7926 74.2612 48.3899 70.8005 48.3899C67.3399 48.3899 64.2068 49.7926 61.9391 52.0604C59.6714 54.3281 58.2687 57.4612 58.2687 60.9218C58.2687 64.3824 59.6714 67.5155 61.9391 69.7833C64.2068 72.051 67.3399 73.4537 70.8005 73.4537C74.2612 73.4537 77.3942 72.051 79.662 69.7833C81.9297 67.5155 83.3324 64.3824 83.3324 60.9218C83.3324 57.4612 81.9297 54.3281 79.662 52.0604V52.0604Z" fill="#F26D00"/>
<path d="M70.6994 68.9689V67.371C69.8989 67.271 69.25 67.0921 68.7498 66.8343C68.2495 66.5766 67.8158 66.1582 67.452 65.5851C67.0882 65.0091 66.8759 64.3087 66.8184 63.4809L68.4253 63.1777C68.5496 64.0358 68.768 64.6665 69.0833 65.0697C69.532 65.6397 70.0717 65.955 70.6994 66.0188V60.931C70.0414 60.8067 69.3713 60.552 68.683 60.1669C68.1736 59.8819 67.7826 59.4878 67.5066 58.9844C67.2307 58.4811 67.0942 57.9111 67.0942 57.2713C67.0942 56.1343 67.4975 55.2126 68.301 54.5091C68.8407 54.0331 69.6412 53.7451 70.6994 53.6389V52.8748H71.6423V53.6389C72.5701 53.7269 73.3099 53.9998 73.8527 54.4545C74.5531 55.0336 74.9715 55.8311 75.114 56.8438L73.4616 57.0924C73.3676 56.4648 73.1704 55.9827 72.8703 55.6492C72.5731 55.3156 72.1639 55.0943 71.6423 54.9882V59.5969C72.4458 59.8 72.9795 59.9577 73.2402 60.0699C73.7375 60.2882 74.1437 60.555 74.4561 60.8673C74.7714 61.1827 75.0139 61.5556 75.1807 61.9861C75.3505 62.4197 75.4354 62.8867 75.4354 63.39C75.4354 64.4997 75.0807 65.4214 74.3772 66.1613C73.6738 66.9041 72.7612 67.2982 71.6423 67.3528V68.9689H70.6994L70.6994 68.9689ZM70.6994 54.97C70.0778 55.064 69.5866 55.3126 69.2288 55.7159C68.871 56.1191 68.6921 56.5952 68.6921 57.147C68.6921 57.6898 68.8437 58.1476 69.1499 58.5145C69.4562 58.8813 69.9717 59.1754 70.6994 59.3937V54.97V54.97ZM71.6423 66.0188C72.2639 65.9429 72.7763 65.6731 73.1826 65.2122C73.5889 64.7513 73.792 64.1783 73.792 63.4961C73.792 62.9169 73.6465 62.45 73.3615 62.0983C73.0734 61.7466 72.5004 61.4313 71.6423 61.1523V66.0188H71.6423Z" fill="#F26D00"/>
<path d="M70.8007 41.207C76.2447 41.207 81.1734 43.4137 84.7411 46.9814C88.3087 50.549 90.5155 55.4778 90.5155 60.9218C90.5155 66.3657 88.3087 71.2945 84.7411 74.8621C81.1734 78.4298 76.2447 80.6365 70.8007 80.6365C65.3567 80.6365 60.428 78.4298 56.8603 74.8621C53.2927 71.2944 51.0859 66.3657 51.0859 60.9218C51.0859 55.4778 53.2927 50.5491 56.8603 46.9814C60.428 43.4137 65.3567 41.207 70.8007 41.207V41.207ZM83.5551 48.1673C80.2911 44.9033 75.7817 42.8844 70.8007 42.8844C65.8197 42.8844 61.3103 44.9033 58.0463 48.1673C54.7823 51.4313 52.7633 55.9408 52.7633 60.9218C52.7633 65.9027 54.7823 70.4122 58.0463 73.6762C61.3103 76.9403 65.8197 78.9591 70.8007 78.9591C75.7817 78.9591 80.2911 76.9403 83.5551 73.6762C86.8192 70.4122 88.8381 65.9027 88.8381 60.9218C88.8381 55.9408 86.8192 51.4313 83.5551 48.1673V48.1673Z" fill="#F26D00"/>
<path d="M29.7141 22.4731C33.5344 22.4731 37.008 23.2355 39.5354 24.468C42.2465 25.79 43.9233 27.6824 43.9233 29.8319C43.9233 31.9813 42.2464 33.8738 39.5355 35.1958C37.008 36.4282 33.5344 37.1907 29.7141 37.1907C25.8938 37.1907 22.4201 36.4282 19.8927 35.1958C17.1818 33.8738 15.5049 31.9813 15.5049 29.8319C15.5049 27.6824 17.1818 25.79 19.8928 24.468C22.4202 23.2355 25.8938 22.4731 29.7141 22.4731V22.4731ZM38.8015 25.975C36.49 24.8478 33.2781 24.1505 29.7141 24.1505C26.1501 24.1505 22.9383 24.8478 20.6267 25.975C18.4986 27.0127 17.1823 28.3804 17.1823 29.8319C17.1823 31.2834 18.4986 32.6511 20.6266 33.6888C22.9382 34.816 26.1501 35.5133 29.7141 35.5133C33.2781 35.5133 36.49 34.816 38.8016 33.6888C40.9296 32.6511 42.246 31.2834 42.246 29.8319C42.246 28.3804 40.9296 27.0127 38.8015 25.975V25.975Z" fill="#F26D00"/>
<path d="M29.4254 32.0792V30.1096C28.2642 29.9331 27.4121 29.6682 26.8694 29.3119C26.3297 28.9555 26.0569 28.5237 26.0569 28.0165C26.0569 27.5028 26.3631 27.0711 26.9756 26.7211C27.5911 26.3712 28.4067 26.1705 29.4254 26.116V25.6505H30.711V26.116C31.654 26.1769 32.4028 26.3455 32.9608 26.6264C33.5157 26.9073 33.8703 27.2829 34.025 27.7532L31.7782 27.9089C31.6418 27.5382 31.2871 27.2877 30.711 27.1561V28.994C32.133 29.1979 33.1033 29.4628 33.6156 29.787C34.1311 30.1113 34.3888 30.527 34.3888 31.0358C34.3888 31.6024 34.0644 32.0808 33.4186 32.4692C32.7698 32.8593 31.8662 33.0969 30.711 33.1851V34.0648H29.4254V33.2076C28.4007 33.1418 27.5669 32.9395 26.9271 32.6008C26.2873 32.2638 25.8811 31.7854 25.7021 31.1674L28.0217 31.0358C28.1156 31.2862 28.2945 31.5029 28.5553 31.6843C28.813 31.8657 29.104 31.9973 29.4254 32.0792H29.4254ZM29.4254 27.1417C29.0737 27.2043 28.7978 27.3118 28.5886 27.4611C28.3824 27.612 28.2794 27.7789 28.2794 27.9603C28.2794 28.1256 28.3733 28.2813 28.5613 28.4226C28.7523 28.5654 29.0404 28.681 29.4254 28.7693V27.1417V27.1417ZM30.711 32.145C31.1567 32.1017 31.5175 31.9925 31.7965 31.8192C32.0754 31.6442 32.2149 31.4403 32.2149 31.2043C32.2149 30.9941 32.0967 30.8143 31.8632 30.6618C31.6298 30.5093 31.2446 30.3921 30.711 30.3119V32.145V32.145Z" fill="#F26D00"/>
<path d="M29.7148 19C35.0633 19 39.9214 20.1561 43.452 22.0252C47.1451 23.9805 49.4295 26.7372 49.4295 29.8319C49.4295 32.9266 47.1452 35.6833 43.452 37.6385C39.9215 39.5076 35.0633 40.6638 29.7148 40.6638C24.3662 40.6638 19.5081 39.5076 15.9775 37.6385C12.2843 35.6833 10 32.9266 10 29.8319C10 26.7372 12.2844 23.9805 15.9775 22.0252C19.5081 20.1561 24.3662 19 29.7148 19ZM42.6723 23.506C39.3712 21.7584 34.7911 20.6774 29.7148 20.6774C24.6384 20.6774 20.0583 21.7584 16.7572 23.506C13.6187 25.1676 11.6774 27.4075 11.6774 29.8319C11.6774 32.2563 13.6186 34.4962 16.7572 36.1578C20.0583 37.9054 24.6384 38.9864 29.7148 38.9864C34.7911 38.9864 39.3712 37.9054 42.6723 36.1578C45.8109 34.4962 47.7521 32.2563 47.7521 29.8319C47.7521 27.4075 45.8108 25.1676 42.6723 23.506V23.506Z" fill="#F26D00"/>
<path d="M48.2098 32.6976C48.605 33.2895 48.9105 33.9073 49.1166 34.5458C49.3222 35.1826 49.4295 35.8336 49.4295 36.4938C49.4295 39.5885 47.1451 42.3453 43.452 44.3005C39.9214 46.1697 35.0632 47.3258 29.7147 47.3258C24.3661 47.3258 19.5081 46.1697 15.9775 44.3005C12.2844 42.3453 10 39.5885 10 36.4938C10 35.8336 10.1073 35.1826 10.3129 34.5457C10.5191 33.9072 10.8245 33.2896 11.2197 32.6976L11.9143 31.6575L12.6088 32.6976C13.8246 34.5186 16.1265 36.0929 19.124 37.2147C22.1054 38.3306 25.7583 38.9863 29.7147 38.9863C33.6712 38.9863 37.324 38.3306 40.3055 37.2147C43.303 36.0928 45.605 34.5185 46.8208 32.6976L47.5153 31.6575L48.2098 32.6976L48.2098 32.6976ZM47.5244 35.0568C47.4838 34.9308 47.4378 34.8056 47.3867 34.6811C45.8945 36.3382 43.6456 37.7489 40.8887 38.7807C37.7196 39.9667 33.864 40.6637 29.7147 40.6637C25.5655 40.6637 21.7098 39.9667 18.5408 38.7807C15.7839 37.7489 13.5351 36.3381 12.0428 34.6811C11.9917 34.8055 11.9458 34.9308 11.9051 35.0567C11.7555 35.5201 11.6774 36.0002 11.6774 36.4939C11.6774 38.9182 13.6187 41.1582 16.7572 42.8198C20.0582 44.5674 24.6383 45.6484 29.7147 45.6484C34.7911 45.6484 39.3712 44.5674 42.6723 42.8198C45.8108 41.1582 47.7521 38.9182 47.7521 36.4939C47.7521 36.0003 47.674 35.5202 47.5244 35.0568H47.5244Z" fill="#F26D00"/>
<path d="M48.2098 39.3599C48.605 39.9518 48.9105 40.5696 49.1166 41.2081C49.3222 41.8449 49.4295 42.4959 49.4295 43.1561C49.4295 46.2508 47.1451 49.0076 43.452 50.9628C39.9213 52.8319 35.0633 53.988 29.7147 53.988C24.3661 53.988 19.5081 52.8319 15.9775 50.9628C12.2843 49.0076 10 46.2508 10 43.1561C10 42.4958 10.1073 41.8448 10.3129 41.208C10.5191 40.5695 10.8245 39.9519 11.2197 39.3599L12.6088 40.2903C12.2999 40.7528 12.0628 41.2304 11.9051 41.719C11.7555 42.1824 11.6774 42.6625 11.6774 43.1561C11.6774 45.5805 13.6187 47.8204 16.7572 49.482C20.0583 51.2296 24.6383 52.3106 29.7147 52.3106C34.791 52.3106 39.3712 51.2296 42.6723 49.482C45.8108 47.8204 47.7521 45.5805 47.7521 43.1561C47.7521 42.6626 47.674 42.1825 47.5244 41.7191C47.3667 41.2305 47.1295 40.7528 46.8207 40.2903L48.2098 39.3599L48.2098 39.3599Z" fill="#F26D00"/>
<path d="M48.2098 46.022C48.605 46.6139 48.9105 47.2317 49.1166 47.8702C49.3222 48.507 49.4295 49.158 49.4295 49.8183C49.4295 52.9129 47.1452 55.6697 43.452 57.6249C39.9214 59.494 35.0633 60.6501 29.7147 60.6501C24.3661 60.6501 19.5081 59.494 15.9775 57.6249C12.2843 55.6697 10 52.9129 10 49.8183C10 49.1579 10.1073 48.5069 10.3129 47.8701C10.5191 47.2316 10.8245 46.614 11.2197 46.022L12.6088 46.9524C12.2999 47.4149 12.0628 47.8925 11.9051 48.3811C11.7555 48.8445 11.6774 49.3246 11.6774 49.8182C11.6774 52.2426 13.6186 54.4826 16.7571 56.1441C20.0582 57.8917 24.6383 58.9727 29.7147 58.9727C34.7911 58.9727 39.3712 57.8917 42.6723 56.1441C45.8109 54.4826 47.7521 52.2426 47.7521 49.8182C47.7521 49.3247 47.674 48.8446 47.5244 48.3812C47.3667 47.8926 47.1295 47.4149 46.8207 46.9524L48.2098 46.022L48.2098 46.022Z" fill="#F26D00"/>
<path d="M48.2098 52.6841C48.605 53.276 48.9105 53.8938 49.1166 54.5323C49.3222 55.1691 49.4295 55.8201 49.4295 56.4803C49.4295 59.575 47.1452 62.3318 43.452 64.287C39.9214 66.1561 35.0633 67.3122 29.7147 67.3122C24.3661 67.3122 19.5081 66.1561 15.9775 64.287C12.2843 62.3318 10 59.575 10 56.4803C10 55.82 10.1073 55.169 10.3129 54.5322C10.5191 53.8937 10.8245 53.2761 11.2197 52.6841L12.6088 53.6145C12.2999 54.077 12.0628 54.5546 11.9051 55.0432C11.7555 55.5066 11.6774 55.9867 11.6774 56.4803C11.6774 58.9047 13.6186 61.1447 16.7571 62.8062C20.0582 64.5538 24.6383 65.6348 29.7147 65.6348C34.7911 65.6348 39.3712 64.5538 42.6723 62.8062C45.8109 61.1447 47.7521 58.9047 47.7521 56.4803C47.7521 55.9868 47.674 55.5067 47.5244 55.0433C47.3667 54.5547 47.1295 54.077 46.8207 53.6145L48.2098 52.6841L48.2098 52.6841Z" fill="#F26D00"/>
<path d="M48.2098 59.3462C48.605 59.9381 48.9105 60.5559 49.1166 61.1944C49.3222 61.8312 49.4295 62.4822 49.4295 63.1424C49.4295 66.2371 47.1452 68.9939 43.452 70.9491C39.9214 72.8182 35.0633 73.9743 29.7147 73.9743C24.3661 73.9743 19.5081 72.8182 15.9775 70.9491C12.2843 68.9939 10 66.2371 10 63.1424C10 62.4822 10.1073 61.8312 10.3129 61.1943C10.5191 60.5558 10.8245 59.9382 11.2197 59.3462L12.6088 60.2766C12.2999 60.7391 12.0628 61.2167 11.9051 61.7053C11.7555 62.1687 11.6774 62.6488 11.6774 63.1424C11.6774 65.5668 13.6186 67.8068 16.7571 69.4683C20.0582 71.2159 24.6383 72.2969 29.7147 72.2969C34.7911 72.2969 39.3712 71.2159 42.6723 69.4683C45.8109 67.8068 47.7521 65.5668 47.7521 63.1424C47.7521 62.6489 47.674 62.1688 47.5244 61.7054C47.3667 61.2168 47.1295 60.7391 46.8207 60.2766L48.2098 59.3462L48.2098 59.3462Z" fill="#F26D00"/>
<path d="M48.2098 66.0083C48.605 66.6002 48.9105 67.2179 49.1166 67.8565C49.3222 68.4933 49.4295 69.1443 49.4295 69.8045C49.4295 72.8992 47.1451 75.656 43.452 77.6112C39.9214 79.4804 35.0632 80.6365 29.7147 80.6365C24.3661 80.6365 19.5081 79.4804 15.9775 77.6112C12.2844 75.656 10 72.8992 10 69.8045C10 69.1443 10.1073 68.4933 10.3129 67.8564C10.5191 67.2179 10.8245 66.6003 11.2197 66.0083L12.6088 66.9387C12.2999 67.4012 12.0628 67.8788 11.9051 68.3674C11.7555 68.8308 11.6774 69.3109 11.6774 69.8045C11.6774 72.2289 13.6187 74.4689 16.7571 76.1305C20.0582 77.8781 24.6383 78.9591 29.7147 78.9591C34.791 78.9591 39.3712 77.8781 42.6723 76.1305C45.8108 74.4689 47.7521 72.2288 47.7521 69.8045C47.7521 69.311 47.674 68.8309 47.5244 68.3675C47.3667 67.8789 47.1295 67.4012 46.8207 66.9387L48.2098 66.0083L48.2098 66.0083Z" fill="#F26D00"/>
</svg>
