<svg xmlns="http://www.w3.org/2000/svg" width="28" height="30" fill="none" xmlns:v="https://vecta.io/nano"><path d="M14 10a5 5 0 0 0-4.619 3.087 5 5 0 0 0 1.084 5.449 5 5 0 0 0 5.449 1.084A5 5 0 0 0 19 15c-.004-1.325-.532-2.594-1.469-3.531S15.325 10.004 14 10zm10.795 5c-.003.467-.037.934-.102 1.396l3.043 2.383c.133.11.222.262.252.432s-.001.344-.088.492l-2.879 4.97c-.088.147-.224.259-.386.315s-.338.054-.498-.007l-3.578-1.437a11.03 11.03 0 0 1-2.426 1.417l-.535 3.799c-.03.17-.118.325-.249.437s-.297.176-.47.179h-5.757a.75.75 0 0 1-.719-.596l-.535-3.799a10.58 10.58 0 0 1-2.426-1.418L3.862 25a.73.73 0 0 1-.884-.308L.1 19.723c-.087-.148-.118-.323-.088-.492s.119-.322.252-.432l3.043-2.383c-.065-.47-.099-.943-.103-1.417.003-.467.037-.934.103-1.396L.264 11.221c-.133-.109-.222-.262-.252-.432s.001-.344.088-.492l2.879-4.97a.73.73 0 0 1 .884-.308L7.44 6.457c.745-.574 1.56-1.05 2.426-1.417l.535-3.799c.03-.17.118-.325.249-.437s.297-.176.47-.179h5.757a.75.75 0 0 1 .719.596l.535 3.799a10.58 10.58 0 0 1 2.429 1.418L24.137 5c.16-.061.336-.063.498-.007s.298.168.386.315l2.879 4.97c.087.148.118.323.088.492s-.119.322-.252.432l-3.043 2.382A10.93 10.93 0 0 1 24.795 15z" fill="url(#A)"/><defs><linearGradient id="A" x1="14" y1=".625" x2="14" y2="29.375" gradientUnits="userSpaceOnUse"><stop stop-color="#49e8e8"/><stop offset="1" stop-color="#1e8080"/></linearGradient></defs></svg>