<svg width="100" height="100" viewBox="0 0 100 100" fill="none" xmlns="http://www.w3.org/2000/svg">
<path d="M49.7139 10C39.7051 10 31.5625 18.1426 31.5625 28.1504V40.8859C25.7095 45.99 22 53.4929 22 61.8506C22 77.1904 34.4805 89.6709 49.8213 89.6709C65.1611 89.6709 77.6416 77.1904 77.6416 61.8506C77.6416 53.3913 73.8419 45.8072 67.8652 40.7004V28.1504C67.8652 18.1426 59.7227 10 49.7139 10ZM33.5625 28.1504C33.5625 19.2451 40.8076 12 49.7139 12C58.6201 12 65.8652 19.2451 65.8652 28.1504V39.1432C64.571 38.226 63.1988 37.4127 61.7549 36.7241V27.9521C61.7549 21.3125 56.3535 15.9111 49.7139 15.9111C43.0742 15.9111 37.6729 21.3125 37.6729 27.9521V36.827C36.2275 37.5316 34.855 38.3613 33.5625 39.2956V28.1504ZM59.7549 35.8695C56.6675 34.6849 53.3204 34.0293 49.8213 34.0293C46.2406 34.0293 42.8195 34.7167 39.6729 35.9542V27.9521C39.6729 22.415 44.1768 17.9111 49.7139 17.9111C55.251 17.9111 59.7549 22.415 59.7549 27.9521V35.8695V35.8695ZM75.6416 61.8506C75.6416 76.0879 64.0586 87.6709 49.8213 87.6709C35.583 87.6709 24 76.0879 24 61.8506C24 47.6123 35.583 36.0293 49.8213 36.0293C64.0586 36.0293 75.6416 47.6123 75.6416 61.8506Z" fill="#F26D00"/>
<path d="M29.5908 61.8506C29.5908 73.0049 38.666 82.0801 49.8213 82.0801C60.9766 82.0801 70.0518 73.0049 70.0518 61.8506C70.0518 50.6953 60.9766 41.6201 49.8213 41.6201C38.666 41.6201 29.5908 50.6953 29.5908 61.8506ZM36.369 49.5897L38.9502 52.1709C39.1455 52.3662 39.4014 52.4639 39.6572 52.4639C39.9131 52.4639 40.1689 52.3662 40.3643 52.1709C40.7549 51.7803 40.7549 51.1475 40.3643 50.7568L37.7936 48.1862C40.7812 45.5533 44.6286 43.891 48.8604 43.6688V47.2148C48.8604 47.7676 49.3076 48.2148 49.8604 48.2148C50.4131 48.2148 50.8604 47.7676 50.8604 47.2148V43.6727C55.0533 43.9108 58.8653 45.5627 61.8321 48.1708L59.3564 50.6465C58.9658 51.0371 58.9658 51.6699 59.3564 52.0605C59.5518 52.2559 59.8076 52.3535 60.0635 52.3535C60.3193 52.3535 60.5752 52.2559 60.7705 52.0605L63.2583 49.5728C65.9858 52.5552 67.7302 56.4363 67.9946 60.7217H64.5234C63.9707 60.7217 63.5234 61.1689 63.5234 61.7217C63.5234 62.2744 63.9707 62.7217 64.5234 62.7217H68.0076C67.8045 66.9885 66.1371 70.8692 63.4853 73.8779L60.8809 71.2734C60.4902 70.8828 59.8574 70.8828 59.4668 71.2734C59.0762 71.6641 59.0762 72.2969 59.4668 72.6875L62.0818 75.3025C59.0808 78.0399 55.1728 79.7826 50.8604 80.0275V76.2295C50.8604 75.6768 50.4131 75.2295 49.8604 75.2295C49.3076 75.2295 48.8604 75.6768 48.8604 76.2295V80.0314C44.509 79.8029 40.5652 78.0499 37.5439 75.2871L40.2539 72.5771C40.6445 72.1865 40.6445 71.5537 40.2539 71.1631C39.8633 70.7725 39.2305 70.7725 38.8398 71.1631L36.142 73.861C33.4989 70.8547 31.8376 66.9805 31.6349 62.7217H35.5088C36.0615 62.7217 36.5088 62.2744 36.5088 61.7217C36.5088 61.1689 36.0615 60.7217 35.5088 60.7217H31.648C31.9119 56.4444 33.6503 52.5699 36.369 49.5897Z" fill="#F26D00"/>
<path d="M49.8604 69.123C54.0488 69.123 57.4561 65.7158 57.4561 61.5273C57.4561 57.3389 54.0488 53.9316 49.8604 53.9316C45.6719 53.9316 42.2646 57.3389 42.2646 61.5273C42.2646 65.7158 45.6719 69.123 49.8604 69.123ZM49.8604 55.9316C52.9463 55.9316 55.4561 58.4414 55.4561 61.5273C55.4561 64.6133 52.9463 67.123 49.8604 67.123C46.7744 67.123 44.2646 64.6133 44.2646 61.5273C44.2646 58.4414 46.7744 55.9316 49.8604 55.9316Z" fill="#F26D00"/>
</svg>
