<svg xmlns="http://www.w3.org/2000/svg" width="32" height="32" fill="none" xmlns:v="https://vecta.io/nano"><path d="M31.133 19.54c-.048 0-.096 0-.096-.049s-.096-.05-.193-.05c-.193-.049-.385-.049-.578-.049-.096 0-.193 0-.289-.05h-.048c-.53-.049-1.108-.148-1.638-.297a.59.59 0 0 1-.337-.346h0l-.385-.099c.193-1.434.096-2.917-.193-4.351-.337-1.434-.915-2.818-1.686-4.054l.289-.297v-.049c0-.148.048-.346.145-.445.433-.396.867-.692 1.349-.989l.289-.148.53-.297c.048-.049.096-.049.145-.099s0-.049 0-.099c.433-.346.53-.939.193-1.384-.145-.198-.433-.346-.674-.346s-.482.099-.674.247l-.048.049c-.048.049-.096.099-.145.099-.145.148-.289.297-.385.445-.048.099-.145.148-.193.198-.337.396-.771.791-1.204 1.088-.096.049-.193.099-.289.099-.048 0-.145 0-.193-.049h-.048l-.385.247-1.204-1.187c-1.782-1.434-3.998-2.324-6.262-2.571l-.048-.396v.049c-.145-.099-.193-.247-.241-.396 0-.544 0-1.088.096-1.681v-.049c0-.099.048-.198.048-.297.048-.198.048-.396.096-.593v-.297c.048-.494-.337-.989-.819-1.038-.289-.049-.578.099-.819.346a.99.99 0 0 0-.289.692v.247c0 .198.048.396.096.593.048.099.048.198.048.297v.049c.096.544.096 1.088.096 1.681-.048.148-.096.297-.241.396v.099l-.048.396c-.53.049-1.06.148-1.638.247-2.264.494-4.335 1.731-5.925 3.461l-.289-.198h-.048c-.048 0-.096.049-.193.049s-.193-.049-.289-.099c-.434-.346-.867-.742-1.204-1.137-.048-.099-.144-.148-.193-.198-.145-.148-.241-.297-.385-.445-.048-.049-.096-.049-.144-.099l-.048-.049c-.193-.148-.434-.247-.674-.247-.289 0-.53.099-.674.346-.289.445-.193 1.038.193 1.384.048 0 .048.049.048.049s.096.099.144.099c.145.099.337.198.53.297l.289.148c.482.297.963.593 1.349.989.096.099.193.297.145.445v-.049l.289.297c-.048.099-.096.148-.144.247-1.493 2.423-2.119 5.291-1.686 8.109l-.385.099c0 .049-.048.049-.048.049-.048.148-.193.247-.337.346-.53.148-1.06.247-1.638.297-.096 0-.193 0-.289.049-.193 0-.385.049-.578.049-.048 0-.096.05-.193.05-.048 0-.048 0-.096.049-.53.099-.867.593-.771 1.137.096.445.53.742.963.692.096 0 .145 0 .241-.05.048 0 .048 0 .048-.049s.145 0 .193 0c.193-.05.385-.148.53-.198.096-.049.193-.099.289-.099h.048c.53-.198 1.012-.346 1.59-.445h.048a.54.54 0 0 1 .385.148c.048 0 .048.05.048.05l.434-.05c.723 2.274 2.071 4.302 3.95 5.785.434.346.819.643 1.301.89l-.241.346c0 .05.048.05.048.05.096.148.096.346.048.494-.193.494-.482.989-.771 1.434v.049c-.048.099-.096.148-.193.247s-.193.297-.337.494c-.048.049-.048.099-.096.148 0 0 0 .049-.048.049-.241.495-.048 1.088.385 1.335.096.05.241.099.337.099.385 0 .723-.247.915-.593 0 0 0-.05.048-.05 0-.049.048-.099.096-.148.048-.198.145-.346.193-.544l.096-.297c.144-.544.385-1.038.626-1.533a.75.75 0 0 1 .385-.297c.048 0 .048 0 .048-.05l.193-.395c1.349.544 2.746.791 4.191.791.867 0 1.734-.099 2.601-.346.53-.099 1.06-.297 1.541-.445l.193.346c.048 0 .048 0 .048.049a.75.75 0 0 1 .385.297c.241.494.482.989.626 1.533v.049l.096.297c.048.198.096.396.193.544.048.049.048.099.096.148 0 0 0 .05.048.05.193.346.53.593.915.593.145 0 .241-.049.385-.099.193-.099.385-.297.433-.544s.048-.494-.048-.742c0-.05-.048-.05-.048-.05 0-.049-.048-.099-.096-.148-.096-.198-.193-.346-.337-.494-.048-.099-.096-.148-.193-.247v-.099c-.337-.445-.578-.939-.771-1.434-.048-.148-.048-.346.048-.494 0-.05.048-.05.048-.05l-.145-.395c2.457-1.533 4.335-3.906 5.202-6.724l.385.049c.048 0 .048-.049.048-.049a.54.54 0 0 1 .385-.148h.048c.53.099 1.06.247 1.541.445h.048c.096.05.193.099.289.099.193.099.337.198.53.247.048 0 .096.05.193.05.048 0 .048 0 .096.049.096.05.145.05.241.05a1.05 1.05 0 0 0 .963-.692c-.048-.544-.433-.939-.867-1.038zm-13.921-1.533l-1.3.643-1.301-.643-.337-1.434.915-1.187h1.445l.915 1.187-.337 1.434zm7.851-3.214c.241 1.038.289 2.077.193 3.115l-4.576-1.335c-.433-.099-.674-.544-.578-.989.048-.148.096-.247.193-.346l3.613-3.362c.53.89.915 1.879 1.156 2.917zm-2.601-4.747l-3.95 2.868c-.337.198-.819.148-1.06-.198-.096-.099-.144-.198-.144-.346l-.289-4.994a8.97 8.97 0 0 1 5.443 2.67zm-8.718-2.522l.963-.198-.241 4.944c0 .445-.385.791-.819.791-.144 0-.241-.049-.385-.099l-3.998-2.917c1.252-1.236 2.794-2.126 4.48-2.522zm-5.877 4.351l3.564 3.263c.337.297.385.791.096 1.137-.096.148-.193.198-.385.247l-4.672 1.384a10.63 10.63 0 0 1 1.397-6.032zm-.819 8.356l4.769-.84c.385 0 .771.247.819.643.048.148.048.346-.048.494l-1.83 4.549a9.69 9.69 0 0 1-3.709-4.846zm10.934 6.131c-.674.148-1.349.247-2.071.247-1.012 0-2.071-.198-3.035-.495l2.36-4.401c.241-.297.626-.396.963-.198.145.099.241.198.385.346l2.312 4.302-.915.198zm5.877-4.302c-.723 1.187-1.734 2.225-2.89 2.967l-1.878-4.648c-.096-.396.096-.791.433-.94.145-.049.289-.099.433-.099l4.817.841c-.241.692-.53 1.335-.915 1.879z" fill="url(#A)"/><defs><linearGradient id="A" x1="16" y1="0" x2="16" y2="32" gradientUnits="userSpaceOnUse"><stop stop-color="#184a85"/><stop offset="1" stop-color="#8dd6e4"/></linearGradient></defs></svg>