<?xml version="1.0" standalone="no"?>
<!DOCTYPE svg PUBLIC "-//W3C//DTD SVG 20010904//EN"
 "http://www.w3.org/TR/2001/REC-SVG-20010904/DTD/svg10.dtd">
<svg version="1.0" xmlns="http://www.w3.org/2000/svg"
 width="326.000000pt" height="326.000000pt" viewBox="0 0 326.000000 326.000000"
 preserveAspectRatio="xMidYMid meet">

<g transform="translate(0.000000,326.000000) scale(0.100000,-0.100000)"
fill="#000000" stroke="none">
<path d="M1492 2625 c-33 -14 -761 -484 -796 -514 -28 -23 -56 -90 -56 -134 0
-49 17 -89 79 -181 l52 -76 -41 0 -40 0 0 -360 0 -360 70 0 70 0 0 252 c0 159
4 248 9 243 6 -6 72 -118 148 -250 l139 -240 77 -3 77 -3 0 361 0 360 -61 0
-62 0 309 201 c170 110 322 213 338 227 54 50 70 128 42 196 -20 48 -139 227
-167 252 -49 43 -127 55 -187 29z m133 -241 c71 -108 75 -117 58 -130 -10 -7
-21 -14 -25 -14 -5 0 -29 32 -54 70 -26 39 -48 70 -50 70 -2 0 10 -36 26 -81
17 -44 30 -84 30 -88 0 -4 -10 -13 -22 -18 -21 -10 -31 -3 -97 61 l-73 71 55
-84 c54 -82 56 -85 36 -99 -11 -7 -23 -12 -28 -10 -8 3 -151 213 -151 222 0 2
16 14 37 26 l36 21 74 -73 74 -73 -32 85 c-44 118 -43 112 -7 137 18 12 34 22
35 22 1 1 36 -51 78 -115z m-286 -177 c23 -71 41 -132 41 -137 0 -5 -10 -14
-21 -21 -19 -10 -29 -4 -90 57 -38 38 -69 66 -69 63 0 -3 15 -43 34 -90 l35
-84 -22 -17 c-20 -15 -23 -15 -48 5 -58 48 -188 162 -188 168 -1 3 10 12 24
19 25 13 28 11 92 -51 36 -35 63 -57 61 -49 -3 8 -18 46 -34 84 l-27 69 23 19
23 19 69 -68 69 -68 -32 89 -32 88 24 18 c13 10 25 18 26 17 1 -2 20 -60 42
-130z m-334 -107 c25 -9 58 -66 49 -82 -3 -4 18 -31 47 -59 40 -40 48 -53 38
-60 -44 -30 -46 -29 -73 6 -30 39 -45 43 -81 19 -31 -20 -31 -26 0 -71 22 -34
23 -37 7 -49 -9 -8 -22 -14 -29 -14 -10 0 -137 183 -150 215 -4 13 129 101
159 104 4 1 18 -3 33 -9z m133 -754 l-3 -125 -89 155 c-134 236 -141 248 -127
240 21 -13 104 14 161 54 l55 38 3 -119 c1 -65 1 -174 0 -243z" />
<path d="M923 2027 c-38 -26 -39 -28 -14 -58 l19 -23 36 27 c38 29 44 45 24
65 -16 16 -28 14 -65 -11z"/>
<path d="M2179 1727 c-70 -20 -111 -49 -143 -101 -25 -39 -30 -58 -30 -109 1
-127 56 -177 244 -218 166 -36 207 -65 180 -129 -16 -39 -65 -60 -142 -60 -76
0 -122 24 -144 75 l-14 35 -71 0 -71 0 7 -37 c8 -45 30 -90 59 -121 80 -89
307 -107 424 -35 126 78 135 274 17 340 -22 12 -89 34 -150 49 -145 34 -192
55 -201 89 -15 61 41 105 134 105 68 0 118 -34 136 -92 4 -15 17 -18 76 -18
l71 0 -7 38 c-22 120 -113 190 -258 198 -41 2 -90 -2 -117 -9z"/>
<path d="M1420 1360 l0 -360 70 0 70 0 0 150 0 150 160 0 160 0 0 65 0 65
-160 0 -160 0 0 80 0 80 185 0 185 0 0 65 0 65 -255 0 -255 0 0 -360z"/>
</g>
</svg>
