<svg xmlns="http://www.w3.org/2000/svg" width="100" height="92" fill="none" fill-rule="evenodd" xmlns:v="https://vecta.io/nano"><path fill="#e24329" d="M50.01 90.23h0l18.046-54.909H31.964z"/><path fill="#fc6d26" d="M49.997 90.23L31.951 35.322H6.683z"/><path d="M6.675 35.341L1.184 52.024c-.498 1.514.039 3.187 1.352 4.131l47.452 34.094L6.675 35.341z" fill="#fca326"/><path d="M6.681 35.341h25.288L21.086 2.27c-.557-1.693-2.984-1.693-3.561 0L6.681 35.341z" fill="#e24329"/><path fill="#fc6d26" d="M50.01 90.23l18.046-54.908h25.288z"/><path d="M93.325 35.341l5.491 16.683c.498 1.514-.039 3.187-1.352 4.131L50.012 90.23l43.313-54.889z" fill="#fca326"/><path d="M93.339 35.341H68.051L78.914 2.27c.558-1.693 2.985-1.693 3.562 0l10.863 33.071z" fill="#e24329"/><g stroke="#333" stroke-width="2" stroke-linejoin="round"><path d="M50.01 90.23h0l18.046-54.909H31.964zm-.013 0L31.951 35.322H6.683zM6.675 35.341L1.184 52.024c-.498 1.514.039 3.187 1.352 4.131l47.452 34.094L6.675 35.341z"/><path d="M6.681 35.341h25.288L21.086 2.27c-.557-1.693-2.984-1.693-3.561 0L6.681 35.341zM50.01 90.23l18.046-54.908h25.288z"/><path d="M93.325 35.341l5.491 16.683c.498 1.514-.039 3.187-1.352 4.131L50.012 90.23l43.313-54.889z"/><path d="M93.339 35.341H68.051L78.914 2.27c.558-1.693 2.985-1.693 3.562 0l10.863 33.071z"/></g></svg>