<svg xmlns="http://www.w3.org/2000/svg" width="14" height="24" fill="none" xmlns:v="https://vecta.io/nano"><path d="M10.47 1.779l3.213 4.852c.007.009.011.021.011.032s-.004.023-.011.032-.026.016-.042.016-.031-.006-.042-.016L9.452 2.689l1.018-.91z" fill="#f05a28"/><path d="M3.377 14.83c.704-1.38 1.661-2.636 2.83-3.713.44-.41.908-.793 1.401-1.147v2.834L3.377 14.83zM.926 17.448L7.617 14.3v7.194l1.508 1.829v-9.738l.934-.431a4.47 4.47 0 0 0 1.604-1.247c.422-.526.705-1.135.826-1.78s.077-1.307-.128-1.933-.567-1.199-1.055-1.673L7.851 3.194c-.136-.137-.208-.317-.201-.503s.093-.361.239-.489a.81.81 0 0 1 .549-.188.8.8 0 0 1 .534.223l.467.466 1.032-.914C9.252.326 7.757.494 6.889 1.24c-.423.368-.671.877-.688 1.414s.196 1.058.595 1.45l3.474 3.342a2.83 2.83 0 0 1 .696 1.096 2.66 2.66 0 0 1 .115 1.266 2.74 2.74 0 0 1-.488 1.187c-.257.357-.597.657-.995.876l-.467.224V7.55c-2.075.986-3.887 2.385-5.305 4.097A14.07 14.07 0 0 0 .93 17.448" fill="#010000"/></svg>