<svg width="12" height="28" viewBox="0 0 12 28" fill="none" xmlns="http://www.w3.org/2000/svg">
<path d="M11.7347 11.116C10.3214 4.62 7.41472 2.884 6.66805 1.68C6.24138 1.008 5.84138 0 5.84138 0C5.81472 0.56 5.73472 0.952 5.25472 1.372C4.32138 2.24 0.348051 5.656 0.0280512 13.02C-0.291949 19.88 4.82805 24.136 5.52138 24.584C6.05472 24.864 6.66805 24.584 6.98805 24.332C9.44138 22.568 12.8281 17.808 11.7347 11.116Z" fill="#10AA50"/>
<path d="M6.05414 20.916C5.92081 22.624 5.84081 23.604 5.49414 24.584C5.60043 25.6968 5.7249 26.8077 5.86747 27.916H6.40081C6.58747 25.984 6.98747 24.332 6.98747 24.332C6.29414 23.968 6.08081 22.4 6.05414 20.916Z" fill="#B8C4C2"/>
<path d="M6.98659 24.3326C6.29326 23.9966 6.07992 22.4006 6.05326 20.9166C6.21326 18.9006 6.29325 16.2966 6.21325 13.5806C6.18659 12.2926 6.23992 1.68062 5.91992 0.140625C6.05326 0.448625 6.37326 1.14863 6.66659 1.68062C7.41326 2.91263 10.3199 4.62063 11.7333 11.1166C12.7999 17.8086 9.46659 22.5406 6.98659 24.3326Z" fill="#12924F"/>
</svg>
