<svg xmlns="http://www.w3.org/2000/svg" width="31" height="28" fill="none" xmlns:v="https://vecta.io/nano"><g clip-path="url(#A)"><path d="M28.61 19.941c-1.657-.036-2.94.108-4.017.5-.311.107-.805.107-.849.446.168.143.187.375.333.572.248.357.681.837 1.076 1.088l1.326.82c.805.43 1.718.68 2.503 1.108.457.249.912.571 1.369.839.225.143.369.375.661.464v-.055c-.146-.161-.188-.393-.331-.572l-.622-.517c-.601-.696-1.347-1.303-2.152-1.802-.663-.394-2.113-.929-2.381-1.588l-.042-.036c.455-.037.996-.179 1.429-.289.704-.16 1.347-.124 2.069-.284l.996-.25v-.161c-.375-.322-.642-.749-1.036-1.053-1.054-.785-2.216-1.553-3.416-2.196-.643-.358-1.47-.588-2.154-.893-.247-.108-.662-.161-.807-.339-.371-.393-.58-.91-.85-1.375l-1.696-3.107c-.374-.696-.601-1.391-1.056-2.034-2.134-3.035-4.451-4.873-8.012-6.677-.765-.376-1.676-.536-2.648-.733l-1.553-.071c-.331-.125-.663-.465-.953-.626C4.614.481 1.572-.911.703.927c-.56 1.162.828 2.304 1.305 2.893.352.409.808.875 1.054 1.339.146.303.187.626.333.946.331.786.641 1.66 1.077 2.393.227.374.475.767.765 1.105.166.198.456.285.519.608-.289.356-.311.892-.477 1.339-.745 2.017-.454 4.516.602 5.998.33.446 1.118 1.429 2.172 1.052.933-.321.727-1.338.995-2.231.062-.215.021-.357.145-.498v.035l.848 1.481c.642.874 1.761 1.785 2.692 2.39.496.323.889.876 1.51 1.073v-.053h-.041c-.126-.16-.31-.232-.475-.356-.374-.322-.787-.714-1.077-1.071-.868-1-1.636-2.108-2.318-3.25-.334-.554-.621-1.16-.89-1.714-.125-.214-.125-.536-.333-.643-.311.392-.765.732-.993 1.213-.394.769-.435 1.715-.581 2.698l-.081.034c-.659-.143-.889-.731-1.139-1.231-.62-1.268-.724-3.304-.186-4.767.144-.374.768-1.553.519-1.909-.125-.342-.539-.536-.766-.805-.267-.338-.56-.767-.746-1.142-.497-.999-.747-2.107-1.281-3.105-.25-.465-.684-.947-1.035-1.376-.395-.482-.829-.821-1.141-1.392-.103-.196-.248-.518-.082-.731.04-.143.125-.197.29-.233.268-.195 1.035.053 1.303.161.768.268 1.409.518 2.05.892.29.179.601.519.973.608h.436c.661.124 1.407.034 2.029.196 1.097.304 2.09.75 2.982 1.231 2.712 1.483 4.948 3.59 6.457 6.106.248.41.353.786.579 1.213.436.875.975 1.768 1.408 2.625.435.839.849 1.695 1.471 2.392.31.375 1.555.571 2.113.768.413.16 1.056.302 1.428.499.704.374 1.406.804 2.068 1.215.33.214 1.366.661 1.428 1.018zM7.492 4.427c-.286-.003-.571.028-.847.09v.036h.04c.167.285.457.483.663.732.167.286.311.57.475.856l.04-.035c.292-.178.437-.464.437-.893-.126-.126-.145-.249-.25-.375-.122-.179-.391-.268-.558-.411z" fill="#000"/></g><defs><clipPath id="A"><path fill="#fff" d="M0 0h30.667v28H0z"/></clipPath></defs></svg>