<svg xmlns="http://www.w3.org/2000/svg" width="33" height="30" fill="none" xmlns:v="https://vecta.io/nano"><path d="M30.961 22.668c-1.666.918-10.296 4.67-12.133 5.682s-2.858 1.003-4.309.27-10.635-4.656-12.289-5.492c-.827-.418-1.262-.77-1.262-1.104v-3.336s11.956-2.752 13.886-3.484 2.6-.757 4.242-.122 11.464 2.51 13.088 3.138l-.001 3.289c0 .33-.374.692-1.222 1.159h0z" fill="#a41e11"/><path d="M30.961 19.33c-1.666.918-10.296 4.67-12.133 5.682s-2.858 1.003-4.309.27-10.635-4.656-12.289-5.492-1.689-1.412-.064-2.084l12.689-5.194c1.93-.732 2.6-.757 4.242-.122s10.221 4.246 11.844 4.875 1.686 1.147.018 2.065h.002z" fill="#d82c20"/><path d="M30.961 17.228c-1.666.918-10.296 4.67-12.133 5.683s-2.858 1.003-4.309.269-10.635-4.656-12.289-5.492c-.827-.418-1.262-.77-1.262-1.103v-3.337s11.956-2.752 13.886-3.484 2.6-.757 4.242-.122 11.464 2.509 13.088 3.138l-.001 3.289c0 .33-.374.691-1.222 1.159h0z" fill="#a41e11"/><path d="M30.961 13.891c-1.666.918-10.296 4.67-12.133 5.683s-2.858 1.003-4.309.269-10.635-4.656-12.289-5.492-1.689-1.411-.064-2.084l12.689-5.194c1.93-.732 2.6-.757 4.242-.122s10.221 4.246 11.844 4.875 1.686 1.147.018 2.065h.002z" fill="#d82c20"/><path d="M30.961 11.585c-1.666.918-10.296 4.67-12.133 5.685s-2.858 1.003-4.309.269-10.635-4.656-12.289-5.492c-.827-.418-1.262-.77-1.262-1.103V7.606s11.956-2.752 13.886-3.484 2.6-.757 4.242-.122 11.464 2.509 13.088 3.138l-.001 3.289c0 .329-.374.691-1.222 1.158h0z" fill="#a41e11"/><path d="M30.961 8.248c-1.666.918-10.296 4.67-12.133 5.683s-2.858 1.003-4.309.269S3.883 9.544 2.229 8.708.54 7.297 2.165 6.624l12.689-5.194c1.93-.732 2.6-.757 4.242-.122S29.317 5.554 30.94 6.183s1.686 1.147.018 2.065h.002z" fill="#d82c20"/><path d="M16.377 5.153l-3.123-.297 2.331-.889-.697-1.364 2.184.902 2.055-.712-.556 1.411 2.097.83-2.705.297-.606 1.541-.98-1.719zm-4.232 5.142l7.234-1.174-2.184 3.388-5.05-2.214zm-1.95-1.235c2.135 0 3.866-.709 3.866-1.585S12.33 5.89 10.195 5.89s-3.866.709-3.866 1.585S8.06 9.06 10.195 9.06z" fill="#fff"/><path d="M28.144 7.246l-4.276 1.785V5.455l4.276 1.791z" fill="#7a0c00"/><path d="M23.864 5.457v3.576l-.464.194-4.276-1.785 4.74-1.985z" fill="#ad2115"/></svg>