<?xml version="1.0" standalone="no"?>
<!DOCTYPE svg PUBLIC "-//W3C//DTD SVG 20010904//EN"
 "http://www.w3.org/TR/2001/REC-SVG-20010904/DTD/svg10.dtd">
<svg version="1.0" xmlns="http://www.w3.org/2000/svg"
 width="300.000000pt" height="300.000000pt" viewBox="0 0 300.000000 300.000000"
 preserveAspectRatio="xMidYMid meet">
<metadata>
Created by potrace 1.15, written by Peter Selinger 2001-2017
</metadata>
<g transform="translate(0.000000,300.000000) scale(0.100000,-0.100000)"
fill="#000000" stroke="none">
<path d="M379 1917 c-85 -29 -168 -93 -218 -168 -57 -85 -66 -119 -66 -244 0
-105 2 -114 34 -180 43 -88 118 -163 208 -207 67 -33 69 -33 231 -36 144 -3
166 -2 183 14 24 21 25 66 2 87 -14 12 -49 16 -163 19 -135 3 -149 5 -202 31
-112 55 -172 153 -172 277 1 92 24 151 86 212 75 76 120 91 288 96 159 5 180
12 180 62 0 53 -22 60 -181 60 -123 0 -154 -4 -210 -23z"/>
<path d="M840 1920 c-19 -19 -20 -33 -20 -322 0 -190 4 -318 11 -343 18 -65
63 -120 121 -149 46 -23 64 -26 153 -26 86 0 104 3 118 18 21 23 22 51 1 80
-14 20 -24 22 -100 22 -92 0 -134 14 -156 53 -10 16 -14 108 -18 340 -5 301
-6 319 -24 333 -28 20 -63 17 -86 -6z"/>
<path d="M1385 1921 c-77 -36 -115 -95 -115 -181 0 -86 38 -145 115 -181 34
-16 66 -19 232 -19 177 0 193 -2 202 -18 20 -37 -4 -42 -204 -42 -215 0 -244
-8 -302 -73 -79 -90 -47 -254 59 -306 42 -20 60 -21 295 -21 229 0 251 1 266
18 22 24 21 65 -1 85 -16 15 -49 17 -248 17 -254 0 -272 4 -288 58 -7 27 -6
38 11 60 l20 27 209 5 c235 6 254 11 293 80 42 75 19 167 -51 210 -30 18 -51
20 -213 20 -99 0 -196 5 -216 10 -42 12 -64 51 -53 95 12 49 46 55 313 55 253
0 288 -5 296 -44 2 -12 6 -140 7 -286 3 -248 5 -268 25 -305 38 -72 94 -105
177 -105 66 0 102 12 139 48 58 55 62 70 67 292 l5 205 25 0 25 0 5 -205 c5
-191 7 -208 28 -245 35 -62 82 -89 162 -93 96 -6 154 26 194 105 14 28 16 79
16 376 0 320 -1 345 -18 360 -24 22 -65 22 -85 -1 -14 -15 -17 -61 -19 -351
l-3 -333 -24 -19 c-28 -22 -69 -25 -97 -5 -17 13 -19 31 -24 223 -4 185 -7
212 -25 243 -22 38 -93 80 -135 80 -42 0 -113 -42 -135 -80 -18 -31 -21 -58
-25 -242 -5 -192 -6 -208 -25 -222 -30 -23 -72 -19 -100 9 l-25 24 0 266 c0
293 -3 311 -63 373 -17 18 -47 37 -67 42 -19 5 -159 10 -310 10 -246 0 -279
-2 -315 -19z"/>
</g>
</svg>
