<?xml version="1.0" encoding="UTF-8"?>
<svg width="74px" height="38px" viewBox="0 0 74 38" version="1.1" xmlns="http://www.w3.org/2000/svg" xmlns:xlink="http://www.w3.org/1999/xlink">
    <defs></defs>
    <g id="Page-1" stroke="none" stroke-width="1" fill="none" fill-rule="evenodd">
        <g>
            <g id="Group-30" transform="translate(19.000000, 0.000000)">
                <path d="M25.4301667,2.36027778 C25.9922963,3.49296296 25.6612778,4.98074074 25.0762778,5.99907407 L20.5347037,16.2149074 L20.4961852,16.2606481 L18.8543333,5.89916667 C18.7231296,4.90490741 19.7872037,4.48 20.4119259,4.00212963 C20.3806296,3.85527778 20.2181296,3.8637037 20.1182222,3.79388889 L18.5835,3.77824074 L18.5377593,3.7325 C18.5449815,2.44453704 19.2395185,1.25768519 20.4119259,0.632962963 C21.6372963,-0.0760185185 23.3646111,0.116574074 24.4274815,1.02657407 C24.8596111,1.41175926 25.2219259,1.85833333 25.4301667,2.36027778" id="Fill-16" fill="#645FAA"></path>
                <path d="M17.0649074,2.00542593 C17.4344444,2.69153704 17.6511111,3.47033333 17.5199074,4.33338889 L15.6698148,16.1995 C15.677037,16.2151481 15.6613889,16.2307963 15.6469444,16.2380185 L15.1678704,15.2822778 L10.5263889,4.91959259 C10.095463,3.58588889 10.4962963,2.1907963 11.4676852,1.23385185 C12.4462963,0.239592593 14.0580556,-0.030037037 15.3375926,0.510425926 C16.0164815,0.802925926 16.6640741,1.34218519 17.0649074,2.00542593" id="Fill-19" fill="#C9234A"></path>
                <path d="M32.1450278,7.00139815 C32.76975,8.06547222 32.6313241,9.67723148 31.936787,10.6642685 C31.5058611,11.3576019 30.7956759,11.7042685 30.1950278,12.1592685 L20.5810463,18.7591759 L20.5581759,18.7591759 L20.6653056,18.4426019 L25.761787,6.94000926 C26.5249352,5.58223148 27.9814167,4.89732407 29.5245648,5.10436111 C30.580213,5.29815741 31.6358611,5.98426852 32.1450278,7.00139815" id="Fill-22" fill="#0089CF"></path>
                <path d="M10.3037037,6.93988889 L15.6084259,18.7590556 L15.522963,18.7590556 L4.82925926,11.3875741 C3.74231481,10.4715556 3.29574074,9.09812963 3.66527778,7.71025926 C3.94333333,6.67025926 4.80638889,5.69887037 5.83194444,5.31368519 C7.51231481,4.69618519 9.40935185,5.351 10.3037037,6.93988889" id="Fill-24" fill="#F36F21"></path>
                <path d="M34.9364167,15.3435463 C35.4684537,16.4690093 35.260213,18.0109537 34.4970648,18.9666944 C33.7411389,19.8851204 32.7312315,20.3858611 31.5431759,20.3545648 L20.1416944,20.3629907 L29.6930833,13.7161389 C30.6271574,13.1154907 32.0451204,13.0071574 33.06225,13.4934537 C33.8494722,13.8016019 34.58975,14.5719722 34.9364167,15.3435463" id="Fill-26" fill="#0DB14B"></path>
                <path d="M1.17505556,15.3435463 C0.643018519,16.4690093 0.851259259,18.0109537 1.61440741,18.9666944 C2.37033333,19.8851204 3.38024074,20.3858611 4.56709259,20.3545648 L15.9709815,20.3629907 L6.41838889,13.7161389 C5.48551852,13.1154907 4.06635185,13.0071574 3.04801852,13.4934537 C2.262,13.8016019 1.52172222,14.5719722 1.17505556,15.3435463" id="Fill-28" fill="#FDB913"></path>
            </g>
            <g id="Group-24" transform="translate(0.000000, 26.000000)" fill="#000000">
                <path d="M16.6780241,9.88516667 C14.2558944,9.88516667 12.2853019,7.91388889 12.2853019,5.49312963 C12.2853019,3.07305556 14.2558944,1.10246296 16.6780241,1.10246296 C19.1001537,1.10246296 21.0707463,3.07305556 21.0707463,5.49312963 C21.0707463,7.91388889 19.1001537,9.88516667 16.6780241,9.88516667 M16.6780241,0.0246666667 C13.6632093,0.0246666667 11.2102463,2.47762963 11.2102463,5.49312963 C11.2102463,8.50794444 13.6632093,10.962963 16.6780241,10.962963 C19.6928389,10.962963 22.1458019,8.50794444 22.1458019,5.49312963 C22.1458019,2.47762963 19.6928389,0.0246666667 16.6780241,0.0246666667" id="Fill-1"></path>
                <path d="M63.8257537,5.56274444 C63.5318093,5.40857778 61.7482722,4.48974444 61.4913278,4.35613333 C60.5553648,3.87924444 60.22305,3.45511481 60.22305,2.73841111 C60.22305,1.74420741 61.0404759,1.10081852 62.3073833,1.10081852 C63.0514944,1.10081852 63.7709389,1.42833704 64.1916426,1.66541111 C64.2690685,1.70789259 64.3588278,1.7305037 64.4533833,1.7305037 C64.7493833,1.7305037 64.9905685,1.4900037 64.9905685,1.19331852 C64.9905685,0.994614815 64.8823093,0.820577778 64.7212907,0.728077778 C64.1902722,0.432077778 63.2844574,0.0250777778 62.3073833,0.0250777778 C60.4464204,0.0250777778 59.1466241,1.14124444 59.1466241,2.73841111 C59.1466241,4.17387407 60.0894389,4.85083704 61.0130685,5.32224444 C61.2706981,5.4538 63.0754759,6.38428148 63.3468093,6.5268 C64.0594019,6.90022593 64.4533833,7.46002222 64.4533833,8.1040963 C64.4533833,8.96811481 63.7222907,9.88557778 62.3676796,9.88557778 C61.0514389,9.88557778 60.0284574,9.00237407 59.7454759,8.73104074 L59.6618833,8.65018889 L58.8656981,9.37511481 L58.9595685,9.46761481 C59.3124389,9.81911481 60.604013,10.9626889 62.3676796,10.9626889 C64.3458093,10.9626889 65.5284389,9.50872593 65.5284389,8.1040963 C65.5284389,7.05507778 64.9083463,6.12802222 63.8257537,5.56274444" id="Fill-3"></path>
                <path d="M5.46722963,1.10218889 C6.64095185,1.10218889 7.74478519,1.55852222 8.57317407,2.38691111 C8.76982222,2.58287407 9.13982222,2.58287407 9.33372963,2.38691111 C9.43650741,2.28687407 9.49132222,2.15189259 9.49132222,2.00731852 C9.49132222,1.86411481 9.43650741,1.72776296 9.33372963,1.62772593 L9.26863704,1.55989259 C8.24428519,0.5698 6.8931,0.0250777778 5.46722963,0.0250777778 C2.45241481,0.0250777778 0.000137037037,2.47735556 0.000137037037,5.49285556 C0.000137037037,8.50835556 2.45241481,10.9626889 5.46722963,10.9626889 C7.05891481,10.9626889 8.49232222,10.2795593 9.49132222,9.1908 L8.73076667,8.42887407 C7.92567407,9.32235556 6.76154444,9.88489259 5.46722963,9.88489259 C3.04578519,9.88489259 1.07519259,7.9143 1.07519259,5.49285556 C1.07519259,3.07278148 3.04578519,1.10218889 5.46722963,1.10218889" id="Fill-5"></path>
                <path d="M42.5348574,1.10218889 C43.7078944,1.10218889 44.812413,1.55852222 45.6401167,2.38691111 C45.83745,2.58287407 46.20745,2.58287407 46.4013574,2.38691111 C46.5041352,2.28687407 46.5603204,2.15189259 46.5603204,2.00731852 C46.5603204,1.86411481 46.5041352,1.72776296 46.4013574,1.62772593 L46.3362648,1.55989259 C45.3105426,0.5698 43.961413,0.0250777778 42.5348574,0.0250777778 C39.5200426,0.0250777778 37.0670796,2.47735556 37.0670796,5.49285556 C37.0670796,8.50835556 39.5200426,10.9626889 42.5348574,10.9626889 C44.1251722,10.9626889 45.5592648,10.2795593 46.55895,9.1908 L45.7977093,8.42887407 C44.9933019,9.32235556 43.8291722,9.88489259 42.5348574,9.88489259 C40.1127278,9.88489259 38.1421352,7.9143 38.1421352,5.49285556 C38.1421352,3.07278148 40.1127278,1.10218889 42.5348574,1.10218889" id="Fill-7"></path>
                <path d="M33.2725926,0.0248722222 C33.070463,0.0248722222 32.9115,0.155057407 32.8244815,0.323612963 C32.7360926,0.491483333 29.6068519,8.23202037 29.6068519,8.23202037 C29.6068519,8.23202037 26.4776111,0.491483333 26.3892222,0.323612963 C26.3015185,0.155057407 26.1432407,0.0248722222 25.9404259,0.0248722222 C25.7047222,0.0248722222 25.5272593,0.197538889 25.4649074,0.416798148 C25.4025556,0.636742593 23.6368333,10.3793907 23.6368333,10.3793907 C23.6306667,10.4109093 23.6272407,10.4437981 23.6272407,10.4773722 C23.6272407,10.7452796 23.8458148,10.9624833 24.113037,10.9624833 C24.3487407,10.9624833 24.5467593,10.7932426 24.5892407,10.5698722 L26.1178889,2.23527963 C26.1178889,2.23527963 29.0682963,9.52359444 29.1546296,9.69763148 C29.2416481,9.87029815 29.4012963,10.0045944 29.6068519,10.0045944 C29.8117222,10.0045944 29.9720556,9.87029815 30.0583889,9.69763148 C30.1454074,9.52359444 33.0951296,2.23527963 33.0951296,2.23527963 L34.6847593,10.9015019 L35.6707407,10.9015019 C35.6707407,10.9015019 33.8111481,0.636742593 33.7487963,0.416798148 C33.6857593,0.197538889 33.5082963,0.0248722222 33.2725926,0.0248722222" id="Fill-9"></path>
                <path d="M51.0880241,5.79515926 L52.7132833,1.79641852 L54.3412833,5.79515926 L51.0880241,5.79515926 Z M52.7132833,0.0245296296 C52.5090981,0.0245296296 52.3515056,0.157455556 52.2617463,0.331492593 C52.1740426,0.504844444 48.2123019,10.2879185 48.2123019,10.2879185 C48.1883204,10.3461593 48.1753019,10.4105667 48.1753019,10.4770296 C48.1753019,10.7456222 48.3925056,10.9628259 48.660413,10.9628259 C48.8645981,10.9628259 49.0400056,10.8346963 49.1112648,10.6544926 L50.6495056,6.87158519 L54.7791167,6.87158519 L56.41945,10.9018444 L57.4670981,10.9018444 C57.4670981,10.9018444 53.2518389,0.504844444 53.1648204,0.331492593 C53.0778019,0.157455556 52.9188389,0.0245296296 52.7132833,0.0245296296 L52.7132833,0.0245296296 Z" id="Fill-11"></path>
                <path d="M74,0.621188889 C74,0.323818519 73.7574444,0.0833185185 73.4614444,0.0833185185 L67.3728889,0.0833185185 C67.0762037,0.0833185185 66.8357037,0.323818519 66.8357037,0.621188889 C66.8357037,0.917874074 67.0762037,1.15837407 67.3728889,1.15837407 L69.9252037,1.15837407 L69.9252037,10.9017074 L70.9105,10.9017074 L70.9105,1.15837407 L73.4614444,1.15837407 C73.7574444,1.15837407 74,0.917874074 74,0.621188889" id="Fill-14"></path>
            </g>
        </g>
    </g>
</svg>
