<?xml version="1.0" encoding="utf-8"?>
<!-- Generator: Adobe Illustrator 19.2.1, SVG Export Plug-In . SVG Version: 6.00 Build 0)  -->
<svg version="1.1" id="layer" xmlns="http://www.w3.org/2000/svg" xmlns:xlink="http://www.w3.org/1999/xlink" x="0px" y="0px"
	 viewBox="0 0 652 652" style="enable-background:new 0 0 652 652;" xml:space="preserve">
<style type="text/css">
	.st0{fill:#414141;}
	.st1{fill:#FAA818;}
</style>
<path class="st0" d="M410.6,383.4c-0.9,0-1.5-0.6-1.5-1.5v-57.8c0-10.6,3.3-18.8,9.7-24.6s15.7-8.7,27.2-8.7
	c6.1-0.3,12.2,0.7,17.9,3c4.2,1.8,6.3,4.6,6.3,8.5c0,1.8-0.6,3.7-1.5,5.2c-0.7,1.2-1.9,1.9-3.3,1.9c-0.4,0-0.9-0.1-1.3-0.3
	c-1.3-0.4-2.7-0.9-4.2-1.3c-3.4-0.9-7-1.3-10.6-1.3c-14.8,0-22.2,7.9-22.2,23.4v51.9c0,0.9-0.6,1.5-1.5,1.5H410.6L410.6,383.4z
	 M278,382.5c2.8-0.6,5.5-1.3,8.2-2.4c2.1-0.7,4.2-1.8,6.1-3c1.6-1,2.2-3.3,1.2-4.9l-3.3-5.5c-0.6-1-1.6-1.8-2.8-1.9H287
	c-0.4,0-1,0.1-1.5,0.3c-0.9,0.3-1.8,0.7-2.8,1c-3.3,1.2-6.7,1.6-10.1,1.6c-2.2,0-4.3-0.3-6.4-0.7c-2.1-0.4-4-1.3-5.7-2.7
	c-1.6-1.3-3-3.1-3.9-5.2c-1-2.5-1.5-5.4-1.3-8.1v-38.2c0-1.6,1.3-3,3-3h17.2c4.6,0,8.2-3.7,8.2-8.4c0-1.5-0.4-3-1.2-4.2
	c-1.3-2.4-3.7-3.7-6.6-3.7h-17.5c-1.6,0-3-1.3-3-3v-16.1c0-4.2-3.3-7.5-7.5-7.5h-3c-4.2,0-7.5,3.3-7.5,7.5v80.6
	c0,8.5,2.5,15.4,7.8,20.6s12.8,7.8,23,7.8C271.4,383.4,274.7,383.1,278,382.5z M565.8,337.2c0,25.5-20.7,46.3-46.3,46.3
	c-25.5,0-46.3-20.7-46.3-46.3s20.7-46.3,46.3-46.3C545,290.9,565.8,311.6,565.8,337.2L565.8,337.2z M548.6,337.2
	c0-16.1-13-29.1-29.1-29.1c-16.1,0-29.1,13-29.1,29.1s13,29.1,29.1,29.1C535.6,366.3,548.6,353.3,548.6,337.2L548.6,337.2z
	 M392.6,337.2c0,25.5-20.7,46.3-46.3,46.3c-25.5,0-46.3-20.7-46.3-46.3s20.7-46.3,46.3-46.3C371.9,290.9,392.6,311.6,392.6,337.2
	L392.6,337.2z M375.5,337.2c0-16.1-13-29.1-29.1-29.1s-29.1,13-29.1,29.1s13,29.1,29.1,29.1S375.5,353.3,375.5,337.2L375.5,337.2z
	 M113.5,337.2c0,25.5-20.7,46.3-46.3,46.3S21,362.7,21,337.2s20.7-46.3,46.3-46.3S113.5,311.6,113.5,337.2L113.5,337.2z M96.4,337.2
	c0-16.1-13-29.1-29.1-29.1s-29.1,13-29.1,29.1s13,29.1,29.1,29.1S96.4,353.3,96.4,337.2L96.4,337.2z M220.7,341.9
	c-2.7,25.4-25.4,43.9-50.7,41.2c-8.7-0.9-16.7-4.2-23.6-9.4v32.1c0,0.9-0.6,1.5-1.5,1.5H130c-0.9,0-1.5-0.6-1.5-1.5v-70.9
	c-0.1-16.4,9.3-31.6,24-38.8C188.8,278.8,224.3,307,220.7,341.9z M203.8,337.2c0-16.1-13-29.1-29.1-29.1s-29.1,13-29.1,29.1
	s13,29.1,29.1,29.1S203.8,353.3,203.8,337.2L203.8,337.2z"/>
<path class="st1" d="M527,236.6L527,236.6c0-0.4,0.4-0.9,0.9-0.9H621v93.1c0,0.4-0.4,0.9-0.9,0.9l0,0c-0.4,0-0.9-0.3-0.9-0.9
	c-4-48.7-42.7-87.3-91.3-91.3C527.3,237.5,527,237.2,527,236.6z"/>
</svg>
