<?xml version="1.0" encoding="utf-8"?>
<!-- Generator: Adobe Illustrator 22.1.0, SVG Export Plug-In . SVG Version: 6.00 Build 0)  -->
<svg version="1.1" id="Layer_1" xmlns="http://www.w3.org/2000/svg" xmlns:xlink="http://www.w3.org/1999/xlink" x="0px" y="0px"
	 viewBox="0 0 361.7 71.5" style="enable-background:new 0 0 361.7 71.5;" xml:space="preserve">
<style type="text/css">
	.st0{fill:#262B3E;}
	.st1{fill:#FFFFFF;}
	.st2{fill:#F26D00;}
	.st3{fill:#744729;stroke:#FEFEFE;stroke-miterlimit:10;}
	.st4{fill:#2D1D0D;stroke:#FEFEFE;stroke-miterlimit:10;}
	.st5{fill:#060707;stroke:#FEFEFE;stroke-miterlimit:10;}
	.st6{fill:#FFFFFF;stroke:#FEFEFE;stroke-miterlimit:10;}
	.st7{fill:#4B3938;stroke:#FEFEFE;stroke-miterlimit:10;}
	.st8{fill:#C5875D;stroke:#FEFEFE;stroke-miterlimit:10;}
	.st9{fill:#663399;}
	.st10{fill:#F05A2B;}
	.st11{fill:#020202;}
	.st12{fill:#060707;}
	.st13{fill:#AF8070;}
	.st14{fill:#4B3938;}
	.st15{fill:#563A39;}
	.st16{opacity:0.27;fill:#F05A2B;enable-background:new    ;}
	.st17{fill:none;stroke:#262B3E;stroke-width:0.5;stroke-miterlimit:10;}
	.st18{fill:#6976F4;stroke:#6976F4;stroke-width:0.3;}
	.st19{fill:#6976F4;stroke:#6976F4;}
	.st20{fill:none;stroke:#FFFFFF;stroke-width:2;}
	.st21{fill:url(#Path_1_);}
	.st22{fill:#EFEDED;}
	.st23{fill:#6666FF;}
	.st24{clip-path:url(#Path_2_);}
	.st25{fill:#684FF1;}
	.st26{opacity:0.24;enable-background:new    ;}
	.st27{fill:#C48C62;}
	.st28{fill:#FEFEFE;}
	.st29{opacity:0.1;fill:#262B3E;}
	.st30{fill:#454745;}
	.st31{fill:#75451D;}
	.st32{fill:#684FF1;stroke:#21201F;stroke-width:0.75;}
	.st33{fill:#6466AD;}
	.st34{fill:#C5875D;}
	.st35{clip-path:url(#Path_3_);}
	.st36{fill:#6445FF;}
	.st37{fill:#744729;}
	.st38{fill:#7A5DFF;}
	.st39{fill:#F15A29;}
	.st40{fill:#348FC0;}
	.st41{fill:#51331A;}
	.st42{fill:#895F3D;}
	.st43{fill:#5333FF;}
	.st44{fill:#4C3520;}
	.st45{fill:#2D1D0D;}
	.st46{fill:#2B83FF;}
	.st47{fill:#212127;}
	.st48{fill:#579BFF;}
	.st49{fill:#626372;}
	.st50{fill:#23232A;}
	.st51{fill:none;stroke:#F26D00;stroke-width:2;stroke-miterlimit:10;}
	.st52{opacity:0.4;fill:#F26D00;}
	.st53{fill:#744729;stroke:#FFFFFF;stroke-width:2;stroke-miterlimit:10;}
	.st54{fill:#C5875D;stroke:#FFFFFF;stroke-width:2;stroke-miterlimit:10;}
	.st55{fill:none;stroke:#5333FF;stroke-width:2;stroke-miterlimit:10;}
	.st56{fill:none;stroke:#262B3E;stroke-width:2;stroke-miterlimit:10;}
	.st57{fill:none;stroke:#FFFFFF;stroke-width:0.25;stroke-miterlimit:10;}
	.st58{fill:none;stroke:#262B3E;stroke-width:0.25;stroke-miterlimit:10;}
</style>
<g>
	<g>
		<path class="st2" d="M297.2,26c2.3,0.6,4.4,1.5,6,3.3c1.3,1.4,2.1,3.3,2.1,5.2c0,3.9,0,7.8,0,11.7c0,4.8-3,8.1-8.1,9.2
			c-1.4,0.3-2.9,0.4-4.3,0.4c-13.7,0-27.5,0-41.2,0c-0.9,0-1.2-0.2-1.2-1.2c0-17.7,0-35.3,0-53c0-0.9,0.2-1.2,1.2-1.2
			c13.3,0,26.6,0,39.9,0c2.4,0,4.7,0.3,6.9,1.3c3.4,1.5,5.4,4,5.5,7.7c0.2,3.6,0.1,7.1-0.1,10.7c-0.3,3.5-1.7,5-5.8,5.7
			C297.6,25.9,297.4,25.9,297.2,26z M275.3,49.1c5.1,0,10.2,0,15.2,0c1.4,0,2.8-0.2,4.1-0.6c1.7-0.5,2.7-1.8,2.7-3.5
			c0.1-3.2,0.1-6.5,0-9.7c-0.1-2.5-1.3-3.8-3.8-4.4c-0.8-0.2-1.6-0.3-2.4-0.3c-10.8,0-21.6,0-32.5,0c-0.8,0-1,0.3-1,1.1
			c0,5.5,0,10.9,0,16.4c0,1,0.3,1.2,1.2,1.2C264.5,49.1,269.9,49.1,275.3,49.1L275.3,49.1z M274.8,23.9L274.8,23.9
			c5.3-0.1,10.6,0,15.9-0.1c3.4-0.1,5.4-1.9,5.4-4.9c0-2.2,0-4.3,0-6.5c0-2.4-1.2-4-3.5-4.7c-1-0.3-2.1-0.5-3.1-0.5
			c-10.2,0-20.4,0-30.6,0c-0.9,0-1.1,0.3-1.1,1.2c0,4.8,0,9.5,0,14.3c0,1.3,0,1.3,1.3,1.3L274.8,23.9z"/>
		<path class="st2" d="M201.9,30.6v1.2c0,3.4,0,6.8,0,10.2c0,4.3,2.7,7,7,7c12.2,0,24.4,0,36.7,0c1.9,0,1.7-0.2,1.7,1.7
			c0,1.3-0.1,2.7,0,4c0,0.9-0.3,1.1-1.1,1.1c-4,0-8,0-12.1,0c-8.9,0-17.9-0.2-26.8,0.1c-6.4,0.1-12.1-4.7-12.7-10.7
			c-0.1-0.6-0.1-1.2-0.1-1.7c0-10.1,0-20.2,0-30.3c0-7.1,5.4-12.5,12.5-12.5c13,0,26.1,0,39.1,0c0.9,0,1.3,0.2,1.2,1.2
			c-0.1,1.6,0,3.2,0,4.9c0,0.6-0.2,0.9-0.8,0.8c-0.3,0-0.6,0-0.9,0c-12.3,0-24.6,0-36.9,0c-3.5,0-6,1.9-6.7,5.2
			c-0.1,0.6-0.1,1.2-0.1,1.7c0,2.8,0,5.6,0,8.4c0,1,0.3,1.2,1.2,1.2c11.8,0,23.5,0,35.3,0c1.3,0,1.3,0,1.3,1.3c0,1.5-0.1,3,0,4.5
			c0,0.9-0.2,1.1-1.1,1.1c-11.1,0-22.2,0-33.3,0L201.9,30.6z"/>
		<path class="st2" d="M309,49.1h1.4c12.3,0,24.5,0,36.8,0c4.2,0,6.9-2.5,7.1-6.6c0.1-1.9,0.1-3.9-0.1-5.8c-0.2-3.4-3-6-6.4-5.9
			c-9.3,0-18.6,0-27.9,0c-2.1,0-4.2-0.4-6.1-1.4c-3.7-2.1-6.2-5.1-6.5-9.4c-0.2-3.2-0.3-6.4,0.1-9.5c0.8-5.6,6-9.8,11.7-9.8
			c12.6-0.1,25.2,0,37.7,0c0.7,0,1,0.2,1,1c0,1.5-0.1,3.1,0,4.7c0,0.9-0.3,1.1-1.1,1.1c-11.8,0-23.5,0-35.3,0c-2.5,0-4.5,0.9-5.9,3
			c-1.5,2.3-1.5,8.3,0.1,10.5c1.4,2,3.4,2.9,5.8,2.9c9.2,0,18.3,0,27.5,0c2.3,0,4.4,0.4,6.3,1.5c4.1,2.4,6.3,6,6.4,10.8
			c0,2.6,0,5.1,0,7.7c0,6.7-5.4,12.2-12.1,12.2c-13.2,0.1-26.4,0-39.6,0c-0.7,0-1-0.1-1-0.9C309.1,53,309,51.1,309,49.1z"/>
		<path class="st2" d="M68.2,71.5c-2.3,0-4.5,0-6.6,0c-0.2,0-0.4-0.3-0.5-0.5c-0.1-0.3,0-0.6,0-0.9c0-17.9,0-35.8,0-53.7
			c0-1.4,0-1.4,1.4-1.4c9.3,0,18.7,0,28,0c3.5,0,6.6,1.2,9.1,3.7c2,2,3,4.4,3,7.3c0,6.3,0,12.6,0,18.9c0,5.9-4.9,10.8-11.1,10.9
			c-5.8,0.1-11.6,0-17.4,0c-1.6,0-3.2,0-4.9,0c-0.8,0-1.1,0.3-1.1,1.1c0,4.5,0,8.9,0,13.4L68.2,71.5z M68.2,35.3c0,4.3,0,8.7,0,13
			c0,0.7,0.1,1.1,0.9,1.1c6.9,0,13.7,0.1,20.6,0c3,0,5.6-2.6,5.6-5.6c0.1-5.6,0.1-11.2,0-16.8c0-0.9-0.3-1.7-0.7-2.5
			c-1.3-2.3-3.6-3.1-6.1-3.1c-6.4,0-12.8,0-19.1,0c-0.9,0-1.2,0.3-1.2,1.2C68.2,26.8,68.2,31,68.2,35.3L68.2,35.3z"/>
		<path class="st2" d="M129.5,39.1c-5.3,0-10.7,0-16,0c-1,0-1.3,0.3-1.3,1.3c0.1,1.8,0,3.7,0,5.5c0,2.4,1.3,3.7,3.7,3.7
			c4.1,0,8.3,0,12.4,0c4.5,0,9,0,13.5,0c0.8,0,1.1,0.2,1,1c-0.1,1.4,0,2.9,0,4.3c0,0.6-0.2,0.8-0.9,0.8c-9.3,0-18.7,0-28,0
			c-4.1,0-7.7-2.7-8.7-6.3c-0.2-0.8-0.3-1.6-0.3-2.5c0-6.9,0-13.7,0-20.6c0-5.8,4.4-10.6,10.2-11.2c1.7-0.2,3.4-0.2,5.1-0.1
			c5.3,0,10.6-0.1,15.9,0.2c4.9,0.2,9.1,4,10.1,8.6c0.1,0.7,0.2,1.5,0.2,2.2c0,4,0,7.9,0,11.9c0,1-0.3,1.2-1.3,1.2
			C140,39.1,134.8,39.1,129.5,39.1z M125.8,32.7c4.2,0,8.4,0,12.5,0c0.8,0,1.2-0.2,1.1-1.1c-0.1-1.4,0-2.7,0-4.1
			c0-3.3-2.4-5.9-5.7-6c-5.3-0.1-10.6-0.1-15.8,0c-3.2,0.1-5.7,2.7-5.7,6c0,1.4,0,2.8,0,4.2c0,0.8,0.3,1,1.1,1
			C117.4,32.7,121.6,32.7,125.8,32.7z"/>
		<path class="st2" d="M191.3,39.7c0,5,0,9.9,0,14.9c0,0.9-0.2,1.2-1.1,1.2c-1.7-0.1-3.3-0.1-5,0c-0.9,0-1.1-0.3-1.1-1.1
			c0-8.8,0-17.7,0-26.5c0-3.9-2.1-6.5-6-6.6c-5.4-0.2-10.8-0.2-16.1,0c-3.6,0.2-5.7,2.7-5.7,6.3c0,7.5,0,14.9,0,22.4
			c0,1.5,0,3,0,4.6c0,0.7-0.2,1-0.9,1c-1.8,0-3.6,0-5.4,0c-0.7,0-0.8-0.2-0.8-0.9c0-9.8,0-19.5,0-29.3c0-5.1,4.3-9.7,9.5-10.4
			c0.7-0.1,1.5-0.2,2.2-0.2c6.2,0,12.4,0,18.7,0c4.2,0,7.6,1.8,10.1,5.3c1,1.4,1.6,3.1,1.6,4.8C191.3,30,191.3,34.9,191.3,39.7
			L191.3,39.7z"/>
		<path class="st2" d="M56.8,27.9c0,5.1,0,10.2,0,15.2c0,5.7-4.1,10.7-9.7,11.9c-0.8,0.2-1.7,0.3-2.6,0.3c-0.6,0-1.2,0-1.8,0
			c-7.5,0.2-15.1,0-22.6,0.1c-2.2,0-4.4,0-6.5,0c-1.5,0-3,0-4.5-0.5c-4.5-1.3-7.4-4.2-8.7-8.7c-0.3-1-0.4-2-0.4-3.1
			c0-1.2,0-2.4,0-3.6c0-8,0-16,0-24.1c0-1.3,0-2.6,0.1-3.9C0.2,9.2,1,7.1,2.3,5.2c1.9-2.7,4.8-4.5,8-4.9c1.2-0.2,2.4-0.1,3.6-0.2
			c4.1-0.2,8.2-0.1,12.3-0.1s8.2,0,12.3,0c2,0,4.1-0.1,6.1,0c3,0.1,5.9,1.2,8.1,3.3c2,1.8,3.3,4.2,3.8,6.8c0.1,0.8,0.2,1.6,0.2,2.4
			C56.9,17.7,56.8,22.8,56.8,27.9L56.8,27.9z M28.7,48.7L28.7,48.7c4.3,0,8.6,0,12.9,0c0.9,0,1.8-0.1,2.6-0.2
			c1.7-0.2,3.3-1.1,4.4-2.5c0.7-0.9,1.2-2,1.3-3.2c0-0.6,0-1.3,0-1.9c0-1.5,0-3-0.1-4.5c0-1.1,0-2.2-0.1-3.3l0-3.8l0-3.4l-0.1-3.7
			c0-1.2,0-2.3-0.1-3.5c0-1.6,0-3.3-0.1-4.9c0-0.7-0.1-1.3-0.2-2c-0.2-1.4-0.9-2.7-1.9-3.7c-1.3-1.2-2.8-1.7-4.5-1.8
			c-0.2,0-0.5,0.1-0.7,0.1c-0.4,0-0.8,0-1.2,0c-1.6,0-3.3,0-4.9,0c-7,0-14,0-21,0c-0.8,0-1.5,0.1-2.2,0.2c-1.6,0.2-3,0.9-4.1,2
			c-1,1.1-1.7,2.5-1.7,4c0,1.3,0,2.6,0,3.8l0.1,3.6l0.1,3.8l0,3.5l0.1,3.7l0.1,3.4c0,1.2,0,2.5,0.1,3.7c0,1,0,2,0,3
			c0,0.8,0.1,1.6,0.3,2.4c0.8,3.4,3.5,4.9,6.5,5c0.1,0,0.2-0.1,0.3-0.1c0.7,0,1.4,0,2,0L28.7,48.7z"/>
	</g>
</g>
</svg>
