<svg width="32" height="32" viewBox="0 0 32 32" fill="none" xmlns="http://www.w3.org/2000/svg">
<path d="M16 30C23.732 30 30 23.732 30 16C30 8.26801 23.732 2 16 2C8.26801 2 2 8.26801 2 16C2 23.732 8.26801 30 16 30Z" fill="white"/>
<path opacity="0.37" d="M16 32C24.8366 32 32 24.8366 32 16C32 7.16344 24.8366 0 16 0C7.16344 0 0 7.16344 0 16C0 24.8366 7.16344 32 16 32Z" fill="white"/>
<path d="M11.9852 5H12.2839C12.2839 5.01764 12.3015 5 12.319 5.01764C12.442 5.03528 12.5826 5.07057 12.7055 5.10585C13.0042 5.22935 13.2326 5.45869 13.4258 5.70568C13.7245 6.12908 13.9353 6.58777 14.0759 7.06411C14.2164 7.48751 14.3043 7.92856 14.3921 8.36961C14.48 8.81066 14.5502 9.26935 14.6029 9.72804C14.6381 10.0985 14.6732 10.4866 14.6908 10.8748C14.6029 11.0335 14.5502 11.21 14.48 11.3864C14.4097 11.5804 14.357 11.7921 14.3394 11.9862C14.1989 11.5452 14.1813 11.0688 14.1989 10.5925C14.111 10.7866 14.0407 10.963 13.988 11.157C13.988 11.1041 13.988 11.0512 13.988 10.9983C13.988 10.6983 13.988 10.3808 13.9705 10.0809C13.9353 9.56926 13.8826 9.04 13.7948 8.52839C13.6894 7.9462 13.5137 7.38166 13.2502 6.8524C13.1272 6.60542 12.9866 6.35843 12.7582 6.18201C12.565 6.00559 12.3366 5.86445 12.0555 5.84681C11.669 5.82917 11.3352 5.97031 11.0541 6.21729C10.8609 6.37607 10.7554 6.60542 10.6676 6.83476C10.5271 7.22288 10.5271 7.62865 10.5622 8.03441C10.6325 8.54603 10.7379 9.05764 10.896 9.55162C11.2474 10.716 11.7744 11.7745 12.4596 12.7801C12.6704 13.0976 12.9164 13.3799 13.1975 13.6445C13.338 13.768 13.4258 13.768 13.5137 13.5916C13.6191 13.3799 13.7069 13.1682 13.7772 12.9212C13.8124 12.7625 13.8475 12.6037 13.8826 12.4449C13.9178 12.586 13.9353 12.7095 13.988 12.833C14.0759 13.0271 14.1286 13.2388 14.3394 13.3446C14.357 13.3446 14.357 13.3799 14.357 13.3976C14.3043 13.5916 14.3394 13.768 14.3745 13.9445C14.4097 14.1385 14.48 14.3326 14.5502 14.509C14.5854 14.6325 14.6381 14.7383 14.7083 14.8442C14.6732 14.6678 14.6732 14.4737 14.7259 14.2973C14.7786 14.1209 14.8313 13.9445 14.9367 13.7857C14.8665 14.4737 14.9719 15.1265 15.2178 15.7792C15.2178 15.7616 15.2178 15.7616 15.2178 15.7439C15.2178 15.3911 15.2178 15.0559 15.2705 14.7031C15.2881 14.4914 15.3232 14.2797 15.4111 14.0856C15.4638 13.9797 15.5165 13.8739 15.6219 13.8386C15.657 13.821 15.6746 13.821 15.6922 13.8562C15.7976 14.1032 15.8854 14.3502 15.9381 14.6149C15.9733 14.7913 15.9908 14.9677 15.9557 15.1441C15.9557 15.1618 15.9557 15.1618 15.9557 15.1794C15.9733 15.1794 15.9733 15.1618 15.9908 15.1618C16.2368 14.8266 16.43 14.4561 16.5003 14.0503C16.5355 13.9797 16.5355 13.8739 16.5355 13.768C16.5355 13.6622 16.5003 13.5563 16.5003 13.4681C16.6233 13.574 16.7287 13.6798 16.8166 13.8033C16.9922 14.0327 17.1504 14.2973 17.2206 14.5796C17.2558 14.7207 17.2733 14.8795 17.2558 15.0383C17.2558 15.1265 17.2206 15.2147 17.2206 15.3029C17.2206 15.3029 17.2206 15.3029 17.2206 15.3205V15.3029C17.2382 15.2852 17.2382 15.2676 17.2558 15.25C17.3787 15.003 17.4666 14.7383 17.5544 14.4737C17.6247 14.2444 17.6598 13.9974 17.6598 13.7504C17.6598 13.7151 17.6598 13.6975 17.6598 13.6622C17.695 13.6975 17.7477 13.7328 17.7652 13.768C17.8707 13.9092 17.9058 14.068 17.9409 14.2267C17.9585 14.3326 17.9761 14.4561 17.9936 14.5619C18.0112 14.509 18.0463 14.4561 18.0463 14.4031C18.1342 14.1032 18.1869 13.7857 18.1518 13.4681C18.1342 13.327 18.0815 13.1859 18.0112 13.0624C17.9936 13.0271 17.9936 13.0094 18.0112 12.9918C18.0639 12.9212 18.099 12.833 18.1166 12.7625V12.7801C18.1869 13.0624 18.2747 13.3446 18.4153 13.6093C18.5207 13.8033 18.591 13.8033 18.7491 13.6622C18.9248 13.5034 19.1004 13.3094 19.241 13.1153C19.6978 12.5155 20.0843 11.8451 20.4005 11.1747C20.8046 10.3455 21.0857 9.46341 21.2614 8.56367C21.3316 8.14026 21.4019 7.7345 21.3492 7.31109C21.2965 6.9759 21.1911 6.65834 20.9803 6.37607C20.787 6.11144 20.5059 5.98795 20.1897 5.91738C19.8559 5.82917 19.5572 5.89974 19.2761 6.11144C19.118 6.23494 18.9775 6.37607 18.8721 6.53485C18.6261 6.88769 18.468 7.29345 18.3274 7.69922C18.1869 8.10498 18.1166 8.52839 18.0463 8.96943C17.9936 9.28699 17.9585 9.60454 17.9409 9.93974C17.9409 10.0985 17.9234 10.2397 17.9234 10.3808C17.9234 10.6278 17.9234 10.8748 17.9234 11.1218C17.9234 11.2982 17.9585 11.4746 17.9409 11.651C17.9058 11.5628 17.8707 11.4746 17.8355 11.3687C17.818 11.3158 17.7828 11.2452 17.7652 11.1923C17.7652 11.3511 17.7652 11.5099 17.7652 11.6687C17.7652 11.8274 17.7477 11.9686 17.6774 12.1097C17.6247 12.2332 17.5544 12.3567 17.4139 12.392C17.4139 12.392 17.3963 12.392 17.3787 12.3567C17.3436 12.2508 17.3436 12.1273 17.3612 12.0038C17.3963 11.8274 17.4666 11.6863 17.5544 11.5275C17.5544 11.5099 17.572 11.5099 17.572 11.4922C17.572 11.4746 17.5369 11.4746 17.5193 11.4746C17.3963 11.4746 17.2909 11.5099 17.1855 11.5628C17.2206 11.1218 17.2558 10.6631 17.2909 10.222C17.326 9.76332 17.3787 9.30463 17.4666 8.86358C17.572 8.17555 17.7477 7.48751 17.9761 6.83476C18.1518 6.35843 18.3626 5.91738 18.7139 5.52926C19.0829 5.12349 19.5572 4.98236 20.0843 5.05293C20.5235 5.12349 20.91 5.31755 21.2262 5.61747C21.7357 6.0938 21.9465 6.71127 21.9992 7.3993C21.9992 7.57572 21.9992 7.75214 21.9992 7.91092C21.9992 8.0697 21.9817 8.24612 21.9641 8.40489C21.8938 8.89887 21.7884 9.39284 21.6479 9.88682C21.2789 11.0865 20.7695 12.2156 20.1897 13.327C20.1019 13.5034 20.014 13.6622 19.9086 13.821C19.8383 13.9445 19.8559 13.9974 19.9613 14.0856C19.9789 14.0856 19.9789 14.1032 19.9964 14.1209C20.1546 14.2444 20.2951 14.3855 20.4181 14.5443C20.6816 14.8795 20.8397 15.25 20.9276 15.6557C20.9978 15.9556 21.033 16.2732 21.0154 16.5907C20.9978 16.8377 20.9803 17.0671 20.9451 17.2964C20.91 17.5611 20.8749 17.8257 20.8573 18.0903C20.8222 18.4255 20.7695 18.7431 20.7167 19.0783C20.664 19.5017 20.5938 19.9251 20.5235 20.3485C20.4532 20.7542 20.4005 21.1424 20.3302 21.5481C20.2775 21.8304 20.2424 22.1127 20.1897 22.3949C20.0667 22.9418 19.8735 23.4711 19.6626 23.9827C19.6451 23.9651 19.6451 23.9474 19.6451 23.9298C19.6099 23.8592 19.5924 23.771 19.5572 23.7004C19.3113 23.1888 18.9775 22.7125 18.6085 22.3067C18.2923 21.9715 17.9234 21.654 17.5193 21.407C17.0976 21.1424 16.6233 20.9483 16.1138 20.8954C15.7624 20.8601 15.4111 20.913 15.0773 21.0542C14.6908 21.2129 14.3745 21.4423 14.0759 21.7246C13.6894 22.095 13.338 22.5008 13.0393 22.9595C12.7934 23.33 12.6177 23.7181 12.4947 24.1415C12.442 24.3179 12.4069 24.512 12.3717 24.706C12.3542 24.7413 12.3542 24.7942 12.3366 24.8295C12.3366 24.8119 12.319 24.7942 12.319 24.7942C12.1433 24.4061 11.9852 24.0004 11.8271 23.5946C11.7041 23.2594 11.5636 22.9242 11.4933 22.5714C11.4055 22.1656 11.3879 21.7598 11.3528 21.3364C11.3352 21.0718 11.3176 20.8248 11.3001 20.5602C11.2825 20.3485 11.2474 20.1368 11.2298 19.9074C11.1947 19.6252 11.1947 19.3429 11.1771 19.043C11.1595 18.7078 11.1244 18.3726 11.0892 18.0374C11.0541 17.7375 11.0365 17.4376 11.019 17.1376C11.0014 16.8025 11.0014 16.4849 11.0717 16.1673C11.1947 15.5852 11.4757 15.0735 11.8447 14.6149C11.9501 14.4914 12.0555 14.3679 12.1785 14.262C12.2488 14.1914 12.2663 14.1385 12.2136 14.0503C12.2136 14.0327 12.1961 14.015 12.1961 13.9974C11.792 13.2741 11.4055 12.5507 11.0892 11.7921C10.6852 10.8571 10.3338 9.9221 10.1405 8.93415C10.0703 8.56367 10.0176 8.21083 10.0176 7.84035C10.0176 7.82271 10.0176 7.80507 10 7.80507V7.64629C10.0176 7.64629 10.0176 7.62865 10.0176 7.61101C10.0176 7.50515 10.0176 7.38166 10.0351 7.27581C10.0703 6.92297 10.1581 6.57013 10.3162 6.25258C10.6149 5.63511 11.1419 5.28227 11.7744 5.08821C11.792 5.03528 11.8974 5.01764 11.9852 5ZM17.6071 19.6781C17.6598 19.6781 17.7125 19.6781 17.7652 19.6781C17.818 19.6781 17.8707 19.6604 17.9234 19.6604C18.591 19.5546 19.1707 19.2723 19.6451 18.7783C19.9613 18.4432 20.0667 18.0727 19.9262 17.6316C19.7505 17.0671 19.4167 16.6437 18.9248 16.3438C18.6437 16.1673 18.3274 16.1497 18.0112 16.2379C17.7652 16.3085 17.572 16.4496 17.3787 16.626C16.9571 17.0494 16.6936 17.5611 16.5706 18.1432C16.4828 18.5666 16.5355 18.9901 16.7463 19.3782C16.8341 19.5546 16.9922 19.6781 17.2031 19.6957C17.326 19.6957 17.4666 19.6781 17.6071 19.6781ZM14.4448 19.6957C14.48 19.6957 14.5151 19.6957 14.5327 19.6957C14.761 19.6957 14.9543 19.6252 15.0773 19.4135C15.2178 19.2018 15.2881 18.9548 15.3057 18.6901C15.3232 18.4079 15.2705 18.1256 15.2003 17.8433C15.007 17.1553 14.6205 16.626 13.988 16.2908C13.7772 16.1673 13.5488 16.1144 13.3029 16.185C12.9691 16.2556 12.7231 16.4496 12.4771 16.679C12.2312 16.9259 12.0555 17.2259 11.9325 17.5611C11.792 17.9492 11.8447 18.302 12.0906 18.6372C12.2312 18.8313 12.4244 18.9901 12.6177 19.1312C13.1799 19.5193 13.8124 19.6781 14.4448 19.6957Z" fill="#563B39"/>
<path d="M19.6093 23.9466C19.6268 24.0348 19.6444 24.123 19.662 24.2112C19.7674 24.7581 19.6444 25.2521 19.3106 25.6931C18.9065 26.24 18.3619 26.6105 17.7119 26.8222C17.3781 26.928 17.0443 26.9633 16.7105 26.981C16.6929 26.981 16.6753 26.9633 16.6578 26.9986H15.8848C15.8848 26.981 15.8672 26.981 15.8496 26.981C15.4104 26.9633 14.9536 26.928 14.5144 26.8575C14.1455 26.7869 13.7765 26.6987 13.4252 26.5399C12.6873 26.1871 12.3184 25.5873 12.3184 24.7581C12.3184 24.7228 12.3359 24.7052 12.3184 24.6699C12.3711 24.4935 12.3886 24.2994 12.4413 24.1053C12.5643 23.6819 12.74 23.2762 12.986 22.9233C13.2846 22.4646 13.636 22.0589 14.0225 21.6884C14.3212 21.4061 14.655 21.1768 15.0239 21.018C15.3577 20.8769 15.7091 20.8239 16.0604 20.8592C16.5699 20.9121 17.0267 21.1062 17.4659 21.3708C17.87 21.6178 18.2214 21.9177 18.5552 22.2706C18.9417 22.694 19.2579 23.1527 19.5038 23.6643C19.539 23.7349 19.5566 23.8054 19.5917 23.8936C19.5917 23.9113 19.5917 23.9289 19.6093 23.9466ZM18.4673 25.0404C18.4497 25.0404 18.4322 25.058 18.4146 25.0756C18.0808 25.3226 17.747 25.552 17.3605 25.7284C16.7807 25.993 16.1834 26.0459 15.5685 25.9401C15.059 25.8519 14.5847 25.6402 14.1279 25.4108C13.9347 25.305 13.7414 25.1991 13.5306 25.0933C13.5306 25.1286 13.5481 25.1462 13.5657 25.1638C14.0049 25.7107 14.5496 26.0989 15.2172 26.3282C15.7442 26.5046 16.2713 26.5399 16.7983 26.3988C17.4132 26.2224 17.9051 25.8695 18.2741 25.3579C18.3443 25.2344 18.4146 25.1462 18.4673 25.0404C18.4673 25.0227 18.4673 25.0227 18.4673 25.0404ZM18.643 23.382C18.6606 23.2938 18.6254 23.2232 18.5727 23.1703C18.4849 23.0468 18.3795 22.9586 18.2565 22.8704C17.993 22.694 17.6416 22.7116 17.4308 22.941C17.2902 23.0821 17.2551 23.2409 17.2551 23.4173C17.2375 23.7349 17.1321 24.0348 16.974 24.317C16.8862 24.4758 16.7807 24.6169 16.6753 24.7581C16.6051 24.8463 16.6402 24.9169 16.728 24.9698C16.7983 25.0051 16.851 24.9874 16.9213 24.9698C17.3781 24.7757 17.8173 24.5464 18.2038 24.2288C18.4673 24.0171 18.6254 23.7349 18.643 23.382ZM13.5657 23.5055C13.5657 23.629 13.6009 23.7349 13.6536 23.8407C13.7941 24.07 13.9874 24.2465 14.2158 24.4052C14.4968 24.617 14.8306 24.7581 15.1469 24.9169C15.2172 24.9521 15.2699 24.9698 15.3401 24.9874C15.4104 25.0051 15.4631 24.9874 15.5158 24.9345C15.551 24.9169 15.5685 24.8639 15.551 24.811C15.5334 24.7581 15.4982 24.7052 15.4631 24.6699C15.4455 24.6522 15.428 24.6346 15.428 24.5993C15.428 24.564 15.4104 24.5287 15.3928 24.5111C15.3753 24.4935 15.3577 24.4582 15.3226 24.4405C15.0766 24.123 14.9712 23.7701 14.9536 23.382C14.9361 22.9763 14.6023 22.694 14.2333 22.7645C13.8468 22.8175 13.5657 23.1527 13.5657 23.5055Z" fill="#AE8070"/>
<path fill-rule="evenodd" clip-rule="evenodd" d="M21.9824 7.38281L22 7.89443C21.9824 7.71801 21.9824 7.54159 21.9824 7.38281Z" fill="#AE8070"/>
<path fill-rule="evenodd" clip-rule="evenodd" d="M13.881 12.4614C13.8458 12.6201 13.8107 12.7789 13.7756 12.9377C13.7229 13.167 13.635 13.3964 13.512 13.6081C13.4242 13.7845 13.3363 13.8022 13.1958 13.661C12.9147 13.414 12.6687 13.1141 12.4579 12.7966C11.7903 11.791 11.2457 10.7325 10.8943 9.56809C10.7362 9.07411 10.6308 8.5625 10.5605 8.05088C10.5078 7.64512 10.5254 7.23935 10.6659 6.85123C10.7538 6.62188 10.8592 6.39254 11.0524 6.23376C11.3335 5.98677 11.6673 5.86328 12.0538 5.86328C12.3349 5.86328 12.5633 6.00442 12.7566 6.19848C12.9674 6.39254 13.108 6.62188 13.2485 6.86887C13.512 7.39813 13.6877 7.96267 13.7931 8.54486C13.881 9.05647 13.9512 9.56809 13.9688 10.0973C13.9864 10.3973 13.9864 10.7148 13.9864 11.0147C13.9864 11.0677 13.9864 11.1206 13.9864 11.1735C13.9864 11.1911 13.9864 11.2088 13.9688 11.2264C13.881 11.5087 13.8458 11.8086 13.8634 12.1085C13.8458 12.232 13.8634 12.3555 13.881 12.4614Z" fill="#358EBF"/>
<path fill-rule="evenodd" clip-rule="evenodd" d="M17.9746 11.6332C17.9746 11.4568 17.957 11.2804 17.957 11.104C17.957 10.857 17.957 10.61 17.957 10.363C17.957 10.2042 17.9746 10.0631 17.9746 9.92194C17.9922 9.60439 18.0273 9.28684 18.08 8.95164C18.1503 8.52823 18.2206 8.10483 18.3611 7.68142C18.5017 7.27565 18.6598 6.88753 18.9057 6.51705C19.0111 6.35827 19.1517 6.21714 19.3098 6.09365C19.5909 5.88194 19.8896 5.82902 20.2234 5.89958C20.5396 5.97015 20.8207 6.11129 21.0139 6.35827C21.2248 6.6229 21.3302 6.94046 21.3829 7.2933C21.4356 7.7167 21.3829 8.14011 21.295 8.54587C21.1193 9.44561 20.8383 10.3277 20.4342 11.1569C20.1004 11.8449 19.7314 12.4977 19.2747 13.0975C19.1341 13.2916 18.9584 13.468 18.7827 13.6444C18.6246 13.7855 18.5368 13.7679 18.4489 13.5915C18.3084 13.3268 18.2206 13.0446 18.1503 12.7623V12.7447C18.203 12.5506 18.1854 12.3389 18.1503 12.1448C18.08 11.9684 18.0273 11.792 17.9746 11.6332Z" fill="#358EBF"/>
<path fill-rule="evenodd" clip-rule="evenodd" d="M17.9762 11.6336C18.029 11.8101 18.0817 11.9688 18.1168 12.1453C18.1519 12.3393 18.1695 12.551 18.1168 12.7451C18.0992 12.8333 18.0641 12.9039 18.0114 12.9744C17.9938 13.0097 17.9938 13.0274 18.0114 13.045C18.0992 13.1685 18.1344 13.3096 18.1519 13.4508C18.1871 13.7683 18.1344 14.0859 18.0465 14.3858C18.029 14.4387 18.0114 14.4916 17.9938 14.5446C17.9762 14.4387 17.9587 14.3152 17.9411 14.2094C17.906 14.0506 17.8708 13.8918 17.7654 13.7507C17.7303 13.7154 17.6952 13.6801 17.66 13.6448C17.66 13.6801 17.66 13.7154 17.66 13.733C17.66 13.98 17.6249 14.227 17.5546 14.4564C17.4843 14.721 17.3789 14.9856 17.2559 15.2326C17.2559 15.2502 17.2384 15.2679 17.2208 15.2855C17.2208 15.1973 17.2559 15.1091 17.2559 15.0209C17.2735 14.8621 17.2559 14.721 17.2208 14.5622C17.1505 14.2623 16.9924 14.0153 16.8167 13.786C16.7289 13.6625 16.6059 13.539 16.5005 13.4508C16.5005 13.5566 16.5356 13.6448 16.5356 13.7507C16.5356 13.8565 16.5356 13.9624 16.5181 14.0682C16.4478 14.4916 16.2545 14.8445 16.0086 15.1797C16.0086 15.1973 15.991 15.215 15.9734 15.1973C15.9559 15.1973 15.9734 15.1797 15.9734 15.162C16.0086 14.9856 15.991 14.8092 15.9559 14.6328C15.9032 14.3681 15.8153 14.1212 15.7099 13.8742C15.6924 13.8389 15.6748 13.8389 15.6396 13.8565C15.5342 13.9095 15.464 14.0153 15.4288 14.1035C15.341 14.2976 15.3058 14.5093 15.2883 14.721C15.2531 15.0738 15.2356 15.409 15.2356 15.7619C15.2356 15.7795 15.2356 15.7795 15.2356 15.7971C15.0072 15.1444 14.8842 14.4916 14.9545 13.8036C14.8491 13.9624 14.7788 14.1388 14.7437 14.3152C14.691 14.4916 14.691 14.6857 14.7261 14.8621C14.6734 14.7563 14.6207 14.6328 14.568 14.5269C14.4977 14.3505 14.445 14.1564 14.3923 13.9624C14.3572 13.786 14.322 13.5919 14.3747 13.4155C14.3747 13.3978 14.3747 13.3802 14.3572 13.3626C14.1639 13.2567 14.0936 13.045 14.0058 12.8509C13.9531 12.7274 13.9179 12.5863 13.9004 12.4628C13.8828 12.3393 13.8652 12.2158 13.8652 12.0923C13.8652 11.7924 13.9004 11.4925 13.9706 11.2102C13.9706 11.1926 13.9706 11.175 13.9882 11.1573C14.0585 10.9633 14.1112 10.7868 14.199 10.5928C14.1815 11.0691 14.199 11.5278 14.3396 11.9865C14.3572 11.7748 14.4274 11.5807 14.4801 11.3867C14.5328 11.2102 14.6031 11.0338 14.691 10.875C14.691 10.8927 14.691 10.9103 14.691 10.928C14.691 10.928 14.691 10.9456 14.6734 10.9456C14.6558 11.0691 14.6558 11.2102 14.6734 11.3337C14.691 11.4043 14.691 11.4749 14.7261 11.5278C14.7612 11.6866 14.8139 11.8101 14.9018 11.9688C15.0072 11.6866 15.095 11.4219 15.0072 11.1397C15.095 11.2102 15.1477 11.2985 15.218 11.369C15.3058 11.4925 15.3937 11.616 15.464 11.7395C15.5167 11.863 15.5694 11.9688 15.6221 12.0923C15.6748 11.7748 15.7802 11.4749 15.9383 11.2102C15.991 11.5631 16.0613 11.8806 16.2194 12.1805C16.2545 12.1276 16.2897 12.0747 16.3248 12.0218C16.4478 11.7924 16.5181 11.5278 16.4654 11.2632C16.4654 11.2102 16.4302 11.1573 16.4302 11.1044H16.4478C16.6059 11.369 16.7289 11.6336 16.8167 11.9336C16.8519 11.863 16.887 11.8277 16.9221 11.7748C17.01 11.6866 17.0978 11.616 17.2032 11.5631C17.3086 11.5278 17.4141 11.4925 17.537 11.4749C17.5546 11.4749 17.5722 11.4749 17.5897 11.4925C17.5897 11.5102 17.5897 11.5278 17.5722 11.5278C17.4843 11.6689 17.3965 11.8277 17.3789 12.0041C17.3614 12.1276 17.3614 12.2335 17.3965 12.357C17.3965 12.3923 17.4141 12.3923 17.4668 12.3923C17.6073 12.3393 17.6776 12.2335 17.7303 12.11C17.783 11.9688 17.8181 11.8101 17.8181 11.6689C17.8181 11.5102 17.8181 11.3514 17.8181 11.1926C17.8357 11.2455 17.8708 11.3161 17.8884 11.369C17.906 11.4396 17.9411 11.5278 17.9762 11.6336Z" fill="#070808"/>
<path d="M17.6071 19.6785C17.4666 19.6785 17.326 19.6961 17.1855 19.6785C16.9747 19.6609 16.8341 19.5374 16.7287 19.3609C16.5354 18.9728 16.4652 18.5671 16.553 18.126C16.676 17.5438 16.9395 17.0322 17.3612 16.6088C17.5368 16.4324 17.7477 16.2912 17.9936 16.2207C18.3099 16.1148 18.6261 16.1501 18.9072 16.3265C19.3991 16.6264 19.7329 17.0498 19.9086 17.6144C20.0491 18.0554 19.9437 18.4436 19.6275 18.7611C19.1531 19.2551 18.5734 19.5374 17.9058 19.6432C17.8531 19.6432 17.8004 19.6609 17.7477 19.6609C17.7125 19.6785 17.6598 19.6785 17.6071 19.6785ZM17.8004 19.5903C17.8882 19.5903 17.9761 19.5903 18.0639 19.5726C18.4153 19.4844 18.6261 19.2727 18.7666 18.9552C18.8193 18.8317 18.8545 18.7082 18.8545 18.5847C18.8369 18.4259 18.7139 18.3553 18.5734 18.4083C18.5382 18.4259 18.5031 18.4436 18.468 18.4612C18.4328 18.4788 18.3977 18.4965 18.345 18.5141C18.2044 18.5494 18.0639 18.5141 17.9761 18.373C17.8882 18.2495 17.8882 18.126 17.9936 18.0025C18.0288 17.9672 18.0639 17.9319 18.099 17.8967C18.222 17.7555 18.1517 17.5791 17.9761 17.5438C17.8004 17.5085 17.6071 17.5262 17.449 17.5967C17.1328 17.7202 16.8868 17.9319 16.8165 18.2848C16.7638 18.5494 16.7814 18.814 16.8868 19.0787C16.9922 19.3257 17.1679 19.5021 17.4314 19.5903C17.5193 19.5726 17.6598 19.5903 17.8004 19.5903Z" fill="white"/>
<path d="M14.4444 19.6946C13.7944 19.6769 13.1795 19.5182 12.6349 19.13C12.4416 18.9889 12.2659 18.8301 12.1078 18.6361C11.8619 18.3009 11.8092 17.948 11.9497 17.5599C12.0727 17.2247 12.2484 16.9248 12.4943 16.6778C12.7227 16.4485 12.9862 16.2544 13.32 16.1838C13.566 16.1309 13.7944 16.1838 14.0052 16.2897C14.6377 16.6249 15.0242 17.1542 15.2174 17.8422C15.2877 18.1245 15.358 18.4067 15.3228 18.689C15.3053 18.936 15.2174 19.2006 15.0945 19.4123C14.9715 19.624 14.7782 19.6769 14.5498 19.6946C14.5147 19.6946 14.4971 19.6946 14.4444 19.6946ZM13.0214 18.5655C13.0214 18.6008 13.0214 18.6537 13.039 18.7066C13.039 18.7419 13.0565 18.7772 13.0565 18.8125C13.1619 19.183 13.3728 19.4476 13.7417 19.5535C13.8471 19.5887 13.9701 19.5711 14.0755 19.5887C14.2863 19.6064 14.4796 19.5711 14.6377 19.4476C14.9539 19.2359 15.1296 18.9536 15.0769 18.5655C15.0593 18.4067 14.9188 18.2832 14.7607 18.4244C14.7255 18.442 14.6904 18.4597 14.6728 18.4773C14.5498 18.5302 14.4444 18.5302 14.339 18.442C14.1458 18.2832 14.1282 18.0892 14.3214 17.9128C14.339 17.8951 14.3566 17.8775 14.3742 17.8598C14.4444 17.7893 14.4444 17.7011 14.3917 17.6128C14.3566 17.5423 14.2863 17.507 14.1985 17.507C14.0931 17.4894 13.9876 17.507 13.8822 17.507C13.3903 17.5952 13.0214 18.0362 13.0214 18.5655Z" fill="white"/>
<path fill-rule="evenodd" clip-rule="evenodd" d="M18.6457 23.3814C18.6282 23.7342 18.4701 23.9989 18.2065 24.2282C17.82 24.5458 17.3808 24.7751 16.924 24.9692C16.8538 25.0045 16.8011 25.0045 16.7308 24.9692C16.6429 24.9163 16.6254 24.8457 16.6781 24.7575C16.7835 24.6163 16.8889 24.4752 16.9767 24.3164C17.1524 24.0342 17.2403 23.7519 17.2578 23.4167C17.2754 23.2403 17.3105 23.0639 17.4335 22.9404C17.6443 22.7287 17.9957 22.6934 18.2592 22.8698C18.3822 22.958 18.4876 23.0462 18.5755 23.1697C18.6282 23.2403 18.6633 23.3108 18.6457 23.3814Z" fill="#070808"/>
<path fill-rule="evenodd" clip-rule="evenodd" d="M13.566 23.5067C13.566 23.1538 13.8647 22.8363 14.216 22.7657C14.585 22.6951 14.9188 22.9774 14.9363 23.3832C14.9539 23.7713 15.0593 24.1241 15.3053 24.4417C15.3228 24.477 15.3404 24.4946 15.3755 24.5123C15.4107 24.5299 15.4107 24.5652 15.4107 24.6005C15.4107 24.6358 15.4282 24.6534 15.4458 24.671C15.4809 24.7063 15.5161 24.7592 15.5337 24.8122C15.5512 24.8475 15.5337 24.9004 15.4985 24.9357C15.4458 24.9709 15.3931 25.0062 15.3228 24.9886C15.2526 24.9709 15.1823 24.9533 15.1296 24.918C14.8133 24.7592 14.4971 24.6005 14.1985 24.4064C13.9876 24.2476 13.7768 24.0712 13.6363 23.8419C13.6011 23.736 13.5484 23.6125 13.566 23.5067Z" fill="#070808"/>
<path fill-rule="evenodd" clip-rule="evenodd" d="M13.5332 25.0764C13.7265 25.1822 13.9197 25.3057 14.1305 25.3939C14.5873 25.6233 15.0617 25.8173 15.5711 25.9232C16.186 26.0467 16.7834 25.9761 17.3631 25.7115C17.7496 25.5351 18.0834 25.3057 18.4172 25.0587C18.4348 25.0411 18.4524 25.0411 18.4699 25.0234C18.4348 25.1293 18.3645 25.2175 18.2942 25.3057C17.9077 25.8173 17.4334 26.1878 16.8185 26.3466C16.2914 26.4877 15.7468 26.4524 15.2373 26.276C14.5697 26.0467 14.0251 25.6585 13.5859 25.1116C13.5508 25.1116 13.5332 25.094 13.5332 25.0764Z" fill="white"/>
<path fill-rule="evenodd" clip-rule="evenodd" d="M16.4114 11.0874C16.4114 11.1403 16.429 11.1932 16.4466 11.2461C16.4993 11.5108 16.429 11.7578 16.306 12.0047C16.2709 12.0577 16.2358 12.1106 16.2006 12.1635C16.0425 11.8636 15.9547 11.5461 15.9195 11.1932C15.779 11.4755 15.6736 11.7754 15.6033 12.0753C15.5682 11.9518 15.5155 11.8283 15.4452 11.7225C15.3749 11.599 15.2871 11.4755 15.1992 11.352C15.3573 11.1226 15.5857 10.9992 15.8493 10.9639C15.8668 10.9639 15.8844 10.9639 15.8844 10.9639C15.9371 10.9639 15.9722 10.9639 16.0249 10.9639C16.1303 10.9815 16.2533 10.9992 16.3587 11.0521C16.3939 11.0697 16.4114 11.0697 16.4114 11.0874Z" fill="#358EBF"/>
<path fill-rule="evenodd" clip-rule="evenodd" d="M15.9036 9.88545C15.6576 9.83252 15.5171 9.60317 15.5522 9.37383C15.6049 9.12684 15.8333 8.98571 16.0617 9.02099C16.132 9.03863 16.2023 9.07392 16.255 9.1092C16.4306 9.25034 16.4658 9.53261 16.3252 9.70903C16.255 9.79724 16.1495 9.8678 16.0266 9.88545C16.009 9.88545 15.9563 9.88545 15.9036 9.88545Z" fill="#358EBF"/>
<path fill-rule="evenodd" clip-rule="evenodd" d="M15.9023 9.8877C15.9551 9.8877 15.9904 9.90534 16.0432 9.8877C16.0432 10.2052 16.0432 10.5228 16.0432 10.8404C16.0432 10.8933 16.0432 10.9286 16.0432 10.9815C15.9904 10.9815 15.9551 10.9815 15.9023 10.9815V9.8877Z" fill="#070808"/>
<path fill-rule="evenodd" clip-rule="evenodd" d="M16.9049 11.7573C16.8697 11.8102 16.8345 11.8455 16.7993 11.9161C16.7113 11.6338 16.5705 11.3515 16.4297 11.0869C16.5529 11.1398 16.6233 11.2104 16.7113 11.3163C16.8169 11.4398 16.8697 11.5809 16.9049 11.7397V11.7573Z" fill="#358EBF"/>
<path fill-rule="evenodd" clip-rule="evenodd" d="M14.7242 11.5276C14.689 11.4746 14.689 11.4041 14.6714 11.3335C14.6538 11.21 14.6538 11.0689 14.6714 10.9454C14.6714 10.9454 14.6714 10.9277 14.689 10.9277C14.689 11.1218 14.7066 11.3335 14.7242 11.5276Z" fill="#4B3938"/>
<path fill-rule="evenodd" clip-rule="evenodd" d="M17.7997 19.5907C17.6591 19.5907 17.5186 19.573 17.3781 19.5377C17.1145 19.4495 16.9388 19.2908 16.8334 19.0261C16.728 18.7791 16.7104 18.4969 16.7632 18.2322C16.8334 17.897 17.0794 17.6677 17.3956 17.5442C17.5713 17.4736 17.747 17.456 17.9227 17.4913C18.0984 17.5266 18.1686 17.703 18.0457 17.8441C18.0105 17.8794 17.9754 17.9147 17.9402 17.95C17.8348 18.0735 17.8348 18.197 17.9227 18.3204C18.0105 18.4616 18.1511 18.5145 18.2916 18.4616C18.3267 18.4439 18.3795 18.4263 18.4146 18.4087C18.4497 18.391 18.4849 18.3734 18.52 18.3557C18.6605 18.3028 18.7835 18.3734 18.8011 18.5322C18.8187 18.6733 18.766 18.7791 18.7133 18.9026C18.5727 19.2202 18.3619 19.4495 18.0105 19.5201C17.9754 19.5907 17.8875 19.5907 17.7997 19.5907Z" fill="#070808"/>
<path fill-rule="evenodd" clip-rule="evenodd" d="M13.0215 18.5669C13.0215 18.02 13.3904 17.5966 13.8999 17.5083C14.0053 17.4907 14.1107 17.4907 14.2161 17.5083C14.2864 17.5083 14.3567 17.5613 14.4094 17.6142C14.4621 17.7024 14.4621 17.7906 14.3918 17.8612C14.3743 17.8788 14.3567 17.8965 14.3391 17.9141C14.1634 18.0905 14.1634 18.2846 14.3567 18.4434C14.4621 18.5316 14.5675 18.5316 14.6905 18.4787C14.7256 18.461 14.7608 18.4434 14.7783 18.4257C14.954 18.3022 15.077 18.4081 15.0946 18.5669C15.1297 18.955 14.954 19.2373 14.6553 19.449C14.4797 19.5725 14.2864 19.6077 14.0932 19.5901C13.9877 19.5901 13.8648 19.5901 13.7594 19.5548C13.3904 19.449 13.162 19.1843 13.0742 18.8139C13.0566 18.7786 13.0566 18.7433 13.0566 18.708C13.0391 18.6551 13.0215 18.6021 13.0215 18.5669Z" fill="#070808"/>
</svg>
