<svg xmlns="http://www.w3.org/2000/svg" width="32" height="32" fill="none" xmlns:v="https://vecta.io/nano"><g fill="#fff"><path d="M16 30c7.732 0 14-6.268 14-14S23.732 2 16 2 2 8.268 2 16s6.268 14 14 14z"/><path opacity=".37" d="M16 32c8.837 0 16-7.163 16-16S24.837 0 16 0 0 7.163 0 16s7.163 16 16 16z"/></g><path d="M11.985 5h.299c0 .018.018 0 .035.018.123.018.264.053.386.088.299.123.527.353.72.6a4.6 4.6 0 0 1 .65 1.358c.14.423.228.864.316 1.305l.211 1.358.088 1.147c-.088.159-.141.335-.211.512-.07.194-.123.406-.141.6-.14-.441-.158-.917-.14-1.394a3.68 3.68 0 0 0-.211.565v-.159l-.018-.917-.176-1.553a6.24 6.24 0 0 0-.545-1.676c-.123-.247-.264-.494-.492-.67-.193-.176-.422-.318-.703-.335-.386-.018-.72.123-1.001.37-.193.159-.299.388-.386.617-.14.388-.14.794-.105 1.2a9 9 0 0 0 .334 1.517c.351 1.164.878 2.223 1.564 3.228a4.92 4.92 0 0 0 .738.864c.14.123.228.123.316-.053a3.8 3.8 0 0 0 .264-.67l.105-.476c.035.141.053.265.105.388.088.194.141.406.351.512.018 0 .018.035.018.053-.053.194-.018.37.018.547.035.194.106.388.176.565.035.123.088.229.158.335-.035-.176-.035-.371.018-.547s.105-.353.211-.512c-.07.688.035 1.341.281 1.993v-.035c0-.353 0-.688.053-1.041.018-.212.053-.423.141-.617.053-.106.105-.212.211-.247.035-.018.053-.018.07.018.105.247.193.494.246.759.035.176.053.353.018.529v.035c.018 0 .018-.018.035-.018.246-.335.439-.706.509-1.111.035-.071.035-.176.035-.282s-.035-.212-.035-.3a1.89 1.89 0 0 1 .316.335c.176.229.334.494.404.776a1.32 1.32 0 0 1 .035.459c0 .088-.035.176-.035.265h0c.018-.018.018-.035.035-.053.123-.247.211-.512.299-.776.07-.229.105-.476.105-.723v-.088c.035.035.088.071.105.106.105.141.141.3.176.459l.053.335c.018-.053.053-.106.053-.159.088-.3.141-.617.106-.935-.018-.141-.07-.282-.141-.406-.018-.035-.018-.053 0-.071a.67.67 0 0 0 .105-.229v.018c.07.282.158.565.299.829.105.194.176.194.334.053a3.64 3.64 0 0 0 .492-.547c.457-.6.843-1.27 1.16-1.941.404-.829.685-1.711.861-2.611.07-.423.141-.829.088-1.253-.053-.335-.158-.653-.369-.935-.193-.265-.474-.388-.791-.459-.334-.088-.632-.018-.914.194a1.84 1.84 0 0 0-.404.423c-.246.353-.404.759-.545 1.164s-.211.829-.281 1.27c-.053.318-.088.635-.105.97l-.017.441v.741c0 .176.035.353.017.529l-.105-.282c-.017-.053-.053-.123-.07-.176v.476c0 .159-.018.3-.088.441-.053.123-.123.247-.263.282 0 0-.018 0-.035-.035-.035-.106-.035-.229-.017-.353.035-.176.105-.318.193-.476 0-.018.018-.018.018-.035s-.035-.018-.053-.018c-.123 0-.228.035-.334.088l.105-1.341a11.46 11.46 0 0 1 .176-1.358 11.43 11.43 0 0 1 .509-2.029c.176-.476.387-.917.738-1.306.369-.406.843-.547 1.37-.476a2.13 2.13 0 0 1 1.142.565c.51.476.72 1.094.773 1.782v.512a4.66 4.66 0 0 1-.035.494 11.16 11.16 0 0 1-.316 1.482c-.369 1.2-.878 2.329-1.458 3.44a4.49 4.49 0 0 1-.281.494c-.07.123-.053.176.053.265.018 0 .018.018.035.035.158.123.299.265.422.423.264.335.422.706.51 1.111.07.3.105.617.088.935l-.07.706-.088.794-.141.988-.193 1.27-.193 1.2-.141.847c-.123.547-.316 1.076-.527 1.588-.018-.018-.018-.035-.018-.053-.035-.071-.053-.159-.088-.229-.246-.512-.58-.988-.949-1.394a5.39 5.39 0 0 0-1.089-.9c-.422-.265-.896-.459-1.405-.512a2.1 2.1 0 0 0-1.037.159c-.386.159-.703.388-1.001.67a7.01 7.01 0 0 0-1.037 1.235c-.246.37-.422.759-.545 1.182-.053.176-.088.37-.123.564-.018.035-.018.088-.035.123 0-.018-.018-.035-.018-.035l-.492-1.2c-.123-.335-.264-.67-.334-1.023-.088-.406-.105-.812-.14-1.235l-.053-.776-.07-.653c-.035-.282-.035-.564-.053-.864l-.088-1.006-.07-.9c-.018-.335-.018-.653.053-.97.123-.582.404-1.094.773-1.552.105-.123.211-.247.334-.353.07-.071.088-.123.035-.212 0-.018-.018-.035-.018-.053l-1.107-2.205c-.404-.935-.755-1.87-.949-2.858-.07-.37-.123-.723-.123-1.094 0-.018 0-.035-.018-.035v-.159c.018 0 .018-.018.018-.035 0-.106 0-.229.018-.335a2.96 2.96 0 0 1 .281-1.023c.299-.617.826-.97 1.458-1.164.018-.053.123-.071.211-.088zm5.622 14.678h.158c.053 0 .105-.018.158-.018.668-.106 1.247-.388 1.722-.882.316-.335.422-.706.281-1.147a2.23 2.23 0 0 0-1.001-1.288c-.281-.177-.597-.194-.914-.106-.246.071-.439.212-.633.388-.422.423-.685.935-.808 1.517a1.78 1.78 0 0 0 .176 1.235.55.55 0 0 0 .457.317l.404-.018zm-3.162.018h.088c.228 0 .422-.07.545-.282.141-.212.211-.459.228-.723.018-.282-.035-.565-.105-.847-.193-.688-.58-1.217-1.212-1.552-.211-.123-.439-.176-.685-.106-.334.071-.58.265-.826.494-.246.247-.422.547-.545.882-.14.388-.088.741.158 1.076.141.194.334.353.527.494.562.388 1.195.547 1.827.564z" fill="#563b39"/><g fill="#ae8070"><path d="M19.609 23.947l.053.265c.105.547-.018 1.041-.351 1.482-.404.547-.949.917-1.599 1.129-.334.106-.668.141-1.001.159-.018 0-.035-.018-.053.018h-.773c0-.018-.018-.018-.035-.018a11.41 11.41 0 0 1-1.335-.123c-.369-.071-.738-.159-1.089-.318a1.83 1.83 0 0 1-1.107-1.782c0-.035.018-.053 0-.088.053-.176.07-.37.123-.565.123-.423.299-.829.545-1.182a7.01 7.01 0 0 1 1.037-1.235c.299-.282.632-.512 1.001-.67.334-.141.685-.194 1.037-.159.509.053.966.247 1.406.512.404.247.755.547 1.089.9.387.423.703.882.949 1.394.035.071.053.141.088.229 0 .018 0 .035.018.053zm-1.142 1.094c-.018 0-.035.018-.053.035-.334.247-.668.476-1.054.653-.58.265-1.177.317-1.792.212-.51-.088-.984-.3-1.441-.529l-.597-.317c0 .035.018.053.035.07a3.55 3.55 0 0 0 1.652 1.164c.527.176 1.054.212 1.581.071.615-.176 1.107-.529 1.476-1.041l.193-.317zm.176-1.658c.018-.088-.018-.159-.07-.212a1.28 1.28 0 0 0-.316-.3c-.264-.176-.615-.159-.826.071-.141.141-.176.3-.176.476-.018.318-.123.617-.281.9-.088.159-.193.3-.299.441-.07.088-.035.159.053.212.07.035.123.018.193 0 .457-.194.896-.423 1.283-.741.264-.212.422-.494.439-.847zm-5.077.123c0 .123.035.229.088.335.14.229.334.406.562.565.281.212.615.353.931.512.07.035.123.053.193.071s.123 0 .176-.053c.035-.018.053-.071.035-.123s-.053-.106-.088-.141c-.018-.018-.035-.035-.035-.071s-.018-.071-.035-.088-.035-.053-.07-.071c-.246-.317-.351-.67-.369-1.058-.018-.406-.351-.688-.72-.617-.386.053-.668.388-.668.741z"/><path d="M21.982 7.383l.018.512c-.018-.176-.018-.353-.018-.512z" fill-rule="evenodd"/></g><path fill-rule="evenodd" d="M13.881 12.461l-.105.476a2.42 2.42 0 0 1-.264.67c-.088.176-.176.194-.316.053a4.38 4.38 0 0 1-.738-.864c-.668-1.006-1.212-2.064-1.564-3.229a9 9 0 0 1-.334-1.517c-.053-.406-.035-.812.105-1.2.088-.229.193-.459.386-.617.281-.247.615-.37 1.001-.37.281 0 .509.141.703.335.211.194.351.423.492.67a6.24 6.24 0 0 1 .545 1.676 11.34 11.34 0 0 1 .176 1.552l.018.917v.159c0 .018 0 .035-.018.053a2.47 2.47 0 0 0-.105.882c-.018.123 0 .247.018.353zm4.094-.828l-.018-.529v-.741l.018-.441a9.63 9.63 0 0 1 .105-.97c.07-.423.141-.847.281-1.27.141-.406.299-.794.545-1.164a1.84 1.84 0 0 1 .404-.423c.281-.212.58-.265.914-.194.316.071.597.212.79.459.211.265.316.582.369.935.053.423 0 .847-.088 1.253-.176.9-.457 1.782-.861 2.611-.334.688-.703 1.341-1.16 1.941-.141.194-.316.37-.492.547-.158.141-.246.123-.334-.053-.14-.265-.228-.547-.299-.829v-.018c.053-.194.035-.406 0-.6l-.176-.512z" fill="#358ebf"/><path fill-rule="evenodd" d="M17.976 11.634l.141.512c.035.194.053.406 0 .6-.018.088-.053.159-.105.229-.018.035-.018.053 0 .071.088.123.123.265.141.406.035.318-.018.635-.105.935l-.053.159-.053-.335c-.035-.159-.07-.318-.176-.459l-.105-.106v.088c0 .247-.035.494-.105.723-.07.265-.176.529-.299.776 0 .018-.018.035-.035.053 0-.088.035-.176.035-.265.018-.159 0-.3-.035-.459-.07-.3-.228-.547-.404-.776-.088-.123-.211-.247-.316-.335 0 .106.035.194.035.3s0 .212-.017.317c-.07.423-.264.776-.509 1.112 0 .018-.018.035-.035.018-.018 0 0-.018 0-.035.035-.176.018-.353-.018-.529-.053-.265-.141-.512-.246-.759-.018-.035-.035-.035-.07-.018-.105.053-.176.159-.211.247-.088.194-.123.406-.141.617l-.053 1.041v.035c-.228-.653-.351-1.306-.281-1.994-.105.159-.176.335-.211.512-.053.176-.053.37-.018.547l-.158-.335c-.07-.176-.123-.37-.176-.564-.035-.176-.07-.37-.018-.547 0-.018 0-.035-.018-.053-.193-.106-.264-.318-.351-.512-.053-.123-.088-.265-.105-.388l-.035-.37c0-.3.035-.6.105-.882 0-.018 0-.035.018-.053l.211-.564c-.018.476 0 .935.141 1.394.018-.212.088-.406.14-.6.053-.176.123-.353.211-.512v.053s0 .018-.018.018c-.018.123-.018.265 0 .388.018.071.018.141.053.194.035.159.088.282.176.441.105-.282.193-.547.105-.829.088.071.141.159.211.229l.246.37.158.353c.053-.317.158-.617.316-.882.053.353.123.67.281.97l.105-.159c.123-.229.193-.494.141-.759 0-.053-.035-.106-.035-.159h.018c.158.265.281.529.369.829.035-.071.07-.106.105-.159.088-.088.176-.159.281-.212.105-.035.211-.071.334-.088.018 0 .035 0 .053.018 0 .018 0 .035-.018.035-.088.141-.176.3-.193.476a.8.8 0 0 0 .018.353c0 .035.018.035.07.035.14-.053.211-.159.264-.282.053-.141.088-.3.088-.441v-.476c.018.053.053.123.07.176.018.071.053.159.088.265z" fill="#070808"/><path d="M17.607 19.679c-.14 0-.281.018-.422 0-.211-.018-.351-.141-.457-.318-.193-.388-.264-.794-.176-1.235a2.97 2.97 0 0 1 .808-1.517c.176-.176.386-.318.632-.388.316-.106.633-.071.914.106a2.23 2.23 0 0 1 1.001 1.288 1.07 1.07 0 0 1-.281 1.147c-.474.494-1.054.776-1.722.882-.053 0-.105.018-.158.018-.035.018-.088.018-.141.018zm.193-.088c.088 0 .176 0 .264-.018.351-.088.562-.3.703-.617.053-.123.088-.247.088-.37-.018-.159-.141-.229-.281-.176l-.105.053c-.035.018-.07.035-.123.053-.141.035-.281 0-.369-.141a.27.27 0 0 1 .018-.37l.105-.106c.123-.141.053-.318-.123-.353s-.369-.018-.527.053c-.316.123-.562.335-.633.688-.053.265-.035.529.07.794.105.247.281.423.545.512.088-.018.228 0 .369 0zm-3.356.104c-.65-.018-1.265-.176-1.809-.565a2.79 2.79 0 0 1-.527-.494 1.08 1.08 0 0 1-.158-1.076c.123-.335.299-.635.545-.882.228-.229.492-.423.826-.494.246-.053.474 0 .685.106.633.335 1.019.864 1.212 1.552.07.282.141.565.105.847-.018.247-.105.512-.228.723s-.316.265-.545.282h-.105zm-1.423-1.129a.44.44 0 0 0 .018.141c0 .035.018.071.018.106.105.37.316.635.685.741.105.035.228.018.334.035.211.018.404-.018.562-.141.316-.212.492-.494.439-.882-.018-.159-.158-.282-.316-.141-.035.018-.07.035-.088.053-.123.053-.228.053-.334-.035-.193-.159-.211-.353-.018-.529l.053-.053c.07-.07.07-.159.018-.247-.035-.07-.105-.106-.193-.106-.105-.018-.211 0-.316 0-.492.088-.861.529-.861 1.058z" fill="#fff"/><g fill-rule="evenodd"><path d="M18.646 23.381c-.018.353-.176.617-.439.847-.386.318-.826.547-1.282.741a.19.19 0 0 1-.193 0c-.088-.053-.105-.123-.053-.212l.299-.441a1.8 1.8 0 0 0 .281-.9c.018-.176.053-.353.176-.476a.66.66 0 0 1 .826-.071 1.27 1.27 0 0 1 .316.3c.053.071.088.141.07.212zm-5.08.126c0-.353.299-.67.65-.741.369-.071.703.212.72.617.018.388.123.741.369 1.059.018.035.035.053.07.071s.035.053.035.088.018.053.035.07a.39.39 0 0 1 .088.141c.018.035 0 .088-.035.123-.053.035-.105.07-.176.053s-.141-.035-.193-.071l-.931-.512c-.211-.159-.422-.335-.562-.565-.035-.106-.088-.229-.07-.335z" fill="#070808"/><path d="M13.533 25.076l.597.317c.457.229.931.423 1.441.529a2.86 2.86 0 0 0 1.792-.212c.387-.176.72-.406 1.054-.653.018-.018.035-.018.053-.035-.035.106-.105.194-.176.282-.387.512-.861.882-1.476 1.041-.527.141-1.072.106-1.581-.071a3.55 3.55 0 0 1-1.651-1.164c-.035 0-.053-.018-.053-.035z" fill="#fff"/><path d="M16.411 11.087c0 .053.018.106.035.159.053.265-.018.512-.141.759l-.105.159c-.158-.3-.246-.617-.281-.97a4.08 4.08 0 0 0-.316.882 1.29 1.29 0 0 0-.158-.353 4.39 4.39 0 0 0-.246-.37c.158-.229.386-.353.65-.388h.035.14c.105.018.228.035.334.088.035.018.053.018.053.035zm-.507-1.202a.45.45 0 0 1-.351-.512c.053-.247.281-.388.509-.353a.65.65 0 0 1 .193.088c.176.141.211.423.07.6-.07.088-.176.159-.299.176h-.123z" fill="#358ebf"/><path d="M15.902 9.888c.053 0 .088.018.141 0v.953.141h-.141V9.888z" fill="#070808"/><path d="M16.905 11.757c-.035.053-.07.088-.106.159-.088-.282-.229-.565-.37-.829.123.053.194.123.282.229.106.123.158.265.194.423v.018z" fill="#358ebf"/><path d="M14.724 11.528c-.035-.053-.035-.123-.053-.194-.018-.123-.018-.265 0-.388 0 0 0-.018.018-.018 0 .194.018.406.035.6z" fill="#4b3938"/><path d="M17.8 19.591c-.141 0-.281-.018-.422-.053a.83.83 0 0 1-.545-.512 1.36 1.36 0 0 1-.07-.794c.07-.335.316-.564.632-.688.176-.071.351-.088.527-.053s.246.212.123.353l-.105.106c-.105.123-.105.247-.018.37.088.141.228.194.369.141.035-.018.088-.035.123-.053l.105-.053c.14-.053.264.018.281.177.018.141-.035.247-.088.37-.141.318-.351.547-.703.617-.035.071-.123.071-.211.071zm-4.778-1.024a1.05 1.05 0 0 1 .878-1.059.93.93 0 0 1 .316 0c.07 0 .141.053.193.106.053.088.053.176-.018.247l-.053.053c-.176.176-.176.37.018.529.105.088.211.088.334.035.035-.018.07-.035.088-.053.176-.123.299-.018.316.141.035.388-.141.67-.439.882a.82.82 0 0 1-.562.141c-.105 0-.228 0-.334-.035a.95.95 0 0 1-.685-.741c-.018-.035-.018-.071-.018-.106a.53.53 0 0 1-.035-.141z" fill="#070808"/></g></svg>