<svg xmlns="http://www.w3.org/2000/svg" width="1440" height="400" fill="none" xmlns:v="https://vecta.io/nano"><mask id="A" mask-type="alpha" maskUnits="userSpaceOnUse" x="0" y="0" width="1440" height="400"><path d="M1440 0H0V400H1440V0Z" fill="#c4c4c4"/></mask><g mask="url(#A)"><path fill="#fff" d="M0 0h1440v400H0z"/><path d="M254.225-240.052c108.9 28.196 233.174 207.066 233.174 207.066L342.425 592.473l-268.05-44.644L52.55-36.07l42.6-125.121 89.7-88.26 69.375 9.399z" fill="url(#B)"/><path d="M-1.001-253.123V665.46l363.675-146.709 30.974-220.284c-31.65-133.051-139.574-81.064-217.649-168.737s-64.875-323.23 78.225-369.783c-97.725-20.853-190.35-51.546-255.225-13.07z" fill="url(#C)"/><path d="M-287 520.073V886.33h1726V-4.35c-192.74 73.575-390.96 11.308-668.106-184.01C660.772-266.047-3.869-281.607-81-278.669-197.954-274.264 287.794-193.5 190.707 43.819c-20.317 49.49-41.353 93.987-62.928 133.785-9.888 18.357-19.956 35.687-30.025 51.988C50.019 307.278.667 364.259-47.068 405.966-141.099 488.499-229.826 512.436-287 520.073z" fill="url(#D)"/></g><defs><linearGradient id="B" x1="372.38" y1="-205.886" x2="-559.874" y2="461.185" gradientUnits="userSpaceOnUse"><stop stop-color="#fafcff"/><stop offset="1" stop-color="#b8dafe"/></linearGradient><linearGradient id="C" x1="133.416" y1="-398.889" x2="468.994" y2="827.145" gradientUnits="userSpaceOnUse"><stop stop-color="#fafcff"/><stop offset="1" stop-color="#b5d8ee"/></linearGradient><linearGradient id="D" x1="710.272" y1="418.899" x2="-1966.1" y2="925.459" gradientUnits="userSpaceOnUse"><stop stop-color="#fafcff"/><stop offset="1" stop-color="#b8ddfe"/></linearGradient></defs></svg>