<svg xmlns="http://www.w3.org/2000/svg" width="164" height="32" fill="none" xmlns:v="https://vecta.io/nano"><style><![CDATA[.B{fill-rule:evenodd}.C{fill:#070808}.D{fill:#358ebf}]]></style><g fill="#fff"><path d="M16 30c7.732 0 14-6.268 14-14S23.732 2 16 2 2 8.268 2 16s6.268 14 14 14z"/><path opacity=".37" d="M16 32c8.837 0 16-7.163 16-16S24.837 0 16 0 0 7.163 0 16s7.163 16 16 16z"/></g><path d="M11.985 5h.299c0 .018.018 0 .035.018.123.018.264.053.386.088.299.123.527.353.72.6a4.6 4.6 0 0 1 .65 1.358c.14.423.228.864.316 1.305l.211 1.358.088 1.147c-.088.159-.141.335-.211.512-.07.194-.123.406-.141.6-.14-.441-.158-.917-.14-1.394a3.68 3.68 0 0 0-.211.565v-.159l-.018-.917-.176-1.553a6.24 6.24 0 0 0-.545-1.676c-.123-.247-.264-.494-.492-.67-.193-.176-.422-.318-.703-.335-.386-.018-.72.123-1.001.37-.193.159-.299.388-.386.617-.14.388-.14.794-.105 1.2a9 9 0 0 0 .334 1.517c.351 1.164.878 2.223 1.564 3.228a4.92 4.92 0 0 0 .738.864c.14.123.228.123.316-.053a3.8 3.8 0 0 0 .264-.67l.105-.476c.035.141.053.265.105.388.088.194.141.406.351.512.018 0 .018.035.018.053-.053.194-.018.37.018.547.035.194.106.388.176.565.035.123.088.229.158.335-.035-.176-.035-.371.018-.547s.105-.353.211-.512c-.07.688.035 1.341.281 1.993v-.035c0-.353 0-.688.053-1.041.018-.212.053-.423.141-.617.053-.106.105-.212.211-.247.035-.018.053-.018.07.018.105.247.193.494.246.759.035.176.053.353.018.529v.035c.018 0 .018-.018.035-.018.246-.335.439-.706.509-1.111.035-.071.035-.176.035-.282s-.035-.212-.035-.3a1.89 1.89 0 0 1 .316.335c.176.229.334.494.404.776a1.32 1.32 0 0 1 .035.459c0 .088-.035.176-.035.265h0c.018-.018.018-.035.035-.053.123-.247.211-.512.299-.776.07-.229.105-.476.105-.723v-.088c.035.035.088.071.105.106.105.141.141.3.176.459l.053.335c.018-.053.053-.106.053-.159.088-.3.141-.617.106-.935-.018-.141-.07-.282-.141-.406-.018-.035-.018-.053 0-.071a.67.67 0 0 0 .105-.229v.018c.07.282.158.565.299.829.105.194.176.194.334.053a3.64 3.64 0 0 0 .492-.547c.457-.6.843-1.27 1.16-1.941.404-.829.685-1.711.861-2.611.07-.423.141-.829.088-1.253-.053-.335-.158-.653-.369-.935-.193-.265-.474-.388-.791-.459-.334-.088-.632-.018-.914.194a1.84 1.84 0 0 0-.404.423c-.246.353-.404.759-.545 1.164s-.211.829-.281 1.27c-.053.318-.088.635-.105.97l-.017.441v.741c0 .176.035.353.017.529l-.105-.282c-.017-.053-.053-.123-.07-.176v.476c0 .159-.018.3-.088.441-.053.123-.123.247-.263.282 0 0-.018 0-.035-.035-.035-.106-.035-.229-.017-.353.035-.176.105-.318.193-.476 0-.018.018-.018.018-.035s-.035-.018-.053-.018c-.123 0-.228.035-.334.088l.105-1.341a11.46 11.46 0 0 1 .176-1.358 11.43 11.43 0 0 1 .509-2.029c.176-.476.387-.917.738-1.306.369-.406.843-.547 1.37-.476a2.13 2.13 0 0 1 1.142.565c.51.476.72 1.094.773 1.782v.512a4.66 4.66 0 0 1-.035.494 11.16 11.16 0 0 1-.316 1.482c-.369 1.2-.878 2.329-1.458 3.44a4.49 4.49 0 0 1-.281.494c-.07.123-.053.176.053.265.018 0 .018.018.035.035.158.123.299.265.422.423.264.335.422.706.51 1.111.07.3.105.617.088.935l-.07.706-.088.794-.141.988-.193 1.27-.193 1.2-.141.847c-.123.547-.316 1.076-.527 1.588-.018-.018-.018-.035-.018-.053-.035-.071-.053-.159-.088-.229-.246-.512-.58-.988-.949-1.394a5.39 5.39 0 0 0-1.089-.9c-.422-.265-.896-.459-1.405-.512a2.1 2.1 0 0 0-1.037.159c-.386.159-.703.388-1.001.67a7.01 7.01 0 0 0-1.037 1.235c-.246.37-.422.759-.545 1.182-.053.176-.088.37-.123.564-.018.035-.018.088-.035.123 0-.018-.018-.035-.018-.035l-.492-1.2c-.123-.335-.264-.67-.334-1.023-.088-.406-.105-.812-.14-1.235l-.053-.776-.07-.653c-.035-.282-.035-.564-.053-.864l-.088-1.006-.07-.9c-.018-.335-.018-.653.053-.97.123-.582.404-1.094.773-1.552.105-.123.211-.247.334-.353.07-.071.088-.123.035-.212 0-.018-.018-.035-.018-.053l-1.107-2.205c-.404-.935-.755-1.87-.949-2.858-.07-.37-.123-.723-.123-1.094 0-.018 0-.035-.018-.035v-.159c.018 0 .018-.018.018-.035 0-.106 0-.229.018-.335a2.96 2.96 0 0 1 .281-1.023c.299-.617.826-.97 1.458-1.164.018-.053.123-.071.211-.088zm5.622 14.678h.158c.053 0 .105-.018.158-.018.668-.106 1.247-.388 1.722-.882.316-.335.422-.706.281-1.147a2.23 2.23 0 0 0-1.001-1.288c-.281-.177-.597-.194-.914-.106-.246.071-.439.212-.633.388-.422.423-.685.935-.808 1.517a1.78 1.78 0 0 0 .176 1.235.55.55 0 0 0 .457.317l.404-.018zm-3.162.018h.088c.228 0 .422-.07.545-.282.141-.212.211-.459.228-.723.018-.282-.035-.565-.105-.847-.193-.688-.58-1.217-1.212-1.552-.211-.123-.439-.176-.685-.106-.334.071-.58.265-.826.494-.246.247-.422.547-.545.882-.14.388-.088.741.158 1.076.141.194.334.353.527.494.562.388 1.195.547 1.827.564z" fill="#563b39"/><g fill="#ae8070"><path d="M19.609 23.947l.053.265c.105.547-.018 1.041-.351 1.482-.404.547-.949.917-1.599 1.129-.334.106-.668.141-1.001.159-.018 0-.035-.018-.053.018h-.773c0-.018-.018-.018-.035-.018a11.41 11.41 0 0 1-1.335-.123c-.369-.071-.738-.159-1.089-.318a1.83 1.83 0 0 1-1.107-1.782c0-.035.018-.053 0-.088.053-.176.07-.37.123-.565.123-.423.299-.829.545-1.182a7.01 7.01 0 0 1 1.037-1.235c.299-.282.632-.512 1.001-.67.334-.141.685-.194 1.037-.159.509.053.966.247 1.406.512.404.247.755.547 1.089.9.387.423.703.882.949 1.394.035.071.053.141.088.229 0 .018 0 .035.018.053zm-1.142 1.094c-.018 0-.035.018-.053.035-.334.247-.668.476-1.054.653-.58.265-1.177.317-1.792.212-.51-.088-.984-.3-1.441-.529l-.597-.317c0 .035.018.053.035.07a3.55 3.55 0 0 0 1.652 1.164c.527.176 1.054.212 1.581.071.615-.176 1.107-.529 1.476-1.041l.193-.317zm.176-1.658c.018-.088-.018-.159-.07-.212a1.28 1.28 0 0 0-.316-.3c-.264-.176-.615-.159-.826.071-.141.141-.176.3-.176.476-.018.318-.123.617-.281.9-.088.159-.193.3-.299.441-.07.088-.035.159.053.212.07.035.123.018.193 0 .457-.194.896-.423 1.283-.741.264-.212.422-.494.439-.847zm-5.077.123c0 .123.035.229.088.335.14.229.334.406.562.565.281.212.615.353.931.512.07.035.123.053.193.071s.123 0 .176-.053c.035-.018.053-.071.035-.123s-.053-.106-.088-.141c-.018-.018-.035-.035-.035-.071s-.018-.071-.035-.088-.035-.053-.07-.071c-.246-.317-.351-.67-.369-1.058-.018-.406-.351-.688-.72-.617-.386.053-.668.388-.668.741z"/><path d="M21.982 7.383l.018.512c-.018-.176-.018-.353-.018-.512z" class="B"/></g><path d="M13.881 12.461l-.105.476a2.42 2.42 0 0 1-.264.67c-.088.176-.176.194-.316.053a4.38 4.38 0 0 1-.738-.864c-.668-1.006-1.212-2.064-1.564-3.229a9 9 0 0 1-.334-1.517c-.053-.406-.035-.812.105-1.2.088-.229.193-.459.386-.617.281-.247.615-.37 1.001-.37.281 0 .509.141.703.335.211.194.351.423.492.67a6.24 6.24 0 0 1 .545 1.676 11.34 11.34 0 0 1 .176 1.552l.018.917v.159c0 .018 0 .035-.018.053a2.47 2.47 0 0 0-.105.882c-.018.123 0 .247.018.353zm4.094-.828l-.018-.529v-.741l.018-.441a9.63 9.63 0 0 1 .105-.97c.07-.423.141-.847.281-1.27.141-.406.299-.794.545-1.164a1.84 1.84 0 0 1 .404-.423c.281-.212.58-.265.914-.194.316.071.597.212.79.459.211.265.316.582.369.935.053.423 0 .847-.088 1.253-.176.9-.457 1.782-.861 2.611-.334.688-.703 1.341-1.16 1.941-.141.194-.316.37-.492.547-.158.141-.246.123-.334-.053-.14-.265-.228-.547-.299-.829v-.018c.053-.194.035-.406 0-.6l-.176-.512z" class="D B"/><path d="M17.976 11.634l.141.512c.035.194.053.406 0 .6-.018.088-.053.159-.105.229-.018.035-.018.053 0 .071.088.123.123.265.141.406.035.318-.018.635-.105.935l-.053.159-.053-.335c-.035-.159-.07-.318-.176-.459l-.105-.106v.088c0 .247-.035.494-.105.723-.07.265-.176.529-.299.776 0 .018-.018.035-.035.053 0-.088.035-.176.035-.265.018-.159 0-.3-.035-.459-.07-.3-.228-.547-.404-.776-.088-.123-.211-.247-.316-.335 0 .106.035.194.035.3s0 .212-.017.317c-.07.423-.264.776-.509 1.112 0 .018-.018.035-.035.018-.018 0 0-.018 0-.035.035-.176.018-.353-.018-.529-.053-.265-.141-.512-.246-.759-.018-.035-.035-.035-.07-.018-.105.053-.176.159-.211.247-.088.194-.123.406-.141.617l-.053 1.041v.035c-.228-.653-.351-1.306-.281-1.994-.105.159-.176.335-.211.512-.053.176-.053.37-.018.547l-.158-.335c-.07-.176-.123-.37-.176-.564-.035-.176-.07-.37-.018-.547 0-.018 0-.035-.018-.053-.193-.106-.264-.318-.351-.512-.053-.123-.088-.265-.105-.388l-.035-.37c0-.3.035-.6.105-.882 0-.018 0-.035.018-.053l.211-.564c-.018.476 0 .935.141 1.394.018-.212.088-.406.14-.6.053-.176.123-.353.211-.512v.053s0 .018-.018.018c-.018.123-.018.265 0 .388.018.071.018.141.053.194.035.159.088.282.176.441.105-.282.193-.547.105-.829.088.071.141.159.211.229l.246.37.158.353c.053-.317.158-.617.316-.882.053.353.123.67.281.97l.105-.159c.123-.229.193-.494.141-.759 0-.053-.035-.106-.035-.159h.018c.158.265.281.529.369.829.035-.071.07-.106.105-.159.088-.088.176-.159.281-.212.105-.035.211-.071.334-.088.018 0 .035 0 .053.018 0 .018 0 .035-.018.035-.088.141-.176.3-.193.476a.8.8 0 0 0 .018.353c0 .035.018.035.07.035.14-.053.211-.159.264-.282.053-.141.088-.3.088-.441v-.476c.018.053.053.123.07.176.018.071.053.159.088.265z" class="B C"/><path d="M17.607 19.679c-.14 0-.281.018-.422 0-.211-.018-.351-.141-.457-.318-.193-.388-.264-.794-.176-1.235a2.97 2.97 0 0 1 .808-1.517c.176-.176.386-.318.632-.388.316-.106.633-.071.914.106a2.23 2.23 0 0 1 1.001 1.288 1.07 1.07 0 0 1-.281 1.147c-.474.494-1.054.776-1.722.882-.053 0-.105.018-.158.018-.035.018-.088.018-.141.018zm.193-.088c.088 0 .176 0 .264-.018.351-.088.562-.3.703-.617.053-.123.088-.247.088-.37-.018-.159-.141-.229-.281-.176l-.105.053c-.035.018-.07.035-.123.053-.141.035-.281 0-.369-.141a.27.27 0 0 1 .018-.37l.105-.106c.123-.141.053-.318-.123-.353s-.369-.018-.527.053c-.316.123-.562.335-.633.688-.053.265-.035.529.07.794.105.247.281.423.545.512.088-.018.228 0 .369 0zm-3.356.104c-.65-.018-1.265-.176-1.809-.565a2.79 2.79 0 0 1-.527-.494 1.08 1.08 0 0 1-.158-1.076c.123-.335.299-.635.545-.882.228-.229.492-.423.826-.494.246-.053.474 0 .685.106.633.335 1.019.864 1.212 1.552.07.282.141.565.105.847-.018.247-.105.512-.228.723s-.316.265-.545.282h-.105zm-1.423-1.129a.44.44 0 0 0 .018.141c0 .035.018.071.018.106.105.37.316.635.685.741.105.035.228.018.334.035.211.018.404-.018.562-.141.316-.212.492-.494.439-.882-.018-.159-.158-.282-.316-.141-.035.018-.07.035-.088.053-.123.053-.228.053-.334-.035-.193-.159-.211-.353-.018-.529l.053-.053c.07-.07.07-.159.018-.247-.035-.07-.105-.106-.193-.106-.105-.018-.211 0-.316 0-.492.088-.861.529-.861 1.058z" fill="#fff"/><g class="B"><path d="M18.646 23.381c-.018.353-.176.617-.439.847-.386.318-.826.547-1.282.741a.19.19 0 0 1-.193 0c-.088-.053-.105-.123-.053-.212l.299-.441a1.8 1.8 0 0 0 .281-.9c.018-.176.053-.353.176-.476a.66.66 0 0 1 .826-.071 1.27 1.27 0 0 1 .316.3c.053.071.088.141.07.212zm-5.08.126c0-.353.299-.67.65-.741.369-.071.703.212.72.617.018.388.123.741.369 1.059.018.035.035.053.07.071s.035.053.035.088.018.053.035.07a.39.39 0 0 1 .088.141c.018.035 0 .088-.035.123-.053.035-.105.07-.176.053s-.141-.035-.193-.071l-.931-.512c-.211-.159-.422-.335-.562-.565-.035-.106-.088-.229-.07-.335z" class="C"/><path d="M13.533 25.076l.597.317c.457.229.931.423 1.441.529a2.86 2.86 0 0 0 1.792-.212c.387-.176.72-.406 1.054-.653.018-.018.035-.018.053-.035-.035.106-.105.194-.176.282-.387.512-.861.882-1.476 1.041-.527.141-1.072.106-1.581-.071a3.55 3.55 0 0 1-1.651-1.164c-.035 0-.053-.018-.053-.035z" fill="#fff"/><path d="M16.411 11.087c0 .053.018.106.035.159.053.265-.018.512-.141.759l-.105.159c-.158-.3-.246-.617-.281-.97a4.08 4.08 0 0 0-.316.882 1.29 1.29 0 0 0-.158-.353 4.39 4.39 0 0 0-.246-.37c.158-.229.386-.353.65-.388h.035.14c.105.018.228.035.334.088.035.018.053.018.053.035zm-.507-1.202a.45.45 0 0 1-.351-.512c.053-.247.281-.388.509-.353a.65.65 0 0 1 .193.088c.176.141.211.423.07.6-.07.088-.176.159-.299.176h-.123z" class="D"/><path d="M15.902 9.888c.053 0 .088.018.141 0v.953.141h-.141V9.888z" class="C"/><path d="M16.905 11.757c-.035.053-.07.088-.106.159-.088-.282-.229-.565-.37-.829.123.053.194.123.282.229.106.123.158.265.194.423v.018z" class="D"/><path d="M14.724 11.528c-.035-.053-.035-.123-.053-.194-.018-.123-.018-.265 0-.388 0 0 0-.018.018-.018 0 .194.018.406.035.6z" fill="#4b3938"/><path d="M17.8 19.591c-.141 0-.281-.018-.422-.053a.83.83 0 0 1-.545-.512 1.36 1.36 0 0 1-.07-.794c.07-.335.316-.564.632-.688.176-.071.351-.088.527-.053s.246.212.123.353l-.105.106c-.105.123-.105.247-.018.37.088.141.228.194.369.141.035-.018.088-.035.123-.053l.105-.053c.14-.053.264.018.281.177.018.141-.035.247-.088.37-.141.318-.351.547-.703.617-.035.071-.123.071-.211.071zm-4.778-1.024a1.05 1.05 0 0 1 .878-1.059.93.93 0 0 1 .316 0c.07 0 .141.053.193.106.053.088.053.176-.018.247l-.053.053c-.176.176-.176.37.018.529.105.088.211.088.334.035.035-.018.07-.035.088-.053.176-.123.299-.018.316.141.035.388-.141.67-.439.882a.82.82 0 0 1-.562.141c-.105 0-.228 0-.334-.035a.95.95 0 0 1-.685-.741c-.018-.035-.018-.071-.018-.106a.53.53 0 0 1-.035-.141z" class="C"/></g><g fill="#fff"><path d="M106.998 16.124c.549.135 1.016.359 1.394.771.306.323.486.762.486 1.21v2.708c-.009 1.121-.693 1.892-1.898 2.134-.333.063-.675.099-1.008.099l-9.609.009c-.216 0-.279-.054-.279-.278v-12.31c0-.215.054-.278.279-.278l9.294.009c.558 0 1.098.072 1.611.296.782.341 1.25.933 1.286 1.784.036.825.027 1.659-.027 2.484-.063.807-.387 1.165-1.358 1.336-.063 0-.117.018-.171.027zm-5.084 5.371l3.554-.009c.324-.009.648-.054.954-.143.387-.116.621-.412.63-.825l.009-2.259c-.018-.583-.297-.879-.873-1.013-.18-.045-.369-.072-.558-.072-2.528-.009-5.047 0-7.567-.009-.198 0-.243.072-.243.251v3.819c0 .224.081.269.288.269l3.806-.009zm-.126-5.864v-.018l3.716-.009c.801-.009 1.26-.448 1.26-1.148a42.52 42.52 0 0 0 0-1.515c-.009-.556-.279-.924-.819-1.085-.234-.072-.486-.108-.729-.117-2.375-.009-4.759 0-7.135-.009-.216 0-.27.072-.27.269v3.317c0 .296 0 .305.297.305l3.68.009z"/><path d="M84.792 17.209v.269 2.376c.009.995.63 1.623 1.629 1.623h8.548c.45 0 .396-.045.396.394l.009.924c.009.206-.063.251-.261.251-.936-.009-1.871 0-2.816 0-2.087 0-4.175-.036-6.253.009-1.494.036-2.816-1.103-2.969-2.492-.018-.135-.018-.269-.018-.404v-7.047c0-1.659 1.26-2.914 2.924-2.914l9.114-.009c.216 0 .297.045.279.269v1.13c0 .134-.045.197-.18.188h-.207-8.593c-.828 0-1.395.439-1.575 1.219a1.53 1.53 0 0 0-.027.404l-.009 1.945c-.009.224.072.278.279.278h8.233c.297 0 .297 0 .297.296l.009 1.04c.009.206-.054.269-.261.269l-7.756-.009-.792-.009zm24.977 4.277h.324 8.574c.972 0 1.602-.583 1.647-1.542.018-.448.018-.905-.018-1.354a1.47 1.47 0 0 0-1.485-1.381h-6.505c-.495 0-.98-.09-1.421-.332-.864-.475-1.449-1.183-1.521-2.188-.054-.735-.072-1.479.036-2.206.189-1.291 1.395-2.277 2.735-2.286l8.8-.009c.171 0 .225.054.225.224v1.085c.009.197-.063.251-.261.251a1255.23 1255.23 0 0 0-8.233 0c-.576 0-1.043.215-1.367.699-.36.529-.351 1.937.027 2.448.333.457.782.663 1.34.663h6.415c.522 0 1.026.09 1.476.359.954.565 1.466 1.39 1.484 2.501v1.784c-.009 1.551-1.259 2.833-2.816 2.833l-9.231.009c-.162 0-.234-.036-.225-.215v-1.345z" class="B"/><path d="M53.608 26.704c-.531 0-1.035 0-1.539-.009-.045 0-.099-.072-.117-.117-.018-.063-.009-.135-.009-.206V13.91c0-.332 0-.332.333-.332H58.8c.828 0 1.539.269 2.123.852.468.466.693 1.031.702 1.686V20.5c-.009 1.363-1.152 2.501-2.582 2.537l-4.058.009h-1.134c-.189-.009-.243.063-.243.251v3.12.287zm0-8.419v3.021c0 .152.018.26.216.26h4.805a1.36 1.36 0 0 0 1.314-1.309v-3.909a1.29 1.29 0 0 0-.171-.574c-.306-.538-.828-.717-1.421-.726-1.485-.009-2.978 0-4.463-.009-.207 0-.27.072-.27.278l-.009 2.968zm14.288.887h-3.743c-.225 0-.306.063-.297.296l.009 1.291c0 .547.306.861.873.87h2.897 3.149c.189 0 .252.054.243.242v.995c0 .143-.054.197-.198.197-2.177 0-4.355.009-6.532-.009-.963-.009-1.8-.637-2.024-1.461-.045-.188-.072-.386-.072-.574v-4.788a2.6 2.6 0 0 1 2.375-2.591c.396-.036.801-.036 1.197-.036l3.716.036a2.6 2.6 0 0 1 2.348 1.999 2.45 2.45 0 0 1 .036.511l.009 2.753c0 .242-.081.287-.297.287l-3.689-.018zm-.855-1.479h2.924c.198 0 .27-.045.261-.251-.018-.314 0-.628 0-.95-.009-.753-.567-1.381-1.323-1.399-1.233-.027-2.465-.027-3.698 0-.756.018-1.323.637-1.341 1.39l-.009.968c-.009.188.072.242.252.242h2.933z"/><path d="M82.31 19.325v3.461c0 .206-.054.278-.261.269a12.55 12.55 0 0 0-1.161 0c-.207.009-.252-.063-.252-.26v-6.168c0-.905-.477-1.506-1.386-1.542-1.251-.054-2.51-.045-3.761.009-.846.036-1.332.628-1.332 1.47v5.2 1.058c0 .161-.036.233-.216.224-.423-.009-.846-.009-1.269 0-.153 0-.189-.054-.189-.197l.009-6.796c.009-1.193.99-2.242 2.222-2.421.171-.027.342-.045.522-.045h4.355c.99.009 1.772.43 2.348 1.228.234.332.36.717.36 1.121l.009 3.389z" class="B"/><path d="M50.963 16.564v3.541a2.85 2.85 0 0 1-2.258 2.761 2.7 2.7 0 0 1-.603.063h-.423l-5.272.018-1.53.009c-.351.009-.702-.009-1.035-.108-1.044-.314-1.727-.977-2.024-2.026a2.76 2.76 0 0 1-.099-.717v-.843l-.009-5.595.018-.915a2.78 2.78 0 0 1 .531-1.461 2.79 2.79 0 0 1 1.871-1.148c.279-.045.567-.027.846-.036l2.87-.018h2.879 1.431a2.82 2.82 0 0 1 1.88.762 2.75 2.75 0 0 1 .882 1.587 3.01 3.01 0 0 1 .054.565l-.009 3.56zm-6.568 4.842h2.996c.207 0 .414-.009.612-.036.405-.045.774-.26 1.026-.583.171-.206.27-.466.297-.735.009-.144 0-.287 0-.439l-.009-1.031-.009-.753-.009-.888-.009-.789-.009-.852-.009-.807-.018-1.13a3.91 3.91 0 0 0-.036-.457 1.44 1.44 0 0 0-.45-.852c-.297-.278-.648-.394-1.053-.421-.054 0-.108.018-.171.018-.09 0-.189-.009-.288-.009-.378 0-.765-.009-1.143-.009h-4.904c-.171 0-.351.009-.522.036a1.48 1.48 0 0 0-.945.475c-.243.26-.396.574-.396.932l.009.897.009.825.009.879.009.816.009.861.009.798.009.861.009.708c0 .188.027.368.063.556.198.78.828 1.139 1.521 1.157.027 0 .054-.027.081-.027l.477.009 2.834-.009zm82.955 1.685V10.61h3.455c4.417 0 6.622 2.026 6.622 6.079 0 1.928-.612 3.479-1.836 4.644s-2.87 1.757-4.921 1.757h-3.32zm1.466-11.163v9.836h1.872c1.637 0 2.915-.439 3.832-1.318s1.368-2.116 1.368-3.721c0-3.201-1.709-4.797-5.119-4.797h-1.953zm14.612 11.369c-1.323 0-2.376-.413-3.167-1.246s-1.179-1.937-1.179-3.308c0-1.497.414-2.663 1.233-3.506s1.934-1.264 3.329-1.264c1.331 0 2.375.412 3.122 1.228s1.124 1.954 1.124 3.407c0 1.426-.404 2.564-1.205 3.416-.819.852-1.899 1.273-3.257 1.273zm.108-8.123c-.918 0-1.647.314-2.187.932s-.8 1.488-.8 2.582c0 1.058.27 1.892.809 2.502s1.269.915 2.178.915c.926 0 1.637-.296 2.132-.897s.747-1.444.747-2.546c0-1.112-.252-1.973-.747-2.573-.495-.619-1.206-.915-2.132-.915z"/><path d="M156.267 22.679c-.683.412-1.502.619-2.447.619-1.277 0-2.303-.412-3.086-1.237s-1.17-1.901-1.17-3.219c0-1.47.423-2.645 1.269-3.542.846-.888 1.97-1.336 3.383-1.336.783 0 1.476.143 2.078.43v1.462c-.665-.466-1.376-.699-2.132-.699-.918 0-1.664.323-2.249.977s-.882 1.506-.882 2.573c0 1.04.279 1.865.828 2.475.549.601 1.286.906 2.213.906.783 0 1.512-.26 2.204-.771v1.363h-.009zm1.629.089v-1.533c.782.574 1.637.861 2.573.861 1.259 0 1.889-.421 1.889-1.255a1.05 1.05 0 0 0-.162-.601c-.108-.161-.252-.314-.441-.439a3.18 3.18 0 0 0-.647-.341l-.801-.314c-.396-.152-.747-.314-1.044-.475s-.549-.341-.747-.538a2 2 0 0 1-.45-.681 2.46 2.46 0 0 1-.152-.897c0-.421.098-.789.287-1.112a2.52 2.52 0 0 1 .765-.807 3.6 3.6 0 0 1 1.098-.493 5.02 5.02 0 0 1 1.268-.161c.774 0 1.467.134 2.079.403v1.444c-.657-.43-1.413-.646-2.267-.646a2.62 2.62 0 0 0-.729.09 1.78 1.78 0 0 0-.558.26 1.26 1.26 0 0 0-.36.394c-.081.152-.126.323-.126.511 0 .233.045.43.126.583a1.33 1.33 0 0 0 .369.421c.162.125.36.233.594.332l.792.323 1.061.466c.315.161.585.341.801.538a2.01 2.01 0 0 1 .513.69c.117.26.18.574.18.933a2.24 2.24 0 0 1-.288 1.148 2.58 2.58 0 0 1-.783.807 3.43 3.43 0 0 1-1.125.475c-.422.108-.872.152-1.331.152-.909-.009-1.71-.188-2.384-.538z" class="B"/></g></svg>