<svg width="150" height="38" viewBox="0 0 150 38" fill="none" xmlns="http://www.w3.org/2000/svg">
<g clip-path="url(#clip0)">
<path d="M4.61849 13.634C4.61849 13.634 3.03337 11.4929 1.97 8.42946C1.97 8.42946 0.531589 4.59808 1.41252 2.81128C1.41252 2.81128 2.17599 1.16125 3.69422 1.25304C3.69422 1.25304 3.79039 1.24732 3.94954 1.2856C4.42697 1.40047 5.47116 1.91143 6.18575 4.16138C6.18575 4.16138 6.7014 5.59643 6.85859 7.74141C6.85859 7.74141 6.95398 8.87219 6.93534 10.3185C6.93534 10.3185 6.8373 11.8079 6.75729 12.6918C6.74442 12.834 6.72212 12.9681 6.68889 13.1068C6.6209 13.3906 6.49174 13.8961 6.35938 14.2351L6.18557 14.6345C6.18557 14.6345 5.99137 15.1277 5.61591 14.7601C5.61591 14.7601 4.97842 14.1621 4.61849 13.634Z" fill="#2B83FF"/>
<path d="M8.95076 21.6617C8.95076 21.6617 8.49063 19.9203 6.79613 19.1227C6.79613 19.1227 6.19093 18.7798 5.40816 19.1626C5.40816 19.1626 5.25072 19.2161 5.0171 19.3703C4.67764 19.5943 4.17734 20.0307 3.76544 20.8244C3.76544 20.8244 3.5344 21.26 3.42997 21.6987C3.42997 21.6987 3.30587 22.1374 3.47343 22.6709C3.50745 22.7793 3.55351 22.8915 3.61507 23.0048C3.61507 23.0048 3.84344 23.4664 4.50306 23.9987C4.50306 23.9987 4.52463 24.0172 4.56529 24.0489C4.7521 24.1951 5.34183 24.6241 6.09416 24.8489C6.09416 24.8489 6.85882 25.089 7.44427 25.0967C7.44427 25.0967 8.42928 25.1902 8.75574 24.7268C8.75574 24.7268 9.31759 23.9552 9.21597 22.9548C9.21597 22.9548 9.15424 22.1889 8.95076 21.6617Z" fill="white"/>
<path d="M11.423 21.6617C11.423 21.6617 11.8831 19.9203 13.5776 19.1227C13.5776 19.1227 14.1828 18.7798 14.9656 19.1626C14.9656 19.1626 15.123 19.2161 15.3567 19.3703C15.6961 19.5943 16.1964 20.0307 16.6083 20.8244C16.6083 20.8244 16.8394 21.26 16.9438 21.6987C16.9438 21.6987 17.0679 22.1374 16.9003 22.6709C16.8663 22.7793 16.8203 22.8915 16.7587 23.0048C16.7587 23.0048 16.5303 23.4664 15.8707 23.9987C15.8707 23.9987 15.8491 24.0172 15.8085 24.0489C15.6217 24.1951 15.0319 24.6241 14.2796 24.8489C14.2796 24.8489 13.515 25.089 12.9295 25.0967C12.9295 25.0967 11.9445 25.1902 11.618 24.7268C11.618 24.7268 11.0562 23.9552 11.1578 22.9548C11.1578 22.9548 11.2195 22.1889 11.423 21.6617Z" fill="white"/>
<path d="M15.7558 13.634C15.7558 13.634 17.3409 11.4929 18.4043 8.42946C18.4043 8.42946 19.8427 4.59808 18.9618 2.81128C18.9618 2.81128 18.1983 1.16125 16.6801 1.25304C16.6801 1.25304 16.5839 1.24732 16.4247 1.2856C15.9473 1.40047 14.9031 1.91143 14.1885 4.16138C14.1885 4.16138 13.6729 5.59643 13.5157 7.74141C13.5157 7.74141 13.4203 8.87219 13.4389 10.3185C13.4389 10.3185 13.537 11.8079 13.617 12.6918C13.6299 12.834 13.6522 12.9681 13.6854 13.1068C13.7534 13.3906 13.8825 13.8961 14.0149 14.2351L14.1887 14.6345C14.1887 14.6345 14.3829 15.1277 14.7584 14.7601C14.7584 14.7601 15.3959 14.1621 15.7558 13.634Z" fill="#2B83FF"/>
<path d="M7.05814 24.8784C7.05814 24.8784 8.19638 25.0621 8.76961 24.0156C8.76961 24.0156 9.06866 23.4341 8.92684 22.9152C8.92684 22.9152 8.75872 22.5303 8.40931 22.8305C8.40931 22.8305 8.23091 23.0426 7.92549 22.9848C7.63158 22.9293 7.43386 22.6966 7.43386 22.348C7.43386 22.348 7.4318 22.083 7.72098 21.8852C7.72098 21.8852 8.00585 21.6262 7.70249 21.3291C7.70249 21.3291 7.57526 21.1993 7.25196 21.2156C7.25196 21.2156 6.43271 21.1798 5.90038 21.8175C5.90038 21.8175 5.27207 22.418 5.5 23.4997C5.72814 24.5815 6.64626 24.8637 7.05814 24.8784Z" fill="#060707"/>
<path d="M14.9539 23.0057C14.9699 22.6734 14.8435 22.5428 14.8435 22.5428C14.5544 22.231 14.3025 22.5238 14.3025 22.5238C14.11 22.8207 13.8521 22.8188 13.8521 22.8188C13.513 22.8188 13.2864 22.6154 13.2324 22.3135C13.1763 21.9995 13.3826 21.8163 13.3826 21.8163C13.6747 21.4572 13.3002 21.2844 13.3002 21.2844C12.7953 21.1384 12.2295 21.446 12.2295 21.446C11.2113 22.0351 11.39 23.2047 11.39 23.2047C11.4042 23.6282 11.6789 24.5717 12.7314 24.8063C13.784 25.0405 14.3683 24.3948 14.3683 24.3948C14.9888 23.8477 14.9539 23.0057 14.9539 23.0057Z" fill="#060707"/>
<path d="M19.8609 2.07572C19.8609 2.07572 19.0669 0.401935 17.272 0.0537751C16.4283 -0.109929 15.5714 0.0992951 14.9361 0.692904C14.3438 1.24617 13.66 2.2494 13.2514 4.05695C13.2514 4.05695 12.5094 6.86514 12.4099 9.54227C12.4099 9.54227 12.3914 10.1594 12.3431 11.0934C11.8741 11.1504 11.5685 11.403 11.402 11.6166C11.2232 11.0061 10.8179 10.4282 10.7982 10.3994L10.3912 9.82406L10.5741 10.5101C10.7813 11.2875 10.5014 11.881 10.3324 12.1475C9.97068 11.4095 9.96657 10.7113 9.96657 10.7041L9.96698 10.3407L9.74295 10.6212C9.44822 10.99 9.3064 11.3571 9.24022 11.6508C8.85916 10.7636 8.36465 10.4987 8.33999 10.486L8.07567 10.3492L8.16241 10.6398C8.27257 11.009 8.16734 11.467 8.07978 11.7433C8.07382 11.7311 8.07053 11.719 8.06478 11.7067C8.00867 10.7437 7.97989 10.0036 7.96962 9.69937L8.01155 9.50341L7.96551 9.57443C7.96489 9.5596 7.96448 9.54227 7.96448 9.54227C7.865 6.86514 7.12303 4.05695 7.12303 4.05695C6.71443 2.2494 6.03063 1.24617 5.43828 0.692904C4.80298 0.0992951 3.94612 -0.109929 3.10241 0.0537751C1.3075 0.401935 0.513528 2.07572 0.513528 2.07572C-0.311067 3.76535 0.10493 6.12067 0.10493 6.12067C0.360612 8.33472 1.6456 11.2822 1.6456 11.2822C2.27391 12.8947 3.70955 15.5019 3.70955 15.5019C3.88014 15.8129 3.68921 15.9544 3.68921 15.9544C2.94127 16.6882 2.46649 17.5554 2.46649 17.5554C1.47747 19.2247 1.74179 21.9588 1.8573 22.8238C1.88443 23.0266 1.90786 23.23 1.92368 23.4342L2.28953 28.2088C2.40997 30.6246 3.42284 33.0902 3.77553 33.8832C3.75169 34.605 3.92824 35.508 4.70741 36.3064C4.7403 36.3452 5.54023 37.2636 7.62802 37.7786C7.64077 37.7808 8.8978 38 10.1873 38C11.4764 38 12.7334 37.7808 12.7544 37.777C14.834 37.2636 15.6335 36.3452 15.6606 36.3131C16.4427 35.5114 16.6221 34.6053 16.5991 33.8826C16.952 33.0888 17.9644 30.624 18.0849 28.2088L18.4507 23.4342C18.4666 23.23 18.49 23.0266 18.5171 22.8238C18.6326 21.9588 18.8969 19.2247 17.9079 17.5554C17.9079 17.5554 17.4331 16.6882 16.6852 15.9544C16.6852 15.9544 16.4943 15.8129 16.6649 15.5019C16.6649 15.5019 18.1005 12.8947 18.7288 11.2822C18.7288 11.2822 20.0138 8.33473 20.2695 6.12067C20.2695 6.12067 20.6855 3.76535 19.8609 2.07572ZM8.22037 12.0969C8.23311 12.0677 8.48797 11.4839 8.46002 10.9081C8.67254 11.1214 8.98412 11.5388 9.19418 12.2836L9.44082 12.2317C9.43999 12.2253 9.38327 11.6808 9.74377 11.0678C9.78981 11.4027 9.90737 11.9262 10.207 12.4534L10.2942 12.6068L10.4097 12.475C10.4339 12.4471 10.8976 11.9059 10.9001 11.0661C11.0378 11.331 11.1784 11.6609 11.2203 11.9655L11.2844 12.4328L11.4616 11.9977C11.4645 11.9909 11.721 11.3825 12.4264 11.3331C12.2521 11.6106 12.0313 12.1374 12.2632 12.813L12.2928 12.8987L12.3807 12.8995C12.3816 12.8995 12.382 12.8995 12.3824 12.8995C12.4108 12.8995 12.604 12.8915 12.7943 12.6816C13.038 12.4129 13.1659 11.9477 13.1766 11.2942C13.4277 11.9427 13.7093 13.0103 13.2464 13.7757L13.1979 13.8577L13.2592 13.93C13.2839 13.9591 13.7948 14.5847 13.408 15.9218C13.3406 15.5504 13.1881 15.0963 12.8428 14.8526L12.5682 14.6591L12.6488 14.9915C12.6508 15.0005 12.8276 15.7765 12.2287 17.1453C12.211 16.4752 11.9775 15.4352 10.8956 14.5091L10.4907 14.1631L10.6987 14.6608C10.7036 14.6718 11.1188 15.7144 10.08 17.2454C10.0845 16.7334 10.0044 15.88 9.50618 15.2375L9.46918 15.1893L9.40958 15.1885C9.37751 15.1965 9.25954 15.1931 9.11032 15.3464C8.85628 15.6088 8.56566 16.2758 8.52579 17.9467C8.33546 17.2949 8.12829 16.2678 8.30546 15.2582L8.36712 14.9075L8.10075 15.1352C8.07937 15.1529 7.64405 15.539 7.6309 16.5973C7.36206 16.1056 7.00814 15.248 7.29218 14.5159L7.32671 14.4254L7.25313 14.3655C7.18901 14.3135 5.80084 13.1425 6.77424 10.3787C6.79069 10.7995 6.85358 11.3909 7.03239 12.1171L7.31356 13.2578L7.28109 12.0817C7.28109 12.0741 7.26834 11.4489 7.57787 10.7294C7.59144 11.1155 7.68228 11.6314 8.00045 12.1159L8.12664 12.3077L8.22037 12.0969ZM1.96993 8.42824C1.96993 8.42824 0.531615 4.5969 1.41253 2.81006C1.41253 2.81006 2.17608 1.16003 3.69434 1.25182C3.69434 1.25182 3.79053 1.24612 3.94961 1.2844C4.42707 1.39926 5.47117 1.91022 6.1858 4.16019C6.1858 4.16019 6.70148 5.59524 6.85872 7.74022C6.85872 7.74022 6.91339 8.39298 6.93168 9.33912L6.80384 9.62423C5.88963 11.6639 6.14244 13.0033 6.51178 13.7687C6.46348 13.9336 6.41292 14.0971 6.35948 14.234L6.1856 14.6334C6.1856 14.6334 5.99137 15.1265 5.61607 14.7589C5.61607 14.7589 4.97851 14.1608 4.61842 13.6328C4.61842 13.6328 3.03335 11.4916 1.96993 8.42824ZM3.47401 22.6697C3.3065 22.1363 3.43065 21.6975 3.43065 21.6975C3.53506 21.2588 3.76607 20.8233 3.76607 20.8233C4.17796 20.0295 4.67823 19.593 5.01777 19.369C5.25145 19.2148 5.40889 19.1614 5.40889 19.1614C6.19156 18.7785 6.79685 19.1214 6.79685 19.1214C8.49126 19.9191 8.95144 21.6604 8.95144 21.6604C9.15492 22.1877 9.21658 22.9536 9.21658 22.9536C9.31832 23.954 8.75639 24.7255 8.75639 24.7255C8.43001 25.189 7.44489 25.0955 7.44489 25.0955C6.85954 25.0877 6.09475 24.8478 6.09475 24.8478C5.34251 24.6229 4.75283 24.194 4.56601 24.0478C4.52531 24.0159 4.50373 23.9975 4.50373 23.9975C3.84397 23.4652 3.61583 23.0036 3.61583 23.0036C3.55417 22.8904 3.50813 22.778 3.47401 22.6697ZM15.4765 36.1353C15.4691 36.1441 14.6881 37.0326 12.7034 37.5226C12.6911 37.5247 11.455 37.7407 10.1869 37.7407C8.92 37.7407 7.6831 37.5247 7.679 37.5243C5.68616 37.0326 4.90472 36.1441 4.89157 36.1289C3.40968 34.6106 4.24743 32.7374 4.2873 32.6504C4.99063 30.8178 5.88388 29.858 5.90032 29.8402C7.19414 28.2013 8.91198 27.7896 9.72486 27.6861C10.0099 27.6556 10.1863 27.6583 10.1873 27.6583C10.1885 27.6583 10.4736 27.6551 10.911 27.7218C11.7913 27.8781 13.3081 28.3635 14.4813 29.8487C14.4899 29.858 15.3832 30.8178 16.0865 32.6504L16.0902 32.6585C16.0988 32.6779 16.9674 34.6072 15.4765 36.1353ZM16.6083 20.8233C16.6083 20.8233 16.8394 21.2588 16.9438 21.6975C16.9438 21.6975 17.0679 22.1363 16.9004 22.6697C16.8663 22.778 16.8202 22.8904 16.7586 23.0036C16.7586 23.0036 16.5304 23.4652 15.8707 23.9975C15.8707 23.9975 15.8491 24.0159 15.8084 24.0478C15.6216 24.194 15.0319 24.6229 14.2797 24.8478C14.2797 24.8478 13.5149 25.0877 12.9295 25.0955C12.9295 25.0955 11.9444 25.189 11.618 24.7255C11.618 24.7255 11.0561 23.954 11.1578 22.9536C11.1578 22.9536 11.2195 22.1877 11.423 21.6604C11.423 21.6604 11.8832 19.9191 13.5776 19.1214C13.5776 19.1214 14.1829 18.7785 14.9655 19.1614C14.9655 19.1614 15.123 19.2148 15.3566 19.369C15.6962 19.593 16.1965 20.0295 16.6083 20.8233ZM18.4045 8.42824C17.3411 11.4916 15.756 13.6328 15.756 13.6328C15.3959 14.1608 14.7583 14.7589 14.7583 14.7589C14.383 15.1265 14.1888 14.6334 14.1888 14.6334L14.0149 14.234C13.8939 13.9236 13.7775 13.4812 13.7062 13.1897C13.7981 12.6092 13.6809 12.0053 13.5233 11.5198C13.4762 10.881 13.439 10.3173 13.439 10.3173C13.4203 8.87098 13.5157 7.74022 13.5157 7.74022C13.6729 5.59524 14.1886 4.16019 14.1886 4.16019C14.9032 1.91022 15.9473 1.39926 16.4248 1.2844C16.5839 1.24612 16.6801 1.25182 16.6801 1.25182C18.1983 1.16003 18.9619 2.81006 18.9619 2.81006C19.8428 4.5969 18.4045 8.42824 18.4045 8.42824Z" fill="#744729"/>
<path d="M13.5054 13.8159C14.2032 12.5199 13.182 10.6545 13.1373 10.574L12.8522 10.0616L12.899 10.65C12.9113 10.8059 12.9184 10.9494 12.9207 11.0819L12.6909 11.0583C12.0139 10.9883 11.6079 11.3305 11.401 11.5938C11.2223 10.9841 10.8177 10.4075 10.7977 10.3792L10.3859 9.79683L10.5709 10.4911C10.7773 11.2655 10.4999 11.8574 10.3311 12.125C9.97068 11.3883 9.96673 10.6921 9.96673 10.6847L9.96714 10.317L9.74009 10.6011C9.44707 10.9679 9.30514 11.3332 9.23813 11.6261C8.85708 10.7422 8.36386 10.4778 8.3393 10.465L8.07188 10.3266L8.1597 10.6209C8.26917 10.9879 8.16553 11.4433 8.07833 11.7198C7.70331 10.9575 7.86543 10.1668 7.8673 10.1583L8.01319 9.4758L7.63609 10.0569C7.35702 10.4868 7.2051 10.9201 7.12248 11.2741C6.9639 10.2826 7.04256 9.6854 7.0436 9.67812L7.16743 8.78668L6.80094 9.60434C5.42367 12.6765 6.69231 14.1687 7.02341 14.4878C6.62676 15.6982 7.63151 17.0786 7.67563 17.1382L7.95034 17.5102L7.90456 17.0454C7.85149 16.5075 7.90518 16.1172 7.98572 15.8452C7.92766 17.3359 8.50496 18.6594 8.53305 18.7227L8.7884 19.2986L8.77717 18.6658C8.73096 16.0479 9.20608 15.5453 9.358 15.4512C9.97131 16.3227 9.8019 17.6173 9.80003 17.6308L9.73531 18.1008L10.0258 17.732C11.0021 16.4932 11.0862 15.5038 11.0287 14.9696C12.308 16.2918 11.9357 17.6933 11.918 17.7563L11.6112 18.8517L12.1523 17.8571C12.8114 16.6459 12.9294 15.7726 12.9294 15.3029C13.2147 15.763 13.2049 16.4778 13.2047 16.4866L13.1916 17.1607L13.4501 16.5411C14.1106 14.9582 13.6751 14.0734 13.5054 13.8159ZM12.7687 11.2818L12.9213 11.1238C12.9302 11.9234 12.7683 12.2975 12.6172 12.4724C12.5621 12.5364 12.5086 12.5726 12.4668 12.5929C12.2618 11.8188 12.7469 11.3043 12.7687 11.2818Z" fill="black"/>
<path d="M16.3453 32.5897C15.6031 30.6565 14.6688 29.6685 14.6688 29.6685C12.8256 27.3342 10.1695 27.3701 10.1657 27.3702H10.1655H10.1653C10.1612 27.3701 7.50511 27.3342 5.66188 29.6685C5.66188 29.6685 4.7276 30.6565 3.98541 32.5897C3.98541 32.5897 3.02727 34.6579 4.63535 36.3056C4.63535 36.3056 5.43897 37.251 7.55915 37.7741C7.55915 37.7741 8.83708 37.9996 10.1653 37.9996C10.1653 37.9996 10.1653 37.9996 10.1655 37.9996C10.1655 37.9996 10.1655 37.9996 10.1657 37.9996C11.4939 37.9996 12.7718 37.7741 12.7718 37.7741C14.892 37.251 15.6954 36.3056 15.6954 36.3056C17.3035 34.6579 16.3453 32.5897 16.3453 32.5897Z" fill="#C5875D"/>
<path d="M7.04075 33.1719C7.04075 33.1719 7.6964 33.6358 8.52305 34.0034C8.52305 34.0034 8.87883 34.2064 9.03647 34.133C9.03647 34.133 9.21631 34.0758 9.22844 33.9059C9.22844 33.9059 9.22248 33.8176 9.16637 33.7427C9.16637 33.7427 8.45769 32.8349 8.27086 32.031C8.27086 32.031 8.19317 31.8508 8.17776 31.4291C8.17776 31.4291 8.19132 30.7608 7.67441 30.4407C7.67441 30.4407 7.37043 30.2035 6.9012 30.2422C6.9012 30.2422 5.94547 30.3086 5.84476 31.3496C5.84476 31.3496 5.83469 31.8834 6.15039 32.3452C6.46588 32.807 7.04075 33.1719 7.04075 33.1719Z" fill="#060707"/>
<path d="M11.3375 34.133C11.4951 34.2064 11.8509 34.0034 11.8509 34.0034C12.6775 33.6358 13.3332 33.1719 13.3332 33.1719C13.3332 33.1719 13.9079 32.807 14.2236 32.3452C14.5393 31.8834 14.529 31.3496 14.529 31.3496C14.4285 30.3086 13.4727 30.2422 13.4727 30.2422C13.0035 30.2035 12.6995 30.4407 12.6995 30.4407C12.1826 30.7608 12.1962 31.4291 12.1962 31.4291C12.1806 31.8508 12.1029 32.031 12.1029 32.031C11.9163 32.8349 11.2076 33.7427 11.2076 33.7427C11.1513 33.8176 11.1455 33.9059 11.1455 33.9059C11.1574 34.0758 11.3375 34.133 11.3375 34.133Z" fill="#060707"/>
<path d="M5.67285 34.7179C7.40014 37.2216 10.0965 37.1186 10.1793 37.1148C10.2624 37.1186 12.9736 37.2216 14.7008 34.7179C14.7008 34.7179 12.4624 36.2851 10.1787 36.2884C7.89548 36.2845 5.67285 34.7179 5.67285 34.7179Z" fill="white"/>
<path d="M40.5538 12.9195H34.659H34.6427H29.6274C29.6274 12.9195 25.4683 12.7258 25.4727 17.1088V28.3308C25.4727 28.3308 25.5351 32.1552 29.6931 32.1398L35.758 32.142L35.7586 32.1398H40.4883C44.6461 32.1552 44.7086 28.6657 44.7086 28.6657V17.1088C44.713 12.7258 40.5538 12.9195 40.5538 12.9195ZM42.1952 17.9761V27.5015C42.1952 29.8811 40.1154 29.6874 40.1154 29.6874H35.8427C35.8283 29.6877 35.8159 29.693 35.802 29.6952C35.7869 29.692 35.7708 29.6877 35.758 29.6874H30.0658C30.0658 29.6874 27.986 29.8811 27.986 27.5015V17.9761C27.986 17.9761 27.6938 15.3551 30.6255 15.3551H34.6427H34.659H39.5557C42.4876 15.3551 42.1952 17.9761 42.1952 17.9761Z" fill="#F26D00"/>
<path d="M56.6135 17.9877H46.6291C46.4574 17.9877 46.3184 18.1305 46.3184 18.3067V37.2818C46.3184 37.4584 46.4574 37.6012 46.6291 37.6012H48.4546C48.626 37.6012 48.7651 37.4584 48.7651 37.2818V32.1392H57.1326C60.3614 32.1392 60.3623 28.7413 60.3623 28.7413C60.3623 28.7413 60.3623 25.4474 60.3623 21.8006C60.3623 18.154 56.6135 17.9877 56.6135 17.9877ZM57.9224 27.6815C57.9224 29.8446 55.8624 29.6868 55.8624 29.6868H51.6891H48.7651V20.7576C48.7651 20.5814 48.9042 20.4383 49.0758 20.4383H55.7628C57.9893 20.4383 57.9224 22.1762 57.9224 22.1762C57.9224 22.1762 57.9224 25.3191 57.9224 27.6815Z" fill="#F26D00"/>
<path d="M72.1321 17.9859H65.6122C62.0229 17.9859 61.9209 21.6067 61.9209 21.6067V28.8104C61.9209 32.238 64.8167 32.1374 64.8167 32.1374H74.3762C74.5478 32.1374 74.6869 31.9943 74.6869 31.8181V30.006C74.6869 29.8297 74.5478 29.6866 74.3762 29.6866H66.3405C64.1927 29.6866 64.3158 27.8525 64.3158 27.8525V26.3568H75.6396C75.8112 26.3568 75.9503 26.214 75.9503 26.0378V21.5541C75.9503 17.8823 72.1321 17.9859 72.1321 17.9859ZM73.5426 23.5748C73.5426 23.7513 73.4412 23.8944 73.2319 23.8944H64.3158V22.709C64.3158 20.2025 66.1194 20.4381 66.1194 20.4381H71.6225C73.5504 20.4381 73.5426 22.176 73.5426 22.176V23.5748Z" fill="#F26D00"/>
<path d="M88.0503 17.9878H81.1796C81.1796 17.9878 77.5088 17.9057 77.5088 22.0657V31.8185C77.5088 31.9949 77.6479 32.1378 77.8195 32.1378H79.6269C79.7985 32.1378 79.9376 31.9949 79.9376 31.8185V22.4396C79.9376 22.4396 79.8654 20.4384 82.0995 20.4384H87.3273C87.3273 20.4384 89.3397 20.2503 89.3397 22.5356V31.8185C89.3397 31.9946 89.4787 32.1378 89.6502 32.1378H91.4506C91.6221 32.1378 91.7612 31.9946 91.7612 31.8185V21.5052C91.7612 21.5052 91.5566 17.9878 88.0503 17.9878Z" fill="#F26D00"/>
<path d="M110.868 12.9017H97.8154C93.2051 12.9017 93.3058 16.9332 93.3058 16.9332C93.3058 16.9332 93.3058 23.8343 93.3058 28.0861C93.3058 32.3385 97.508 32.1373 97.508 32.1373H110.868C111.04 32.1373 111.179 31.9945 111.179 31.818V30.0134C111.179 29.8337 111.036 29.6866 110.861 29.6866H98.9739C95.5863 29.9212 95.8355 27.3594 95.8355 27.3594V23.3416H108.453C108.545 23.3416 108.62 23.2644 108.62 23.1694V21.225C108.62 21.1303 108.545 21.0532 108.453 21.0532H95.8355V18.1422C95.8355 15.0013 98.2646 15.3544 98.2646 15.3544H110.868C111.04 15.3544 111.179 15.2113 111.179 15.0351V13.221C111.179 13.0448 111.04 12.9017 110.868 12.9017Z" fill="#F26D00"/>
<path d="M146.298 21.0532H136.898C134.788 21.0532 134.821 19.0789 134.821 19.0789V17.5629C134.821 15.1722 136.869 15.3544 136.869 15.3544H148.661C148.833 15.3544 148.973 15.2107 148.973 15.0332V13.2228C148.973 13.0454 148.833 12.9017 148.661 12.9017H135.972C131.866 12.9017 132.292 16.582 132.292 16.582V19.9409C132.292 23.5412 135.943 23.3416 135.943 23.3416H145.083C147.831 23.3416 147.513 25.6184 147.513 25.6184V27.1938C147.513 30.0771 145.372 29.6866 145.372 29.6866H132.292V32.1389H146.356C149.913 32.1389 150 28.5017 150 28.5017V24.5483C150 21.011 146.298 21.0532 146.298 21.0532Z" fill="#F26D00"/>
<path d="M127.257 12.9017H115.239H112.711V31.3607C112.711 31.79 113.049 32.1373 113.467 32.1373H114.953V32.1499L127.257 32.1005C130.919 32.1005 130.804 28.6154 130.804 28.6154V24.4329C130.804 22.3071 129.062 22.1974 129.062 22.1974C130.97 21.6916 130.804 19.9374 130.804 19.9374L130.851 16.4174C130.851 12.9679 127.257 12.9017 127.257 12.9017ZM128.228 27.9181C128.228 29.6965 126.612 29.6866 126.612 29.6866H115.239V23.3416H126.579C128.275 23.3416 128.228 24.8514 128.228 24.8514V27.9181ZM128.228 19.5191C128.228 20.8086 126.612 21.0179 126.612 21.0179H115.239V15.302H126.545C128.071 15.302 128.228 16.8008 128.228 16.8008V19.5191Z" fill="#F26D00"/>
</g>
<defs>
<clipPath id="clip0">
<rect width="150" height="38" fill="white"/>
</clipPath>
</defs>
</svg>
