<svg xmlns="http://www.w3.org/2000/svg" width="150" height="38" fill="none" xmlns:v="https://vecta.io/nano"><g clip-path="url(#A)"><path d="M4.618 13.634S3.033 11.493 1.97 8.429c0 0-1.438-3.831-.557-5.618 0 0 .763-1.65 2.282-1.558 0 0 .096-.006.255.033.477.115 1.522.626 2.236 2.876 0 0 .516 1.435.673 3.58a29.59 29.59 0 0 0 .077 2.577l-.178 2.373a2.86 2.86 0 0 1-.068.415l-.33 1.128-.174.399s-.194.493-.57.126c0 0-.637-.598-.997-1.126z" fill="#2b83ff"/><g fill="#fff"><path d="M8.951 21.662s-.46-1.741-2.155-2.539c0 0-.605-.343-1.388.04 0 0-.157.053-.391.208-.339.224-.84.66-1.252 1.454 0 0-.231.436-.335.874 0 0-.124.439.043.972.034.108.08.221.142.334 0 0 .228.462.888.994l.062.05a4.93 4.93 0 0 0 1.529.8s.765.24 1.35.248c0 0 .985.094 1.311-.37 0 0 .562-.772.46-1.772 0 0-.062-.766-.265-1.293zm2.472 0s.46-1.741 2.155-2.539c0 0 .605-.343 1.388.04a1.92 1.92 0 0 0 .391.208c.339.224.84.66 1.252 1.454 0 0 .231.436.335.874 0 0 .124.439-.043.972a1.87 1.87 0 0 1-.142.334s-.228.462-.888.994l-.062.05a4.93 4.93 0 0 1-1.529.8s-.765.24-1.35.248c0 0-.985.094-1.312-.37 0 0-.562-.772-.46-1.772 0 0 .062-.766.265-1.293z"/></g><path d="M15.756 13.634s1.585-2.141 2.648-5.205c0 0 1.438-3.831.558-5.618 0 0-.764-1.65-2.282-1.558 0 0-.096-.006-.255.033-.477.115-1.522.626-2.236 2.876 0 0-.516 1.435-.673 3.58 0 0-.095 1.131-.077 2.577l.178 2.373c.013.142.035.276.068.415l.33 1.128.174.399s.194.493.57.126c0 0 .637-.598.997-1.126z" fill="#2b83ff"/><g fill="#060707"><path d="M7.058 24.878s1.138.184 1.711-.863c0 0 .299-.581.157-1.1 0 0-.168-.385-.518-.085 0 0-.178.212-.484.154-.294-.055-.492-.288-.492-.637 0 0-.002-.265.287-.463 0 0 .285-.259-.018-.556 0 0-.127-.13-.451-.114 0 0-.819-.036-1.352.602 0 0-.628.601-.4 1.682s1.146 1.364 1.558 1.379zm7.896-1.872c.016-.332-.11-.463-.11-.463-.289-.312-.541-.019-.541-.019-.193.297-.45.295-.45.295a.59.59 0 0 1-.62-.505c-.056-.314.15-.497.15-.497.292-.359-.082-.532-.082-.532-.505-.146-1.071.162-1.071.162-1.018.589-.839 1.759-.839 1.759.014.424.289 1.367 1.341 1.602s1.637-.412 1.637-.412c.62-.547.586-1.389.586-1.389z"/></g><path d="M19.861 2.076S19.067.402 17.272.054c-.844-.164-1.701.046-2.336.639-.592.553-1.276 1.556-1.685 3.364 0 0-.742 2.808-.841 5.485l-.067 1.551c-.469.057-.775.31-.941.523-.179-.61-.584-1.188-.604-1.217l-.407-.575.183.686a2.05 2.05 0 0 1-.242 1.637c-.362-.738-.366-1.436-.366-1.443v-.363l-.224.281a2.54 2.54 0 0 0-.503 1.03c-.381-.887-.876-1.152-.9-1.165l-.264-.137.087.291c.11.369.005.827-.083 1.104-.006-.012-.009-.024-.015-.037L7.97 9.699l.042-.196-.046.071-.001-.032c-.099-2.677-.841-5.485-.841-5.485C6.714 2.249 6.031 1.246 5.438.693 4.803.099 3.946-.11 3.102.054 1.308.402.514 2.076.514 2.076-.311 3.765.105 6.121.105 6.121c.256 2.214 1.541 5.162 1.541 5.162.628 1.613 2.064 4.22 2.064 4.22.171.311-.02.453-.02.453-.748.734-1.223 1.601-1.223 1.601-.989 1.669-.725 4.403-.609 5.268l.066.61.366 4.775c.12 2.416 1.133 4.881 1.486 5.674-.024.722.153 1.625.932 2.423.033.039.833.957 2.921 1.472.013.002 1.27.221 2.559.221a16.89 16.89 0 0 0 2.567-.223c2.08-.513 2.879-1.432 2.906-1.464.782-.802.961-1.708.938-2.431.353-.794 1.365-3.259 1.486-5.674l.366-4.775.066-.61c.116-.865.38-3.599-.609-5.268 0 0-.475-.867-1.223-1.601 0 0-.191-.141-.02-.453l2.064-4.22s1.285-2.947 1.541-5.162c0 0 .416-2.355-.409-4.045zM8.22 12.097c.013-.029.268-.613.24-1.189.213.213.524.631.734 1.376l.247-.052c-.001-.006-.058-.551.303-1.164.046.335.164.858.463 1.386l.087.153.116-.132c.024-.028.488-.569.49-1.409.138.265.278.595.32.899l.064.467.177-.435c.003-.007.259-.615.965-.665a1.69 1.69 0 0 0-.163 1.48l.03.086.088.001c.03 0 .223-.008.414-.218.244-.269.372-.734.382-1.387.251.649.533 1.716.07 2.482l-.048.082.061.072c.025.029.536.655.149 1.992-.067-.371-.22-.825-.565-1.069l-.275-.194.081.332c.002.009.179.785-.42 2.154-.018-.67-.251-1.71-1.333-2.636l-.405-.346.208.498c.005.011.42 1.054-.619 2.585.005-.512-.076-1.365-.574-2.008l-.037-.048h-.06c-.032.008-.15.005-.299.158-.254.262-.545.929-.585 2.6-.19-.652-.398-1.679-.22-2.688l.062-.351-.266.228c-.021.018-.457.404-.47 1.462-.269-.492-.623-1.349-.339-2.081l.035-.091-.074-.06c-.064-.052-1.452-1.223-.479-3.987.016.421.079 1.012.258 1.738l.281 1.141-.032-1.176c0-.008-.013-.633.297-1.352.014.386.104.902.423 1.386l.126.192.094-.211zM1.97 8.428S.532 4.597 1.413 2.81c0 0 .764-1.65 2.282-1.558 0 0 .096-.006.255.033.477.115 1.522.626 2.236 2.876 0 0 .516 1.435.673 3.58l.073 1.599-.128.285c-.914 2.04-.661 3.379-.292 4.144l-.152.465-.174.399s-.194.493-.57.126c0 0-.638-.598-.998-1.126 0 0-1.585-2.141-2.648-5.205zM3.474 22.67c-.168-.533-.043-.972-.043-.972.104-.439.335-.874.335-.874.412-.794.912-1.23 1.252-1.454.234-.154.391-.208.391-.208.783-.383 1.388-.04 1.388-.04 1.694.798 2.155 2.539 2.155 2.539.203.527.265 1.293.265 1.293.102 1-.46 1.772-.46 1.772-.326.463-1.311.37-1.311.37-.585-.008-1.35-.248-1.35-.248-.752-.225-1.342-.654-1.529-.8l-.062-.05c-.66-.532-.888-.994-.888-.994-.062-.113-.108-.226-.142-.334zm12.002 13.466c-.007.009-.788.897-2.773 1.387-.012.002-1.248.218-2.517.218s-2.504-.216-2.508-.216c-1.993-.492-2.774-1.38-2.787-1.395-1.482-1.518-.644-3.392-.604-3.479.703-1.833 1.597-2.792 1.613-2.81 1.294-1.639 3.012-2.051 3.825-2.154l.462-.028c.001 0 .286-.003.724.064.88.156 2.397.642 3.57 2.127.009.009.902.969 1.605 2.802l.004.008c.009.019.877 1.949-.614 3.477zm1.132-15.312s.231.436.335.874c0 0 .124.439-.043.972-.034.108-.08.221-.142.334 0 0-.228.462-.888.994l-.062.05c-.187.146-.777.575-1.529.8 0 0-.765.24-1.35.248 0 0-.985.093-1.312-.37 0 0-.562-.771-.46-1.772 0 0 .062-.766.265-1.293 0 0 .46-1.741 2.155-2.539 0 0 .605-.343 1.388.04a1.91 1.91 0 0 0 .391.208c.34.224.84.66 1.252 1.454zm1.796-12.395c-1.063 3.063-2.648 5.205-2.648 5.205-.36.528-.998 1.126-.998 1.126-.375.368-.569-.126-.569-.126l-.174-.399c-.121-.31-.237-.753-.309-1.044.092-.581-.025-1.184-.183-1.67l-.084-1.203.077-2.577c.157-2.145.673-3.58.673-3.58.715-2.25 1.759-2.761 2.236-2.876.159-.038.255-.033.255-.033 1.518-.092 2.282 1.558 2.282 1.558.881 1.787-.557 5.618-.557 5.618z" fill="#744729"/><path d="M13.505 13.816c.698-1.296-.323-3.161-.368-3.242l-.285-.512.047.588.022.432-.23-.024a1.39 1.39 0 0 0-1.29.536c-.179-.61-.583-1.186-.603-1.215l-.412-.582.185.694a2.05 2.05 0 0 1-.24 1.634c-.36-.737-.364-1.433-.364-1.44v-.368l-.227.284a2.55 2.55 0 0 0-.502 1.025c-.381-.884-.874-1.148-.899-1.161l-.267-.138.088.294c.109.367.006.822-.081 1.099a2.67 2.67 0 0 1-.211-1.561l.146-.683-.377.581c-.279.43-.431.863-.514 1.217-.159-.992-.08-1.589-.079-1.596l.124-.891-.366.818c-1.377 3.072-.109 4.564.222 4.883-.397 1.21.608 2.591.652 2.65l.275.372-.046-.465c-.053-.538.001-.928.081-1.2-.058 1.491.519 2.814.547 2.877l.255.576-.011-.633c-.046-2.618.429-3.121.581-3.215.613.872.444 2.166.442 2.18l-.065.47.29-.369c.976-1.239 1.06-2.228 1.003-2.762 1.279 1.322.907 2.724.889 2.787l-.307 1.095.541-.995c.659-1.211.777-2.084.777-2.554.285.46.276 1.175.275 1.184l-.013.674.259-.62c.66-1.583.225-2.468.055-2.725zm-.737-2.534l.153-.158c.009.8-.153 1.174-.304 1.349-.055.064-.109.1-.15.12a1.42 1.42 0 0 1 .302-1.311z" fill="#000"/><path d="M16.345 32.59c-.742-1.933-1.677-2.921-1.677-2.921-1.843-2.334-4.499-2.298-4.503-2.298h0 0c-.004 0-2.66-.036-4.503 2.298 0 0-.934.988-1.676 2.921 0 0-.958 2.068.65 3.716 0 0 .804.945 2.924 1.468 0 0 1.278.226 2.606.226s2.607-.226 2.607-.226c2.12-.523 2.924-1.468 2.924-1.468 1.608-1.648.65-3.716.65-3.716z" fill="#c5875d"/><g fill="#060707"><path d="M7.041 33.172s.656.464 1.482.831c0 0 .356.203.513.13 0 0 .18-.057.192-.227 0 0-.006-.088-.062-.163 0 0-.709-.908-.896-1.712 0 0-.078-.18-.093-.602 0 0 .014-.668-.503-.988 0 0-.304-.237-.773-.198 0 0-.956.066-1.056 1.107 0 0-.01.534.306.996s.89.827.89.827zm4.297.961c.158.073.513-.13.513-.13.827-.368 1.482-.831 1.482-.831s.575-.365.89-.827.305-.996.305-.996c-.101-1.041-1.056-1.107-1.056-1.107-.469-.039-.773.198-.773.198-.517.32-.503.988-.503.988-.016.422-.093.602-.093.602-.187.804-.895 1.712-.895 1.712-.056.075-.062.163-.062.163.012.17.192.227.192.227z"/></g><path d="M5.673 34.718c1.727 2.504 4.424 2.401 4.506 2.397.083.004 2.794.107 4.522-2.397 0 0-2.238 1.567-4.522 1.571-2.283-.004-4.506-1.571-4.506-1.571z" fill="#fff"/><g fill="#f26d00"><path d="M40.554 12.92h-5.895-.016-5.015s-4.159-.194-4.155 4.189v11.222s.062 3.824 4.22 3.809l6.065.002.001-.002h4.73c4.158.015 4.22-3.474 4.22-3.474V17.109c.004-4.383-4.155-4.189-4.155-4.189zm1.641 5.057v9.525c0 2.38-2.08 2.186-2.08 2.186h-4.273c-.014 0-.027.006-.041.008s-.031-.008-.044-.008h-5.692s-2.08.194-2.08-2.186v-9.525s-.292-2.621 2.639-2.621h4.017.016 4.897c2.932 0 2.639 2.621 2.639 2.621zm14.419.011H46.63c-.172 0-.311.143-.311.319v18.975c0 .177.139.319.311.319h1.825c.171 0 .31-.143.31-.319v-5.143h8.368c3.229 0 3.23-3.398 3.23-3.398V21.8c0-3.647-3.749-3.813-3.749-3.813zm1.309 9.694c0 2.163-2.06 2.005-2.06 2.005H51.69h-2.924v-8.929c0-.176.139-.319.311-.319h6.687c2.227 0 2.16 1.738 2.16 1.738v5.505zm14.209-9.696h-6.52c-3.589 0-3.691 3.621-3.691 3.621v7.204c0 3.428 2.896 3.327 2.896 3.327h9.56c.172 0 .311-.143.311-.319v-1.812c0-.176-.139-.319-.311-.319h-8.036c-2.148 0-2.025-1.834-2.025-1.834v-1.496H75.64c.172 0 .311-.143.311-.319v-4.484c0-3.672-3.818-3.568-3.818-3.568zm1.41 5.589c0 .177-.101.32-.311.32h-8.916V22.71c0-2.506 1.804-2.271 1.804-2.271h5.503c1.928 0 1.92 1.738 1.92 1.738v1.399zm14.508-5.587h-6.87s-3.671-.082-3.671 4.078v9.753c0 .176.139.319.311.319h1.807c.172 0 .311-.143.311-.319V22.44s-.072-2.001 2.162-2.001h5.228s2.012-.188 2.012 2.097v9.283c0 .176.139.319.311.319h1.8c.172 0 .311-.143.311-.319V21.505s-.205-3.517-3.711-3.517zm22.818-5.086H97.815c-4.61 0-4.51 4.031-4.51 4.031v11.153c0 4.252 4.202 4.051 4.202 4.051h13.36c.172 0 .311-.143.311-.319v-1.805c0-.18-.143-.327-.318-.327H98.974c-3.388.235-3.138-2.327-3.138-2.327v-4.018h12.618a.17.17 0 0 0 .167-.172v-1.944a.17.17 0 0 0-.167-.172H95.836v-2.911c0-3.141 2.429-2.788 2.429-2.788h12.603c.172 0 .311-.143.311-.319v-1.814c0-.176-.139-.319-.311-.319zm35.43 8.151h-9.4c-2.11 0-2.077-1.974-2.077-1.974v-1.516c0-2.391 2.048-2.208 2.048-2.208h11.792c.172 0 .312-.144.312-.321v-1.81c0-.177-.14-.321-.312-.321h-12.689c-4.106 0-3.68 3.68-3.68 3.68v3.359c0 3.6 3.651 3.401 3.651 3.401h9.14c2.748 0 2.43 2.277 2.43 2.277v1.575c0 2.883-2.141 2.493-2.141 2.493h-13.08v2.452h14.064c3.557 0 3.644-3.637 3.644-3.637V24.55c0-3.537-3.702-3.495-3.702-3.495zm-19.041-8.151h-12.018-2.528v18.459c0 .429.338.777.756.777h1.486v.013l12.304-.049c3.662 0 3.547-3.485 3.547-3.485v-4.183c0-2.126-1.742-2.236-1.742-2.236 1.908-.506 1.742-2.26 1.742-2.26l.047-3.52c0-3.45-3.594-3.516-3.594-3.516zm.971 15.016c0 1.778-1.616 1.768-1.616 1.768h-11.373v-6.345h11.34c1.696 0 1.649 1.51 1.649 1.51v3.067zm0-8.399c0 1.289-1.616 1.499-1.616 1.499h-11.373v-5.716h11.306c1.526 0 1.683 1.499 1.683 1.499v2.718z"/></g></g><defs><clipPath id="A"><path fill="#fff" d="M0 0h150v38H0z"/></clipPath></defs></svg>