<svg width="162" height="40" viewBox="0 0 162 40" fill="none" xmlns="http://www.w3.org/2000/svg">
<path d="M4.98775 14.3503C4.98775 14.3503 3.27582 12.0964 2.12738 8.87183C2.12738 8.87183 0.573892 4.83882 1.52531 2.95797C1.52531 2.95797 2.34985 1.22109 3.98954 1.31771C3.98954 1.31771 4.09341 1.31169 4.26528 1.35199C4.7809 1.4729 5.90863 2.01075 6.68039 4.37912C6.68039 4.37912 7.2373 5.88971 7.40706 8.14758C7.40706 8.14758 7.51008 9.33786 7.48995 10.8603C7.48995 10.8603 7.38406 12.428 7.29766 13.3585C7.28376 13.5082 7.25967 13.6494 7.22378 13.7954C7.15035 14.094 7.01085 14.6262 6.86791 14.9831L6.68019 15.4035C6.68019 15.4035 6.47046 15.9226 6.06497 15.5357C6.06497 15.5357 5.37648 14.9061 4.98775 14.3503Z" fill="#2A140B"/>
<path d="M9.66702 22.8005C9.66702 22.8005 9.17008 20.9675 7.34002 20.1278C7.34002 20.1278 6.6864 19.7669 5.84101 20.1699C5.84101 20.1699 5.67097 20.2262 5.41866 20.3885C5.05205 20.6242 4.51172 21.0837 4.06687 21.9192C4.06687 21.9192 3.81735 22.3777 3.70457 22.8395C3.70457 22.8395 3.57053 23.3013 3.7515 23.8629C3.78825 23.9769 3.83799 24.0951 3.90447 24.2143C3.90447 24.2143 4.15111 24.7002 4.8635 25.2605C4.8635 25.2605 4.8868 25.2799 4.93072 25.3134C5.13247 25.4673 5.76937 25.9189 6.58189 26.1555C6.58189 26.1555 7.40772 26.4081 8.04001 26.4163C8.04001 26.4163 9.10382 26.5148 9.45639 26.0269C9.45639 26.0269 10.0632 25.2147 9.95344 24.1617C9.95344 24.1617 9.88678 23.3555 9.66702 22.8005Z" fill="white"/>
<path d="M12.3373 22.8005C12.3373 22.8005 12.8343 20.9675 14.6643 20.1278C14.6643 20.1278 15.3179 19.7669 16.1633 20.1699C16.1633 20.1699 16.3334 20.2262 16.5857 20.3885C16.9523 20.6242 17.4926 21.0837 17.9375 21.9192C17.9375 21.9192 18.187 22.3777 18.2998 22.8395C18.2998 22.8395 18.4338 23.3013 18.2528 23.8629C18.2161 23.9769 18.1664 24.0951 18.0999 24.2143C18.0999 24.2143 17.8532 24.7002 17.1408 25.2605C17.1408 25.2605 17.1175 25.2799 17.0736 25.3134C16.8719 25.4673 16.235 25.9189 15.4225 26.1555C15.4225 26.1555 14.5966 26.4081 13.9643 26.4163C13.9643 26.4163 12.9005 26.5148 12.548 26.0269C12.548 26.0269 11.9411 25.2147 12.0509 24.1617C12.0509 24.1617 12.1176 23.3555 12.3373 22.8005Z" fill="white"/>
<path d="M17.0166 14.3503C17.0166 14.3503 18.7286 12.0964 19.877 8.87183C19.877 8.87183 21.4305 4.83882 20.4791 2.95797C20.4791 2.95797 19.6545 1.22109 18.0149 1.31771C18.0149 1.31771 17.911 1.31169 17.7391 1.35199C17.2235 1.4729 16.0958 2.01075 15.324 4.37912C15.324 4.37912 14.7671 5.88971 14.5973 8.14758C14.5973 8.14758 14.4943 9.33786 14.5144 10.8603C14.5144 10.8603 14.6203 12.428 14.7067 13.3585C14.7206 13.5082 14.7447 13.6494 14.7806 13.7954C14.854 14.094 14.9935 14.6262 15.1365 14.9831L15.3242 15.4035C15.3242 15.4035 15.5339 15.9226 15.9394 15.5357C15.9394 15.5357 16.6279 14.9061 17.0166 14.3503Z" fill="#2A140B"/>
<path d="M7.62297 26.1872C7.62297 26.1872 8.85226 26.3806 9.47135 25.279C9.47135 25.279 9.79432 24.6669 9.64116 24.1207C9.64116 24.1207 9.45958 23.7156 9.08223 24.0316C9.08223 24.0316 8.88955 24.2548 8.5597 24.1941C8.24228 24.1356 8.02874 23.8906 8.02874 23.5237C8.02874 23.5237 8.02652 23.2448 8.33883 23.0365C8.33883 23.0365 8.64649 22.764 8.31886 22.4512C8.31886 22.4512 8.18145 22.3145 7.83229 22.3317C7.83229 22.3317 6.9475 22.2941 6.37258 22.9653C6.37258 22.9653 5.69401 23.5974 5.94018 24.736C6.18657 25.8747 7.17813 26.1718 7.62297 26.1872Z" fill="#060707"/>
<path d="M16.1498 24.2173C16.1671 23.8676 16.0305 23.7299 16.0305 23.7299C15.7183 23.4017 15.4462 23.7099 15.4462 23.7099C15.2383 24.0225 14.9598 24.0205 14.9598 24.0205C14.5936 24.0205 14.3489 23.8064 14.2906 23.4887C14.2299 23.158 14.4527 22.9653 14.4527 22.9653C14.7682 22.5873 14.3638 22.4054 14.3638 22.4054C13.8185 22.2518 13.2075 22.5755 13.2075 22.5755C12.1077 23.1956 12.3007 24.4268 12.3007 24.4268C12.3161 24.8726 12.6128 25.8658 13.7495 26.1126C14.8863 26.3592 15.5173 25.6795 15.5173 25.6795C16.1874 25.1036 16.1498 24.2173 16.1498 24.2173Z" fill="#060707"/>
<path d="M21.4498 2.18497C21.4498 2.18497 20.5923 0.423089 18.6538 0.0566052C17.7426 -0.115714 16.8171 0.104521 16.131 0.729372C15.4913 1.31176 14.7528 2.36779 14.3115 4.27047C14.3115 4.27047 13.5102 7.22647 13.4027 10.0445C13.4027 10.0445 13.3828 10.6941 13.3306 11.6772C12.824 11.7372 12.494 12.0031 12.3142 12.2279C12.121 11.5854 11.6833 10.977 11.662 10.9468L11.2225 10.3411L11.4201 11.0633C11.6438 11.8815 11.3415 12.5063 11.159 12.7869C10.7683 12.01 10.7639 11.275 10.7639 11.2674L10.7643 10.885L10.5224 11.1802C10.2041 11.5685 10.0509 11.9549 9.97943 12.264C9.56789 11.3301 9.03382 11.0513 9.00719 11.0379L8.72173 10.8939L8.8154 11.1998C8.93438 11.5885 8.82073 12.0705 8.72617 12.3614C8.71973 12.3486 8.71618 12.3358 8.70996 12.3229C8.64936 11.3091 8.61829 10.5302 8.60719 10.2099L8.65247 10.0036L8.60275 10.0783C8.60208 10.0627 8.60164 10.0445 8.60164 10.0445C8.4942 7.22647 7.69287 4.27047 7.69287 4.27047C7.25159 2.36779 6.51308 1.31176 5.87335 0.729372C5.18722 0.104521 4.26181 -0.115714 3.3506 0.0566052C1.4121 0.423089 0.554611 2.18497 0.554611 2.18497C-0.335952 3.96352 0.113325 6.44281 0.113325 6.44281C0.389461 8.77339 1.77725 11.876 1.77725 11.876C2.45582 13.5733 4.00632 16.3177 4.00632 16.3177C4.19056 16.6452 3.98434 16.7941 3.98434 16.7941C3.17658 17.5665 2.66381 18.4793 2.66381 18.4793C1.59567 20.2366 1.88113 23.1145 2.00588 24.025C2.03518 24.2386 2.06049 24.4527 2.07758 24.6676L2.47269 29.6934C2.60277 32.2365 3.69666 34.8318 4.07757 35.6666C4.05182 36.4263 4.2425 37.3769 5.084 38.2172C5.11952 38.2581 5.98345 39.2249 8.23826 39.767C8.25203 39.7692 9.60963 40 11.0023 40C12.3945 40 13.7521 39.7692 13.7748 39.7652C16.0207 39.2249 16.8842 38.2581 16.9135 38.2243C17.7581 37.3805 17.9519 36.4267 17.927 35.6659C18.3081 34.8303 19.4016 32.2357 19.5317 29.6934L19.9268 24.6676C19.9439 24.4527 19.9692 24.2386 19.9985 24.025C20.1232 23.1145 20.4087 20.2366 19.3406 18.4793C19.3406 18.4793 18.8278 17.5665 18.02 16.7941C18.02 16.7941 17.8138 16.6452 17.998 16.3177C17.998 16.3177 19.5485 13.5733 20.2271 11.876C20.2271 11.876 21.6149 8.77339 21.891 6.44281C21.891 6.44281 22.3403 3.96352 21.4498 2.18497ZM8.878 12.7336C8.89176 12.7029 9.16701 12.0883 9.13682 11.4822C9.36634 11.7068 9.70285 12.1461 9.92971 12.9301L10.1961 12.8754C10.1952 12.8688 10.1339 12.2955 10.5233 11.6503C10.573 12.0029 10.7 12.5539 11.0236 13.1089L11.1177 13.2703L11.2425 13.1316C11.2687 13.1022 11.7694 12.5326 11.7721 11.6485C11.9208 11.9273 12.0727 12.2746 12.1179 12.5953L12.1872 13.0871L12.3785 12.6291C12.3816 12.6219 12.6587 11.9816 13.4205 11.9296C13.2323 12.2217 12.9939 12.7763 13.2442 13.4873L13.2762 13.5776L13.3712 13.5785C13.3721 13.5785 13.3725 13.5785 13.373 13.5785C13.4036 13.5785 13.6123 13.57 13.8178 13.349C14.0811 13.0662 14.2192 12.5766 14.2307 11.8886C14.5019 12.5712 14.8061 13.695 14.3062 14.5008L14.2538 14.587L14.3199 14.6631C14.3466 14.6938 14.8984 15.3524 14.4806 16.7598C14.4078 16.3689 14.2431 15.8909 13.8702 15.6343L13.5736 15.4306L13.6607 15.7806C13.6629 15.7899 13.8538 16.6069 13.2069 18.0477C13.1879 17.3424 12.9357 16.2475 11.7672 15.2728L11.3299 14.9086L11.5546 15.4324C11.5599 15.444 12.0083 16.5415 10.8864 18.1531C10.8913 17.6141 10.8047 16.7158 10.2667 16.0394L10.2267 15.9887L10.1623 15.9878C10.1277 15.9963 10.0003 15.9927 9.83915 16.1542C9.56479 16.4303 9.25091 17.1325 9.20785 18.8912C9.0023 18.2051 8.77855 17.124 8.96989 16.0612L9.03649 15.6921L8.74881 15.9318C8.72572 15.9505 8.25558 16.3569 8.24137 17.4709C7.95103 16.9533 7.56879 16.0505 7.87556 15.2799L7.91285 15.1847L7.83338 15.1216C7.76413 15.0669 6.26491 13.8342 7.31618 10.925C7.33394 11.3679 7.40186 11.9905 7.59498 12.7549L7.89864 13.9556L7.86357 12.7176C7.86357 12.7096 7.84981 12.0514 8.1841 11.2941C8.19875 11.7005 8.29687 12.2435 8.64048 12.7536L8.77678 12.9555L8.878 12.7336ZM2.12752 8.87184C2.12752 8.87184 0.574144 4.83885 1.52553 2.95796C1.52553 2.95796 2.35016 1.22109 3.98989 1.3177C3.98989 1.3177 4.09378 1.3117 4.26558 1.352C4.78123 1.4729 5.90886 2.01076 6.68067 4.37915C6.68067 4.37915 7.2376 5.88972 7.40741 8.1476C7.40741 8.1476 7.46646 8.83471 7.48621 9.83065L7.34815 10.1308C6.3608 12.2778 6.63383 13.6877 7.03272 14.4933C6.98056 14.667 6.92595 14.839 6.86824 14.9831L6.68045 15.4035C6.68045 15.4035 6.47068 15.9226 6.06535 15.5357C6.06535 15.5357 5.37679 14.9061 4.98789 14.3504C4.98789 14.3504 3.27602 12.0965 2.12752 8.87184ZM3.75193 23.8629C3.57102 23.3013 3.7051 22.8394 3.7051 22.8394C3.81786 22.3777 4.06736 21.9192 4.06736 21.9192C4.5122 21.0837 5.05248 20.6242 5.41919 20.3884C5.67157 20.2262 5.8416 20.1699 5.8416 20.1699C6.68688 19.7669 7.3406 20.1278 7.3406 20.1278C9.17056 20.9675 9.66756 22.8004 9.66756 22.8004C9.88732 23.3554 9.95391 24.1617 9.95391 24.1617C10.0638 25.2147 9.45691 26.0269 9.45691 26.0269C9.10441 26.5148 8.04049 26.4163 8.04049 26.4163C7.4083 26.4081 6.58233 26.1556 6.58233 26.1556C5.76991 25.9189 5.13306 25.4673 4.93129 25.3134C4.88733 25.2799 4.86403 25.2605 4.86403 25.2605C4.15149 24.7002 3.9051 24.2143 3.9051 24.2143C3.8385 24.0951 3.78878 23.9769 3.75193 23.8629ZM16.7146 38.0371C16.7066 38.0465 15.8631 38.9816 13.7197 39.4975C13.7064 39.4997 12.3714 39.727 11.0019 39.727C9.6336 39.727 8.29775 39.4997 8.29332 39.4993C6.14105 38.9816 5.2971 38.0465 5.28289 38.0304C3.68246 36.4322 4.58723 34.4604 4.63029 34.3688C5.38989 32.4398 6.35459 31.4294 6.37235 31.4107C7.76968 29.6855 9.62494 29.2522 10.5029 29.1432C10.8107 29.1111 11.0012 29.114 11.0023 29.114C11.0036 29.114 11.3115 29.1107 11.7839 29.1809C12.7346 29.3453 14.3728 29.8564 15.6398 31.4196C15.6491 31.4294 16.6138 32.4398 17.3734 34.3688L17.3774 34.3773C17.3867 34.3977 18.3248 36.4287 16.7146 38.0371ZM17.937 21.9192C17.937 21.9192 18.1865 22.3777 18.2993 22.8394C18.2993 22.8394 18.4333 23.3013 18.2524 23.8629C18.2156 23.9769 18.1659 24.0951 18.0993 24.2143C18.0993 24.2143 17.8529 24.7002 17.1403 25.2605C17.1403 25.2605 17.117 25.2799 17.0731 25.3134C16.8713 25.4673 16.2345 25.9189 15.422 26.1556C15.422 26.1556 14.5961 26.4081 13.9639 26.4163C13.9639 26.4163 12.9 26.5148 12.5475 26.0269C12.5475 26.0269 11.9406 25.2147 12.0505 24.1617C12.0505 24.1617 12.1171 23.3554 12.3368 22.8004C12.3368 22.8004 12.8338 20.9675 14.6638 20.1278C14.6638 20.1278 15.3175 19.7669 16.1628 20.1699C16.1628 20.1699 16.3328 20.2262 16.5852 20.3884C16.9519 20.6242 17.4922 21.0837 17.937 21.9192ZM19.8768 8.87184C18.7283 12.0965 17.0165 14.3504 17.0165 14.3504C16.6276 14.9061 15.939 15.5357 15.939 15.5357C15.5337 15.9226 15.3239 15.4035 15.3239 15.4035L15.1361 14.9831C15.0054 14.6564 14.8797 14.1908 14.8027 13.8839C14.9019 13.2729 14.7754 12.6371 14.6052 12.1261C14.5543 11.4536 14.5142 10.8603 14.5142 10.8603C14.494 9.33788 14.597 8.1476 14.597 8.1476C14.7668 5.88972 15.3237 4.37915 15.3237 4.37915C16.0955 2.01076 17.2231 1.4729 17.7388 1.352C17.9106 1.3117 18.0145 1.3177 18.0145 1.3177C19.6542 1.22109 20.4788 2.95796 20.4788 2.95796C21.4302 4.83885 19.8768 8.87184 19.8768 8.87184Z" fill="#073D47"/>
<path d="M14.5862 14.5419C15.3398 13.1778 14.2369 11.2142 14.1886 11.1295L13.8807 10.5901L13.9313 11.2094C13.9445 11.3735 13.9522 11.5246 13.9546 11.664L13.7065 11.6392C12.9754 11.5656 12.5369 11.9258 12.3135 12.203C12.1204 11.5611 11.6835 10.9541 11.6619 10.9244L11.2171 10.3114L11.4169 11.0421C11.6398 11.8574 11.3402 12.4803 11.158 12.762C10.7687 11.9866 10.7644 11.2538 10.7644 11.2459L10.7649 10.8589L10.5196 11.1579C10.2032 11.544 10.0499 11.9285 9.97752 12.2369C9.56599 11.3065 9.03331 11.0282 9.00679 11.0147L8.71797 10.869L8.81282 11.1788C8.93104 11.5651 8.81911 12.0445 8.72494 12.3356C8.31992 11.5332 8.49501 10.7008 8.49703 10.6918L8.65459 9.97342L8.24732 10.5851C7.94592 11.0376 7.78185 11.4938 7.69262 11.8664C7.52135 10.8226 7.60631 10.1941 7.60743 10.1864L7.74116 9.24803L7.34536 10.1087C5.8579 13.3426 7.22804 14.9134 7.58563 15.2493C7.15724 16.5233 8.24238 17.9764 8.29003 18.0392L8.58671 18.4307L8.53726 17.9415C8.47995 17.3752 8.53794 16.9644 8.62492 16.678C8.56221 18.2472 9.1857 19.6404 9.21604 19.707L9.49182 20.3133L9.47968 19.6471C9.42978 16.8914 9.94291 16.3624 10.107 16.2633C10.7694 17.1807 10.5864 18.5435 10.5844 18.5577L10.5145 19.0523L10.8282 18.6642C11.8826 17.3602 11.9734 16.3187 11.9114 15.7563C13.293 17.1481 12.8909 18.6234 12.8718 18.6898L12.5405 19.8427L13.1248 18.7959C13.8366 17.5209 13.9641 16.6017 13.9641 16.1073C14.2722 16.5915 14.2617 17.344 14.2614 17.3532L14.2473 18.0628L14.5264 17.4106C15.2398 15.7444 14.7694 14.813 14.5862 14.5419ZM13.7906 11.8745L13.9553 11.7081C13.965 12.5499 13.7901 12.9437 13.6269 13.1278C13.5674 13.1951 13.5096 13.2332 13.4644 13.2546C13.2431 12.4398 13.767 11.8981 13.7906 11.8745Z" fill="#2A140B"/>
<path d="M17.6529 34.3055C16.8514 32.2705 15.8424 31.2305 15.8424 31.2305C13.8517 28.7733 10.983 28.8111 10.9789 28.8113H10.9787H10.9785C10.9741 28.8111 8.10552 28.7733 6.11483 31.2305C6.11483 31.2305 5.10581 32.2705 4.30424 34.3055C4.30424 34.3055 3.26945 36.4824 5.00618 38.2169C5.00618 38.2169 5.87409 39.212 8.16388 39.7626C8.16388 39.7626 9.54405 40 10.9785 40C10.9785 40 10.9785 40 10.9787 40C10.9787 40 10.9787 40 10.9789 40C12.4134 40 13.7935 39.7626 13.7935 39.7626C16.0833 39.212 16.951 38.2169 16.951 38.2169C18.6877 36.4824 17.6529 34.3055 17.6529 34.3055Z" fill="#C5875D"/>
<path d="M7.60409 34.9183C7.60409 34.9183 8.31219 35.4067 9.20497 35.7936C9.20497 35.7936 9.58921 36.0073 9.75946 35.93C9.75946 35.93 9.95369 35.8698 9.96679 35.691C9.96679 35.691 9.96035 35.598 9.89975 35.5193C9.89975 35.5193 9.13438 34.5636 8.93261 33.7175C8.93261 33.7175 8.8487 33.5277 8.83205 33.0838C8.83205 33.0838 8.8467 32.3803 8.28844 32.0435C8.28844 32.0435 7.96014 31.7937 7.45337 31.8345C7.45337 31.8345 6.42118 31.9044 6.31242 33.0002C6.31242 33.0002 6.30154 33.562 6.64249 34.0481C6.98322 34.5343 7.60409 34.9183 7.60409 34.9183Z" fill="#060707"/>
<path d="M12.2445 35.93C12.4147 36.0073 12.799 35.7936 12.799 35.7936C13.6917 35.4067 14.3998 34.9183 14.3998 34.9183C14.3998 34.9183 15.0205 34.5343 15.3614 34.0481C15.7024 33.562 15.6913 33.0002 15.6913 33.0002C15.5827 31.9044 14.5506 31.8345 14.5506 31.8345C14.0438 31.7937 13.7155 32.0435 13.7155 32.0435C13.1572 32.3803 13.1719 33.0838 13.1719 33.0838C13.155 33.5277 13.0711 33.7175 13.0711 33.7175C12.8695 34.5636 12.1042 35.5193 12.1042 35.5193C12.0434 35.598 12.0371 35.691 12.0371 35.691C12.05 35.8698 12.2445 35.93 12.2445 35.93Z" fill="#060707"/>
<path d="M6.12686 36.5456C7.99234 39.1811 10.9044 39.0727 10.9939 39.0687C11.0836 39.0727 14.0116 39.1811 15.8771 36.5456C15.8771 36.5456 13.4596 38.1953 10.9932 38.1988C8.5273 38.1947 6.12686 36.5456 6.12686 36.5456Z" fill="white"/>
<path d="M43.7981 13.5988H37.4316H37.4141H31.9976C31.9976 13.5988 27.5056 13.3949 27.5104 18.0086V29.8212C27.5104 29.8212 27.5779 33.8469 32.0685 33.8307L38.6186 33.833L38.6193 33.8307H43.7273C48.2177 33.8469 48.2852 30.1738 48.2852 30.1738V18.0086C48.29 13.3949 43.7981 13.5988 43.7981 13.5988ZM45.5708 18.9216V28.9483C45.5708 31.4532 43.3246 31.2493 43.3246 31.2493H38.7101C38.6945 31.2496 38.6812 31.2552 38.6661 31.2575C38.6498 31.2542 38.6324 31.2496 38.6186 31.2493H32.471C32.471 31.2493 30.2248 31.4532 30.2248 28.9483V18.9216C30.2248 18.9216 29.9093 16.1625 33.0755 16.1625H37.4141H37.4316H42.7201C45.8865 16.1625 45.5708 18.9216 45.5708 18.9216Z" fill="#F26D00"/>
<path d="M61.1422 18.9344H50.359C50.1737 18.9344 50.0235 19.0848 50.0235 19.2702V39.244C50.0235 39.4299 50.1737 39.5802 50.359 39.5802H52.3306C52.5158 39.5802 52.666 39.4299 52.666 39.244V33.8307H61.7028C65.19 33.8307 65.191 30.254 65.191 30.254C65.191 30.254 65.191 26.7868 65.191 22.9479C65.191 19.1094 61.1422 18.9344 61.1422 18.9344ZM62.5559 29.1384C62.5559 31.4153 60.331 31.2493 60.331 31.2493H55.8238H52.666V21.8501C52.666 21.6646 52.8162 21.514 53.0015 21.514H60.2235C62.6281 21.514 62.5559 23.3433 62.5559 23.3433C62.5559 23.3433 62.5559 26.6516 62.5559 29.1384Z" fill="#F26D00"/>
<path d="M77.9025 18.9328H70.861C66.9845 18.9328 66.8744 22.744 66.8744 22.744V30.327C66.8744 33.935 70.0019 33.8291 70.0019 33.8291H80.3261C80.5115 33.8291 80.6617 33.6785 80.6617 33.493V31.5854C80.6617 31.3999 80.5115 31.2492 80.3261 31.2492H71.6475C69.3279 31.2492 69.4609 29.3186 69.4609 29.3186V27.7442H81.6906C81.8759 27.7442 82.0261 27.5939 82.0261 27.4084V22.6888C82.0261 18.8236 77.9025 18.9328 77.9025 18.9328ZM79.4258 24.8157C79.4258 25.0016 79.3163 25.1522 79.0903 25.1522H69.4609V23.9044C69.4609 21.266 71.4088 21.514 71.4088 21.514H77.3522C79.4342 21.514 79.4258 23.3433 79.4258 23.3433V24.8157V24.8157Z" fill="#F26D00"/>
<path d="M95.0941 18.9345H87.6737C87.6737 18.9345 83.7092 18.848 83.7092 23.2269V33.493C83.7092 33.6788 83.8594 33.8291 84.0448 33.8291H85.9968C86.1821 33.8291 86.3324 33.6788 86.3324 33.493V23.6205C86.3324 23.6205 86.2544 21.514 88.6672 21.514H94.3133C94.3133 21.514 96.4866 21.316 96.4866 23.7215V33.493C96.4866 33.6785 96.6368 33.8291 96.822 33.8291H98.7664C98.9516 33.8291 99.1018 33.6785 99.1018 33.493V22.6368C99.1018 22.6368 98.8808 18.9345 95.0941 18.9345Z" fill="#F26D00"/>
<path d="M119.737 13.581H105.641C100.661 13.581 100.77 17.8248 100.77 17.8248C100.77 17.8248 100.77 25.089 100.77 29.5646C100.77 34.0409 105.309 33.8291 105.309 33.8291H119.737C119.923 33.8291 120.073 33.6788 120.073 33.493V31.5933C120.073 31.4042 119.918 31.2492 119.73 31.2492H106.892C103.233 31.4962 103.502 28.7996 103.502 28.7996V24.5704H117.129C117.229 24.5704 117.309 24.4891 117.309 24.3892V22.3424C117.309 22.2428 117.229 22.1616 117.129 22.1616H103.502V19.0972C103.502 15.7912 106.126 16.1628 106.126 16.1628H119.737C119.923 16.1628 120.073 16.0122 120.073 15.8267V13.9172C120.073 13.7317 119.923 13.581 119.737 13.581Z" fill="#F26D00"/>
<path d="M158.002 22.1616H147.85C145.571 22.1616 145.607 20.0833 145.607 20.0833V18.4875C145.607 15.9711 147.818 16.1628 147.818 16.1628H160.554C160.74 16.1628 160.891 16.0116 160.891 15.8247V13.9191C160.891 13.7323 160.74 13.581 160.554 13.581H146.85C142.416 13.581 142.875 17.4551 142.875 17.4551V20.9907C142.875 24.7805 146.819 24.5704 146.819 24.5704H156.69C159.657 24.5704 159.314 26.967 159.314 26.967V28.6253C159.314 31.6604 157.002 31.2492 157.002 31.2492H142.875V33.8307H158.064C161.906 33.8307 162 30.0021 162 30.0021V25.8406C162 22.1172 158.002 22.1616 158.002 22.1616Z" fill="#F26D00"/>
<path d="M137.437 13.581H124.458H121.727V33.0115C121.727 33.4634 122.093 33.8291 122.544 33.8291H124.149V33.8423L137.437 33.7903C141.392 33.7903 141.268 30.1218 141.268 30.1218V25.7192C141.268 23.4814 139.386 23.366 139.386 23.366C141.447 22.8335 141.268 20.9871 141.268 20.9871L141.319 17.2817C141.319 13.6507 137.437 13.581 137.437 13.581ZM138.486 29.3877C138.486 31.2598 136.741 31.2492 136.741 31.2492H124.458V24.5704H136.704C138.537 24.5704 138.486 26.1596 138.486 26.1596V29.3877V29.3877ZM138.486 20.5467C138.486 21.904 136.741 22.1244 136.741 22.1244H124.458V16.1076H136.668C138.316 16.1076 138.486 17.6853 138.486 17.6853V20.5467Z" fill="#F26D00"/>
</svg>
