<svg width="32" height="32" viewBox="0 0 32 32" fill="none" xmlns="http://www.w3.org/2000/svg">
<path d="M6.73023 20.165C6.73023 22.019 5.23185 23.5175 3.37785 23.5175C1.52385 23.5175 0.0254784 22.019 0.0254784 20.165C0.0254784 18.3112 1.52385 16.8128 3.37798 16.8128H6.7301V20.1652L6.73023 20.165ZM8.40648 20.165C8.40648 18.3112 9.90485 16.8128 11.7589 16.8128C13.6129 16.8128 15.1112 18.3112 15.1112 20.1652V28.546C15.1112 30.4 13.6129 31.8985 11.7587 31.8985C9.90498 31.8985 8.40648 30.4 8.40648 28.546V20.1652V20.165Z" fill="#E01E5A"/>
<path d="M11.7587 6.70475C9.90475 6.70475 8.40625 5.20638 8.40625 3.35238C8.40625 1.49838 9.90487 0 11.7587 0C13.6126 0 15.1111 1.49838 15.1111 3.35238V6.70487H11.7586L11.7587 6.70475ZM11.7587 8.40637C13.6127 8.40637 15.1111 9.90475 15.1111 11.7587C15.1111 13.6127 13.6128 15.1111 11.7586 15.1111H3.3525C1.49837 15.1111 0 13.6128 0 11.7586C0 9.90488 1.49838 8.40637 3.35238 8.40637H11.7586H11.7587Z" fill="#36C5F0"/>
<path d="M25.1938 11.7587C25.1938 9.90475 26.6922 8.40625 28.546 8.40625C30.4 8.40625 31.8985 9.90475 31.8985 11.7587C31.8985 13.6127 30.4 15.1111 28.546 15.1111H25.1938V11.7586V11.7587ZM23.5175 11.7587C23.5175 13.6127 22.019 15.1111 20.165 15.1111C18.3112 15.1111 16.8128 13.6128 16.8128 11.7586V3.3525C16.8128 1.49837 18.3112 0 20.165 0C22.0189 0 23.5174 1.49838 23.5174 3.35238V11.7586L23.5175 11.7587Z" fill="#2EB67D"/>
<path d="M20.165 25.1938C22.019 25.1938 23.5175 26.6922 23.5175 28.546C23.5175 30.4 22.019 31.8985 20.165 31.8985C18.3112 31.8985 16.8128 30.4 16.8128 28.546V25.1938H20.1652H20.165ZM20.165 23.5175C18.3112 23.5175 16.8128 22.019 16.8128 20.165C16.8128 18.3112 18.3112 16.8128 20.1652 16.8128H28.5714C30.4254 16.8128 31.9239 18.3112 31.9239 20.1652C31.9239 22.019 30.4254 23.5175 28.5714 23.5175H20.1652H20.165Z" fill="#ECB22E"/>
</svg>
