<svg xmlns="http://www.w3.org/2000/svg" width="32" height="32" fill="none" xmlns:v="https://vecta.io/nano"><path d="M6.73 20.165a3.35 3.35 0 0 1-3.352 3.352 3.35 3.35 0 1 1 0-6.705H6.73v3.352h0zm1.676 0a3.35 3.35 0 1 1 6.705 0v8.381a3.35 3.35 0 1 1-6.705 0v-8.381h0z" fill="#e01e5a"/><path d="M11.759 6.705a3.35 3.35 0 0 1-3.352-3.352 3.35 3.35 0 1 1 6.705 0v3.352h-3.353 0zm0 1.702a3.35 3.35 0 1 1 0 6.705H3.353a3.35 3.35 0 1 1 0-6.705h8.406 0z" fill="#36c5f0"/><path d="M25.194 11.759a3.35 3.35 0 1 1 6.705 0 3.35 3.35 0 0 1-3.352 3.352h-3.352v-3.353h0zm-1.676 0a3.35 3.35 0 1 1-6.705 0V3.353a3.35 3.35 0 1 1 6.705 0v8.406h0z" fill="#2eb67d"/><path d="M20.165 25.194a3.35 3.35 0 1 1 0 6.705 3.35 3.35 0 0 1-3.352-3.352v-3.352h3.352 0zm0-1.676a3.35 3.35 0 1 1 0-6.705h8.406a3.35 3.35 0 1 1 0 6.705h-8.406 0z" fill="#ecb22e"/></svg>