<svg xmlns="http://www.w3.org/2000/svg" xmlns:xlink="http://www.w3.org/1999/xlink" width="1129" height="663" xmlns:v="https://vecta.io/nano"><circle cx="321" cy="321" r="321" fill="#f2f2f2"/><ellipse cx="559" cy="635.5" rx="514" ry="27.5" fill="#3f3d56"/><ellipse cx="558" cy="627" rx="460" ry="22" opacity=".2"/><g fill="#3f3d56"><path d="M131 152.5h840v50H131z"/><path d="M131 608.83a21.67 21.67 0 0 0 21.67 21.67h796.66A21.67 21.67 0 0 0 971 608.83V177.5H131z"/><use xlink:href="#B"/></g><use xlink:href="#B" opacity=".2"/><g fill="#3f3d56"><circle cx="181" cy="147.5" r="13"/><circle cx="217" cy="147.5" r="13"/><circle cx="253" cy="147.5" r="13"/></g><rect x="168" y="213.5" width="337" height="386" rx="5.335" fill="#606060"/><g fill="#2e8555"><rect x="603" y="272.5" width="284" height="22" rx="5.476"/><rect x="537" y="352.5" width="416" height="15" rx="5.476"/><rect x="537" y="396.5" width="416" height="15" rx="5.476"/><rect x="537" y="440.5" width="416" height="15" rx="5.476"/><rect x="537" y="484.5" width="416" height="15" rx="5.476"/></g><rect x="865" y="552.5" width="88" height="26" rx="7.028" fill="#3ecc5f"/><g fill="#3f3d56"><path d="M1053.103 506.116c2.661-4.644 4.036-9.914 3.983-15.266 0-13.797-8.544-24.981-19.083-24.981s-19.083 11.184-19.083 24.981c-.053 5.352 1.322 10.622 3.983 15.266a31.25 31.25 0 0 0 0 30.532 31.25 31.25 0 0 0 0 30.532 31.25 31.25 0 0 0 0 30.532c-2.661 4.644-4.036 9.914-3.983 15.266 0 13.797 8.544 24.981 19.083 24.981s19.083-11.184 19.083-24.981c.053-5.352-1.322-10.622-3.983-15.266a31.25 31.25 0 0 0 0-30.532 31.25 31.25 0 0 0 0-30.532 31.25 31.25 0 0 0 0-30.532z"/><ellipse cx="1038.003" cy="460.318" rx="19.083" ry="24.981"/><ellipse cx="1038.003" cy="429.786" rx="19.083" ry="24.981"/></g><path d="M1109.439 220.845a91.61 91.61 0 0 0 7.107-10.461l-50.141-8.235 54.229.403c10.514-22.875 11.145-49.071 1.746-72.426l-72.754 37.741 67.097-49.321c-17.134-29.608-49.364-47.171-83.532-45.52s-64.555 22.241-78.753 53.363-9.833 67.567 11.315 94.455a91.46 91.46 0 0 0-10.425 16.669l65.087 33.814-69.4-23.292a91.46 91.46 0 0 0 14.738 85.837c-29.474 37.472-25.198 91.305 9.823 123.654s89.023 32.349 124.044 0 39.297-86.182 9.823-123.654c26.082-33.162 26.082-79.866 0-113.029z" fill="#3ecc5f" fill-rule="evenodd"/><path d="M946.189 277.359c-.032 20.504 6.861 40.417 19.561 56.514-29.474 37.472-25.198 91.305 9.823 123.654s89.023 32.349 124.044 0 39.297-86.182 9.823-123.654c12.251-15.553-163.25-66.773-163.25-56.514z" opacity=".1"/><g fill-rule="evenodd"><path d="M330.12 342.936h111.474v45.12H330.12z" fill="#fff"/><g fill="#3ecc5f"><path d="M229.263 490.241a26.51 26.51 0 0 1-22.962-13.271 26.51 26.51 0 0 0 22.962 39.812h26.541v-26.541z"/><path d="M348.672 350.071l92.922-5.807v-13.271a26.54 26.54 0 0 0-26.541-26.541H295.616l-3.318-5.746a3.83 3.83 0 0 0-6.635 0l-3.318 5.746-3.318-5.746a3.83 3.83 0 0 0-6.635 0l-3.318 5.746-3.318-5.746a3.83 3.83 0 0 0-6.635 0l-3.318 5.746-.086.004-5.497-5.495a3.83 3.83 0 0 0-6.407 1.717l-1.817 6.773-6.89-1.847a3.83 3.83 0 0 0-4.691 4.693l1.845 6.891-6.771 1.814a3.83 3.83 0 0 0-1.72 6.41l5.497 5.497-.004.085-5.746 3.318a3.83 3.83 0 0 0 0 6.635l5.746 3.318-5.746 3.318a3.83 3.83 0 0 0 0 6.635l5.746 3.318-5.746 3.318a3.83 3.83 0 0 0 0 6.635l5.746 3.318-5.746 3.318a3.83 3.83 0 0 0 0 6.635l5.746 3.318-5.746 3.318a3.83 3.83 0 0 0 0 6.635l5.746 3.318-5.746 3.318a3.83 3.83 0 0 0 0 6.635l5.746 3.318-5.746 3.318a3.83 3.83 0 0 0 0 6.635l5.746 3.318-5.746 3.318a3.83 3.83 0 0 0 0 6.635l5.746 3.318-5.746 3.318a3.83 3.83 0 0 0 0 6.635l5.746 3.318-5.746 3.318a3.83 3.83 0 0 0 0 6.635l5.746 3.318-5.746 3.318a3.83 3.83 0 0 0 0 6.635l5.746 3.318-5.746 3.318a3.83 3.83 0 0 0 0 6.635l5.746 3.318a26.54 26.54 0 0 0 26.541 26.541h159.249a26.54 26.54 0 0 0 26.541-26.541V384.076l-92.922-5.807a14.13 14.13 0 0 1 0-28.198"/><path d="M388.511 516.783h39.812V463.7h-39.812z"/></g><path d="M454.865 483.606a6.6 6.6 0 0 0-.848.085l-.154-.599c2.386-.979 3.987-3.254 4.104-5.83s-1.272-4.987-3.559-6.178-5.058-.947-7.102.626q-.22-.225-.445-.446c1.533-2.047 1.752-4.794.56-7.057s-3.579-3.638-6.134-3.533-4.822 1.673-5.823 4.026l-.591-.153a6.64 6.64 0 0 0-10.18-6.644 6.64 6.64 0 0 0-2.921 6.644l-.591.153a6.63 6.63 0 0 0-11.981-.513 6.63 6.63 0 0 0 .584 7.076 26.53 26.53 0 0 0 20.949 45.407 26.53 26.53 0 0 0 23.282-19.88 6.62 6.62 0 0 0 6.731-9.631 6.62 6.62 0 0 0-5.883-3.555" fill="#44d860"/><path d="M401.782 437.158h39.812v-26.541h-39.812z" fill="#3ecc5f"/><path d="M454.865 427.205a3.32 3.32 0 0 0 3.318-3.318 3.32 3.32 0 0 0-3.318-3.318 3.41 3.41 0 0 0-.423.042l-.077-.299a3.32 3.32 0 0 0-1.278-6.379 3.28 3.28 0 0 0-2.001.687q-.109-.113-.223-.223a3.28 3.28 0 0 0 .671-1.983 3.32 3.32 0 0 0-6.37-1.299 13.27 13.27 0 0 0-14.446 20.432 13.27 13.27 0 0 0 14.446 5.109 3.32 3.32 0 0 0 6.37-1.299 3.28 3.28 0 0 0-.671-1.983q.113-.109.223-.223a3.28 3.28 0 0 0 2.001.687 3.32 3.32 0 0 0 1.278-6.379l.077-.299c.14.023.281.037.423.042" fill="#44d860"/><path d="M282.345 347.581a3.32 3.32 0 0 1-3.318-3.318c0-5.497-4.456-9.953-9.953-9.953s-9.953 4.456-9.953 9.953a3.32 3.32 0 0 1-4.978 2.878 3.32 3.32 0 0 1-1.657-2.878c0-9.162 7.427-16.588 16.588-16.588s16.588 7.427 16.588 16.588a3.32 3.32 0 0 1-3.318 3.318"/><path d="M335.428 516.783h79.624a26.54 26.54 0 0 0 26.541-26.541v-92.895H361.97a26.54 26.54 0 0 0-26.541 26.541z" fill="#ffff50"/><path d="M421.714 438.485h-66.407c-.733 0-1.327-.594-1.327-1.327s.594-1.327 1.327-1.327h66.407c.733 0 1.327.594 1.327 1.327s-.594 1.327-1.327 1.327m0 26.541h-66.407c-.474 0-.912-.253-1.149-.664s-.237-.916 0-1.327.675-.664 1.149-.664h66.407c.733 0 1.327.594 1.327 1.327s-.594 1.327-1.327 1.327m0 26.541h-66.407c-.474 0-.912-.253-1.149-.664s-.237-.916 0-1.327.675-.664 1.149-.664h66.407c.733 0 1.327.594 1.327 1.327s-.594 1.327-1.327 1.327m0-66.107h-66.407c-.733 0-1.327-.594-1.327-1.327s.594-1.327 1.327-1.327h66.407c.733 0 1.327.594 1.327 1.327s-.594 1.327-1.327 1.327m0 26.295h-66.407c-.733 0-1.327-.594-1.327-1.327s.594-1.327 1.327-1.327h66.407c.733 0 1.327.594 1.327 1.327s-.594 1.327-1.327 1.327m0 26.541h-66.407c-.733 0-1.327-.594-1.327-1.327s.594-1.327 1.327-1.327h66.407c.733 0 1.327.594 1.327 1.327s-.594 1.327-1.327 1.327m19.88-122.607c-.016 0-.029-.008-.045-.007-4.101.139-6.041 4.241-7.753 7.86-1.786 3.782-3.168 6.241-5.432 6.167-2.507-.09-3.94-2.922-5.458-5.919-1.744-3.442-3.734-7.347-7.913-7.201-4.042.138-5.989 3.708-7.706 6.857-1.827 3.355-3.071 5.395-5.469 5.3-2.557-.093-3.916-2.395-5.489-5.06-1.753-2.967-3.78-6.304-7.877-6.189-3.973.137-5.925 3.165-7.648 5.839-1.822 2.827-3.099 4.549-5.527 4.447-2.618-.093-3.971-2.004-5.535-4.216-1.757-2.486-3.737-5.299-7.823-5.162-3.886.133-5.838 2.614-7.559 4.801-1.635 2.076-2.912 3.718-5.612 3.615a1.33 1.33 0 0 0-1.222 1.949 1.33 1.33 0 0 0 1.126.705c4.004.134 6.032-2.389 7.793-4.627 1.562-1.985 2.91-3.699 5.564-3.789 2.556-.109 3.754 1.48 5.567 4.041 1.721 2.434 3.675 5.194 7.605 5.336 4.118.138 6.099-2.939 7.854-5.663 1.569-2.434 2.922-4.535 5.507-4.624 2.379-.089 3.675 1.792 5.501 4.885 1.721 2.916 3.671 6.219 7.68 6.365 4.147.143 6.15-3.477 7.895-6.682 1.512-2.771 2.938-5.388 5.466-5.476 2.379-.056 3.62 2.117 5.456 5.746 1.715 3.388 3.659 7.226 7.73 7.373l.224.004c4.066 0 5.996-4.081 7.704-7.689 1.512-3.198 2.942-6.211 5.397-6.334z"/><path d="M308.887 516.783h53.083V463.7h-53.083z" fill="#3ecc5f"/><path d="M388.511 483.606a6.6 6.6 0 0 0-.848.085l-.154-.599c2.386-.979 3.987-3.254 4.104-5.83s-1.272-4.987-3.559-6.178-5.058-.947-7.102.626q-.22-.225-.445-.446c1.533-2.047 1.752-4.794.56-7.057s-3.579-3.638-6.134-3.533-4.822 1.673-5.823 4.026l-.591-.153a6.64 6.64 0 0 0-10.18-6.644 6.64 6.64 0 0 0-2.921 6.644l-.591.153a6.63 6.63 0 0 0-11.98-.513 6.63 6.63 0 0 0 .584 7.076 26.53 26.53 0 0 0 20.95 45.407 26.53 26.53 0 0 0 23.282-19.88 6.62 6.62 0 0 0 6.731-9.631 6.62 6.62 0 0 0-5.883-3.555" fill="#44d860"/><path d="M308.887 437.158h53.083v-26.541h-53.083z" fill="#3ecc5f"/><path d="M375.24 427.205a3.32 3.32 0 0 0 2.873-4.977 3.32 3.32 0 0 0-2.873-1.659 3.41 3.41 0 0 0-.423.042l-.077-.299a3.32 3.32 0 0 0-1.278-6.379 3.28 3.28 0 0 0-2.001.687q-.109-.113-.223-.223a3.28 3.28 0 0 0 .671-1.983 3.32 3.32 0 0 0-6.37-1.299 13.27 13.27 0 0 0-14.446 20.432 13.27 13.27 0 0 0 14.446 5.109 3.32 3.32 0 0 0 6.37-1.299 3.28 3.28 0 0 0-.671-1.983q.113-.109.223-.223a3.28 3.28 0 0 0 2.001.687 3.32 3.32 0 0 0 1.278-6.379l.077-.299c.14.023.281.037.423.042" fill="#44d860"/><path d="M388.511 329.334c-.218-.002-.436-.025-.65-.066s-.422-.104-.624-.186-.391-.186-.572-.305c-.177-.126-.345-.264-.504-.411-.151-.156-.288-.325-.41-.504-.367-.545-.561-1.188-.557-1.845a3.6 3.6 0 0 1 .066-.65c.044-.213.105-.421.184-.624a3.49 3.49 0 0 1 .307-.571c.239-.364.55-.676.914-.916.181-.119.372-.222.572-.305s.41-.144.624-.186a3.07 3.07 0 0 1 1.301 0c.427.081.833.248 1.194.491a5.03 5.03 0 0 1 .504.411 4.88 4.88 0 0 1 .411.504 3.38 3.38 0 0 1 .305.571 3.48 3.48 0 0 1 .252 1.274c-.003.88-.351 1.723-.969 2.349-.159.148-.327.285-.504.411-.546.365-1.188.559-1.845.557m26.541-1.659a3.39 3.39 0 0 1-2.35-.969 5.04 5.04 0 0 1-.41-.504c-.367-.545-.561-1.188-.557-1.845.005-.879.352-1.721.967-2.349.159-.148.327-.285.504-.411.181-.119.372-.222.572-.305s.41-.144.624-.186a3.07 3.07 0 0 1 1.301 0c.427.081.833.248 1.194.491.177.126.345.264.504.411a3.39 3.39 0 0 1 .969 2.349c-.003.218-.025.436-.066.65s-.104.422-.186.624c-.089.197-.191.388-.305.571a4.88 4.88 0 0 1-.411.504c-.159.148-.327.285-.504.411-.546.365-1.188.559-1.845.557"/></g><defs ><path id="B" d="M949.33 117.5H152.67A21.67 21.67 0 0 0 131 139.17v38.33h840v-38.33a21.67 21.67 0 0 0-21.67-21.67z"/></defs></svg>