<svg xmlns="http://www.w3.org/2000/svg" xmlns:xlink="http://www.w3.org/1999/xlink" width="1088" height="687.962" xmlns:v="https://vecta.io/nano"><style><![CDATA[.B{opacity:.136}.C{fill:#3f3d56}.D{fill-rule:evenodd}.E{fill:#a8a8a8}.F{opacity:.2}.G{fill:#3ecc5f}.H{fill:#44d860}.I{fill:#4a4a4a}]]></style><path d="M961.81 454.442c-5.27 45.15-16.22 81.4-31.25 110.31-20 38.52-54.21 54.04-84.77 70.28-8.831 4.684-18.012 8.676-27.46 11.94-55.61 19.3-117.85 14.18-166.74 3.99a657.28 657.28 0 0 0-104.09-13.16q-14.97-.675-29.97-.67c-15.42.02-293.07 5.29-360.67-131.57-16.69-33.76-28.13-75-32.24-125.27-11.63-142.12 52.29-235.46 134.74-296.47 155.97-115.41 369.76-110.57 523.43 7.88 102.36 78.9 198.2 198.31 179.02 362.74z" class="C"/><path d="M930.56 564.752c-20 38.52-47.21 64.04-77.77 80.28a193.27 193.27 0 0 1-27.46 11.94c-55.61 19.3-117.85 14.18-166.74 3.99a657.3 657.3 0 0 0-104.09-13.16q-14.97-.675-29.97-.67-23.13.03-46.25 1.72c-100.17 7.36-253.82-6.43-321.42-143.29L326 177.962l62.95 161.619 20.09 51.59 55.37-75.98L493 275.962l130.2 149.27 36.8-81.27 254.78 207.919 14.21 11.59z" fill="#f2f2f2"/><path d="M302 282.962l26-57 36 83-31-60zm252.5 364.84q-14.97-.675-29.97-.67l-115.49-255.96zm-90.089-332.611L493 292.962l130 150-132-128zM852.79 645.032a193.33 193.33 0 0 1-27.46 11.94L623.2 425.232z" opacity=".1"/><g fill="#f2f2f2"><circle cx="482" cy="101.962" r="3"/><circle cx="399" cy="204.962" r="3"/><circle cx="602" cy="222.962" r="2"/><circle cx="182" cy="267.962" r="2"/><circle cx="614" cy="98.962" r="2"/><circle cx="738" cy="194.962" r="2"/><circle cx="860" cy="346.962" r="2"/><path d="M306 121.222h-2.76v-2.76h-1.48v2.76H299v1.478h2.76v2.759h1.48V122.7H306zm542 303h-2.76v-2.76h-1.48v2.76H841v1.478h2.76v2.759h1.48V425.7H848z"/></g><use xlink:href="#B" class="C"/><use xlink:href="#B" opacity=".1"/><ellipse cx="544" cy="613.962" rx="544" ry="30" class="C"/><path d="M568 571.962c0 33.137-14.775 24-33 24s-33 9.137-33-24 33-96 33-96 33 62.863 33 96z" fill="#ff6584"/><path d="M550 584.641c0 15.062-6.716 10.909-15 10.909s-15 4.153-15-10.909 15-43.636 15-43.636 15 28.576 15 43.636z" opacity=".1"/><g fill="#2f2e41"><rect width="92" height="18" rx="9" x="489" y="604.962"/><rect width="92" height="18" rx="9" x="489" y="586.962"/></g><path d="M137 490.528c0 55.343 34.719 100.126 77.626 100.126" class="C"/><g fill="#6c63ff"><path d="M214.626 590.654c0-55.965 38.745-101.251 86.626-101.251"/><path d="M165.125 495.545c0 52.57 22.14 95.109 49.5 95.109"/></g><path d="M214.626 590.654c0-71.511 44.783-129.377 100.126-129.377" class="C"/><path d="M198.3 591.36s11.009-.339 14.326-2.7 16.934-5.183 17.757-1.395 16.544 18.844 4.115 18.945-28.879-1.936-32.19-3.953-4.008-10.897-4.008-10.897z" class="E"/><path d="M234.716 604.89c-12.429.1-28.879-1.936-32.19-3.953-2.522-1.536-3.527-7.048-3.863-9.591l-.368.014s.7 8.879 4.009 10.9 19.761 4.053 32.19 3.953c3.588-.029 4.827-1.305 4.759-3.2-.498 1.142-1.867 1.855-4.537 1.877z" class="F"/><path d="M721.429 527.062c0 38.029 23.857 68.8 53.341 68.8" class="C"/><g fill="#6c63ff"><path d="M774.769 595.863c0-38.456 26.623-69.575 59.525-69.575"/><path d="M740.755 530.509c0 36.124 15.213 65.354 34.014 65.354"/></g><path d="M774.769 595.863c0-49.139 30.773-88.9 68.8-88.9" class="C"/><path d="M763.548 596.348s7.565-.233 9.844-1.856 11.636-3.562 12.2-.958 11.368 12.949 2.828 13.018-19.844-1.33-22.119-2.716-2.753-7.488-2.753-7.488z" class="E"/><path d="M788.574 605.645c-8.54.069-19.844-1.33-22.119-2.716-1.733-1.056-2.423-4.843-2.654-6.59l-.253.01s.479 6.1 2.755 7.487 13.579 2.785 22.119 2.716c2.465-.02 3.317-.9 3.27-2.2-.343.788-1.283 1.278-3.118 1.293z" class="F"/><path d="M893.813 618.699s11.36-1.729 14.5-4.591 16.89-7.488 18.217-3.667 19.494 17.447 6.633 19.107-30.153 1.609-33.835-.065-5.515-10.784-5.515-10.784z" class="E"/><path d="M933.228 628.154c-12.86 1.659-30.153 1.609-33.835-.065-2.8-1.275-4.535-6.858-5.2-9.45l-.379.061s1.833 9.109 5.516 10.783 20.975 1.725 33.835.065c3.712-.479 4.836-1.956 4.529-3.906-.375 1.246-1.703 2.156-4.466 2.512z" class="F"/><path d="M614.26 617.881s9.587-1.459 12.237-3.875 14.255-6.32 15.374-3.095 16.452 14.725 5.6 16.125-25.448 1.358-28.555-.055-4.656-9.1-4.656-9.1z" class="E"/><path d="M647.524 625.856c-10.853 1.4-25.448 1.358-28.555-.055-2.367-1.076-3.827-5.788-4.39-7.976l-.32.051s1.547 7.687 4.655 9.1 17.7 1.456 28.555.055c3.133-.4 4.081-1.651 3.822-3.3-.314 1.057-1.435 1.825-3.767 2.125z" class="F"/><path d="M122.389 613.09s7.463-1.136 9.527-3.016 11.1-4.92 11.969-2.409 12.808 11.463 4.358 12.553-19.811 1.057-22.23-.043-3.624-7.085-3.624-7.085z" class="E"/><path d="M148.285 619.302c-8.449 1.09-19.811 1.057-22.23-.043-1.842-.838-2.979-4.506-3.417-6.209l-.249.04s1.2 5.984 3.624 7.085 13.781 1.133 22.23.043c2.439-.315 3.177-1.285 2.976-2.566-.246.818-1.119 1.416-2.934 1.65z" class="F"/><path d="M383.7 601.318c0 30.22-42.124 20.873-93.7 20.873s-93.074 9.347-93.074-20.873 42.118-36.793 93.694-36.793 93.08 6.573 93.08 36.793z" opacity=".1"/><path d="M383.7 593.881c0 30.22-42.124 20.873-93.7 20.873s-93.074 9.347-93.074-20.873 42.114-36.8 93.69-36.8 93.084 6.576 93.084 36.8z" class="C"/><g class="D"><path d="M360.175 475.732h91.791v37.153h-91.791z" fill="#fff"/><g class="G"><path d="M277.126 597.026a21.83 21.83 0 0 1-18.908-10.927 21.83 21.83 0 0 0 18.908 32.782h21.855v-21.855z"/><path d="M375.451 481.607l76.514-4.782v-10.928c0-5.796-2.302-11.355-6.401-15.454s-9.658-6.401-15.454-6.401h-98.347l-2.732-4.735c-.563-.976-1.605-1.578-2.732-1.578s-2.169.602-2.732 1.578l-2.732 4.732-2.732-4.732c-.563-.976-1.605-1.578-2.732-1.578s-2.169.602-2.732 1.578l-2.732 4.732-2.731-4.732c-.563-.976-1.605-1.578-2.732-1.578s-2.169.602-2.732 1.578l-2.732 4.735h-.071l-4.526-4.525c-.797-.797-1.958-1.108-3.046-.817s-1.938 1.142-2.23 2.231l-1.5 5.577-5.674-1.521c-1.089-.292-2.25.019-3.047.816s-1.108 1.959-.816 3.048l1.52 5.679-5.575 1.494c-1.089.291-1.94 1.142-2.232 2.23s.019 2.25.816 3.048l4.526 4.526v.07l-4.735 2.731c-.976.563-1.578 1.605-1.578 2.732s.602 2.169 1.578 2.732l4.732 2.732-4.732 2.732c-.976.563-1.578 1.605-1.578 2.732s.602 2.169 1.578 2.732l4.732 2.732-4.732 2.731c-.976.563-1.578 1.605-1.578 2.732s.602 2.169 1.578 2.732l4.732 2.732-4.732 2.727c-.976.563-1.578 1.605-1.578 2.732s.602 2.169 1.578 2.732l4.735 2.736-4.735 2.732c-.976.563-1.578 1.605-1.578 2.732s.602 2.169 1.578 2.732l4.732 2.732-4.732 2.732c-.976.563-1.578 1.605-1.578 2.732s.602 2.169 1.578 2.732l4.732 2.732-4.732 2.731c-.976.563-1.578 1.605-1.578 2.732s.602 2.169 1.578 2.732l4.732 2.732-4.732 2.732c-.976.563-1.578 1.605-1.578 2.732s.602 2.169 1.578 2.732l4.732 2.732-4.732 2.731c-.976.563-1.578 1.605-1.578 2.732s.602 2.169 1.578 2.732l4.732 2.732-4.732 2.731c-.976.563-1.578 1.605-1.578 2.732s.602 2.169 1.578 2.732l4.732 2.732-4.732 2.735c-.976.563-1.578 1.605-1.578 2.732s.602 2.169 1.578 2.732l4.732 2.732-4.732 2.728c-.976.563-1.578 1.605-1.578 2.732s.602 2.169 1.578 2.732l4.732 2.732c0 5.797 2.303 11.356 6.402 15.455s9.659 6.401 15.456 6.4h131.13c5.796 0 11.355-2.302 15.454-6.401s6.401-9.658 6.401-15.454v-87.42l-76.514-4.782c-6.131-.382-10.909-5.466-10.909-11.609s4.777-11.228 10.909-11.61"/><path d="M408.255 618.882h32.782v-43.71h-32.782z"/></g><use xlink:href="#C" class="H"/><path d="M419.183 553.317h32.782v-21.855h-32.782z" class="G"/><path d="M462.893 545.121a2.73 2.73 0 0 0 2.366-4.098 2.73 2.73 0 0 0-2.366-1.366 2.81 2.81 0 0 0-.349.035l-.063-.246c1.199-.503 1.877-1.782 1.622-3.057s-1.374-2.194-2.674-2.196a2.7 2.7 0 0 0-1.648.566q-.09-.093-.184-.184a2.7 2.7 0 0 0 .553-1.633 2.73 2.73 0 0 0-5.245-1.07 10.93 10.93 0 0 0-11.897 16.825 10.93 10.93 0 0 0 11.897 4.206 2.73 2.73 0 0 0 5.245-1.07 2.7 2.7 0 0 0-.553-1.633q.093-.09.184-.184a2.7 2.7 0 0 0 1.648.566 2.73 2.73 0 0 0 1.052-5.253l.063-.246c.115.019.232.031.349.035" class="H"/><path d="M320.836 479.556c-1.509 0-2.732-1.223-2.732-2.732a8.2 8.2 0 0 0-16.391 0c0 1.509-1.223 2.732-2.732 2.732s-2.732-1.223-2.732-2.732c0-7.544 6.116-13.66 13.659-13.66s13.659 6.116 13.659 13.659c0 1.509-1.223 2.732-2.732 2.732"/><path d="M364.546 618.881h65.565c5.796 0 11.355-2.302 15.454-6.401s6.401-9.658 6.401-15.454v-76.492h-65.565c-5.796 0-11.355 2.302-15.454 6.401s-6.401 9.658-6.401 15.454z" fill="#ffff50"/><path d="M435.596 554.41h-54.681c-.398.012-.771-.194-.974-.536s-.203-.769 0-1.112.576-.549.974-.536h54.681c.591.018 1.06.502 1.06 1.092s-.469 1.075-1.06 1.092m0 21.855h-54.681c-.604 0-1.093-.489-1.093-1.093s.489-1.093 1.093-1.093h54.681c.604 0 1.093.489 1.093 1.093s-.489 1.093-1.093 1.093m0 21.855h-54.681c-.398.012-.771-.194-.974-.536s-.203-.769 0-1.112.576-.549.974-.536h54.681c.591.018 1.06.502 1.06 1.092s-.469 1.075-1.06 1.093m0-54.434h-54.681c-.398.012-.771-.194-.974-.536s-.203-.769 0-1.112.576-.549.974-.536h54.681c.591.018 1.06.502 1.06 1.092s-.469 1.075-1.06 1.092m0 21.652h-54.681c-.604 0-1.093-.489-1.093-1.093s.489-1.093 1.093-1.093h54.681c.604 0 1.093.489 1.093 1.093s-.489 1.093-1.093 1.093m0 21.855h-54.681c-.604 0-1.093-.489-1.093-1.093s.489-1.093 1.093-1.093h54.681c.604 0 1.093.489 1.093 1.093s-.489 1.093-1.093 1.093m16.369-100.959c-.013 0-.024-.007-.037-.005-3.377.115-4.974 3.492-6.384 6.472-1.471 3.114-2.608 5.139-4.473 5.078-2.064-.074-3.244-2.406-4.494-4.874-1.436-2.835-3.075-6.049-6.516-5.929-3.329.114-4.932 3.053-6.346 5.646-1.5 2.762-2.529 4.442-4.5 4.364-2.106-.076-3.225-1.972-4.52-4.167-1.444-2.443-3.112-5.191-6.487-5.1-3.272.113-4.879 2.606-6.3 4.808-1.5 2.328-2.552 3.746-4.551 3.662-2.156-.076-3.27-1.65-4.558-3.472-1.447-2.047-3.077-4.363-6.442-4.251-3.2.109-4.807 2.153-6.224 3.954-1.346 1.709-2.4 3.062-4.621 2.977-.604-.022-1.111.45-1.132 1.054s.45 1.111 1.053 1.132c3.3.11 4.967-1.967 6.417-3.81 1.286-1.635 2.4-3.045 4.582-3.12 2.1-.09 3.091 1.218 4.584 3.327 1.417 2 3.026 4.277 6.263 4.394 3.391.114 5.022-2.42 6.467-4.663 1.292-2 2.406-3.734 4.535-3.807 1.959-.073 3.026 1.475 4.529 4.022 1.417 2.4 3.023 5.121 6.324 5.241 3.415.118 5.064-2.863 6.5-5.5 1.245-2.282 2.419-4.437 4.5-4.509 1.959-.046 2.981 1.743 4.492 4.732 1.412 2.79 3.013 5.95 6.365 6.071h.185c3.348 0 4.937-3.36 6.343-6.331 1.245-2.634 2.423-5.114 4.444-5.216z"/><path d="M342.691 618.882h43.71v-43.71h-43.71z" class="G"/></g><g transform="matrix(.966 -.259 .259 .966 364.598 528.818)"><rect width="92.361" height="36.462" rx="2" fill="#d8d8d8"/><g class="I"><rect width="5.336" height="5.336" rx="1" x="18.328" y="23.03"/><rect width="5.336" height="5.336" rx="1" x="24.651" y="23.03"/><rect width="5.336" height="5.336" rx="1" x="30.975" y="23.03"/><rect width="5.336" height="5.336" rx="1" x="37.299" y="23.03"/><rect width="5.336" height="5.336" rx="1" x="43.622" y="23.03"/><rect width="5.336" height="5.336" rx="1" x="49.946" y="23.03"/><rect width="5.336" height="5.336" rx="1" x="56.27" y="23.03"/><rect width="5.336" height="5.336" rx="1" x="62.594" y="23.03"/><rect width="5.336" height="5.336" rx="1" x="68.917" y="23.03"/><path d="M2.624 23.03h13.425c.604 0 1.093.489 1.093 1.093v3.15c0 .604-.489 1.093-1.093 1.093H2.624c-.604 0-1.093-.489-1.093-1.093v-3.15c0-.604.489-1.093 1.093-1.093zm73.907 0h13.426c.29 0 .568.115.773.32s.32.483.32.773v3.15c0 .29-.115.568-.32.773s-.483.32-.773.32H76.531c-.29 0-.568-.115-.773-.32s-.32-.483-.32-.773v-3.15c0-.29.115-.568.32-.773s.483-.32.773-.32zM2.624 10.261h5.125c.603.001 1.092.49 1.092 1.093v3.149c0 .603-.489 1.092-1.092 1.093H2.624c-.604 0-1.093-.489-1.093-1.093v-3.149c0-.604.489-1.093 1.093-1.093z" class="D"/><rect width="5.336" height="5.336" rx="1" x="9.83" y="10.261"/><rect width="5.336" height="5.336" rx="1" x="16.154" y="10.261"/><rect width="5.336" height="5.336" rx="1" x="22.478" y="10.261"/><rect width="5.336" height="5.336" rx="1" x="28.802" y="10.261"/><rect width="5.336" height="5.336" rx="1" x="35.125" y="10.261"/><rect width="5.336" height="5.336" rx="1" x="41.449" y="10.261"/><rect width="5.336" height="5.336" rx="1" x="47.773" y="10.261"/><rect width="5.336" height="5.336" rx="1" x="54.096" y="10.261"/><rect width="5.336" height="5.336" rx="1" x="60.419" y="10.261"/><rect width="5.336" height="5.336" rx="1" x="66.743" y="10.261"/><rect width="5.336" height="5.336" rx="1" x="73.067" y="10.261"/><rect width="5.336" height="5.336" rx="1" x="79.39" y="10.261"/><rect width="5.336" height="5.336" rx="1" x="85.714" y="10.261"/></g><g transform="matrix(-1 0 0 -1 91.05 9.546)" class="I"><path d="M1.093 0h5.126c.604 0 1.093.489 1.093 1.093v3.15c0 .604-.489 1.093-1.093 1.093H1.093C.489 5.336 0 4.847 0 4.243v-3.15C0 .489.489 0 1.093 0z" class="D"/><rect width="5.336" height="5.336" rx="1" x="8.299"/><rect width="5.336" height="5.336" rx="1" x="14.623"/><rect width="5.336" height="5.336" rx="1" x="20.947"/><rect width="5.336" height="5.336" rx="1" x="27.271"/><rect width="5.336" height="5.336" rx="1" x="33.594"/><rect width="5.336" height="5.336" rx="1" x="39.918"/><rect width="5.336" height="5.336" rx="1" x="46.242"/><rect width="5.336" height="5.336" rx="1" x="52.565"/><rect width="5.336" height="5.336" rx="1" x="58.889"/><rect width="5.336" height="5.336" rx="1" x="65.213"/><rect width="5.336" height="5.336" rx="1" x="71.537"/><rect width="5.336" height="5.336" rx="1" x="77.86"/><rect width="5.336" height="5.336" rx="1" x="84.183"/><rect width="5.336" height="5.336" rx="1" x="8.299"/><rect width="5.336" height="5.336" rx="1" x="14.623"/><rect width="5.336" height="5.336" rx="1" x="20.947"/><rect width="5.336" height="5.336" rx="1" x="27.271"/><rect width="5.336" height="5.336" rx="1" x="33.594"/><rect width="5.336" height="5.336" rx="1" x="39.918"/><rect width="5.336" height="5.336" rx="1" x="46.242"/><rect width="5.336" height="5.336" rx="1" x="52.565"/><rect width="5.336" height="5.336" rx="1" x="58.889"/><rect width="5.336" height="5.336" rx="1" x="65.213"/><rect width="5.336" height="5.336" rx="1" x="71.537"/><rect width="5.336" height="5.336" rx="1" x="77.86"/><rect width="5.336" height="5.336" rx="1" x="84.183"/></g><g class="I"><path d="M2.624 16.584h7.3c.603.001 1.092.49 1.092 1.093v3.15c0 .604-.489 1.093-1.093 1.093h-7.3c-.603-.001-1.092-.49-1.092-1.093v-3.149c0-.29.115-.568.32-.774s.483-.32.773-.32z" class="D"/><rect width="5.336" height="5.336" rx="1" x="12.202" y="16.584"/><rect width="5.336" height="5.336" rx="1" x="18.526" y="16.584"/><rect width="5.336" height="5.336" rx="1" x="24.849" y="16.584"/><rect width="5.336" height="5.336" rx="1" x="31.173" y="16.584"/><rect width="5.336" height="5.336" rx="1" x="37.497" y="16.584"/><rect width="5.336" height="5.336" rx="1" x="43.821" y="16.584"/><rect width="5.336" height="5.336" rx="1" x="50.144" y="16.584"/><rect width="5.336" height="5.336" rx="1" x="56.467" y="16.584"/><rect width="5.336" height="5.336" rx="1" x="62.791" y="16.584"/><rect width="5.336" height="5.336" rx="1" x="69.114" y="16.584"/><rect width="5.336" height="5.336" rx="1" x="75.438" y="16.584"/><path d="M83.053 16.584h6.906c.603.001 1.091.49 1.091 1.093v3.15c0 .603-.488 1.092-1.091 1.093h-6.907c-.604 0-1.093-.489-1.093-1.093v-3.149c0-.29.115-.568.32-.774s.483-.32.773-.32z" class="D"/><rect width="5.336" height="5.336" rx="1" x="1.531" y="29.627"/><rect width="5.336" height="5.336" rx="1" x="7.855" y="29.627"/><rect width="5.336" height="5.336" rx="1" x="14.178" y="29.627"/><rect width="5.336" height="5.336" rx="1" x="20.502" y="29.627"/><path d="M27.918 29.627H58.34c.29 0 .568.115.773.32s.32.483.32.773v3.151c0 .604-.489 1.093-1.093 1.093H27.918c-.604 0-1.093-.489-1.093-1.093V30.72c0-.604.489-1.093 1.093-1.093zm33.594 0h3.942c.604 0 1.093.489 1.093 1.093v3.151c0 .29-.115.568-.32.773s-.483.32-.773.32h-3.942c-.29 0-.568-.115-.773-.32s-.32-.483-.32-.773V30.72c0-.29.115-.568.32-.773s.483-.32.773-.32z" class="D"/><rect width="5.336" height="5.336" rx="1" x="67.534" y="29.627"/><rect width="5.336" height="5.336" rx="1" x="73.858" y="29.627"/><rect width="5.336" height="5.336" rx="1" x="85.714" y="29.627"/><path d="M79.785 31.9v-1.18c0-.29.115-.568.32-.773s.483-.32.773-.32h3.15c.29 0 .568.115.773.32s.32.483.32.773v1.18zm5.337.79v1.18c0 .29-.115.568-.32.773s-.483.32-.773.32h-3.15c-.29 0-.568-.115-.773-.32s-.32-.483-.32-.773v-1.18z"/><rect width="88.927" height="2.371" rx="1.085" x="1.925" y="1.17"/></g><g fill="#d8d8d8"><rect width="4.986" height="1.581" rx=".723" x="4.1" y="1.566" class="B"/><rect width="4.986" height="1.581" rx=".723" x="10.923" y="1.566" class="B"/><rect width="4.986" height="1.581" rx=".723" x="16.173" y="1.566" class="B"/><rect width="4.986" height="1.581" rx=".723" x="21.421" y="1.566" class="B"/><rect width="4.986" height="1.581" rx=".723" x="26.671" y="1.566" class="B"/><rect width="4.986" height="1.581" rx=".723" x="33.232" y="1.566" class="B"/><rect width="4.986" height="1.581" rx=".723" x="38.48" y="1.566" class="B"/><rect width="4.986" height="1.581" rx=".723" x="43.73" y="1.566" class="B"/><rect width="4.986" height="1.581" rx=".723" x="48.978" y="1.566" class="B"/><rect width="4.986" height="1.581" rx=".723" x="55.54" y="1.566" class="B"/><rect width="4.986" height="1.581" rx=".723" x="60.788" y="1.566" class="B"/><rect width="4.986" height="1.581" rx=".723" x="66.038" y="1.566" class="B"/><rect width="4.986" height="1.581" rx=".723" x="72.599" y="1.566" class="B"/><rect width="4.986" height="1.581" rx=".723" x="77.847" y="1.566" class="B"/><rect width="4.986" height="1.581" rx=".723" x="83.097" y="1.566" class="B"/></g></g><g class="D"><use xlink:href="#C" x="-54.637" class="H"/><path d="M342.691 553.317h43.71v-21.855h-43.71z" class="G"/><path d="M397.328 545.121a2.73 2.73 0 0 0 2.366-4.098 2.73 2.73 0 0 0-2.366-1.366 2.81 2.81 0 0 0-.349.035l-.063-.246c1.199-.503 1.877-1.782 1.622-3.057s-1.374-2.194-2.674-2.196a2.7 2.7 0 0 0-1.648.566q-.09-.093-.184-.184a2.7 2.7 0 0 0 .553-1.633 2.73 2.73 0 0 0-5.245-1.07 10.93 10.93 0 0 0-11.897 16.825 10.93 10.93 0 0 0 11.897 4.206 2.73 2.73 0 0 0 5.245-1.07 2.7 2.7 0 0 0-.553-1.633q.093-.09.184-.184a2.7 2.7 0 0 0 1.648.566 2.73 2.73 0 0 0 1.052-5.253l.063-.246a2.81 2.81 0 0 0 .349.035" class="H"/><path d="M408.256 464.531c-.18-.002-.359-.021-.535-.055s-.348-.085-.514-.153a2.84 2.84 0 0 1-.471-.251 4.14 4.14 0 0 1-.415-.339 3.2 3.2 0 0 1-.338-.415 2.7 2.7 0 0 1-.459-1.517 2.97 2.97 0 0 1 .055-.535 3.15 3.15 0 0 1 .152-.514c.069-.164.154-.321.252-.47.197-.3.453-.557.753-.754.149-.098.306-.182.471-.251s.338-.119.514-.153c.353-.077.718-.077 1.071 0 .351.066.686.202.983.4a4.14 4.14 0 0 1 .415.339 4.02 4.02 0 0 1 .339.415c.098.148.183.306.251.47.135.334.205.689.208 1.049a2.77 2.77 0 0 1-.8 1.934 4.14 4.14 0 0 1-.415.339 2.72 2.72 0 0 1-1.519.459m21.855-1.366a2.79 2.79 0 0 1-1.935-.8 4.16 4.16 0 0 1-.338-.415 2.7 2.7 0 0 1-.459-1.519 2.79 2.79 0 0 1 .8-1.934 4.14 4.14 0 0 1 .415-.339 2.84 2.84 0 0 1 .471-.251 2.75 2.75 0 0 1 .514-.153c.353-.077.718-.077 1.071 0 .351.066.686.202.983.4a4.14 4.14 0 0 1 .415.339 2.79 2.79 0 0 1 .8 1.934 3.07 3.07 0 0 1-.055.535 2.78 2.78 0 0 1-.153.514c-.073.162-.157.319-.251.47a4.02 4.02 0 0 1-.339.415 4.14 4.14 0 0 1-.415.339 2.72 2.72 0 0 1-1.519.459"/></g><defs ><path id="B" d="M1088 613.962c0 16.569-243.557 74-544 74s-544-57.431-544-74 243.557 14 544 14 544-30.568 544-14z"/><path id="C" d="M462.893 591.563a5.44 5.44 0 0 0-.7.07l-.127-.493c1.966-.806 3.286-2.679 3.382-4.801s-1.047-4.108-2.932-5.089-4.167-.779-5.85.518q-.181-.185-.366-.367c1.266-1.685 1.448-3.95.466-5.815s-2.95-2.998-5.056-2.91-3.973 1.383-4.794 3.325l-.486-.126c.353-2.139-.591-4.284-2.406-5.469s-4.159-1.185-5.975 0-2.76 3.33-2.406 5.469l-.486.126c-.815-1.952-2.685-3.256-4.798-3.349s-4.089 1.045-5.071 2.918-.793 4.145.484 5.83c-6.622 6.459-8.457 16.388-4.582 24.788s12.621 13.447 21.832 12.6 16.891-7.403 19.171-16.368a5.45 5.45 0 0 0 5.54-7.929 5.45 5.45 0 0 0-4.84-2.929"/></defs></svg>