<svg xmlns="http://www.w3.org/2000/svg" xmlns:xlink="http://www.w3.org/1999/xlink" width="1041.277" height="554.141" xmlns:v="https://vecta.io/nano"><style><![CDATA[.B{opacity:.136}.C{opacity:.1}.D{fill:#3f3d56}.E{fill-rule:evenodd}.F{fill:#65617d}.G{fill:#3ecc5f}.H{fill:#44d860}.I{fill:#4a4a4a}]]></style><path d="M961.469 438.175q-1.74 3.75-3.47 7.4-2.7 5.67-5.33 11.12l-2.32 4.77c-8.6 17.57-16.63 33.11-23.45 45.89a73.21 73.21 0 0 1-63.81 38.7l-151.65 1.65h-1.6l-13 .14-11.12.12-34.1.37h-1.38l-17.36.19h-.53l-107 1.16-95.51 1-11.11.12-69 .75h-.08l-44.75.48h-.48l-141.5 1.53-42.33.46a87.99 87.99 0 0 1-10.79-.54h0c-1.22-.14-2.44-.3-3.65-.49a87.38 87.38 0 0 1-51.29-27.54c-18.21-20.03-31.46-43.4-40.36-68.76q-1.93-5.49-3.6-11.12c-30.81-104.15 6.75-238.52 74.35-328.44q4.25-5.64 8.64-11l.07-.08c20.79-25.52 44.1-46.84 68.93-62 44-26.91 92.75-34.49 140.7-11.9 40.57 19.12 78.45 28.11 115.17 30.55 3.71.24 7.42.42 11.11.53 84.23 2.65 163.17-27.7 255.87-47.29l11.12-2.28c66.13-13.16 139.49-20.1 226.73-5.51a189.09 189.09 0 0 1 26.76 6.4q5.77 1.86 11.12 4c41.64 16.94 64.35 48.24 74 87.46q1.37 5.46 2.37 11.11c17.11 94.34-33 228.16-76.37 321.05z" fill="#f2f2f2"/><path d="M497.009 445.575a95.21 95.21 0 0 1-1.87 11.12h93.7v-11.12zm-78.25 62.81l11.11-.09v-27.47l-11.11-.52zm-232.92-62.81v11.12h198.5v-11.12zm849.68-339.52h-74v-87.49q-5.35-2.17-11.12-4v91.49h-253.54v-92.42l-11.12 2.28v90.14h-255.87v-42.85c-3.69-.11-7.4-.29-11.11-.53v43.38h-255.87v-62c-24.83 15.16-48.14 36.48-68.93 62h-.07v.08q-4.4 5.4-8.64 11h8.64v328.44h-83q1.66 5.63 3.6 11.12h79.39v93.62a87 87 0 0 0 12.2 2.79c1.21.19 2.43.35 3.65.49h0a87.99 87.99 0 0 0 10.79.54l42.33-.46v-97h255.91v94.21l11.11-.12v-94.07h255.87v91.36l11.12-.12v-91.24h253.49v4.77l2.32-4.77q2.63-5.45 5.33-11.12 1.73-3.64 3.47-7.4v-321h76.42q-1.01-5.69-2.37-11.12zm-872.63 339.52v-328.44h255.87v328.44zm267 0v-328.44h255.85v328.44zm520.48 0h-253.51v-328.44h253.49z" class="C"/><use xlink:href="#B" class="F"/><use xlink:href="#B" opacity=".2"/><use xlink:href="#C" class="D"/><use xlink:href="#C" class="C"/><g class="D"><use xlink:href="#C" x="2"/><path d="M680.909 483.615h47.17v31.5h-47.17z"/></g><path d="M680.909 483.615h47.17v31.5h-47.17z" class="C"/><path d="M678.909 483.615h47.17v31.5h-47.17z" class="D"/><path d="M298.079 483.615v4.97l-47.17 1.26v-6.23z" class="C"/><path d="M381.339 312.325v168.2a4 4 0 0 1-3.85 3.95l-191.65 5.1h-.05a4 4 0 0 1-3.95-3.95v-173.3a4 4 0 0 1 3.95-3.95h191.6a4 4 0 0 1 3.95 3.95z" class="F"/><path d="M185.839 308.375v181.2h-.05a4 4 0 0 1-3.95-3.95v-173.3a4 4 0 0 1 3.95-3.95z" class="C"/><path d="M194.579 319.115h177.5v148.25l-177.5 4z" fill="#39374d"/><path d="M726.079 483.615v6.41l-47.17-1.26v-5.15z" class="C"/><path d="M788.339 312.325v173.3a4 4 0 0 1-4 3.95h0l-191.69-5.1a4 4 0 0 1-3.85-3.95v-168.2a4 4 0 0 1 3.95-3.95h191.6a4 4 0 0 1 3.99 3.95z" class="F"/><path d="M788.339 312.325v173.3a4 4 0 0 1-4 3.95h0v-181.2h0a4 4 0 0 1 4 3.95z" class="C"/><path d="M775.579 319.115h-177.5v148.25l177.5 4z" fill="#39374d"/><path d="M583.839 312.325v168.2a4 4 0 0 1-3.85 3.95l-191.65 5.1h0a4 4 0 0 1-4-3.95v-173.3a4 4 0 0 1 3.95-3.95h191.6a4 4 0 0 1 3.95 3.95z" class="F"/><path d="M397.079 319.115h177.5v148.25l-177.5 4z" fill="#4267b2"/><path d="M863.079 533.615v13l-151.92 1.4-1.62.03-57.74.53-1.38.02-17.55.15h-.52l-106.98.99-175.61 1.63h-.15l-44.65.42-.48.01-198.4 1.82v-15l202.51-1.33h.48l40.99-.28h.19l283.08-1.87h.29l.17-.01h.47l4.79-.03h1.46l74.49-.5 4.4-.02.98-.01z" class="C"/><g fill="#fbbebe"><circle cx="487.249" cy="298.115" r="51.33"/><path d="M538.589 377.125s-99.5 12-90 0c3.44-4.34 4.39-17.2 4.2-31.85-.06-4.45-.22-9.06-.45-13.65-1.1-22-3.75-43.5-3.75-43.5s87-41 77-8.5c-4 13.13-2.69 31.57.35 48.88.89 5.05 1.92 10 3 14.7a344.66 344.66 0 0 0 9.65 33.92z"/></g><path d="M506.119 373.055c11.51-2.13 23.7-6 34.53-1.54 2.85 1.17 5.47 2.88 8.39 3.86s6.12 1.22 9.16 1.91c10.68 2.42 19.34 10.55 24.9 20s8.44 20.14 11.26 30.72l6.9 25.83c6 22.45 12 45.09 13.39 68.3-83.533 4.782-167.258 5.259-250.84 1.43 5.44-10.34 11-21.31 10.54-33s-7.19-23.22-4.76-34.74c1.55-7.34 6.57-13.39 9.64-20.22 8.75-19.52 1.94-45.79 17.32-60.65 6.92-6.68 17-9.21 26.63-8.89 12.28.41 24.85 4.24 37 6.11 15.56 2.36 30.26 3.76 45.94.88z" fill="#ff6584"/><path d="M637.019 484.225l-.1 1.43v.1l-.17 2.3-1.33 18.51-1.61 22.3-.46 6.28-1 13.44v.17l-107 1-175.59 1.9v.84h-.14v-1.12l.45-14.36.86-28.06.74-23.79.07-2.37a10.53 10.53 0 0 1 11.42-10.17l18.18 1.41 3 .22c42.33 2.94 120.56 6.74 199.5 2l5-.31c12.24-.77 24.47-1.76 36.58-3a10.53 10.53 0 0 1 11.6 11.23z" class="C"/><path d="M349.729 552.495v-.84l175.62-1.91 107-1h.3v-.17l1-13.44.43-6 1.64-22.61 1.29-17.9v-.44c.06-.825.023-1.654-.11-2.47a.3.3 0 0 0 0-.1 10.39 10.39 0 0 0-2-4.64 10.54 10.54 0 0 0-9.42-4c-12.11 1.24-24.34 2.23-36.58 3l-5 .31c-78.94 4.69-157.17.89-199.5-2l-3-.22-18.18-1.41a10.54 10.54 0 0 0-11.24 8.53 11 11 0 0 0-.18 1.64l-.68 22.16-.93 28.07-.44 14.36v1.12z" class="D"/><path d="M637.319 491.235l-1.23 15.33-1.83 22.85-.46 5.72-1 12.81-.06.64v.17h0l-.15 1.48.11-1.48h-.29l-107 1-175.65 1.9v-.28l.49-14.36 1-28.06.64-18.65a6.36 6.36 0 0 1 3.06-5.25 6.25 6.25 0 0 1 3.78-.9l7.69.59 17.94 1.22 48 2.42c52 2 122.2 2.67 188.88-3.17l9.13-.84a6.26 6.26 0 0 1 3.48.66 5.16 5.16 0 0 1 .86.54 6.14 6.14 0 0 1 2 2.46 3.52 3.52 0 0 1 .25.61 6.28 6.28 0 0 1 .36 2.59zm-339.23 13.69v3.19a6.13 6.13 0 0 1-3.5 5.54l-40.1.77a6.12 6.12 0 0 1-3.57-5.57v-3z" class="C"/><path d="M298.579 515.535l-52.25 1v-8.67l52.25-1z" class="D"/><path d="M298.579 515.535l-52.25 1v-8.67l52.25-1z" class="C"/><path d="M300.579 515.535l-52.25 1v-8.67l52.25-1z" class="D"/><path d="M679.209 506.925v3.19a6.13 6.13 0 0 0 3.5 5.54l40.1.77a6.12 6.12 0 0 0 3.57-5.57v-3z" class="C"/><path d="M678.709 517.535l52.25 1v-8.67l-52.25-1z" class="C"/><path d="M676.709 517.535l52.25 1v-8.67l-52.25-1zm-221.93-203.69c.08 7-3.16 13.6-5.91 20.07a163.49 163.49 0 0 0-12.66 74.71c.73 11 2.58 22 .73 32.9s-8.43 21.77-19 24.9c17.53 10.45 41.26 9.35 57.76-2.66 8.79-6.4 15.34-15.33 21.75-24.11a97.86 97.86 0 0 1-13.31 44.75 103.43 103.43 0 0 0 73.51-40.82c4.31-5.81 8.06-12.19 9.72-19.23 3.09-13-1.22-26.51-4.51-39.5a266.12 266.12 0 0 1-6.17-33c-.43-3.56-.78-7.22.1-10.7 1-4.07 3.67-7.51 5.64-11.22 5.6-10.54 5.73-23.3 2.86-34.88s-8.49-22.26-14.06-32.81c-4.46-8.46-9.3-17.31-17.46-22.28-5.1-3.1-11-4.39-16.88-5.64l-25.37-5.43c-5.55-1.19-11.26-2.38-16.87-1.51-9.47 1.48-16.14 8.32-22 15.34-4.59 5.46-15.81 15.71-16.6 22.86-.72 6.59 5.1 17.63 6.09 24.58 1.3 9 2.22 6 7.3 11.52 3.21 3.42 5.28 7.37 5.34 12.16z" class="D"/><g class="E"><path d="M280.139 370.832h43.635v17.662h-43.635z" fill="#fff"/><g class="G"><path d="M240.66 428.493c-3.709-.001-7.137-1.981-8.989-5.195-1.863 3.212-1.868 7.175-.013 10.391s5.288 5.197 9.001 5.193h10.391v-10.389z"/><path d="M287.402 373.625l36.373-2.273v-5.195a10.39 10.39 0 0 0-10.39-10.389h-46.75l-1.3-2.249a1.5 1.5 0 0 0-2.6 0l-1.3 2.249-1.3-2.249a1.5 1.5 0 0 0-2.6 0l-1.3 2.249-1.3-2.249a1.5 1.5 0 0 0-2.6 0l-1.3 2.249h-.034l-2.152-2.151a1.5 1.5 0 0 0-2.508.672l-.696 2.653-2.7-.723a1.5 1.5 0 0 0-1.836 1.837l.722 2.7-2.65.71a1.5 1.5 0 0 0-.673 2.509l2.152 2.152v.033l-2.249 1.3a1.5 1.5 0 0 0 0 2.6l2.249 1.3-2.249 1.3a1.5 1.5 0 0 0 0 2.6l2.25 1.282-2.249 1.3a1.5 1.5 0 0 0 0 2.6l2.249 1.3-2.249 1.3a1.5 1.5 0 0 0 0 2.6l2.249 1.3-2.249 1.3a1.5 1.5 0 0 0 0 2.6l2.249 1.3-2.249 1.3a1.5 1.5 0 0 0 0 2.6l2.249 1.3-2.249 1.3a1.5 1.5 0 0 0 0 2.6l2.249 1.3-2.249 1.3a1.5 1.5 0 0 0 0 2.6l2.249 1.3-2.249 1.3a1.5 1.5 0 0 0 0 2.6l2.249 1.3-2.249 1.3a1.5 1.5 0 0 0 0 2.6l2.249 1.3-2.249 1.3a1.5 1.5 0 0 0 0 2.6l2.249 1.3-2.249 1.3a1.5 1.5 0 0 0 0 2.6l2.249 1.3a10.39 10.39 0 0 0 10.389 10.34h62.335a10.39 10.39 0 0 0 10.39-10.39v-41.557l-36.373-2.273a5.53 5.53 0 0 1 0-11.038"/><path d="M302.996 438.882h15.584v-20.779h-15.584z"/></g><path d="M328.97 425.895a2.58 2.58 0 0 0-.332.033l-.06-.234c.934-.383 1.562-1.274 1.608-2.282s-.498-1.953-1.394-2.419-1.981-.37-2.781.246q-.086-.088-.174-.175c.601-.801.687-1.877.221-2.764s-1.402-1.425-2.403-1.384-1.888.656-2.279 1.578l-.231-.06a2.6 2.6 0 0 0-3.987-2.607 2.6 2.6 0 0 0-1.141 2.607l-.231.06c-.389-.926-1.278-1.544-2.281-1.586s-1.941.497-2.408 1.386-.378 1.968.227 2.769c-3.148 3.07-4.021 7.791-2.179 11.784s6 6.393 10.38 5.99 8.03-3.52 9.113-7.782a2.59 2.59 0 0 0 2.641-3.771 2.59 2.59 0 0 0-2.309-1.39" class="H"/><path d="M308.191 407.713h15.584v-10.389h-15.584z" class="G"/><path d="M328.969 403.818a1.3 1.3 0 0 0 1.126-1.95 1.3 1.3 0 0 0-1.126-.65c-.056.002-.111.008-.166.017l-.03-.117a1.3 1.3 0 0 0-.5-2.5c-.284.001-.559.095-.783.269q-.043-.044-.087-.087c.17-.223.262-.496.263-.776a1.3 1.3 0 0 0-2.493-.509c-2.118-.597-4.382.205-5.652 2.002s-1.27 4.199 0 5.996 3.535 2.599 5.652 2.002a1.3 1.3 0 0 0 2.493-.509c-.001-.28-.093-.553-.263-.776q.044-.043.087-.087c.224.174.499.268.783.269a1.3 1.3 0 0 0 .5-2.5l.03-.117c.055.009.11.015.166.017" class="H"/><path d="M261.439 372.65a1.3 1.3 0 0 1-1.3-1.3 3.9 3.9 0 0 0-7.792 0 1.3 1.3 0 0 1-2.6 0c0-3.586 2.907-6.493 6.494-6.493s6.493 2.907 6.493 6.493a1.3 1.3 0 0 1-1.3 1.3"/><path d="M282.217 438.882h31.168a10.39 10.39 0 0 0 10.389-10.389V392.13h-31.168a10.39 10.39 0 0 0-10.389 10.389z" fill="#ffff50"/><path d="M315.993 408.233h-25.994a.52.52 0 0 1-.519-.519.52.52 0 0 1 .519-.519h25.994a.52.52 0 0 1 .519.519.52.52 0 0 1-.519.519m0 10.389h-25.994a.52.52 0 0 1-.519-.519.52.52 0 0 1 .519-.519h25.994a.52.52 0 0 1 .519.519.52.52 0 0 1-.519.519m0 10.389h-25.994a.52.52 0 0 1-.519-.519.52.52 0 0 1 .519-.519h25.994a.52.52 0 0 1 .519.52.52.52 0 0 1-.519.519m0-25.877h-25.994a.52.52 0 0 1-.519-.52.52.52 0 0 1 .519-.519h25.994a.52.52 0 0 1 .519.519.52.52 0 0 1-.519.519m0 10.293h-25.994a.52.52 0 0 1-.519-.519.52.52 0 0 1 .519-.519h25.994a.52.52 0 0 1 .519.519.52.52 0 0 1-.519.519m0 10.389h-25.994a.52.52 0 0 1-.519-.519.52.52 0 0 1 .519-.519h25.994a.52.52 0 0 1 .519.519.52.52 0 0 1-.519.519m7.782-47.993c-1.623.055-2.383 1.66-3.053 3.077-.7 1.48-1.24 2.443-2.126 2.414-.981-.035-1.542-1.144-2.137-2.317-.683-1.347-1.462-2.876-3.1-2.819-1.582.054-2.344 1.451-3.017 2.684-.715 1.313-1.2 2.112-2.141 2.075-1-.036-1.533-.938-2.149-1.981-.686-1.162-1.479-2.467-3.084-2.423-1.555.053-2.319 1.239-2.994 2.286-.713 1.106-1.213 1.781-2.164 1.741-1.025-.036-1.554-.784-2.167-1.65-.688-.973-1.463-2.074-3.062-2.021-1.233.109-2.336.81-2.959 1.879-.64.812-1.14 1.456-2.2 1.415a.52.52 0 0 0-.037 1.039 3.59 3.59 0 0 0 3.05-1.811c.611-.777 1.139-1.448 2.178-1.483 1-.043 1.47.579 2.179 1.582.674.953 1.438 2.033 2.977 2.089 1.612.054 2.387-1.151 3.074-2.217.614-.953 1.144-1.775 2.156-1.81.931-.035 1.438.7 2.153 1.912.674 1.141 1.437 2.434 3.006 2.491 1.623.056 2.407-1.361 3.09-2.616.592-1.085 1.15-2.109 2.14-2.143.931-.022 1.417.829 2.135 2.249.671 1.326 1.432 2.828 3.026 2.886h.088c1.592 0 2.347-1.6 3.015-3.01.592-1.252 1.152-2.431 2.113-2.479z"/><path d="M271.828 438.882h20.779v-20.779h-20.779z" class="G"/></g><g transform="matrix(.966 -.259 .259 .966 282.242 396.068)"><rect width="43.906" height="17.333" rx="2" fill="#d8d8d8"/><g class="I"><rect width="2.537" height="2.537" rx="1" x="8.713" y="10.948"/><rect width="2.537" height="2.537" rx="1" x="11.719" y="10.948"/><rect width="2.537" height="2.537" rx="1" x="14.725" y="10.948"/><rect width="2.537" height="2.537" rx="1" x="17.731" y="10.948"/><rect width="2.537" height="2.537" rx="1" x="20.737" y="10.948"/><rect width="2.537" height="2.537" rx="1" x="23.743" y="10.948"/><rect width="2.537" height="2.537" rx="1" x="26.749" y="10.948"/><rect width="2.537" height="2.537" rx="1" x="29.756" y="10.948"/><rect width="2.537" height="2.537" rx="1" x="32.762" y="10.948"/><path d="M1.247 10.948h6.381a.52.52 0 0 1 .521.52v1.5a.52.52 0 0 1-.519.519H1.247a.52.52 0 0 1-.519-.522v-1.498a.52.52 0 0 1 .519-.519zm35.134 0h6.383a.52.52 0 0 1 .519.519v1.5a.52.52 0 0 1-.519.519H36.38a.52.52 0 0 1-.519-.519v-1.5a.52.52 0 0 1 .519-.519zM1.247 4.878h2.437a.52.52 0 0 1 .519.519v1.5a.52.52 0 0 1-.519.519H1.247a.52.52 0 0 1-.519-.521V5.397a.52.52 0 0 1 .519-.519z" class="E"/><rect width="2.537" height="2.537" rx="1" x="4.673" y="4.878"/><rect width="2.537" height="2.537" rx="1" x="7.679" y="4.878"/><rect width="2.537" height="2.537" rx="1" x="10.686" y="4.878"/><rect width="2.537" height="2.537" rx="1" x="13.692" y="4.878"/><rect width="2.537" height="2.537" rx="1" x="16.698" y="4.878"/><rect width="2.537" height="2.537" rx="1" x="19.704" y="4.878"/><rect width="2.537" height="2.537" rx="1" x="22.71" y="4.878"/><rect width="2.537" height="2.537" rx="1" x="25.716" y="4.878"/><rect width="2.537" height="2.537" rx="1" x="28.722" y="4.878"/><rect width="2.537" height="2.537" rx="1" x="31.728" y="4.878"/><rect width="2.537" height="2.537" rx="1" x="34.734" y="4.878"/><rect width="2.537" height="2.537" rx="1" x="37.74" y="4.878"/><rect width="2.537" height="2.537" rx="1" x="40.746" y="4.878"/></g><g transform="matrix(-1 0 0 -1 43.283 4.538)" class="I"><path d="M.519 0h2.437a.52.52 0 0 1 .519.519v1.5a.52.52 0 0 1-.519.519H.519A.52.52 0 0 1 0 2.017V.519A.52.52 0 0 1 .519 0z" class="E"/><rect width="2.537" height="2.537" rx="1" x="3.945"/><rect width="2.537" height="2.537" rx="1" x="6.951"/><rect width="2.537" height="2.537" rx="1" x="9.958"/><rect width="2.537" height="2.537" rx="1" x="12.964"/><rect width="2.537" height="2.537" rx="1" x="15.97"/><rect width="2.537" height="2.537" rx="1" x="18.976"/><rect width="2.537" height="2.537" rx="1" x="21.982"/><rect width="2.537" height="2.537" rx="1" x="24.988"/><rect width="2.537" height="2.537" rx="1" x="27.994"/><rect width="2.537" height="2.537" rx="1" x="31.001"/><rect width="2.537" height="2.537" rx="1" x="34.007"/><rect width="2.537" height="2.537" rx="1" x="37.013"/><rect width="2.537" height="2.537" rx="1" x="40.018"/><rect width="2.537" height="2.537" rx="1" x="3.945"/><rect width="2.537" height="2.537" rx="1" x="6.951"/><rect width="2.537" height="2.537" rx="1" x="9.958"/><rect width="2.537" height="2.537" rx="1" x="12.964"/><rect width="2.537" height="2.537" rx="1" x="15.97"/><rect width="2.537" height="2.537" rx="1" x="18.976"/><rect width="2.537" height="2.537" rx="1" x="21.982"/><rect width="2.537" height="2.537" rx="1" x="24.988"/><rect width="2.537" height="2.537" rx="1" x="27.994"/><rect width="2.537" height="2.537" rx="1" x="31.001"/><rect width="2.537" height="2.537" rx="1" x="34.007"/><rect width="2.537" height="2.537" rx="1" x="37.013"/><rect width="2.537" height="2.537" rx="1" x="40.018"/></g><g class="I"><path d="M1.247 7.883h3.47a.52.52 0 0 1 .519.519v1.5a.52.52 0 0 1-.519.519h-3.47A.52.52 0 0 1 .728 9.9V8.403a.52.52 0 0 1 .519-.52z" class="E"/><rect width="2.537" height="2.537" rx="1" x="5.801" y="7.883"/><rect width="2.537" height="2.537" rx="1" x="8.807" y="7.883"/><rect width="2.537" height="2.537" rx="1" x="11.813" y="7.883"/><rect width="2.537" height="2.537" rx="1" x="14.819" y="7.883"/><rect width="2.537" height="2.537" rx="1" x="17.826" y="7.883"/><rect width="2.537" height="2.537" rx="1" x="20.832" y="7.883"/><rect width="2.537" height="2.537" rx="1" x="23.838" y="7.883"/><rect width="2.537" height="2.537" rx="1" x="26.843" y="7.883"/><rect width="2.537" height="2.537" rx="1" x="29.85" y="7.883"/><rect width="2.537" height="2.537" rx="1" x="32.856" y="7.883"/><rect width="2.537" height="2.537" rx="1" x="35.862" y="7.883"/><path d="M39.482 7.883h3.28a.52.52 0 0 1 .519.519v1.5a.52.52 0 0 1-.519.519h-3.281a.52.52 0 0 1-.519-.521V8.403a.52.52 0 0 1 .519-.52z" class="E"/><rect width="2.537" height="2.537" rx="1" x=".728" y="14.084"/><rect width="2.537" height="2.537" rx="1" x="3.734" y="14.084"/><rect width="2.537" height="2.537" rx="1" x="6.74" y="14.084"/><rect width="2.537" height="2.537" rx="1" x="9.746" y="14.084"/><path d="M13.271 14.084h14.462a.52.52 0 0 1 .519.519v1.5a.52.52 0 0 1-.519.519H13.271a.52.52 0 0 1-.519-.52v-1.499a.52.52 0 0 1 .519-.519zm15.97 0h1.874a.52.52 0 0 1 .519.519v1.5a.52.52 0 0 1-.519.519h-1.874a.52.52 0 0 1-.519-.519v-1.5a.52.52 0 0 1 .519-.519z" class="E"/><rect width="2.537" height="2.537" rx="1" x="32.104" y="14.084"/><rect width="2.537" height="2.537" rx="1" x="35.11" y="14.084"/><rect width="2.537" height="2.537" rx="1" x="40.746" y="14.084"/><path d="M37.927 15.164v-.561a.52.52 0 0 1 .519-.519h1.499a.52.52 0 0 1 .519.519v.561zm2.538.376v.561a.52.52 0 0 1-.519.519h-1.499a.52.52 0 0 1-.519-.519v-.561z"/><rect width="42.273" height="1.127" rx=".564" x=".915" y=".556"/></g><g fill="#d8d8d8"><rect width="2.37" height=".752" rx=".376" x="1.949" y=".744" class="B"/><rect width="2.37" height=".752" rx=".376" x="5.193" y=".744" class="B"/><rect width="2.37" height=".752" rx=".376" x="7.688" y=".744" class="B"/><rect width="2.37" height=".752" rx=".376" x="10.183" y=".744" class="B"/><rect width="2.37" height=".752" rx=".376" x="12.679" y=".744" class="B"/><rect width="2.37" height=".752" rx=".376" x="15.797" y=".744" class="B"/><rect width="2.37" height=".752" rx=".376" x="18.292" y=".744" class="B"/><rect width="2.37" height=".752" rx=".376" x="20.788" y=".744" class="B"/><rect width="2.37" height=".752" rx=".376" x="23.283" y=".744" class="B"/><rect width="2.37" height=".752" rx=".376" x="26.402" y=".744" class="B"/><rect width="2.37" height=".752" rx=".376" x="28.897" y=".744" class="B"/><rect width="2.37" height=".752" rx=".376" x="31.393" y=".744" class="B"/><rect width="2.37" height=".752" rx=".376" x="34.512" y=".744" class="B"/><rect width="2.37" height=".752" rx=".376" x="37.007" y=".744" class="B"/><rect width="2.37" height=".752" rx=".376" x="39.502" y=".744" class="B"/></g></g><g class="E"><path d="M302.996 425.895c-.111.004-.222.015-.332.033l-.06-.234c.934-.383 1.562-1.274 1.608-2.282s-.498-1.953-1.394-2.419-1.981-.37-2.781.246q-.086-.088-.174-.175c.601-.801.687-1.877.221-2.764s-1.402-1.425-2.403-1.384-1.888.656-2.279 1.578l-.231-.06a2.6 2.6 0 0 0-3.987-2.607 2.6 2.6 0 0 0-1.141 2.607l-.231.06c-.389-.926-1.278-1.544-2.281-1.586s-1.941.497-2.408 1.386-.378 1.968.227 2.769c-3.148 3.07-4.021 7.791-2.179 11.784s6 6.393 10.38 5.99 8.03-3.52 9.113-7.782a2.59 2.59 0 0 0 2.641-3.771 2.59 2.59 0 0 0-2.309-1.39" class="H"/><path d="M271.828 407.713h20.779v-10.389h-20.779z" class="G"/><path d="M297.801 403.818a1.3 1.3 0 0 0 1.126-1.95 1.3 1.3 0 0 0-1.126-.65 1.34 1.34 0 0 0-.166.017l-.03-.117a1.3 1.3 0 0 0-.5-2.5c-.284.001-.559.095-.783.269q-.043-.044-.087-.087c.17-.223.262-.496.263-.776a1.3 1.3 0 0 0-2.493-.509c-2.118-.597-4.382.205-5.652 2.002s-1.27 4.199 0 5.996 3.535 2.599 5.652 2.002a1.3 1.3 0 0 0 2.493-.509c-.001-.28-.093-.553-.263-.776q.044-.043.087-.087c.224.174.499.268.783.269a1.3 1.3 0 0 0 .5-2.5l.03-.117c.055.009.11.015.166.017" class="H"/><path d="M302.997 365.507a1.41 1.41 0 0 1-.255-.026 1.31 1.31 0 0 1-.244-.073 1.35 1.35 0 0 1-.224-.119c-.07-.049-.137-.103-.2-.161a1.52 1.52 0 0 1-.161-.2 1.28 1.28 0 0 1-.218-.722 1.41 1.41 0 0 1 .026-.255 1.5 1.5 0 0 1 .072-.244c.033-.078.073-.153.12-.223a1.25 1.25 0 0 1 .358-.358 1.35 1.35 0 0 1 .224-.119 1.31 1.31 0 0 1 .244-.073 1.2 1.2 0 0 1 .509 0 1.26 1.26 0 0 1 .468.192 1.97 1.97 0 0 1 .2.161 1.91 1.91 0 0 1 .161.2 1.32 1.32 0 0 1 .12.223 1.36 1.36 0 0 1 .1.5c-.001.344-.137.674-.379.919a1.97 1.97 0 0 1-.2.161c-.07.047-.145.086-.223.119a1.33 1.33 0 0 1-.5.1m10.389-.649c-.344-.002-.674-.138-.92-.379a1.98 1.98 0 0 1-.161-.2 1.28 1.28 0 0 1-.218-.722c.002-.344.138-.673.379-.919.063-.058.13-.112.2-.161a1.35 1.35 0 0 1 .224-.119 1.31 1.31 0 0 1 .244-.073 1.2 1.2 0 0 1 .509 0 1.26 1.26 0 0 1 .468.192c.07.049.137.103.2.161.241.246.377.575.379.919a1.46 1.46 0 0 1-.026.255c-.016.083-.041.165-.073.244s-.074.151-.119.223a1.91 1.91 0 0 1-.161.2c-.063.058-.13.112-.2.161-.214.143-.465.219-.722.218"/></g><g fill="#61dafb"><path d="M729.968 395.739c0-5.827-7.3-11.35-18.487-14.775 2.582-11.4 1.434-20.477-3.622-23.382a7.86 7.86 0 0 0-4.016-1v4a4.15 4.15 0 0 1 2.044.466c2.439 1.4 3.5 6.724 2.672 13.574-.2 1.685-.52 3.461-.914 5.272a86.9 86.9 0 0 0-11.386-1.954 87.47 87.47 0 0 0-7.459-8.965c5.845-5.433 11.332-8.41 15.062-8.41v-4.005h0c-4.931 0-11.386 3.514-17.913 9.611-6.527-6.061-12.982-9.539-17.913-9.539v4c3.712 0 9.216 2.959 15.062 8.356-2.67 2.809-5.144 5.799-7.405 8.947a83.73 83.73 0 0 0-11.4 1.972c-.412-1.793-.717-3.532-.932-5.2-.843-6.85.2-12.175 2.618-13.592a3.99 3.99 0 0 1 2.062-.466v-4h0a8 8 0 0 0-4.052 1c-5.039 2.9-6.168 11.96-3.568 23.328-11.153 3.443-18.415 8.947-18.415 14.757 0 5.828 7.3 11.35 18.487 14.775-2.582 11.4-1.434 20.477 3.622 23.382a7.88 7.88 0 0 0 4.034 1c4.931 0 11.386-3.514 17.913-9.611 6.527 6.061 12.982 9.539 17.913 9.539a8 8 0 0 0 4.052-1c5.039-2.9 6.168-11.96 3.568-23.328 11.111-3.42 18.373-8.943 18.373-14.752zm-23.346-11.96c-.663 2.313-1.488 4.7-2.421 7.083-.735-1.434-1.506-2.869-2.349-4.3-.825-1.434-1.7-2.833-2.582-4.2 2.547.377 5.004.843 7.353 1.417zm-8.212 19.1c-1.4 2.421-2.833 4.716-4.321 6.85-2.672.233-5.379.359-8.1.359a100.19 100.19 0 0 1-8.069-.341q-2.232-3.2-4.339-6.814-2.044-3.523-3.73-7.136c1.112-2.4 2.367-4.805 3.712-7.154 1.4-2.421 2.833-4.716 4.321-6.85 2.672-.233 5.379-.359 8.1-.359a100.19 100.19 0 0 1 8.069.341q2.232 3.2 4.339 6.814 2.044 3.523 3.73 7.136a101.2 101.2 0 0 1-3.712 7.15zm5.792-2.331c.968 2.4 1.793 4.805 2.474 7.136a80.22 80.22 0 0 1-7.387 1.434c.879-1.381 1.757-2.8 2.582-4.25.829-1.437 1.596-2.889 2.329-4.324zm-18.182 19.128a73.92 73.92 0 0 1-4.985-5.738c1.614.072 3.263.126 4.931.126 1.685 0 3.353-.036 4.985-.126a69.94 69.94 0 0 1-4.931 5.738zm-13.34-10.561c-2.546-.377-5-.843-7.352-1.417.663-2.313 1.488-4.7 2.421-7.083.735 1.434 1.506 2.869 2.349 4.3a120.7 120.7 0 0 0 2.582 4.2zm13.25-37.314c1.759 1.826 3.423 3.741 4.985 5.738-1.614-.072-3.263-.126-4.931-.126-1.686 0-3.353.036-4.985.126a69.94 69.94 0 0 1 4.931-5.738zm-13.268 10.559c-.879 1.381-1.757 2.8-2.582 4.25-.825 1.434-1.6 2.869-2.331 4.3-.968-2.4-1.793-4.805-2.474-7.136a90.16 90.16 0 0 1 7.387-1.414zm-16.227 22.449c-6.348-2.708-10.454-6.258-10.454-9.073s4.106-6.383 10.454-9.073c1.542-.663 3.228-1.255 4.967-1.811a86.12 86.12 0 0 0 4.034 10.92 84.9 84.9 0 0 0-3.981 10.866c-1.775-.553-3.461-1.163-5.021-1.826zm9.647 25.623c-2.439-1.4-3.5-6.724-2.672-13.574.2-1.686.52-3.461.914-5.272a86.9 86.9 0 0 0 11.386 1.954 87.44 87.44 0 0 0 7.459 8.965c-5.845 5.433-11.332 8.41-15.062 8.41a4.28 4.28 0 0 1-2.026-.48zm42.532-13.663c.843 6.85-.2 12.175-2.618 13.592a3.99 3.99 0 0 1-2.062.466c-3.712 0-9.216-2.959-15.062-8.356a84.69 84.69 0 0 0 7.405-8.947 83.73 83.73 0 0 0 11.4-1.972c.404 1.722.716 3.465.936 5.22zm6.9-11.96c-1.542.663-3.228 1.255-4.967 1.811a86.12 86.12 0 0 0-4.034-10.92 84.9 84.9 0 0 0 3.981-10.866c1.775.556 3.461 1.165 5.039 1.829 6.348 2.708 10.454 6.258 10.454 9.073-.017 2.818-4.123 6.386-10.471 9.076zm-47.496-48.177z"/><circle cx="685.966" cy="395.738" r="8.194"/><path d="M703.825 356.578z"/></g><defs ><path id="B" d="M863.079 533.615v13l-151.92 1.4-1.62.03-57.74.53-1.38.02-17.55.15h-.52l-106.98.99-175.61 1.63h-.15l-44.65.42-.48.01-198.4 1.82v-15l46.65-28 93.6-.78 2-.01.66-.01 2-.03 44.94-.37 2.01-.01.64-.01 2-.01 14.41-.12.38-.01 35.55-.3h.29l277.4-2.34 6.79-.05h.68l5.18-.05 37.65-.31 2-.03 1.85-.02h.96l11.71-.09 2.32-.03 3.11-.02 9.75-.09 15.47-.13 2-.02 3.48-.02h.65l74.71-.64z"/><path id="C" d="M296.089 483.625v24.49a6.13 6.13 0 0 1-3.5 5.54 6 6 0 0 1-2.5.6l-34.9.74a6 6 0 0 1-2.7-.57 6.12 6.12 0 0 1-3.57-5.57v-25.23z"/></defs></svg>