<svg xmlns="http://www.w3.org/2000/svg" width="16" height="16" fill="none" xmlns:v="https://vecta.io/nano"><path d="M8.002.006C3.581.004 0 3.677 0 8.211c0 3.585 2.24 6.633 5.36 7.752.42.108.356-.198.356-.407v-1.422c-2.426.292-2.524-1.356-2.687-1.631-.329-.576-1.107-.723-.874-.998.552-.292 1.116.073 1.768 1.062.472.718 1.393.596 1.859.477a2.33 2.33 0 0 1 .62-1.116c-2.514-.462-3.561-2.037-3.561-3.908 0-.908.291-1.743.863-2.417-.365-1.11.034-2.061.088-2.202 1.039-.095 2.118.763 2.202.831.59-.163 1.264-.25 2.018-.25s1.434.09 2.029.255c.202-.158 1.203-.895 2.169-.806.052.141.441 1.07.098 2.165.579.675.874 1.517.874 2.428 0 1.875-1.055 3.451-3.575 3.906.216.218.387.478.504.765a2.39 2.39 0 0 1 .177.905v2.064c.014.165 0 .329.268.329 3.166-1.095 5.445-4.165 5.445-7.782 0-4.536-3.583-8.207-8-8.207z" fill="#62a7bd"/></svg>