<svg xmlns="http://www.w3.org/2000/svg" width="16" height="16" fill="none" xmlns:v="https://vecta.io/nano"><path d="M3.632 16V5.205H.202V16h3.43zM1.918 3.73c1.196 0 1.94-.829 1.94-1.865C3.836.806 3.114 0 1.94 0S0 .806 0 1.865C0 2.901.744 3.73 1.895 3.73h.022 0zM5.531 16h3.43V9.971c0-.323.022-.645.113-.876.248-.645.812-1.312 1.76-1.312 1.241 0 1.738.99 1.738 2.441V16H16V9.81c0-3.316-1.692-4.859-3.949-4.859-1.85 0-2.663 1.082-3.114 1.819h.023V5.205h-3.43c.045 1.013 0 10.795 0 10.795h0z" fill="#62a7bd"/></svg>