<svg xmlns="http://www.w3.org/2000/svg" width="16" height="16" fill="none" xmlns:v="https://vecta.io/nano"><path d="M5.87 0a1.6 1.6 0 0 0-1.6 1.6 1.61 1.61 0 0 0 .467 1.131A1.6 1.6 0 0 0 5.87 3.2h1.6V1.6c0-.881-.716-1.598-1.6-1.6zm0 4.267H1.6a1.6 1.6 0 0 0-1.6 1.6 1.6 1.6 0 0 0 1.6 1.6h4.268a1.6 1.6 0 0 0 .002-3.2zm4.268 3.2a1.6 1.6 0 0 0 1.6-1.6V1.6a1.6 1.6 0 1 0-3.2 0v4.267a1.6 1.6 0 0 0 1.6 1.6zm5.87-1.6a1.6 1.6 0 0 0-3.2 0v1.6h1.6a1.6 1.6 0 0 0 1.6-1.6zm-1.602 2.667h-4.268a1.6 1.6 0 0 0-1.6 1.6 1.61 1.61 0 0 0 .467 1.131 1.6 1.6 0 0 0 1.133.469h4.268a1.6 1.6 0 0 0 0-3.2zM10.138 12.8h-1.6v1.6a1.6 1.6 0 1 0 3.2 0 1.6 1.6 0 0 0-1.6-1.6zM5.87 8.533a1.6 1.6 0 0 0-1.6 1.6V14.4a1.6 1.6 0 1 0 3.2 0v-4.267a1.61 1.61 0 0 0-.467-1.131c-.3-.3-.709-.469-1.133-.469zM0 10.133a1.61 1.61 0 0 0 .467 1.131 1.6 1.6 0 0 0 1.133.469 1.6 1.6 0 0 0 1.6-1.6v-1.6H1.6a1.6 1.6 0 0 0-1.6 1.6z" fill="#62a7bd"/></svg>