<svg xmlns="http://www.w3.org/2000/svg" width="20" height="14" fill="none" xmlns:v="https://vecta.io/nano"><path d="M19.583 2.187c-.114-.423-.337-.81-.647-1.12a2.51 2.51 0 0 0-1.121-.648C16.255 0 10 0 10 0S3.746 0 2.185.417c-.424.114-.811.337-1.121.647a2.5 2.5 0 0 0-.647 1.12C0 3.745 0 7 0 7s0 3.255.417 4.813c.23.861.908 1.538 1.768 1.768C3.746 14 10 14 10 14s6.255 0 7.815-.419a2.5 2.5 0 0 0 1.768-1.768C20 10.255 20 7 20 7s0-3.255-.417-4.813zm-11.569 7.8V4.013l5.179 2.965-5.179 3.01z" fill="#62a7bd"/></svg>