<svg xmlns="http://www.w3.org/2000/svg" width="356" height="60" fill="none" xmlns:v="https://vecta.io/nano"><path d="M84.543 26.208c2.912 0 5.207-1.217 7.06-3.651l3.707 4.119c-3.001 3.557-6.442 5.335-10.502 5.335s-7.325-1.31-9.972-4.025-3.883-6.084-3.883-10.203 1.324-7.582 3.971-10.296 5.913-4.119 9.796-4.119c4.324 0 7.943 1.778 10.767 5.242l-3.618 4.399c-1.853-2.434-4.148-3.65-6.883-3.65-2.206 0-4.059.749-5.648 2.246s-2.383 3.557-2.383 6.178.706 4.68 2.206 6.272c1.5 1.31 3.265 2.153 5.383 2.153zm15.444 5.429v-27.8h5.825v22.278h11.208v5.523H99.986zm42.625-3.838c-2.647 2.715-5.913 4.119-9.796 4.119s-7.148-1.404-9.795-4.119-3.972-6.178-3.972-10.203 1.324-7.488 3.972-10.203 5.912-4.119 9.795-4.119 7.149 1.404 9.796 4.119 3.971 6.178 3.971 10.203-1.323 7.488-3.971 10.203zm-2.03-10.203c0-2.434-.794-4.587-2.206-6.365-1.5-1.778-3.353-2.621-5.56-2.621s-4.059.842-5.559 2.621-2.295 3.838-2.295 6.365.794 4.587 2.295 6.365 3.353 2.621 5.559 2.621 4.06-.842 5.56-2.621 2.206-3.838 2.206-6.365zm17.915 6.927c.971 1.31 2.295 1.966 3.971 1.966s3.001-.655 3.883-1.966c.971-1.31 1.412-3.089 1.412-5.242V3.837h5.825v15.538c0 4.025-1.059 7.114-3.177 9.267s-4.766 3.276-8.031 3.276-6.001-1.123-8.119-3.276-3.177-5.242-3.177-9.267V3.837h5.825v15.351c.088 2.247.617 4.025 1.588 5.335zm41.213-17.036c2.471 2.434 3.795 5.803 3.795 10.109s-1.236 7.769-3.619 10.296c-2.471 2.527-6.177 3.744-11.119 3.744h-9.09v-27.8h9.266c4.678 0 8.296 1.217 10.767 3.651zm-4.236 16.568c1.412-1.404 2.118-3.557 2.118-6.271s-.706-4.867-2.118-6.271c-1.412-1.498-3.618-2.246-6.619-2.246h-3.265v16.942h3.706c2.648 0 4.678-.749 6.178-2.153zm41.301-20.218h5.912v27.8h-5.912l-12.443-17.41v17.41h-5.913v-27.8h5.56l12.796 17.972V3.837zm30.975 27.8l-2.471-5.991h-11.031l-2.471 5.991h-6.266l11.296-27.8h5.648l11.296 27.8h-6.001zm-7.854-19.469l-3.265 8.05h6.53l-3.265-8.05zm26.387-2.902v22.371h-5.913V9.266h-7.413V3.837h20.739v5.429h-7.413zm11.649-5.429h5.824v27.8h-5.824v-27.8zm21.974 17.691l6.707-17.691h6.354l-10.59 27.8h-4.942l-10.502-27.8h6.354l6.619 17.691zM354.94 3.837V9.36h-13.061v5.803h11.738v5.242h-11.738v5.803h13.503v5.429h-19.327v-27.8h18.885zM77.836 55.319c1.588 0 2.912-.655 3.971-2.059l2.118 2.34c-1.677 1.966-3.618 2.995-5.913 2.995s-4.148-.749-5.56-2.246c-1.5-1.498-2.206-3.463-2.206-5.71 0-2.34.706-4.212 2.206-5.803s3.354-2.34 5.472-2.34c2.383 0 4.412.936 6.089 2.902l-2.03 2.434c-1.059-1.404-2.294-2.059-3.883-2.059-1.236 0-2.294.468-3.177 1.31S73.6 49.048 73.6 50.545s.441 2.621 1.236 3.463c.794.936 1.853 1.31 3.001 1.31zm20.65.936c-1.5 1.498-3.353 2.34-5.471 2.34s-3.971-.749-5.472-2.34c-1.5-1.498-2.206-3.463-2.206-5.71s.706-4.212 2.206-5.71 3.354-2.34 5.472-2.34 3.971.749 5.471 2.34c1.5 1.498 2.206 3.463 2.206 5.71s-.706 4.212-2.206 5.71zm-1.059-5.71c0-1.404-.441-2.621-1.236-3.557-.882-.936-1.853-1.498-3.089-1.498s-2.294.468-3.089 1.498c-.882.936-1.236 2.153-1.236 3.557s.441 2.527 1.236 3.557c.883.936 1.853 1.498 3.089 1.498s2.294-.468 3.089-1.498c.794-.936 1.236-2.153 1.236-3.557zm19.239-1.966l-3.972 8.612h-1.941l-3.971-8.611v9.828h-3.266V42.87h4.413l3.795 8.518 3.794-8.518h4.413v15.538h-3.265V48.58zm17.032-4.306c1.059.936 1.588 2.34 1.588 4.306s-.529 3.37-1.588 4.212c-1.059.936-2.648 1.31-4.854 1.31h-1.941v4.306h-3.266V42.87h5.207c2.206 0 3.795.468 4.854 1.404zm-2.383 6.084c.353-.468.618-1.123.618-2.059s-.265-1.498-.794-1.872-1.324-.562-2.383-.562h-1.853v5.242h2.206c1.059 0 1.765-.281 2.206-.749zm10.414 4.025c.529.749 1.323 1.123 2.206 1.123s1.677-.374 2.206-1.123.794-1.685.794-2.995v-8.612h3.266v8.705c0 2.246-.618 4.025-1.765 5.242s-2.648 1.778-4.501 1.778-3.354-.655-4.501-1.872-1.765-2.995-1.765-5.242v-8.705h3.265v8.799c0 1.217.265 2.246.795 2.902zm18.091-8.518v12.543h-3.265V45.865h-4.148V42.87h11.561v2.995h-4.148zm6.619-2.995h3.265v15.632h-3.265V42.87zm17.12 0h3.265v15.538h-3.265l-6.972-9.735v9.735h-3.265V42.87h3.001l7.236 10.016V42.87zm16.503 7.676h3.265v5.523c-1.5 1.685-3.442 2.621-6.089 2.621a7.5 7.5 0 0 1-5.472-2.246c-1.5-1.498-2.206-3.463-2.206-5.71 0-2.34.706-4.212 2.206-5.803s3.266-2.34 5.384-2.34 3.971.749 5.471 2.246l-1.677 2.621c-.617-.655-1.235-1.03-1.853-1.217-.529-.187-1.147-.374-1.765-.374-1.235 0-2.294.468-3.177 1.31-.882.936-1.324 2.059-1.324 3.557s.442 2.621 1.236 3.557c.794.842 1.765 1.31 2.912 1.31s2.118-.187 2.824-.655l.265-4.399zm21.797-7.675v2.995h-6.795v3.37h6.531v3.089h-6.531v6.084h-3.265V42.87h10.06zm15.179 13.385c-1.5 1.498-3.353 2.34-5.471 2.34-2.206 0-3.971-.749-5.471-2.34-1.501-1.498-2.207-3.463-2.207-5.71s.706-4.212 2.207-5.71 3.353-2.34 5.471-2.34c2.206 0 3.971.749 5.471 2.34 1.501 1.498 2.207 3.463 2.207 5.71s-.706 4.212-2.207 5.71zm-1.147-5.71c0-1.404-.441-2.621-1.235-3.557-.883-.936-1.854-1.498-3.089-1.498s-2.295.468-3.089 1.498c-.882.936-1.235 2.153-1.235 3.557s.441 2.527 1.235 3.557c.883.936 1.853 1.498 3.089 1.498s2.294-.468 3.089-1.498c.882-.936 1.235-2.153 1.235-3.557zm10.061 3.838c.529.749 1.323 1.123 2.206 1.123s1.677-.374 2.206-1.123.794-1.685.794-2.995v-8.612h3.266v8.705c0 2.246-.618 4.025-1.765 5.242s-2.648 1.778-4.501 1.778-3.353-.655-4.501-1.872-1.765-2.995-1.765-5.242v-8.705h3.266v8.799c-.089 1.217.264 2.246.794 2.902zm22.15-11.513h3.266v15.538h-3.266l-6.971-9.735v9.735h-3.266V42.87h3.001l7.236 10.016V42.87zm18.092 2.059c1.412 1.404 2.118 3.276 2.118 5.71s-.706 4.306-2.03 5.71-3.442 2.153-6.266 2.153h-5.03V42.87h5.207c2.647 0 4.677.655 6.001 2.059zm-2.383 9.267c.794-.843 1.235-1.966 1.235-3.463s-.441-2.715-1.235-3.557-2.03-1.217-3.707-1.217h-1.853v9.454h2.118c1.5-.094 2.648-.468 3.442-1.217zm17.385 4.212l-1.324-3.37h-6.177l-1.324 3.37h-3.53l6.354-15.632h3.177l6.354 15.632h-3.53zm-4.412-10.952l-1.854 4.493h3.707l-1.853-4.493zm14.826-1.591v12.543h-3.354V45.865h-4.148V42.87h11.649v2.995h-4.147zm6.53-2.995h3.265v15.632h-3.265V42.87zm19.239 13.385c-1.501 1.498-3.354 2.34-5.472 2.34-2.206 0-3.971-.749-5.471-2.34-1.501-1.498-2.207-3.463-2.207-5.71s.706-4.212 2.207-5.71 3.353-2.34 5.471-2.34c2.206 0 3.971.749 5.472 2.34 1.5 1.498 2.206 3.463 2.206 5.71s-.706 4.212-2.206 5.71zm-1.059-5.71c0-1.404-.442-2.621-1.236-3.557-.882-.936-1.853-1.498-3.089-1.498s-2.294.468-3.088 1.498c-.883.936-1.236 2.153-1.236 3.557s.441 2.527 1.236 3.557c.882.936 1.853 1.498 3.088 1.498s2.295-.468 3.089-1.498c.794-.936 1.236-2.153 1.236-3.557zm16.326-7.675h3.353v15.538h-3.353l-6.972-9.735v9.735h-3.265V42.87h3.089l7.148 10.016V42.87z" fill="#3b4473"/><path d="M8.031 39.969H0V60h18.797v-8.611H8.031v-11.42zm40.418.094v11.326H37.683v-.094V60H56.48V39.969h-8.119l.088.094zM0 20.031h8.119l-.088-.094V8.612h10.766V0H0v20.031zM37.683 0v8.612h10.767v11.42h8.031V0H37.683z" fill="#446ca9"/><path d="M36.624 20.031L25.857 8.612h11.825V0H18.797v8.612l10.767 11.42h7.06zm-9.707 19.938h-7.06l8.913 9.454 1.765 1.966H18.797V60h18.885v-8.705L32.3 45.679l-5.383-5.71zm21.533-19.938v12.449l-1.853-1.966-8.913-9.454v7.582l5.295 5.616 5.383 5.71h8.119V20.031h-8.031zM18.797 31.357L8.119 20.031H0v19.938h8.031V27.52l10.766 11.42v-7.582z" fill="#76c4d5"/></svg>