<svg width="314" height="60" viewBox="0 0 314 60" fill="none" xmlns="http://www.w3.org/2000/svg">
<g clip-path="url(#clip0_1_32)">
<path d="M0 26.2523V18.83H26.2523V0L52.5411 26.2523H0Z" fill="#3B4473"/>
<path d="M0 33.7112L26.2523 60V41.17H52.5411V33.7112H0Z" fill="#3B4473"/>
<path d="M74.2962 15.3931H88.117C91.298 15.3931 94.1499 15.9781 96.6362 17.1847C99.1225 18.3912 101.024 20.0731 102.377 22.2669C103.729 24.4607 104.424 27.0201 104.424 29.9817C104.424 32.9433 103.729 35.5028 102.377 37.6965C101.024 39.8903 99.0859 41.6088 96.6362 42.7788C94.1865 43.9488 91.3346 44.5704 88.117 44.5704H74.2962V15.3931ZM87.7879 37.989C90.2742 37.989 92.2852 37.2943 93.8208 35.8684C95.3199 34.4424 96.0877 32.5046 96.0877 29.9817C96.0877 27.4589 95.3199 25.521 93.8208 24.0951C92.3218 22.6691 90.3108 21.9744 87.7879 21.9744H82.5594V37.989H87.7879Z" fill="#3B4473"/>
<path d="M125.85 38.9397H113.492L111.188 44.607H102.779L115.686 15.3931H123.803L136.746 44.607H128.154L125.85 38.9397ZM123.4 32.8337L119.634 23.4735L115.868 32.8337H123.4Z" fill="#3B4473"/>
<path d="M141.316 21.9379H132.358V15.3931H158.501V21.9379H149.58V44.607H141.316V21.9379Z" fill="#3B4473"/>
<path d="M177.221 38.9397H164.863L162.559 44.607H154.15L167.057 15.3931H175.174L188.117 44.607H179.525L177.221 38.9397ZM174.808 32.8337L171.079 23.4735L167.313 32.8337H174.808Z" fill="#3B4473"/>
<path d="M195.942 43.2541C193.492 41.9744 191.59 40.1463 190.201 37.8428C188.812 35.5393 188.117 32.9068 188.117 29.9817C188.117 27.0567 188.812 24.4607 190.201 22.1207C191.59 19.8172 193.492 18.0256 195.942 16.7093C198.391 15.4296 201.133 14.7715 204.168 14.7715C206.837 14.7715 209.25 15.2468 211.371 16.1974C213.528 17.1481 215.283 18.5009 216.709 20.2925L211.444 25.0457C209.543 22.7788 207.276 21.6088 204.57 21.6088C202.998 21.6088 201.572 21.9744 200.329 22.6691C199.086 23.3638 198.135 24.351 197.441 25.5941C196.746 26.8739 196.417 28.2998 196.417 29.9452C196.417 31.5905 196.746 33.053 197.441 34.2962C198.135 35.5759 199.086 36.5265 200.329 37.2212C201.572 37.9159 202.962 38.2815 204.57 38.2815C207.276 38.2815 209.58 37.1481 211.444 34.8446L216.709 39.5978C215.283 41.3894 213.492 42.7422 211.371 43.6929C209.214 44.6435 206.837 45.1188 204.168 45.1188C201.133 45.192 198.391 44.5338 195.942 43.2541Z" fill="#3B4473"/>
<path d="M225.411 43.2175C222.962 41.9013 221.024 40.1097 219.598 37.8062C218.208 35.5027 217.477 32.9067 217.477 30.0182C217.477 27.1298 218.172 24.5338 219.598 22.2303C220.987 19.9268 222.925 18.0987 225.411 16.819C227.861 15.5027 230.64 14.8446 233.748 14.8446C236.819 14.8446 239.598 15.5027 242.084 16.819C244.534 18.1353 246.472 19.9268 247.898 22.2303C249.287 24.5338 250.018 27.1298 250.018 30.0182C250.018 32.9067 249.324 35.5027 247.898 37.8062C246.508 40.1097 244.57 41.9378 242.084 43.2175C239.634 44.5338 236.856 45.1919 233.748 45.1919C230.64 45.1919 227.861 44.5338 225.411 43.2175ZM237.733 37.2943C238.94 36.5996 239.89 35.6124 240.585 34.3693C241.28 33.0895 241.645 31.6636 241.645 30.0182C241.645 28.3729 241.28 26.9104 240.585 25.6672C239.89 24.3875 238.94 23.4369 237.733 22.7422C236.527 22.0475 235.21 21.6819 233.711 21.6819C232.212 21.6819 230.896 22.0475 229.689 22.7422C228.483 23.4369 227.532 24.4241 226.837 25.6672C226.143 26.9104 225.777 28.3729 225.777 30.0182C225.777 31.6636 226.106 33.1261 226.837 34.3693C227.532 35.649 228.483 36.5996 229.689 37.2943C230.896 37.989 232.212 38.3546 233.711 38.3546C235.21 38.3546 236.527 37.989 237.733 37.2943Z" fill="#3B4473"/>
<path d="M266.033 36.8556H261.536V44.607H253.272V15.3931H266.618C269.25 15.3931 271.554 15.8318 273.492 16.7093C275.43 17.5869 276.929 18.83 277.989 20.4753C279.049 22.1207 279.561 24.022 279.561 26.2157C279.561 28.3364 279.086 30.1645 278.099 31.7368C277.112 33.309 275.686 34.5521 273.857 35.4296L280.146 44.607H271.298L266.033 36.8556ZM269.945 23.0347C269.068 22.2669 267.788 21.9013 266.106 21.9013H261.499V30.4571H266.106C267.788 30.4571 269.068 30.0914 269.945 29.3602C270.823 28.6289 271.225 27.5686 271.225 26.2157C271.225 24.8263 270.786 23.766 269.945 23.0347Z" fill="#3B4473"/>
<path d="M306.545 38.2084V44.607H283.108V15.3931H305.996V21.7916H291.261V26.7276H304.241V32.9068H291.261V38.245H306.545V38.2084Z" fill="#3B4473"/>
<path d="M308.739 18.5741H308.336V15.7221H307.276V15.3931H309.799V15.7221H308.739V18.5741Z" fill="#3B4473"/>
<path d="M310.603 16.0146V18.5375H310.201V15.3931H310.64L311.7 17.5869L312.761 15.3931H313.199V18.5741H312.797V16.0512L311.81 18.0256H311.554L310.603 16.0146Z" fill="#3B4473"/>
</g>
<defs>
<clipPath id="clip0_1_32">
<rect width="314" height="60" fill="white"/>
</clipPath>
</defs>
</svg>
