<svg width="193" height="39" viewBox="0 0 193 39" fill="none" xmlns="http://www.w3.org/2000/svg">
<path d="M0.056366 16.1028V11.5296H16.2197V0.0559578L32.354 16.1028H0.056366Z" fill="#62A7BD"/>
<path d="M0.056366 20.6471L16.2197 36.6931V25.1915H32.354V20.6471H0.056366Z" fill="#62A7BD"/>
<path d="M45.7477 9.45369H54.2529C56.2309 9.45369 57.9546 9.81838 59.4804 10.5478C61.0063 11.2771 62.1931 12.3151 63.0125 13.6616C63.8602 15.0082 64.2558 16.5792 64.2558 18.3746C64.2558 20.17 63.832 21.7409 63.0125 23.0875C62.1648 24.434 61.0063 25.472 59.4804 26.2014C57.9546 26.9307 56.2027 27.2954 54.2529 27.2954H45.7477V9.45369ZM54.0551 23.2558C55.581 23.2558 56.8243 22.835 57.7568 21.9654C58.6893 21.0957 59.1414 19.8894 59.1414 18.3746C59.1414 16.8597 58.6893 15.6534 57.7568 14.7838C56.8243 13.9141 55.581 13.4933 54.0551 13.4933H50.8621V23.2838H54.0551V23.2558ZM77.4518 23.8169H69.8507L68.4378 27.2674H63.2669L71.207 9.42563H76.2085L84.1486 27.2674H78.8646L77.4518 23.8169ZM75.9541 20.1139L73.6371 14.4191L71.32 20.1139H75.9541Z" fill="#62A7BD"/>
<path d="M86.9747 13.4652H81.4639V9.45411H97.5427V13.4652H92.0601V27.2958H86.9747V13.4652Z" fill="#62A7BD"/>
<path d="M109.043 23.8169H101.442L100.029 27.2674H94.8579L102.798 9.42563H107.8L115.74 27.2674H110.456L109.043 23.8169ZM107.573 20.1139L105.256 14.4191L102.939 20.1139H107.573Z" fill="#62A7BD"/>
<path d="M120.572 26.4538C119.074 25.6684 117.887 24.5743 117.039 23.1436C116.192 21.7409 115.768 20.1419 115.768 18.3465C115.768 16.5511 116.192 14.9801 117.039 13.5494C117.887 12.1468 119.074 11.0527 120.572 10.2392C122.069 9.45369 123.765 9.06094 125.63 9.06094C127.268 9.06094 128.738 9.34147 130.066 9.93059C131.394 10.5197 132.468 11.3332 133.344 12.4273L130.122 15.3168C128.964 13.9141 127.551 13.2409 125.884 13.2409C124.895 13.2409 124.047 13.4653 123.284 13.8861C122.521 14.3069 121.928 14.896 121.504 15.6815C121.08 16.467 120.882 17.3366 120.882 18.3465C120.882 19.3564 121.08 20.2261 121.504 21.0116C121.928 21.797 122.521 22.3862 123.284 22.8069C124.047 23.2277 124.923 23.4522 125.884 23.4522C127.551 23.4522 128.964 22.7508 130.122 21.3762L133.344 24.2938C132.468 25.3878 131.366 26.2014 130.066 26.7905C128.738 27.3796 127.268 27.6601 125.63 27.6601C123.736 27.6321 122.069 27.2393 120.572 26.4538ZM138.684 26.4538C137.158 25.6684 135.972 24.5462 135.124 23.1436C134.248 21.7409 133.824 20.1419 133.824 18.3746C133.824 16.6072 134.248 15.0082 135.124 13.6055C136 12.2029 137.187 11.0808 138.684 10.2953C140.21 9.50979 141.905 9.089 143.799 9.089C145.692 9.089 147.416 9.48174 148.913 10.2953C150.439 11.0808 151.626 12.2029 152.473 13.6055C153.349 15.0082 153.773 16.6072 153.773 18.3746C153.773 20.1419 153.349 21.7409 152.473 23.1436C151.598 24.5462 150.411 25.6684 148.913 26.4538C147.387 27.2393 145.692 27.6601 143.799 27.6601C141.905 27.6601 140.182 27.2393 138.684 26.4538ZM146.257 22.835C146.992 22.4142 147.585 21.8251 148.009 21.0396C148.433 20.2541 148.659 19.3845 148.659 18.3746C148.659 17.3647 148.433 16.495 148.009 15.7095C147.585 14.924 146.992 14.3349 146.257 13.9141C145.522 13.4933 144.703 13.2689 143.799 13.2689C142.894 13.2689 142.075 13.4933 141.34 13.9141C140.606 14.3349 140.012 14.924 139.588 15.7095C139.165 16.495 138.938 17.3647 138.938 18.3746C138.938 19.3845 139.165 20.2541 139.588 21.0396C140.012 21.8251 140.606 22.4142 141.34 22.835C142.075 23.2558 142.894 23.4802 143.799 23.4802C144.703 23.4522 145.522 23.2558 146.257 22.835ZM163.663 22.5545H160.894V27.2954H155.808V9.45369H164.03C165.669 9.45369 167.054 9.73422 168.269 10.2672C169.456 10.8002 170.388 11.5577 171.038 12.5676C171.688 13.5494 172.027 14.7277 172.027 16.0742C172.027 17.3647 171.716 18.4868 171.123 19.4406C170.53 20.3944 169.654 21.1518 168.523 21.6848L172.394 27.2954H166.969L163.663 22.5545ZM166.065 14.1105C165.528 13.6616 164.737 13.4092 163.691 13.4092H160.866V18.627H163.691C164.737 18.627 165.528 18.4026 166.065 17.9538C166.602 17.5049 166.856 16.8597 166.856 16.0181C166.856 15.1765 166.602 14.5593 166.065 14.1105Z" fill="#62A7BD"/>
<path d="M188.558 23.3958V27.2958H174.147V9.45411H188.219V13.3533H179.148V16.3546H187.116V20.1138H179.148V23.3678H188.558V23.3958Z" fill="#62A7BD"/>
<path d="M189.915 11.4465H189.66V9.70676H189.01V9.51091H190.564V9.70676H189.915V11.4465Z" fill="#62A7BD"/>
<path d="M191.073 9.90346V11.4465H190.818V9.51091H191.073L191.722 10.8573L192.372 9.51091H192.627V11.4465H192.429V9.90346L191.836 11.1099H191.666L191.073 9.90346Z" fill="#62A7BD"/>
</svg>
