<svg xmlns="http://www.w3.org/2000/svg" width="128" height="44" fill="none" xmlns:v="https://vecta.io/nano"><g clip-path="url(#A)"><path d="M22.372 0C10.012-.005 0 10.104 0 22.581c0 9.866 6.263 18.253 14.985 21.334 1.175.298.995-.545.995-1.121V38.88c-6.783.803-7.058-3.732-7.512-4.489-.92-1.586-3.094-1.989-2.444-2.747 1.544-.803 3.119.202 4.943 2.924 1.32 1.974 3.894 1.641 5.198 1.313.285-1.187.895-2.247 1.734-3.07-7.028-1.272-9.956-5.605-9.956-10.755 0-2.499.815-4.797 2.414-6.65-1.02-3.055.095-5.67.245-6.059 2.904-.263 5.923 2.101 6.158 2.287 1.649-.449 3.534-.687 5.643-.687 2.119 0 4.009.247 5.673.702.565-.434 3.364-2.464 6.063-2.217.145.389 1.235 2.944.275 5.958 1.619 1.858 2.444 4.176 2.444 6.68 0 5.16-2.949 9.498-9.997 10.75.604.6 1.083 1.315 1.41 2.104s.495 1.636.494 2.491v5.681c.04.454 0 .904.75.904 8.852-3.014 15.225-11.462 15.225-21.414C44.739 10.104 34.723 0 22.372 0z" fill="#000"/><path d="M66.918 20.504h-6.364a.3.3 0 0 0-.297.301v3.143a.3.3 0 0 0 .297.301h2.483v3.905s-.557.192-2.099.192c-1.818 0-4.358-.671-4.358-6.314s2.645-6.386 5.128-6.386c2.149 0 3.075.382 3.665.566.185.057.356-.129.356-.295l.71-3.037a.28.28 0 0 0-.114-.234c-.239-.173-1.699-.998-5.387-.998-4.248 0-8.606 1.826-8.606 10.604s4.989 10.086 9.194 10.086c3.481 0 5.593-1.503 5.593-1.503.087-.049.097-.171.097-.228v-9.803a.3.3 0 0 0-.297-.301h0zm32.78-7.757c0-.167-.131-.302-.296-.302h-3.583c-.039 0-.078.008-.114.023s-.069.038-.096.066a.3.3 0 0 0-.064.098c-.015.037-.022.076-.022.115l.001 6.996h-5.585v-6.995c0-.167-.132-.302-.296-.302h-3.583c-.079 0-.154.033-.21.089s-.087.133-.086.213v18.942a.3.3 0 0 0 .296.303h3.583c.164 0 .296-.136.296-.303v-8.102h5.585l-.01 8.102a.3.3 0 0 0 .297.303h3.592a.3.3 0 0 0 .296-.303V12.747h0zm-26.03 2.533c0-1.303-1.035-2.357-2.311-2.357s-2.31 1.053-2.31 2.357 1.035 2.358 2.31 2.358 2.311-1.056 2.311-2.358zm-.284 12.424V18.96a.3.3 0 0 0-.296-.302h-3.572c-.164 0-.31.171-.31.337v12.527c0 .368.227.478.521.478h3.218c.353 0 .44-.175.44-.484v-3.813zm40.009-9.045h-3.556a.3.3 0 0 0-.296.303v9.288s-.903.668-2.185.668-1.623-.588-1.623-1.856v-8.1a.3.3 0 0 0-.295-.303h-3.609a.3.3 0 0 0-.297.303v8.713c0 3.767 2.079 4.689 4.938 4.689 2.345 0 4.236-1.309 4.236-1.309s.09.69.131.772.147.164.261.164l2.296-.01a.3.3 0 0 0 .297-.302l-.001-12.716a.3.3 0 0 0-.297-.303zm8.192 10.266c-1.233-.038-2.069-.603-2.069-.603v-5.999s.825-.511 1.837-.602c1.281-.116 2.515.275 2.515 3.361 0 3.254-.557 3.896-2.283 3.844h0zm1.403-10.672c-2.02 0-3.393.91-3.393.91v-6.414c0-.039-.007-.079-.022-.115s-.037-.07-.064-.098a.29.29 0 0 0-.096-.066c-.036-.015-.075-.023-.114-.023h-3.593c-.039 0-.078.008-.114.023s-.069.038-.096.066-.05.061-.064.098-.023.076-.022.115v18.942a.3.3 0 0 0 .296.303h2.493c.113 0 .198-.058.26-.161s.152-.873.152-.873 1.469 1.407 4.251 1.407c3.265 0 5.138-1.673 5.138-7.512s-2.991-6.602-5.012-6.602h0zm-39.291.374h-2.688l-.004-3.587c0-.136-.069-.204-.225-.204h-3.663c-.142 0-.219.063-.219.201v3.707l-1.96.484c-.062.018-.116.056-.155.108s-.06.115-.06.18v2.33a.3.3 0 0 0 .296.303h1.878v5.604c0 4.163 2.89 4.571 4.841 4.571.891 0 1.957-.289 2.133-.355.106-.04.168-.151.168-.272l.003-2.563c0-.167-.14-.302-.297-.302s-.557.064-.97.064c-1.32 0-1.768-.62-1.768-1.423v-5.326h2.688c.039 0 .078-.008.114-.023s.069-.038.096-.066a.3.3 0 0 0 .064-.098c.015-.037.022-.076.022-.115v-2.918c0-.167-.133-.302-.296-.302h0z" fill="#11110f"/></g><defs><clipPath id="A"><path fill="#fff" d="M0 0h128v44H0z"/></clipPath></defs></svg>