<svg xmlns="http://www.w3.org/2000/svg" width="24" height="24" fill="none" xmlns:v="https://vecta.io/nano"><path d="M11.99.859C5.667.857.545 5.976.545 12.294c0 4.996 3.204 9.243 7.665 10.803.601.151.509-.276.509-.568v-1.982c-3.47.406-3.61-1.89-3.843-2.273-.47-.803-1.583-1.007-1.25-1.391.79-.407 1.595.102 2.529 1.48.675 1 1.992.831 2.659.665.146-.601.458-1.138.887-1.554-3.595-.644-5.093-2.838-5.093-5.446 0-1.266.417-2.429 1.235-3.367-.522-1.547.049-2.871.125-3.068 1.486-.133 3.03 1.064 3.15 1.158.844-.228 1.808-.348 2.887-.348 1.084 0 2.05.125 2.902.355.289-.22 1.721-1.248 3.101-1.122.074.197.631 1.491.141 3.017.828.941 1.25 2.114 1.25 3.383 0 2.613-1.509 4.809-5.114 5.444a3.26 3.26 0 0 1 .974 2.327v2.876c.021.23 0 .458.383.458 4.528-1.526 7.788-5.804 7.788-10.844A11.44 11.44 0 0 0 11.99.859z" fill="#f26d00"/></svg>