<svg xmlns="http://www.w3.org/2000/svg" width="32" height="32" fill="none" xmlns:v="https://vecta.io/nano"><path d="M15.986.439C7.154.436 0 7.586 0 16.411 0 23.39 4.475 29.322 10.707 31.5c.839.211.711-.386.711-.793V27.94c-4.846.568-5.043-2.639-5.368-3.175-.657-1.122-2.211-1.407-1.746-1.943 1.104-.568 2.229.143 3.532 2.068.943 1.396 2.782 1.161 3.714.928.204-.839.639-1.589 1.239-2.171-5.021-.9-7.114-3.964-7.114-7.607 0-1.768.582-3.393 1.725-4.704-.729-2.161.068-4.011.175-4.286 2.075-.186 4.232 1.486 4.4 1.618 1.179-.318 2.525-.486 4.032-.486 1.514 0 2.864.175 4.054.496.404-.307 2.404-1.743 4.332-1.568.104.275.882 2.082.196 4.214 1.157 1.314 1.746 2.954 1.746 4.725 0 3.65-2.107 6.718-7.143 7.604.431.424.774.93 1.007 1.488s.354 1.157.353 1.762v4.018c.029.321 0 .639.536.639 6.325-2.132 10.879-8.107 10.879-15.146A15.98 15.98 0 0 0 15.986.439z" fill="#000"/></svg>