<svg xmlns="http://www.w3.org/2000/svg" width="90" height="60" fill="none" xmlns:v="https://vecta.io/nano"><g clip-path="url(#A)" fill="#3b4473"><path d="M26.516 25.45v14.693H21.89V21.674l9.551.01c4.057 0 5.439 2.892 5.439 5.519v12.939h-4.618V27.228c0-1.101-.563-1.778-1.923-1.778h-3.823 0zm31.459-.221c-1.581 0-2.805.822-3.316 1.938-.303.67-.407 1.183-.443 2.003h7.118c-.091-2.003-.99-3.941-3.359-3.941zm-3.759 7.124c0 2.392 1.471 4.153 4.097 4.153 2.044 0 3.059-.573 4.241-1.761l2.858 2.758c-1.83 1.826-3.75 2.935-7.132 2.935-4.429 0-8.667-2.441-8.667-9.556 0-6.079 3.7-9.521 8.563-9.521 4.929 0 7.776 4.029 7.776 9.307v1.685H54.217zm-8.509 7.766c-3.769 0-5.368-2.652-5.368-5.272V16.643h4.619v5.032h3.482v3.775h-3.482v9.105c0 1.073.501 1.668 1.603 1.668h1.879v3.896h-2.733zM17.774 19.122h-4.658v-4.473h4.658v4.473zm.012 21.214c-3.488-.339-4.675-2.478-4.675-4.946l.005-13.716h4.67v18.662h0zm55.519-.395c-3.481-.339-4.662-2.475-4.662-4.94v-20.99h4.662v25.93zm16.298-22.896C85.378-3.779 45.393-5.098 19.62 10.764v1.751C45.366-.861 81.881-.782 85.208 18.398c1.113 6.342-2.422 12.955-8.736 16.755v4.973c7.599-2.811 15.393-11.925 13.13-23.081zm-46.85 36.436c-17.787 1.662-36.323-.948-38.917-15-1.269-6.927 1.852-14.27 5.993-18.831v-2.439c-7.454 6.608-11.5 14.975-9.171 24.86C3.63 54.748 19.539 61.931 43.82 59.546c9.607-.948 22.181-4.071 30.923-8.921v-6.891c-7.932 4.775-21.058 8.724-31.99 9.747zm35.94-38.075c0-.229-.132-.301-.434-.301h-.291v.647l.291.008c.302 0 .434-.102.434-.316v-.038h0zm.454 1.604h-.345c-.031 0-.059-.02-.072-.046l-.471-.807c-.008-.016-.049-.036-.065-.036h-.212v.8c0 .043-.029.089-.085.089h-.312c-.039 0-.078-.046-.078-.089v-2.025c0-.117.045-.166.143-.181a6.3 6.3 0 0 1 .571-.025c.573 0 .92.171.92.716v.038a.57.57 0 0 1-.423.602l.488.835c.003.017.014.04.014.06 0 .033-.019.069-.075.069h0zm-.82-2.685c-.85 0-1.537.709-1.537 1.563s.687 1.553 1.537 1.553 1.539-.698 1.539-1.553-.694-1.563-1.539-1.563zm0 3.438c-1.032 0-1.856-.842-1.856-1.875s.823-1.876 1.856-1.876c1.021 0 1.86.844 1.86 1.876s-.839 1.875-1.86 1.875z"/></g><defs><clipPath id="A"><path fill="#fff" d="M0 0h90v60H0z"/></clipPath></defs></svg>