<svg width="162" height="40" viewBox="0 0 162 40" fill="none" xmlns="http://www.w3.org/2000/svg">
<path d="M4.98766 14.351C4.98766 14.351 3.27573 12.0971 2.12729 8.87246C2.12729 8.87246 0.573801 4.83944 1.52521 2.9586C1.52521 2.9586 2.34976 1.22171 3.98945 1.31834C3.98945 1.31834 4.09331 1.31231 4.26519 1.35262C4.78081 1.47352 5.90854 2.01138 6.68029 4.37975C6.68029 4.37975 7.2372 5.89033 7.40696 8.1482C7.40696 8.1482 7.50999 9.33849 7.48985 10.861C7.48985 10.861 7.38397 12.4286 7.29756 13.3591C7.28366 13.5088 7.25958 13.65 7.22369 13.796C7.15026 14.0946 7.01076 14.6268 6.86782 14.9837L6.6801 15.4041C6.6801 15.4041 6.47037 15.9232 6.06488 15.5363C6.06488 15.5363 5.37638 14.9068 4.98766 14.351Z" fill="#2A140B"/>
<path d="M9.66695 22.7998C9.66695 22.7998 9.17002 20.9668 7.33996 20.1272C7.33996 20.1272 6.68634 19.7662 5.84095 20.1692C5.84095 20.1692 5.67091 20.2255 5.4186 20.3878C5.05199 20.6236 4.51166 21.083 4.06681 21.9185C4.06681 21.9185 3.81729 22.377 3.70451 22.8388C3.70451 22.8388 3.57047 23.3006 3.75144 23.8622C3.78819 23.9762 3.83792 24.0944 3.90441 24.2136C3.90441 24.2136 4.15105 24.6995 4.86344 25.2599C4.86344 25.2599 4.88674 25.2793 4.93066 25.3128C5.13241 25.4666 5.76931 25.9182 6.58183 26.1549C6.58183 26.1549 7.40766 26.4075 8.03995 26.4156C8.03995 26.4156 9.10376 26.5141 9.45633 26.0262C9.45633 26.0262 10.0631 25.2141 9.95338 24.1611C9.95338 24.1611 9.88672 23.3548 9.66695 22.7998Z" fill="white"/>
<path d="M12.3373 22.7998C12.3373 22.7998 12.8342 20.9668 14.6643 20.1272C14.6643 20.1272 15.3179 19.7662 16.1633 20.1692C16.1633 20.1692 16.3333 20.2255 16.5857 20.3878C16.9523 20.6236 17.4926 21.083 17.9374 21.9185C17.9374 21.9185 18.187 22.377 18.2997 22.8388C18.2997 22.8388 18.4338 23.3006 18.2528 23.8622C18.2161 23.9762 18.1663 24.0944 18.0998 24.2136C18.0998 24.2136 17.8532 24.6995 17.1408 25.2599C17.1408 25.2599 17.1175 25.2793 17.0736 25.3128C16.8718 25.4666 16.2349 25.9182 15.4224 26.1549C15.4224 26.1549 14.5966 26.4075 13.9643 26.4156C13.9643 26.4156 12.9005 26.5141 12.5479 26.0262C12.5479 26.0262 11.9411 25.2141 12.0509 24.1611C12.0509 24.1611 12.1175 23.3548 12.3373 22.7998Z" fill="white"/>
<path d="M17.0165 14.351C17.0165 14.351 18.7285 12.0971 19.8769 8.87246C19.8769 8.87246 21.4304 4.83944 20.479 2.9586C20.479 2.9586 19.6544 1.22171 18.0147 1.31834C18.0147 1.31834 17.9109 1.31231 17.739 1.35262C17.2234 1.47352 16.0956 2.01138 15.3239 4.37975C15.3239 4.37975 14.767 5.89033 14.5972 8.1482C14.5972 8.1482 14.4942 9.33849 14.5143 10.861C14.5143 10.861 14.6202 12.4286 14.7066 13.3591C14.7205 13.5088 14.7446 13.65 14.7805 13.796C14.8539 14.0946 14.9934 14.6268 15.1364 14.9837L15.3241 15.4041C15.3241 15.4041 15.5338 15.9232 15.9393 15.5363C15.9393 15.5363 16.6278 14.9068 17.0165 14.351Z" fill="#2A140B"/>
<path d="M7.62281 26.1871C7.62281 26.1871 8.85211 26.3804 9.4712 25.2789C9.4712 25.2789 9.79417 24.6668 9.64101 24.1206C9.64101 24.1206 9.45943 23.7155 9.08207 24.0315C9.08207 24.0315 8.8894 24.2547 8.55955 24.1939C8.24212 24.1355 8.02858 23.8904 8.02858 23.5236C8.02858 23.5236 8.02636 23.2446 8.33868 23.0363C8.33868 23.0363 8.64634 22.7638 8.3187 22.451C8.3187 22.451 8.1813 22.3143 7.83214 22.3316C7.83214 22.3316 6.94734 22.2939 6.37243 22.9652C6.37243 22.9652 5.69385 23.5972 5.94002 24.7359C6.18641 25.8745 7.17798 26.1717 7.62281 26.1871Z" fill="#060707"/>
<path d="M16.1497 24.2166C16.1669 23.8668 16.0304 23.7292 16.0304 23.7292C15.7182 23.401 15.4461 23.7092 15.4461 23.7092C15.2382 24.0218 14.9597 24.0198 14.9597 24.0198C14.5935 24.0198 14.3488 23.8057 14.2905 23.4879C14.2298 23.1573 14.4526 22.9645 14.4526 22.9645C14.7681 22.5865 14.3637 22.4047 14.3637 22.4047C13.8184 22.251 13.2073 22.5748 13.2073 22.5748C12.1076 23.1949 12.3006 24.426 12.3006 24.426C12.316 24.8718 12.6127 25.865 13.7494 26.1118C14.8861 26.3584 15.5172 25.6787 15.5172 25.6787C16.1873 25.1028 16.1497 24.2166 16.1497 24.2166Z" fill="#060707"/>
<path d="M21.4498 2.18497C21.4498 2.18497 20.5923 0.423089 18.6538 0.0566052C17.7426 -0.115714 16.8171 0.104521 16.131 0.729372C15.4913 1.31176 14.7528 2.36779 14.3115 4.27047C14.3115 4.27047 13.5102 7.22647 13.4027 10.0445C13.4027 10.0445 13.3828 10.6941 13.3306 11.6772C12.824 11.7372 12.494 12.0031 12.3142 12.2279C12.121 11.5854 11.6833 10.977 11.662 10.9468L11.2225 10.3411L11.4201 11.0633C11.6438 11.8815 11.3415 12.5063 11.159 12.7869C10.7683 12.01 10.7639 11.275 10.7639 11.2674L10.7643 10.885L10.5224 11.1802C10.2041 11.5685 10.0509 11.9549 9.97943 12.264C9.56789 11.3301 9.03382 11.0513 9.00719 11.0379L8.72173 10.8939L8.8154 11.1998C8.93438 11.5885 8.82073 12.0705 8.72617 12.3614C8.71973 12.3486 8.71618 12.3358 8.70996 12.3229C8.64936 11.3091 8.61829 10.5302 8.60719 10.2099L8.65247 10.0036L8.60275 10.0783C8.60208 10.0627 8.60164 10.0445 8.60164 10.0445C8.4942 7.22647 7.69287 4.27047 7.69287 4.27047C7.25159 2.36779 6.51308 1.31176 5.87335 0.729372C5.18722 0.104521 4.26181 -0.115714 3.3506 0.0566052C1.4121 0.423089 0.554611 2.18497 0.554611 2.18497C-0.335952 3.96352 0.113325 6.44281 0.113325 6.44281C0.389461 8.77339 1.77725 11.876 1.77725 11.876C2.45582 13.5733 4.00632 16.3177 4.00632 16.3177C4.19056 16.6452 3.98434 16.7941 3.98434 16.7941C3.17658 17.5665 2.66381 18.4793 2.66381 18.4793C1.59567 20.2366 1.88113 23.1145 2.00588 24.025C2.03518 24.2386 2.06049 24.4527 2.07758 24.6676L2.47269 29.6934C2.60277 32.2365 3.69666 34.8318 4.07757 35.6666C4.05182 36.4263 4.2425 37.3769 5.084 38.2172C5.11952 38.2581 5.98345 39.2249 8.23827 39.767C8.25203 39.7692 9.60962 40 11.0023 40C12.3945 40 13.7521 39.7692 13.7748 39.7652C16.0207 39.2249 16.8842 38.2581 16.9135 38.2243C17.7581 37.3805 17.9519 36.4267 17.927 35.6659C18.3081 34.8303 19.4016 32.2357 19.5317 29.6934L19.9268 24.6676C19.9439 24.4527 19.9692 24.2386 19.9985 24.025C20.1232 23.1145 20.4087 20.2366 19.3406 18.4793C19.3406 18.4793 18.8278 17.5665 18.02 16.7941C18.02 16.7941 17.8138 16.6451 17.998 16.3177C17.998 16.3177 19.5485 13.5733 20.2271 11.876C20.2271 11.876 21.6149 8.77339 21.891 6.44281C21.891 6.44281 22.3403 3.96352 21.4498 2.18497ZM8.878 12.7336C8.89176 12.7029 9.16701 12.0883 9.13682 11.4822C9.36634 11.7068 9.70285 12.1461 9.92971 12.9301L10.1961 12.8754C10.1952 12.8687 10.1339 12.2955 10.5233 11.6503C10.573 12.0029 10.7 12.5539 11.0236 13.1089L11.1177 13.2703L11.2425 13.1316C11.2687 13.1022 11.7694 12.5326 11.7721 11.6485C11.9208 11.9273 12.0727 12.2746 12.1179 12.5953L12.1872 13.0871L12.3785 12.6291C12.3816 12.6219 12.6587 11.9816 13.4205 11.9296C13.2323 12.2217 12.9939 12.7763 13.2442 13.4873L13.2762 13.5776L13.3712 13.5785C13.3721 13.5785 13.3725 13.5785 13.373 13.5785C13.4036 13.5785 13.6123 13.57 13.8178 13.349C14.0811 13.0662 14.2192 12.5766 14.2307 11.8886C14.5019 12.5712 14.8061 13.695 14.3062 14.5008L14.2538 14.587L14.3199 14.6631C14.3466 14.6938 14.8984 15.3524 14.4806 16.7598C14.4078 16.3689 14.2431 15.8909 13.8702 15.6343L13.5736 15.4306L13.6607 15.7806C13.6629 15.7899 13.8538 16.6069 13.2069 18.0477C13.1879 17.3424 12.9357 16.2475 11.7672 15.2728L11.3299 14.9086L11.5546 15.4324C11.5599 15.444 12.0083 16.5415 10.8864 18.1531C10.8913 17.6141 10.8047 16.7158 10.2667 16.0394L10.2267 15.9887L10.1623 15.9878C10.1277 15.9963 10.0003 15.9927 9.83915 16.1542C9.56479 16.4303 9.25091 17.1325 9.20785 18.8912C9.0023 18.2051 8.77855 17.124 8.96989 16.0612L9.03649 15.6921L8.74881 15.9318C8.72572 15.9505 8.25558 16.3569 8.24137 17.4709C7.95103 16.9533 7.56879 16.0505 7.87556 15.2799L7.91285 15.1847L7.83338 15.1216C7.76413 15.0669 6.26491 13.8342 7.31618 10.925C7.33394 11.3679 7.40186 11.9905 7.59498 12.7549L7.89864 13.9556L7.86357 12.7176C7.86357 12.7095 7.84981 12.0514 8.1841 11.2941C8.19875 11.7005 8.29687 12.2435 8.64048 12.7536L8.77678 12.9555L8.878 12.7336ZM2.12752 8.87184C2.12752 8.87184 0.574144 4.83885 1.52553 2.95796C1.52553 2.95796 2.35016 1.22109 3.98989 1.3177C3.98989 1.3177 4.09378 1.3117 4.26558 1.352C4.78123 1.4729 5.90886 2.01076 6.68067 4.37915C6.68067 4.37915 7.2376 5.88972 7.40741 8.1476C7.40741 8.1476 7.46646 8.83471 7.48621 9.83065L7.34815 10.1308C6.3608 12.2778 6.63383 13.6877 7.03272 14.4933C6.98056 14.667 6.92595 14.839 6.86824 14.9831L6.68045 15.4035C6.68045 15.4035 6.47068 15.9226 6.06535 15.5357C6.06535 15.5357 5.37679 14.9061 4.98789 14.3504C4.98789 14.3504 3.27602 12.0965 2.12752 8.87184ZM3.75193 23.8629C3.57102 23.3013 3.7051 22.8394 3.7051 22.8394C3.81786 22.3777 4.06736 21.9192 4.06736 21.9192C4.5122 21.0837 5.05248 20.6242 5.41919 20.3884C5.67157 20.2262 5.8416 20.1699 5.8416 20.1699C6.68688 19.7669 7.3406 20.1278 7.3406 20.1278C9.17056 20.9675 9.66756 22.8004 9.66756 22.8004C9.88732 23.3554 9.95391 24.1617 9.95391 24.1617C10.0638 25.2147 9.45691 26.0269 9.45691 26.0269C9.10441 26.5148 8.04049 26.4163 8.04049 26.4163C7.4083 26.4081 6.58233 26.1556 6.58233 26.1556C5.76991 25.9189 5.13306 25.4673 4.93129 25.3134C4.88733 25.2799 4.86403 25.2605 4.86403 25.2605C4.15149 24.7002 3.9051 24.2143 3.9051 24.2143C3.8385 24.0951 3.78878 23.9769 3.75193 23.8629ZM16.7146 38.0371C16.7066 38.0465 15.8631 38.9816 13.7197 39.4975C13.7064 39.4997 12.3714 39.727 11.0019 39.727C9.6336 39.727 8.29775 39.4997 8.29331 39.4993C6.14105 38.9816 5.2971 38.0465 5.28289 38.0304C3.68246 36.4322 4.58723 34.4604 4.63029 34.3688C5.38989 32.4398 6.35459 31.4294 6.37235 31.4107C7.76968 29.6855 9.62494 29.2522 10.5029 29.1432C10.8107 29.1111 11.0012 29.114 11.0023 29.114C11.0036 29.114 11.3115 29.1107 11.7839 29.1809C12.7346 29.3453 14.3728 29.8564 15.6398 31.4196C15.6491 31.4294 16.6138 32.4398 17.3734 34.3688L17.3774 34.3773C17.3867 34.3977 18.3248 36.4287 16.7146 38.0371ZM17.937 21.9192C17.937 21.9192 18.1865 22.3777 18.2993 22.8394C18.2993 22.8394 18.4333 23.3013 18.2524 23.8629C18.2156 23.9769 18.1659 24.0951 18.0993 24.2143C18.0993 24.2143 17.8529 24.7002 17.1403 25.2605C17.1403 25.2605 17.117 25.2799 17.0731 25.3134C16.8713 25.4673 16.2345 25.9189 15.422 26.1556C15.422 26.1556 14.5961 26.4081 13.9639 26.4163C13.9639 26.4163 12.9 26.5148 12.5475 26.0269C12.5475 26.0269 11.9406 25.2147 12.0505 24.1617C12.0505 24.1617 12.1171 23.3554 12.3368 22.8004C12.3368 22.8004 12.8338 20.9675 14.6638 20.1278C14.6638 20.1278 15.3175 19.7669 16.1628 20.1699C16.1628 20.1699 16.3328 20.2262 16.5852 20.3884C16.9519 20.6242 17.4922 21.0837 17.937 21.9192ZM19.8768 8.87184C18.7283 12.0965 17.0165 14.3504 17.0165 14.3504C16.6276 14.9061 15.939 15.5357 15.939 15.5357C15.5337 15.9226 15.3239 15.4035 15.3239 15.4035L15.1361 14.9831C15.0054 14.6564 14.8797 14.1908 14.8027 13.8839C14.9019 13.2729 14.7754 12.6371 14.6052 12.1261C14.5543 11.4536 14.5142 10.8603 14.5142 10.8603C14.494 9.33788 14.597 8.1476 14.597 8.1476C14.7668 5.88972 15.3237 4.37915 15.3237 4.37915C16.0955 2.01076 17.2231 1.4729 17.7388 1.352C17.9106 1.3117 18.0145 1.3177 18.0145 1.3177C19.6542 1.22109 20.4788 2.95796 20.4788 2.95796C21.4302 4.83885 19.8768 8.87184 19.8768 8.87184Z" fill="#073D47"/>
<path d="M14.5862 14.5419C15.3398 13.1778 14.2369 11.2142 14.1886 11.1295L13.8807 10.5901L13.9312 11.2094C13.9445 11.3736 13.9521 11.5246 13.9546 11.664L13.7065 11.6392C12.9753 11.5656 12.5368 11.9258 12.3134 12.203C12.1204 11.5611 11.6834 10.9541 11.6618 10.9244L11.217 10.3114L11.4169 11.0422C11.6398 11.8574 11.3402 12.4803 11.1579 12.762C10.7686 11.9866 10.7644 11.2538 10.7644 11.2459L10.7648 10.8589L10.5196 11.1579C10.2032 11.544 10.0499 11.9285 9.97749 12.237C9.56596 11.3065 9.03328 11.0282 9.00676 11.0147L8.71794 10.869L8.81279 11.1788C8.93101 11.5652 8.81908 12.0445 8.72491 12.3356C8.31989 11.5332 8.49498 10.7009 8.497 10.6919L8.65456 9.97344L8.24729 10.5851C7.94589 11.0377 7.78182 11.4938 7.69259 11.8664C7.52132 10.8227 7.60628 10.1941 7.6074 10.1864L7.74113 9.24805L7.34533 10.1087C5.85787 13.3426 7.22801 14.9134 7.5856 15.2493C7.15721 16.5233 8.24235 17.9764 8.29 18.0392L8.58668 18.4307L8.53723 17.9415C8.47992 17.3753 8.53791 16.9644 8.62489 16.678C8.56218 18.2472 9.18567 19.6404 9.21601 19.707L9.49179 20.3133L9.47965 19.6471C9.42975 16.8914 9.94288 16.3624 10.107 16.2633C10.7693 17.1807 10.5864 18.5435 10.5843 18.5577L10.5144 19.0523L10.8282 18.6642C11.8826 17.3602 11.9734 16.3187 11.9113 15.7563C13.2929 17.1481 12.8908 18.6234 12.8717 18.6898L12.5404 19.8428L13.1248 18.7959C13.8366 17.5209 13.9641 16.6017 13.9641 16.1073C14.2722 16.5916 14.2616 17.344 14.2614 17.3532L14.2473 18.0628L14.5264 17.4106C15.2398 15.7444 14.7694 14.813 14.5862 14.5419ZM13.7905 11.8745L13.9553 11.7081C13.965 12.5499 13.7901 12.9437 13.6269 13.1278C13.5674 13.1951 13.5096 13.2332 13.4644 13.2546C13.243 12.4398 13.7669 11.8981 13.7905 11.8745Z" fill="#2A140B"/>
<path d="M17.6532 34.3048C16.8516 32.2698 15.8426 31.2298 15.8426 31.2298C13.8519 28.7726 10.9833 28.8105 10.9791 28.8106H10.9789H10.9787C10.9744 28.8105 8.10573 28.7726 6.11504 31.2298C6.11504 31.2298 5.10602 32.2698 4.30445 34.3048C4.30445 34.3048 3.26967 36.4817 5.00639 38.2162C5.00639 38.2162 5.8743 39.2114 8.16409 39.7619C8.16409 39.7619 9.54426 39.9993 10.9787 39.9993C10.9787 39.9993 10.9787 39.9993 10.9789 39.9993C10.9789 39.9993 10.9789 39.9993 10.9791 39.9993C12.4136 39.9993 13.7937 39.7619 13.7937 39.7619C16.0835 39.2114 16.9512 38.2162 16.9512 38.2162C18.6879 36.4817 17.6532 34.3048 17.6532 34.3048Z" fill="#C5875D"/>
<path d="M7.60421 34.9184C7.60421 34.9184 8.31231 35.4068 9.20509 35.7936C9.20509 35.7936 9.58933 36.0074 9.75958 35.93C9.75958 35.93 9.95381 35.8698 9.96691 35.6911C9.96691 35.6911 9.96047 35.5981 9.89987 35.5193C9.89987 35.5193 9.1345 34.5636 8.93273 33.7176C8.93273 33.7176 8.84882 33.5278 8.83217 33.0839C8.83217 33.0839 8.84682 32.3804 8.28856 32.0435C8.28856 32.0435 7.96026 31.7938 7.45349 31.8346C7.45349 31.8346 6.42131 31.9045 6.31254 33.0002C6.31254 33.0002 6.30166 33.5621 6.64261 34.0482C6.98335 34.5343 7.60421 34.9184 7.60421 34.9184Z" fill="#060707"/>
<path d="M12.2444 35.93C12.4147 36.0074 12.7989 35.7936 12.7989 35.7936C13.6917 35.4068 14.3998 34.9184 14.3998 34.9184C14.3998 34.9184 15.0204 34.5343 15.3614 34.0482C15.7024 33.5621 15.6913 33.0002 15.6913 33.0002C15.5827 31.9045 14.5505 31.8346 14.5505 31.8346C14.0438 31.7938 13.7155 32.0435 13.7155 32.0435C13.1572 32.3804 13.1718 33.0839 13.1718 33.0839C13.155 33.5278 13.0711 33.7176 13.0711 33.7176C12.8695 34.5636 12.1041 35.5193 12.1041 35.5193C12.0433 35.5981 12.0371 35.6911 12.0371 35.6911C12.05 35.8698 12.2444 35.93 12.2444 35.93Z" fill="#060707"/>
<path d="M6.12695 36.5449C7.99243 39.1805 10.9045 39.072 10.994 39.068C11.0836 39.072 14.0117 39.1805 15.8772 36.5449C15.8772 36.5449 13.4597 38.1946 10.9933 38.1981C8.52739 38.194 6.12695 36.5449 6.12695 36.5449Z" fill="white"/>
<path d="M43.7979 13.597H37.4315H37.4139H31.9974C31.9974 13.597 27.5055 13.3931 27.5103 18.0069V29.8195C27.5103 29.8195 27.5777 33.8451 32.0683 33.829L38.6185 33.8313L38.6191 33.829H43.7272C48.2176 33.8451 48.2851 30.172 48.2851 30.172V18.0069C48.2898 13.3931 43.7979 13.597 43.7979 13.597ZM45.5706 18.9199V28.9466C45.5706 31.4514 43.3244 31.2475 43.3244 31.2475H38.7099C38.6943 31.2478 38.681 31.2534 38.6659 31.2557C38.6496 31.2524 38.6322 31.2478 38.6185 31.2475H32.4709C32.4709 31.2475 30.2247 31.4514 30.2247 28.9466V18.9199C30.2247 18.9199 29.9091 16.1608 33.0754 16.1608H37.4139H37.4315H42.72C45.8863 16.1608 45.5706 18.9199 45.5706 18.9199Z" fill="#F26D00"/>
<path d="M61.1421 18.9336H50.359C50.1737 18.9336 50.0234 19.0839 50.0234 19.2694V39.2432C50.0234 39.429 50.1737 39.5793 50.359 39.5793H52.3305C52.5157 39.5793 52.6659 39.429 52.6659 39.2432V33.8299H61.7028C65.19 33.8299 65.1909 30.2532 65.1909 30.2532C65.1909 30.2532 65.1909 26.786 65.1909 22.9471C65.1909 19.1086 61.1421 18.9336 61.1421 18.9336ZM62.5558 29.1376C62.5558 31.4145 60.331 31.2484 60.331 31.2484H55.8238H52.6659V21.8492C52.6659 21.6637 52.8162 21.5131 53.0015 21.5131H60.2234C62.6281 21.5131 62.5558 23.3424 62.5558 23.3424C62.5558 23.3424 62.5558 26.6508 62.5558 29.1376Z" fill="#F26D00"/>
<path d="M77.9021 18.932H70.8606C66.9842 18.932 66.874 22.7432 66.874 22.7432V30.3262C66.874 33.9342 70.0015 33.8283 70.0015 33.8283H80.3258C80.5111 33.8283 80.6613 33.6776 80.6613 33.4921V31.5845C80.6613 31.399 80.5111 31.2484 80.3258 31.2484H71.6472C69.3276 31.2484 69.4606 29.3178 69.4606 29.3178V27.7434H81.6902C81.8756 27.7434 82.0258 27.5931 82.0258 27.4076V22.6879C82.0258 18.8228 77.9021 18.932 77.9021 18.932ZM79.4255 24.8149C79.4255 25.0007 79.316 25.1514 79.0899 25.1514H69.4606V23.9035C69.4606 21.2651 71.4085 21.5131 71.4085 21.5131H77.3518C79.4338 21.5131 79.4255 23.3424 79.4255 23.3424V24.8149Z" fill="#F26D00"/>
<path d="M95.0938 18.9337H87.6734C87.6734 18.9337 83.709 18.8472 83.709 23.2261V33.4922C83.709 33.6781 83.8592 33.8284 84.0446 33.8284H85.9966C86.1819 33.8284 86.3321 33.6781 86.3321 33.4922V23.6198C86.3321 23.6198 86.2541 21.5132 88.667 21.5132H94.313C94.313 21.5132 96.4863 21.3152 96.4863 23.7208V33.4922C96.4863 33.6777 96.6365 33.8284 96.8217 33.8284H98.7662C98.9514 33.8284 99.1016 33.6777 99.1016 33.4922V22.6361C99.1016 22.6361 98.8806 18.9337 95.0938 18.9337Z" fill="#F26D00"/>
<path d="M119.737 13.5801H105.641C100.661 13.5801 100.77 17.8238 100.77 17.8238C100.77 17.8238 100.77 25.0881 100.77 29.5637C100.77 34.04 105.309 33.8281 105.309 33.8281H119.737C119.923 33.8281 120.073 33.6778 120.073 33.492V31.5923C120.073 31.4032 119.918 31.2483 119.729 31.2483H106.892C103.233 31.4953 103.502 28.7987 103.502 28.7987V24.5694H117.129C117.228 24.5694 117.309 24.4882 117.309 24.3882V22.3415C117.309 22.2418 117.228 22.1606 117.129 22.1606H103.502V19.0963C103.502 15.7903 106.126 16.1619 106.126 16.1619H119.737C119.923 16.1619 120.073 16.0113 120.073 15.8258V13.9162C120.073 13.7307 119.923 13.5801 119.737 13.5801Z" fill="#F26D00"/>
<path d="M158.002 22.1606H147.849C145.57 22.1606 145.607 20.0823 145.607 20.0823V18.4865C145.607 15.9702 147.818 16.1619 147.818 16.1619H160.554C160.74 16.1619 160.891 16.0106 160.891 15.8238V13.9182C160.891 13.7314 160.74 13.5801 160.554 13.5801H146.85C142.415 13.5801 142.875 17.4541 142.875 17.4541V20.9897C142.875 24.7796 146.818 24.5694 146.818 24.5694H156.689C159.657 24.5694 159.313 26.9661 159.313 26.9661V28.6244C159.313 31.6594 157.002 31.2483 157.002 31.2483H142.875V33.8298H158.064C161.906 33.8298 162 30.0011 162 30.0011V25.8396C162 22.1162 158.002 22.1606 158.002 22.1606Z" fill="#F26D00"/>
<path d="M137.437 13.5801H124.458H121.727V33.0105C121.727 33.4624 122.092 33.8281 122.543 33.8281H124.149V33.8413L137.437 33.7893C141.392 33.7893 141.267 30.1208 141.267 30.1208V25.7183C141.267 23.4805 139.386 23.365 139.386 23.365C141.447 22.8325 141.267 20.9861 141.267 20.9861L141.319 17.2808C141.319 13.6498 137.437 13.5801 137.437 13.5801ZM138.486 29.3868C138.486 31.2588 136.741 31.2483 136.741 31.2483H124.458V24.5694H136.704C138.536 24.5694 138.486 26.1587 138.486 26.1587V29.3868ZM138.486 20.5457C138.486 21.9031 136.741 22.1234 136.741 22.1234H124.458V16.1066H136.668C138.316 16.1066 138.486 17.6844 138.486 17.6844V20.5457Z" fill="#F26D00"/>
</svg>
