<svg xmlns="http://www.w3.org/2000/svg" width="162" height="40" fill="none" xmlns:v="https://vecta.io/nano"><path d="M4.988 14.351s-1.712-2.254-2.86-5.479c0 0-1.553-4.033-.602-5.914 0 0 .825-1.737 2.464-1.64 0 0 .104-.006.276.034.516.121 1.643.659 2.415 3.027 0 0 .557 1.511.727 3.768 0 0 .103 1.19.083 2.713l-.192 2.498a2.94 2.94 0 0 1-.074.437c-.073.299-.213.831-.356 1.188l-.188.42s-.21.519-.615.132c0 0-.688-.63-1.077-1.185z" fill="#2a140b"/><path d="M9.667 22.8s-.497-1.833-2.327-2.673c0 0-.654-.361-1.499.042 0 0-.17.056-.422.219-.367.236-.907.695-1.352 1.531 0 0-.25.458-.362.92 0 0-.134.462.047 1.023a1.92 1.92 0 0 0 .153.351s.247.486.959 1.046l.067.053c.202.154.839.605 1.651.842 0 0 .826.253 1.458.261 0 0 1.064.098 1.416-.389 0 0 .607-.812.497-1.865 0 0-.067-.806-.286-1.361zm2.67 0s.497-1.833 2.327-2.673c0 0 .654-.361 1.499.042 0 0 .17.056.422.219.367.236.907.695 1.352 1.531a4.44 4.44 0 0 0 .362.92s.134.462-.047 1.023a1.94 1.94 0 0 1-.153.351s-.247.486-.959 1.046l-.067.053c-.202.154-.839.605-1.651.842 0 0-.826.253-1.458.261 0 0-1.064.098-1.416-.389 0 0-.607-.812-.497-1.865 0 0 .067-.806.286-1.361z" fill="#fff"/><path d="M17.017 14.351s1.712-2.254 2.86-5.479c0 0 1.553-4.033.602-5.914 0 0-.825-1.737-2.464-1.64 0 0-.104-.006-.276.034-.516.121-1.643.659-2.415 3.027 0 0-.557 1.511-.727 3.768 0 0-.103 1.19-.083 2.713l.192 2.498a2.94 2.94 0 0 0 .074.437 10.25 10.25 0 0 0 .356 1.188l.188.42s.21.519.615.132c0 0 .689-.63 1.077-1.185z" fill="#2a140b"/><path d="M7.623 26.187s1.229.193 1.848-.908c0 0 .323-.612.17-1.158 0 0-.182-.405-.559-.089 0 0-.193.223-.523.162-.317-.058-.531-.303-.531-.67 0 0-.002-.279.31-.487 0 0 .308-.273-.02-.585 0 0-.137-.137-.487-.119 0 0-.885-.038-1.46.634 0 0-.679.632-.432 1.771s1.238 1.436 1.683 1.451zm8.527-1.97c.017-.35-.119-.487-.119-.487-.312-.328-.584-.02-.584-.02-.208.313-.486.311-.486.311-.366 0-.611-.214-.669-.532-.061-.331.162-.523.162-.523.316-.378-.089-.56-.089-.56-.545-.154-1.156.17-1.156.17-1.1.62-.907 1.851-.907 1.851.015.446.312 1.439 1.449 1.686s1.768-.433 1.768-.433c.67-.576.632-1.462.632-1.462z" fill="#060707"/><path d="M21.45 2.185S20.592.423 18.654.057c-.911-.172-1.837.048-2.523.673-.64.582-1.378 1.638-1.819 3.541 0 0-.801 2.956-.909 5.774l-.072 1.633c-.507.06-.837.326-1.016.551-.193-.643-.631-1.251-.652-1.281l-.44-.606.198.722c.224.818-.079 1.443-.261 1.724a3.78 3.78 0 0 1-.395-1.519v-.382l-.242.295c-.318.388-.471.775-.543 1.084-.412-.934-.946-1.213-.972-1.226l-.285-.144.094.306c.119.389.005.871-.089 1.162-.006-.013-.01-.026-.016-.038l-.103-2.113.045-.206-.05.075-.001-.034c-.107-2.818-.909-5.774-.909-5.774-.441-1.903-1.18-2.959-1.82-3.541C5.187.105 4.262-.116 3.351.057 1.412.423.555 2.185.555 2.185-.336 3.964.113 6.443.113 6.443c.276 2.331 1.664 5.433 1.664 5.433.679 1.697 2.229 4.442 2.229 4.442.184.328-.022.476-.022.476-.808.772-1.321 1.685-1.321 1.685-1.068 1.757-.783 4.635-.658 5.546l.072.643.395 5.026c.13 2.543 1.224 5.138 1.605 5.973-.026.76.165 1.71 1.006 2.551.036.041.899 1.008 3.154 1.55.014.002 1.371.233 2.764.233s2.75-.231 2.773-.235c2.246-.54 3.109-1.507 3.139-1.541.845-.844 1.038-1.798 1.014-2.558.381-.836 1.475-3.43 1.605-5.972l.395-5.026.072-.643c.125-.91.41-3.788-.658-5.546 0 0-.513-.913-1.321-1.685 0 0-.206-.149-.022-.476l2.229-4.442s1.388-3.103 1.664-5.433c0 0 .449-2.479-.441-4.258zM8.878 12.734c.014-.031.289-.645.259-1.251.23.225.566.664.793 1.448l.266-.055c-.001-.007-.062-.58.327-1.225a4.06 4.06 0 0 0 .5 1.459l.094.161.125-.139c.026-.029.527-.599.53-1.483.149.279.301.626.346.947l.069.492.191-.458a1.25 1.25 0 0 1 1.042-.699 1.74 1.74 0 0 0-.176 1.558l.032.09.095.001a.64.64 0 0 0 .447-.229c.263-.283.401-.772.413-1.46.271.683.575 1.806.075 2.612l-.052.086.066.076c.027.031.579.689.161 2.097-.073-.391-.238-.869-.61-1.125l-.297-.204.087.35c.002.009.193.826-.454 2.267-.019-.705-.271-1.8-1.44-2.775l-.437-.364.225.524c.005.012.454 1.109-.668 2.721.005-.539-.082-1.437-.62-2.114l-.04-.051-.064-.001c-.035.008-.162.005-.323.166-.274.276-.588.978-.631 2.737-.206-.686-.429-1.767-.238-2.83l.067-.369-.288.24c-.023.019-.493.425-.507 1.539-.29-.518-.673-1.42-.366-2.191l.037-.095-.079-.063c-.069-.055-1.568-1.287-.517-4.197.018.443.086 1.066.279 1.83l.304 1.201-.035-1.238c0-.008-.014-.666.321-1.423.015.406.113.949.456 1.46l.136.202.101-.222zm-6.75-3.862S.574 4.839 1.526 2.958c0 0 .825-1.737 2.464-1.64 0 0 .104-.006.276.034.516.121 1.643.659 2.415 3.027 0 0 .557 1.511.727 3.768l.079 1.683-.138.3c-.987 2.147-.714 3.557-.315 4.362l-.164.49-.188.42s-.21.519-.615.132c0 0-.689-.63-1.077-1.185 0 0-1.712-2.254-2.86-5.479zm1.624 14.991c-.181-.562-.047-1.023-.047-1.023.113-.462.362-.92.362-.92.445-.835.985-1.295 1.352-1.531.252-.162.422-.219.422-.219.845-.403 1.499-.042 1.499-.042 1.83.84 2.327 2.673 2.327 2.673.22.555.286 1.361.286 1.361.11 1.053-.497 1.865-.497 1.865-.353.488-1.416.389-1.416.389-.632-.008-1.458-.261-1.458-.261-.812-.237-1.449-.688-1.651-.842l-.067-.053c-.713-.56-.959-1.046-.959-1.046-.067-.119-.116-.237-.153-.351zm12.963 14.174c-.008.009-.852.944-2.995 1.46-.013.002-1.348.229-2.718.229s-2.704-.227-2.709-.228c-2.152-.518-2.996-1.453-3.01-1.469-1.6-1.598-.696-3.57-.653-3.662.76-1.929 1.724-2.939 1.742-2.958 1.397-1.725 3.253-2.158 4.131-2.267l.499-.029c.001 0 .309-.003.782.067.951.164 2.589.675 3.856 2.239.009.01.974 1.02 1.734 2.949l.004.008c.009.02.947 2.051-.663 3.66zm1.222-16.118s.249.459.362.92c0 0 .134.462-.047 1.023-.037.114-.087.232-.153.351 0 0-.246.486-.959 1.046l-.067.053c-.202.154-.839.605-1.651.842 0 0-.826.253-1.458.261 0 0-1.064.099-1.416-.389 0 0-.607-.812-.497-1.865 0 0 .067-.806.286-1.361 0 0 .497-1.833 2.327-2.673 0 0 .654-.361 1.499.042 0 0 .17.056.422.219.367.236.907.695 1.352 1.531zm1.94-13.047c-1.148 3.225-2.86 5.479-2.86 5.479-.389.556-1.078 1.185-1.078 1.185-.405.387-.615-.132-.615-.132l-.188-.42a9.64 9.64 0 0 1-.333-1.099c.099-.611-.027-1.247-.197-1.758l-.091-1.266.083-2.713c.17-2.258.727-3.768.727-3.768.772-2.368 1.899-2.906 2.415-3.027.172-.04.276-.034.276-.034 1.64-.097 2.464 1.64 2.464 1.64.951 1.881-.602 5.914-.602 5.914z" fill="#073d47"/><path d="M14.586 14.542c.754-1.364-.349-3.328-.398-3.412l-.308-.539.051.619.023.455-.248-.025a1.52 1.52 0 0 0-1.393.564 4.93 4.93 0 0 0-.652-1.279l-.445-.613.2.731a2.11 2.11 0 0 1-.259 1.72c-.389-.775-.393-1.508-.393-1.516v-.387l-.245.299c-.316.386-.47.771-.542 1.079-.412-.931-.944-1.209-.971-1.222l-.289-.146.095.31c.118.386.006.866-.088 1.157-.405-.802-.23-1.635-.228-1.644l.158-.718-.407.612a3.99 3.99 0 0 0-.555 1.281c-.171-1.044-.086-1.672-.085-1.68l.134-.938-.396.861c-1.487 3.234-.117 4.805.24 5.141-.428 1.274.657 2.727.704 2.79l.297.392-.049-.489c-.057-.566.001-.977.088-1.264-.063 1.569.561 2.962.591 3.029l.276.606-.012-.666c-.05-2.756.463-3.285.627-3.384.662.917.479 2.28.477 2.294l-.07.495.314-.388c1.054-1.304 1.145-2.346 1.083-2.908 1.382 1.392.979 2.867.96 2.934l-.331 1.153.584-1.047c.712-1.275.839-2.194.839-2.689.308.484.297 1.237.297 1.246l-.014.71.279-.652c.713-1.666.243-2.598.06-2.869zm-.796-2.667l.165-.166c.01.842-.165 1.236-.328 1.42a.51.51 0 0 1-.162.127 1.47 1.47 0 0 1 .326-1.38z" fill="#2a140b"/><path d="M17.653 34.305c-.802-2.035-1.811-3.075-1.811-3.075a6.64 6.64 0 0 0-4.863-2.419h0 0a6.64 6.64 0 0 0-4.864 2.419s-1.009 1.04-1.811 3.075c0 0-1.035 2.177.702 3.911 0 0 .868.995 3.158 1.546 0 0 1.38.237 2.815.237s2.815-.237 2.815-.237c2.29-.55 3.158-1.546 3.158-1.546 1.737-1.735.702-3.911.702-3.911z" fill="#c5875d"/><path d="M7.604 34.918a10.53 10.53 0 0 0 1.601.875s.384.214.554.136c0 0 .194-.06.207-.239 0 0-.006-.093-.067-.172 0 0-.765-.956-.967-1.802 0 0-.084-.19-.101-.634 0 0 .015-.703-.544-1.04 0 0-.328-.25-.835-.209 0 0-1.032.07-1.141 1.166 0 0-.011.562.33 1.048s.962.87.962.87zm4.64 1.012c.17.077.554-.136.554-.136.893-.387 1.601-.875 1.601-.875s.621-.384.962-.87.33-1.048.33-1.048c-.109-1.096-1.141-1.166-1.141-1.166-.507-.041-.835.209-.835.209-.558.337-.544 1.04-.544 1.04-.017.444-.101.634-.101.634-.202.846-.967 1.802-.967 1.802-.061.079-.067.172-.067.172.013.179.207.239.207.239z" fill="#060707"/><path d="M6.127 36.545a5.99 5.99 0 0 0 4.867 2.523c.09.004 3.018.113 4.883-2.523 0 0-2.418 1.65-4.884 1.653-2.466-.004-4.866-1.653-4.866-1.653z" fill="#fff"/><path d="M43.798 13.597h-6.366-.018-5.416s-4.492-.204-4.487 4.41V29.82s.067 4.026 4.558 4.009l6.55.002v-.002h5.108c4.49.016 4.558-3.657 4.558-3.657V18.007c.005-4.614-4.487-4.41-4.487-4.41zm1.773 5.323v10.027c0 2.505-2.246 2.301-2.246 2.301H38.71c-.016 0-.029.006-.044.008s-.034-.008-.047-.008h-6.148s-2.246.204-2.246-2.301V18.92s-.316-2.759 2.851-2.759h4.338.018 5.288c3.166 0 2.851 2.759 2.851 2.759zm15.571.014H50.359c-.185 0-.336.15-.336.336v19.974c0 .186.15.336.336.336h1.971c.185 0 .335-.15.335-.336V33.83h9.037c3.487 0 3.488-3.577 3.488-3.577v-7.306c0-3.838-4.049-4.014-4.049-4.014zm1.414 10.204c0 2.277-2.225 2.111-2.225 2.111h-4.507-3.158V21.85c0-.186.15-.336.336-.336h7.222c2.405 0 2.332 1.829 2.332 1.829v5.795zm15.346-10.206h-7.041c-3.876 0-3.987 3.811-3.987 3.811v7.583c0 3.608 3.127 3.502 3.127 3.502h10.324c.185 0 .335-.151.335-.336v-1.908c0-.185-.15-.336-.335-.336h-8.679c-2.32 0-2.187-1.931-2.187-1.931v-1.574h12.23c.185 0 .336-.15.336-.336v-4.72c0-3.865-4.124-3.756-4.124-3.756zm1.523 5.883a.31.31 0 0 1-.336.336H69.46v-1.248c0-2.638 1.948-2.39 1.948-2.39h5.943c2.082 0 2.074 1.829 2.074 1.829v1.473zm15.669-5.881h-7.42s-3.964-.087-3.964 4.292v10.266c0 .186.15.336.336.336h1.952c.185 0 .335-.15.335-.336V23.62s-.078-2.107 2.335-2.107h5.646s2.173-.198 2.173 2.208v9.771c0 .186.15.336.335.336h1.944c.185 0 .335-.151.335-.336V22.636s-.221-3.702-4.008-3.702zm24.643-5.354h-14.096c-4.98 0-4.871 4.244-4.871 4.244v11.74c0 4.476 4.539 4.264 4.539 4.264h14.428c.186 0 .336-.15.336-.336v-1.9c0-.189-.155-.344-.344-.344h-12.837c-3.659.247-3.39-2.45-3.39-2.45v-4.229h13.627a.18.18 0 0 0 .18-.181v-2.047a.18.18 0 0 0-.18-.181h-13.627v-3.064c0-3.306 2.624-2.934 2.624-2.934h13.611c.186 0 .336-.151.336-.336v-1.91c0-.185-.15-.336-.336-.336zm38.265 8.581h-10.153c-2.279 0-2.242-2.078-2.242-2.078v-1.596c0-2.516 2.211-2.325 2.211-2.325h12.736c.186 0 .337-.151.337-.338v-1.906c0-.187-.151-.338-.337-.338H146.85c-4.435 0-3.975 3.874-3.975 3.874v3.536c0 3.79 3.943 3.58 3.943 3.58h9.871c2.968 0 2.624 2.397 2.624 2.397v1.658c0 3.035-2.311 2.624-2.311 2.624h-14.127v2.581h15.189c3.842 0 3.936-3.829 3.936-3.829V25.84c0-3.723-3.998-3.679-3.998-3.679zm-20.565-8.581h-12.979-2.731v19.43c0 .452.365.818.816.818h1.606v.013l13.288-.052c3.955 0 3.83-3.668 3.83-3.668v-4.402c0-2.238-1.881-2.353-1.881-2.353 2.061-.532 1.881-2.379 1.881-2.379l.052-3.705c0-3.631-3.882-3.701-3.882-3.701zm1.049 15.807c0 1.872-1.745 1.861-1.745 1.861h-12.283v-6.679h12.246c1.832 0 1.782 1.589 1.782 1.589v3.228zm0-8.841c0 1.357-1.745 1.578-1.745 1.578h-12.283v-6.017h12.21c1.648 0 1.818 1.578 1.818 1.578v2.861z" fill="#f26d00"/></svg>