<svg xmlns="http://www.w3.org/2000/svg" width="178" height="40" fill="none" xmlns:v="https://vecta.io/nano"><g clip-path="url(#A)" fill="#62a7bd"><path d="M132.364 12.327c-.944-.891-2.078-1.557-3.371-1.979-1.288-.421-3.259-.626-6.026-.626h-4.499v19.726h6.539c2.584 0 4.592-.425 5.97-1.263s2.457-2.019 3.203-3.504a10.4 10.4 0 0 0 1.114-4.713c0-1.641-.252-3.114-.75-4.378-.502-1.274-1.236-2.372-2.18-3.263zm-.306 7.437c0 1.116-.179 2.108-.533 2.949-.349.831-.863 1.543-1.529 2.116s-1.453.961-2.35 1.163c-.942.211-2.49.319-4.602.319h-1.416v-13.4h.6c2.049 0 3.638.104 4.722.31 1.035.196 1.948.592 2.712 1.177.759.581 1.353 1.346 1.766 2.273.418.94.63 1.981.63 3.093zm27.616-10.071h-3.03v4.986h-2.299v2.797h2.299v9.12c0 .964.237 1.695.705 2.174s1.175.726 2.094.726c.439 0 1.05-.067 1.868-.202l.418-.07V26.56h-1.675c-.183 0-.302-.009-.369-.014a1.86 1.86 0 0 1-.011-.219v-8.85h2.642V14.68h-2.642V9.693zm-96.582.02l-6.989 14.212-7.038-14.212h-1.316L44.94 29.495h3.182l1.571-11.61 5.753 11.61h1.314l5.68-11.505 1.57 11.505h3.234L64.408 9.713h-1.316zm17.362 6.544c-1.224-1.071-2.672-1.613-4.319-1.613-2.039 0-3.792.732-5.208 2.176a7.21 7.21 0 0 0-2.132 5.219c0 2.022.712 3.783 2.117 5.239 1.409 1.462 3.13 2.204 5.115 2.204 1.628 0 3.113-.566 4.427-1.684v1.697l2.925-.013V14.679h-2.925v1.578zm-1.18 2.595c.859.882 1.276 1.947 1.276 3.259s-.424 2.37-1.296 3.243-1.88 1.297-3.084 1.297c-1.215 0-2.23-.441-3.101-1.35a4.43 4.43 0 0 1-1.303-3.201c0-1.242.419-2.291 1.282-3.205.855-.906 1.872-1.346 3.11-1.346a4.15 4.15 0 0 1 3.115 1.304zm33.612-2.595c-1.224-1.071-2.672-1.613-4.319-1.613-2.039 0-3.792.732-5.208 2.176a7.21 7.21 0 0 0-2.132 5.219c0 2.02.712 3.783 2.116 5.239 1.41 1.462 3.131 2.204 5.116 2.204 1.628 0 3.112-.566 4.427-1.684v1.697l2.925-.013V14.679h-2.925v1.578zm-1.18 2.595c.859.882 1.276 1.947 1.276 3.259s-.424 2.37-1.296 3.243-1.88 1.297-3.083 1.297c-1.216 0-2.23-.441-3.101-1.35S104.2 23.34 104.2 22.1a4.48 4.48 0 0 1 1.281-3.205c.855-.906 1.872-1.346 3.11-1.346a4.15 4.15 0 0 1 3.115 1.304zm37.197-2.595a6.37 6.37 0 0 0-4.32-1.613c-2.039 0-3.791.732-5.208 2.176s-2.132 3.197-2.132 5.219a7.31 7.31 0 0 0 2.117 5.239c1.409 1.462 3.13 2.204 5.116 2.204 1.627 0 3.112-.566 4.427-1.684v1.697l2.925-.013V14.679h-2.925v1.578zm-1.18 2.595c.858.882 1.276 1.947 1.276 3.259s-.424 2.37-1.296 3.243-1.88 1.297-3.084 1.297c-1.215 0-2.229-.441-3.1-1.35-.877-.913-1.303-1.961-1.303-3.201s.419-2.291 1.282-3.205a4.07 4.07 0 0 1 3.109-1.346c1.237 0 2.26.427 3.116 1.304zm27.353-2.595a6.37 6.37 0 0 0-4.32-1.613c-2.039 0-3.791.732-5.208 2.176a7.21 7.21 0 0 0-2.132 5.219 7.31 7.31 0 0 0 2.117 5.239c1.409 1.462 3.13 2.204 5.115 2.204 1.628 0 3.113-.566 4.428-1.684v1.697l2.925-.013V14.679h-2.925v1.578zm-1.18 2.595c.858.882 1.276 1.947 1.276 3.259s-.424 2.37-1.296 3.243a4.17 4.17 0 0 1-3.084 1.297c-1.215 0-2.229-.441-3.1-1.35-.877-.913-1.303-1.961-1.303-3.201s.419-2.291 1.282-3.205a4.07 4.07 0 0 1 3.109-1.346c1.241 0 2.26.427 3.116 1.304zm-80.64 5.173l-4.188-9.345h-3.261l5.801 13.085-2.843 6.504h3.26l8.565-19.589h-3.287l-4.048 9.345zm-86.41-9.649v18.911c0 .482.257.853.674 1.093l9.225 5.418c.415.239.926.284 1.341.045l9.223-5.446c.418-.241.676-.626.676-1.109V14.359l-10.57 6.298-10.57-6.281zM3.721 31.308V13.053c0-.279.07-.632.615-.902l12.695-7.563c.238-.136.53-.136.768 0l12.932 7.703c.242.138.383.229.378.546v18.47c0 .383.423.564.757.378l2.6-1.545a.66.66 0 0 0 .365-.625V10.62c0-.333-.111-.447-.35-.586L17.805.105c-.24-.14-.537-.14-.778-.001L.382 10.024a.74.74 0 0 0-.382.653v18.838a.67.67 0 0 0 .348.616l2.625 1.56c.335.202.749.008.749-.383z"/><path d="M24.948 12.603l-7.533-4.476-7.533 4.476 7.533 4.476 7.533-4.476z"/></g><defs><clipPath id="A"><path fill="#fff" d="M0 0h178v40H0z"/></clipPath></defs></svg>