<svg xmlns="http://www.w3.org/2000/svg" xmlns:xlink="http://www.w3.org/1999/xlink" width="278" height="60" fill="none" xmlns:v="https://vecta.io/nano"><g clip-path="url(#A)" fill="#3b4473"><path d="M206.725 18.489c-1.476-1.337-3.247-2.335-5.265-2.969-2.012-.631-5.09-.938-9.411-.938h-7.028V44.17h10.213c4.035 0 7.172-.637 9.324-1.894s3.837-3.028 5.003-5.256a15.09 15.09 0 0 0 1.74-7.069c0-2.462-.394-4.671-1.172-6.567-.784-1.911-1.93-3.558-3.404-4.895zm-.478 11.155c0 1.674-.28 3.161-.833 4.424-.545 1.246-1.348 2.314-2.388 3.175-1.034.856-2.269 1.442-3.669 1.744-1.471.317-3.89.478-7.189.478h-2.212V19.364h.938c3.201 0 5.682.156 7.374.465 1.618.295 3.043.888 4.237 1.766 1.184.871 2.112 2.018 2.757 3.409.653 1.41.985 2.972.985 4.639zm43.131-15.105h-4.733v7.479h-3.59v4.195h3.59v13.679c0 1.447.371 2.543 1.102 3.261s1.835 1.089 3.27 1.089c.686 0 1.64-.1 2.917-.303l.653-.105v-3.996h-2.615c-.286 0-.471-.014-.577-.022a2.76 2.76 0 0 1-.017-.329V26.213h4.126v-4.195h-4.126v-7.479zm-150.842.031L87.62 35.888 76.628 14.57h-2.055l-4.385 29.673h4.97l2.454-17.415 8.986 17.415h2.053l8.868-17.257 2.451 17.257h5.05l-4.427-29.673h-2.056zm27.117 9.816c-1.911-1.606-4.173-2.419-6.746-2.419-3.185 0-5.921 1.099-8.134 3.264s-3.33 4.796-3.33 7.828 1.113 5.674 3.307 7.859c2.201 2.194 4.889 3.306 7.989 3.306 2.542 0 4.861-.848 6.914-2.526v2.545l4.568-.02V22.019h-4.568v2.367zm-1.843 3.893c1.341 1.322 1.993 2.921 1.993 4.888s-.662 3.555-2.024 4.864-2.936 1.946-4.816 1.946c-1.898 0-3.482-.662-4.842-2.026-1.369-1.37-2.034-2.941-2.034-4.802s.654-3.436 2.001-4.807c1.335-1.359 2.924-2.02 4.857-2.02 1.938 0 3.53.64 4.865 1.957zm52.494-3.893c-1.912-1.606-4.174-2.419-6.746-2.419-3.185 0-5.922 1.099-8.134 3.264s-3.33 4.796-3.33 7.828 1.112 5.674 3.306 7.859c2.201 2.194 4.889 3.306 7.989 3.306 2.542 0 4.861-.848 6.915-2.526v2.545l4.568-.02V22.019h-4.568v2.367zm-1.843 3.893c1.341 1.322 1.993 2.921 1.993 4.888s-.662 3.555-2.024 4.864a6.65 6.65 0 0 1-4.816 1.946c-1.898 0-3.482-.662-4.842-2.026-1.369-1.37-2.035-2.941-2.035-4.802s.655-3.436 2.002-4.807c1.334-1.359 2.923-2.02 4.856-2.02s3.53.64 4.866 1.957z"/><use xlink:href="#B"/><path d="M273.433 24.386c-1.912-1.606-4.174-2.419-6.746-2.419-3.185 0-5.922 1.099-8.134 3.264s-3.33 4.796-3.33 7.828 1.112 5.674 3.306 7.859c2.201 2.194 4.889 3.306 7.989 3.306 2.542 0 4.861-.848 6.915-2.526v2.545l4.568-.02V22.019h-4.568v2.367zm-1.843 3.893c1.341 1.322 1.993 2.921 1.993 4.888s-.662 3.555-2.024 4.864a6.65 6.65 0 0 1-4.816 1.946c-1.898 0-3.482-.662-4.843-2.026-1.369-1.37-2.034-2.941-2.034-4.802s.655-3.436 2.002-4.807c1.334-1.359 2.923-2.02 4.856-2.02s3.53.64 4.866 1.957zm-126.011 7.937l-6.541-14.017h-5.093l9.061 19.627-4.44 9.756h5.092l13.377-29.383h-5.134l-6.322 14.017zM10.691 21.564V49.93c0 .723.402 1.279 1.053 1.639l14.408 8.126c.648.358 1.446.426 2.094.068l14.405-8.17c.653-.361 1.056-.94 1.056-1.664v-28.39L27.2 30.986l-16.508-9.422zM5.812 46.962V19.579c0-.418.11-.947.961-1.352L26.601 6.883c.372-.204.828-.204 1.2 0l20.198 11.554c.378.207.598.343.59.819v27.705c0 .575.66.845 1.183.567l4.06-2.318c.385-.205.57-.515.57-.938V15.93c0-.499-.174-.67-.547-.879L27.807.158c-.375-.21-.838-.21-1.214-.002L.596 15.036c-.375.208-.596.563-.596.979v28.258a1 1 0 0 0 .543.924l4.1 2.34c.523.303 1.169.013 1.169-.575zm33.154-28.056l-11.765-6.715-11.765 6.715 11.765 6.715 11.765-6.715z"/></g><defs><clipPath id="A"><path fill="#fff" d="M0 0h278v60H0z"/></clipPath><path id="B" d="M232.556 24.386c-1.912-1.606-4.174-2.419-6.746-2.419-3.185 0-5.922 1.099-8.134 3.264s-3.33 4.796-3.33 7.828 1.112 5.674 3.306 7.859c2.201 2.194 4.889 3.306 7.989 3.306 2.542 0 4.861-.848 6.915-2.526v2.545l4.568-.02V22.019h-4.568v2.367zm-1.843 3.893c1.341 1.322 1.993 2.921 1.993 4.888s-.662 3.555-2.024 4.864-2.937 1.946-4.816 1.946c-1.898 0-3.482-.662-4.843-2.026-1.369-1.37-2.034-2.941-2.034-4.802s.655-3.436 2.002-4.807c1.334-1.359 2.923-2.02 4.856-2.02s3.53.64 4.866 1.957z"/></defs></svg>