<svg xmlns="http://www.w3.org/2000/svg" width="13" height="28" fill="none" xmlns:v="https://vecta.io/nano"><g clip-path="url(#A)"><g fill="#fff"><path d="M12.234 11.116C10.821 4.62 7.914 2.884 7.167 1.68 6.741 1.008 6.341 0 6.341 0c-.027.56-.107.952-.587 1.372C4.821 2.24.847 5.656.527 13.02c-.32 6.86 4.8 11.116 5.493 11.564.533.28 1.147 0 1.467-.252 2.453-1.764 5.84-6.524 4.747-13.216z"/><path d="M6.553 20.916c-.133 1.708-.213 2.688-.56 3.668l.373 3.332H6.9c.187-1.932.587-3.584.587-3.584-.693-.364-.907-1.932-.933-3.416z"/></g><path d="M7.487 24.333c-.693-.336-.907-1.932-.933-3.416a70.02 70.02 0 0 0 .16-7.336c-.027-1.288.027-11.9-.293-13.44.133.308.453 1.008.747 1.54.747 1.232 3.653 2.94 5.067 9.436 1.067 6.692-2.267 11.424-4.747 13.216z" fill="#eaeaea"/></g><defs><clipPath id="A"><path fill="#fff" transform="translate(.5)" d="M0 0h12v28H0z"/></clipPath></defs></svg>