<svg xmlns="http://www.w3.org/2000/svg" width="12" height="28" fill="none" xmlns:v="https://vecta.io/nano"><path d="M11.734 11.116C10.321 4.62 7.414 2.884 6.668 1.68 6.241 1.008 5.841 0 5.841 0c-.027.56-.107.952-.587 1.372C4.321 2.24.348 5.656.028 13.02c-.32 6.86 4.8 11.116 5.493 11.564.533.28 1.147 0 1.467-.252 2.453-1.764 5.84-6.524 4.747-13.216z" fill="#10aa50"/><path d="M6.053 20.916c-.133 1.708-.213 2.688-.56 3.668l.373 3.332H6.4c.187-1.932.587-3.584.587-3.584-.693-.364-.907-1.932-.933-3.416z" fill="#b8c4c2"/><path d="M6.987 24.333c-.693-.336-.907-1.932-.933-3.416a70.02 70.02 0 0 0 .16-7.336c-.027-1.288.027-11.9-.293-13.44.133.308.453 1.008.747 1.54.747 1.232 3.653 2.94 5.067 9.436 1.067 6.692-2.267 11.424-4.747 13.216z" fill="#12924f"/></svg>