<svg xmlns="http://www.w3.org/2000/svg" width="28" height="28" fill="none" xmlns:v="https://vecta.io/nano"><g clip-path="url(#A)" fill="#00546b"><path d="M25.775 21.242c-1.522-.038-2.702.114-3.692.533-.285.114-.742.114-.78.476.152.152.171.4.305.609.229.38.628.894.989 1.161l1.218.875c.742.457 1.579.723 2.303 1.18.419.266.837.609 1.256.894.209.152.343.4.609.495v-.057c-.133-.171-.171-.419-.304-.609l-.571-.552a9.04 9.04 0 0 0-1.979-1.922c-.609-.419-1.941-.99-2.188-1.694l-.038-.038c.419-.038.913-.19 1.313-.305.647-.171 1.237-.133 1.903-.304l.913-.267v-.171c-.342-.343-.59-.799-.951-1.123-.97-.837-2.036-1.656-3.14-2.341-.59-.381-1.351-.628-1.979-.951-.228-.114-.609-.171-.742-.362-.343-.419-.533-.97-.78-1.465l-1.56-3.311c-.342-.742-.552-1.484-.97-2.169-1.96-3.235-4.091-5.195-7.364-7.117-.704-.4-1.541-.571-2.436-.78l-1.43-.076c-.304-.133-.609-.495-.875-.666C3.721.5.923-.984.124.976-.39 2.213.885 3.431 1.323 4.059c.324.438.742.932.971 1.427.133.323.171.666.304 1.009.305.837.59 1.77.99 2.55.209.4.438.818.704 1.18.152.209.419.305.476.647-.266.38-.285.951-.438 1.427-.685 2.15-.419 4.814.552 6.394.304.476 1.028 1.522 1.998 1.123.856-.343.666-1.427.913-2.379.057-.229.019-.381.133-.533v.038l.78 1.579c.59.932 1.618 1.903 2.474 2.55.457.342.818.932 1.389 1.142v-.057h-.038c-.114-.171-.285-.247-.438-.381a9.25 9.25 0 0 1-.99-1.142c-.799-1.066-1.503-2.245-2.131-3.463-.304-.59-.571-1.237-.818-1.827-.114-.229-.114-.571-.305-.685-.285.418-.704.78-.913 1.294-.361.818-.4 1.827-.533 2.873-.076.019-.038 0-.076.038-.609-.152-.818-.78-1.047-1.313-.571-1.351-.666-3.52-.171-5.081.133-.4.704-1.656.476-2.036-.114-.362-.495-.571-.704-.856-.247-.362-.514-.818-.685-1.218-.457-1.066-.685-2.245-1.18-3.311-.228-.495-.628-1.009-.951-1.465-.361-.514-.761-.875-1.047-1.484-.095-.209-.228-.552-.076-.78.038-.152.114-.209.266-.247.247-.209.951.057 1.199.171.704.285 1.294.552 1.884.951.266.19.552.552.894.647h.4c.609.133 1.294.038 1.865.209 1.009.323 1.922.799 2.74 1.313 2.493 1.579 4.548 3.825 5.937 6.508.228.438.323.837.533 1.294.4.932.894 1.884 1.294 2.797.4.894.78 1.808 1.351 2.55.286.399 1.427.609 1.941.818.381.171.971.323 1.313.533.647.399 1.294.856 1.903 1.294.305.228 1.256.704 1.313 1.085h0zM6.364 4.706a3.01 3.01 0 0 0-.78.095v.038h.038c.152.304.419.514.609.78l.438.913.038-.038c.267-.19.4-.495.4-.951-.114-.133-.133-.266-.228-.4-.114-.19-.362-.285-.514-.438z"/></g><defs><clipPath id="A"><path fill="#fff" d="M0 0h28v27.563H0z"/></clipPath></defs></svg>