<svg xmlns="http://www.w3.org/2000/svg" width="28" height="28" fill="none" xmlns:v="https://vecta.io/nano"><g clip-path="url(#B)"><path d="M14 .064C6.268.064 0 6.318 0 14.032c0 4.826 2.453 9.079 6.183 11.589V14.039c0-.018-.003-.035-.003-.052s.002-.035.003-.053v-.098h.005c.077-4.496 3.537-8.118 7.801-8.118 4.312 0 7.808 3.702 7.808 8.269s-3.496 8.268-7.808 8.268c-1.68 0-3.231-.567-4.505-1.522v6.519A14 14 0 0 0 14 28c7.732 0 14-6.253 14-13.968S21.732.064 14 .064z" fill="url(#A)"/><path d="M18.724 14.276c0 2.642-2.091 4.784-4.672 4.784s-4.672-2.142-4.672-4.784 2.092-4.784 4.672-4.784 4.672 2.142 4.672 4.784z" fill="#fcb42f"/></g><defs><linearGradient id="A" x1="14" y1=".064" x2="14" y2="28" gradientUnits="userSpaceOnUse"><stop stop-color="#fbb32f"/><stop offset=".505" stop-color="#c11511"/><stop offset="1" stop-color="#c11411"/></linearGradient><clipPath id="B"><path fill="#fff" d="M0 0h28v28H0z"/></clipPath></defs></svg>