<svg xmlns="http://www.w3.org/2000/svg" width="29" height="28" fill="none" xmlns:v="https://vecta.io/nano"><g clip-path="url(#A)" fill="#fff"><path d="M14.955.064c-7.732 0-14 6.254-14 13.968 0 4.826 2.453 9.079 6.183 11.589V14.039c0-.018-.003-.035-.003-.052s.002-.035.003-.053v-.098h.005c.077-4.496 3.537-8.118 7.801-8.118 4.312 0 7.808 3.702 7.808 8.269s-3.496 8.268-7.808 8.268c-1.68 0-3.231-.567-4.505-1.522v6.519a14 14 0 0 0 4.517.747c7.732 0 14-6.253 14-13.968S22.687.064 14.955.064zm4.725 14.212c0 2.642-2.092 4.784-4.672 4.784s-4.672-2.142-4.672-4.784 2.092-4.784 4.672-4.784 4.672 2.142 4.672 4.784z"/></g><defs><clipPath id="A"><path fill="#fff" transform="translate(.955)" d="M0 0h28v28H0z"/></clipPath></defs></svg>