<svg xmlns="http://www.w3.org/2000/svg" width="29" height="28" fill="none" xmlns:v="https://vecta.io/nano"><g clip-path="url(#A)"><path d="M14.257.164C6.66.164.5 6.395.5 14.082S6.66 28 14.257 28s13.757-6.231 13.757-13.918S21.855.164 14.257.164zm0 26.049c-2.162 0-3.914-1.461-3.914-3.263h7.829c0 1.801-1.753 3.263-3.914 3.263zm6.465-4.343H7.792v-2.372h12.931v2.372h0zm-.046-3.593H7.828l-.128-.15c-1.324-1.626-1.635-2.475-1.938-3.34-.005-.029 1.605.333 2.747.593 0 0 .588.138 1.446.296-.825-.978-1.314-2.221-1.314-3.492 0-2.79 2.115-5.228 1.352-7.198.743.061 1.537 1.586 1.591 3.969.79-1.104 1.12-3.12 1.12-4.355 0-1.28.833-2.766 1.667-2.817-.743 1.239.193 2.301 1.024 4.937.312.99.272 2.656.513 3.712.08-2.194.453-5.395 1.828-6.501-.607 1.392.09 3.134.566 3.971.769 1.351 1.235 2.374 1.235 4.31a5.42 5.42 0 0 1-1.273 3.475c.909-.172 1.536-.328 1.536-.328l2.95-.582c0 0-.428 1.783-2.076 3.501z" fill="#fff"/></g><defs><clipPath id="A"><path fill="#fff" transform="translate(.5)" d="M0 0h28v28H0z"/></clipPath></defs></svg>