<svg xmlns="http://www.w3.org/2000/svg" width="198" height="30" fill="none" xmlns:v="https://vecta.io/nano"><g clip-path="url(#A)" fill="#3b4473"><path d="M62.126 6.588l-.684-4.158C61.225 1.087 60.727 0 60.323 0s-.746 1.119-.746 2.463V3.55c0 1.343-1.088 2.463-2.393 2.463h-1.057-.217v3.006h.217 3.978c1.336 0 2.238-1.087 2.02-2.431zM52.584 3.07H46.12h-.155-6.62c-.093 0-.155 0-.218.032v-.64c0-1.343-.342-2.463-.746-2.463s-.901 1.087-1.119 2.431l-.684 4.158c-.218 1.343.684 2.431 1.989 2.431h4.009c.404 0 .808-.064 1.119-.192a1.45 1.45 0 0 1-1.43 1.215h-5.594c-.901 0-1.585-.832-1.43-1.759l.559-3.486c.155-.927-.528-1.759-1.43-1.759H6.619c-.59 0-1.088.352-1.336.896l-5.221 8.22a.35.35 0 0 0 .031.448l1.026 1.247c.124.16.342.192.497.064l3.543-2.878v17.527c0 .831.653 1.503 1.461 1.503h7.894c.808 0 1.461-.672 1.461-1.503v-6.077c0-.832.653-1.503 1.461-1.503h19.673c.808 0 1.461.672 1.461 1.503v6.077c0 .831.653 1.503 1.461 1.503h7.894c.808 0 1.461-.672 1.461-1.503v-6.62H45.19c-1.305 0-2.393-1.119-2.393-2.463v-4.19a2.43 2.43 0 0 1 .963-1.951v5.021c0 1.343 1.088 2.463 2.393 2.463h6.464c1.305 0 2.393-1.119 2.393-2.463V5.565c-.031-1.375-1.119-2.495-2.424-2.495zm14.825.83h8.888c4.227 0 7.055 2.111 7.055 6.173 0 3.326-2.207 5.309-4.351 6.013.653.544 1.119 1.311 1.492 2.111.901 1.887 1.492 3.934 3.388 3.934.466 0 .87-.16.87-.16l-.404 3.934s-1.15.288-2.144.288c-2.549 0-4.009-1.023-5.532-4.542-.653-1.567-1.523-4.35-2.704-4.35h-1.212v8.763h-5.346V3.9zm5.346 3.998v5.437h1.927c1.523 0 3.325-.48 3.325-2.847 0-1.951-1.212-2.591-2.673-2.591h-2.579z"/><path d="M90.563 3.9h5.408l7.273 22.164h-5.408l-1.336-4.19h-7.21l-1.305 4.19h-4.662L90.563 3.9zm0 13.913h4.631l-1.461-4.669c-.497-1.567-.746-3.806-.746-3.806h-.124s-.311 2.271-.808 3.774l-1.492 4.701zM103.46 3.9h5.718l5.657 11.002c.466.96 1.118 2.623 1.616 3.934h.124l-.218-4.318V3.9h4.383v22.164h-5.595l-5.873-10.97c-.529-.992-1.119-2.431-1.554-3.614h-.125l.249 3.934v10.65h-4.382V3.9zm18.398 10.971c0-8.028 3.854-11.322 9.821-11.322 6.278 0 8.795 3.55 8.112 8.348l-4.973.448c.528-3.518-.808-4.925-3.232-4.925-2.331 0-4.227 1.759-4.227 7.484 0 6.045 2.051 7.58 4.382 7.58 2.207 0 3.978-1.407 3.605-4.318l4.662.48c.342 4.51-2.797 7.804-8.546 7.804-5.812.032-9.604-3.518-9.604-11.578zM141.127 3.9h5.314v8.38h6.558V3.9h5.314v22.196h-5.314v-9.403h-6.558v9.403h-5.314V3.9zm19.331 0h14.265v4.094h-8.951v4.765h7.521v4.062h-7.521v5.181h9.262v4.094h-14.576V3.9zm15.601 0h8.889c4.226 0 7.055 2.111 7.055 6.173 0 3.326-2.207 5.309-4.351 6.013.652.544 1.118 1.311 1.491 2.111.902 1.887 1.492 3.934 3.388 3.934.466 0 .87-.16.87-.16l-.435 3.934s-1.15.288-2.144.288c-2.549 0-4.01-1.023-5.532-4.542-.653-1.567-1.523-4.35-2.704-4.35h-1.212v8.763h-5.346V3.9h.031zm5.346 3.998v5.437h1.927c1.523 0 3.325-.48 3.325-2.847 0-1.951-1.212-2.591-2.673-2.591h-2.579zm12.555-2.589c0-1.247.901-1.791 1.74-1.791s1.741.544 1.741 1.791c0 1.215-.902 1.759-1.741 1.759-.839.032-1.74-.512-1.74-1.759zm3.046 0c0-.991-.622-1.407-1.306-1.407s-1.336.416-1.336 1.407c0 .959.653 1.407 1.336 1.407s1.306-.416 1.306-1.407zm-1.896-.896h.621c.311 0 .622.096.622.544 0 .256-.186.416-.404.48l.404.736h-.373l-.373-.704h-.155v.704h-.342v-1.76zm.653.8c.155 0 .279-.096.279-.256 0-.192-.155-.224-.279-.224h-.311v.48h.311z"/></g><defs><clipPath id="A"><path fill="#fff" d="M0 0h198v30H0z"/></clipPath></defs></svg>