<svg xmlns="http://www.w3.org/2000/svg" width="33" height="28" fill="none" xmlns:v="https://vecta.io/nano"><g clip-path="url(#A)"><path d="M30.916 21.668c-1.666.918-10.296 4.67-12.133 5.682s-2.858 1.003-4.309.27-10.635-4.656-12.289-5.492c-.827-.418-1.262-.77-1.262-1.104v-3.336s11.956-2.752 13.886-3.484 2.6-.757 4.242-.122 11.464 2.51 13.088 3.138v3.289c0 .33-.374.692-1.222 1.159h0z" fill="#eaeaea"/><path d="M30.915 18.33c-1.666.918-10.296 4.67-12.133 5.682s-2.858 1.003-4.309.27-10.635-4.656-12.289-5.492-1.689-1.412-.064-2.084l12.689-5.194c1.93-.732 2.6-.757 4.242-.122s10.221 4.246 11.844 4.875 1.686 1.147.018 2.065h.002z" fill="#fff"/><path d="M30.916 16.228c-1.666.918-10.296 4.67-12.133 5.683s-2.858 1.003-4.309.269-10.635-4.656-12.289-5.492c-.827-.418-1.262-.77-1.262-1.103v-3.337s11.956-2.752 13.886-3.484 2.6-.757 4.242-.122 11.464 2.509 13.088 3.138v3.289c0 .33-.374.691-1.222 1.159h0z" fill="#eaeaea"/><path d="M30.915 12.891c-1.666.918-10.296 4.67-12.133 5.683s-2.858 1.003-4.309.269-10.635-4.656-12.289-5.492-1.689-1.411-.064-2.084l12.689-5.194c1.93-.732 2.6-.757 4.242-.122s10.221 4.246 11.844 4.875 1.686 1.147.018 2.065h.002z" fill="#fff"/><path d="M30.916 10.585c-1.666.918-10.296 4.67-12.133 5.685s-2.858 1.003-4.309.269-10.635-4.656-12.289-5.492c-.827-.418-1.262-.77-1.262-1.103V6.606s11.956-2.752 13.886-3.484 2.6-.757 4.242-.122 11.464 2.509 13.088 3.138v3.289c0 .329-.374.691-1.222 1.158h0z" fill="#eaeaea"/><path d="M30.915 7.248c-1.666.918-10.296 4.67-12.133 5.683s-2.858 1.003-4.309.269S3.838 8.544 2.184 7.708.495 6.297 2.12 5.624L14.809.431c1.93-.732 2.6-.757 4.242-.122s10.221 4.246 11.844 4.875 1.686 1.147.018 2.065h.002z" fill="#fff"/><g fill="#eaeaea"><path d="M16.332 4.153l-3.123-.297 2.331-.889-.697-1.364 2.184.902 2.055-.712-.556 1.411 2.098.83-2.705.297-.605 1.541-.98-1.719zM12.1 9.295l7.234-1.174-2.184 3.388-5.05-2.214zM10.15 8.06c2.135 0 3.866-.709 3.866-1.585S12.285 4.89 10.15 4.89s-3.866.709-3.866 1.585S8.015 8.06 10.15 8.06z"/></g><path d="M28.099 6.246l-4.276 1.785V4.455l4.276 1.791z" fill="#dcdcdc"/><path d="M23.819 4.457v3.576l-.464.194-4.276-1.785 4.74-1.985z" fill="#eaeaea"/></g><defs><clipPath id="A"><path fill="#fff" transform="translate(.955)" d="M0 0h32v28H0z"/></clipPath></defs></svg>