<svg xmlns="http://www.w3.org/2000/svg" width="24" height="24" fill="none" xmlns:v="https://vecta.io/nano"><path d="M6.194 14.645a2.11 2.11 0 0 1-2.103 2.107 2.11 2.11 0 0 1-2.104-2.107 2.11 2.11 0 0 1 2.104-2.106h2.103v2.106zm1.061 0a2.11 2.11 0 0 1 2.104-2.106 2.11 2.11 0 0 1 2.103 2.106v5.274a2.11 2.11 0 0 1-2.103 2.106 2.11 2.11 0 0 1-2.104-2.106v-5.274zM9.359 6.19a2.11 2.11 0 0 1-2.104-2.107 2.11 2.11 0 0 1 2.104-2.106 2.11 2.11 0 0 1 2.103 2.106V6.19H9.359zm0 1.06a2.11 2.11 0 0 1 2.103 2.107 2.11 2.11 0 0 1-2.103 2.106H4.092a2.11 2.11 0 0 1-2.104-2.106A2.11 2.11 0 0 1 4.092 7.25h5.267zm8.447 2.107a2.11 2.11 0 0 1 3.59-1.488 2.11 2.11 0 0 1 0 2.975 2.11 2.11 0 0 1-1.487.619h-2.103V9.357zm-1.061 0a2.11 2.11 0 0 1-3.59 1.487 2.11 2.11 0 0 1-.617-1.487V4.083a2.11 2.11 0 0 1 2.103-2.106 2.11 2.11 0 0 1 2.104 2.106v5.274zm-2.104 8.455a2.11 2.11 0 0 1 2.104 2.107 2.11 2.11 0 0 1-3.59 1.487 2.11 2.11 0 0 1-.617-1.487v-2.107h2.103zm0-1.06a2.11 2.11 0 0 1-2.103-2.107 2.11 2.11 0 0 1 2.103-2.106h5.268a2.11 2.11 0 0 1 2.104 2.106 2.11 2.11 0 0 1-2.104 2.107h-5.268z" fill="#fff"/></svg>