<svg xmlns="http://www.w3.org/2000/svg" width="172" height="44" fill="none" xmlns:v="https://vecta.io/nano"><g clip-path="url(#A)"><path d="M54.957 34.484l2.146-5.021c2.319 1.743 5.398 2.65 8.444 2.65 2.249 0 3.668-.872 3.668-2.197-.035-3.696-13.462-.802-13.566-10.077-.035-4.707 4.119-8.333 10.002-8.333 3.495 0 6.991.871 9.483 2.859l-2.007 5.126c-2.284-1.465-5.122-2.51-7.821-2.51-1.834 0-3.045.872-3.045 1.987.035 3.626 13.566 1.639 13.705 10.495 0 4.812-4.049 8.194-9.863 8.194-4.257 0-8.168-1.011-11.144-3.173zm82.332-6.834l5.917 3.313c-2.214 4.01-6.436 6.695-11.316 6.695-7.164 0-12.978-5.858-12.978-13.075s5.814-13.075 12.978-13.075c4.845 0 9.102 2.72 11.316 6.695l-5.917 3.312c-1.073-1.883-3.081-3.173-5.399-3.173-3.426 0-6.195 2.789-6.195 6.241s2.769 6.241 6.195 6.241c2.318 0 4.326-1.29 5.398-3.173h.001zM78.94.662h7.406v36.506H78.94V.662zm67.173 0h7.406v21.444l8.375-10.077h9.068l-10.348 12.134 11.178 13.006h-9.482l-8.791-10.948v10.948h-7.406V.662zM108.357 27.72v-6.172c-1.073-1.813-3.288-3.208-5.78-3.208-3.426 0-6.195 2.789-6.195 6.241s2.768 6.241 6.195 6.241c2.492 0 4.707-1.325 5.78-3.103h0zm0-15.69h7.406v25.105h-7.406v-2.964c-1.212 2.057-4.223 3.487-7.372 3.487-6.506 0-11.628-5.858-11.628-13.11s5.122-13.041 11.628-13.041c3.149 0 6.16 1.43 7.372 3.487v-2.964h0z" fill="#000"/><path d="M9.171 27.684c0 2.545-2.042 4.603-4.568 4.603-.6.001-1.194-.118-1.749-.349a4.56 4.56 0 0 1-1.483-.998 4.6 4.6 0 0 1-.99-1.494 4.63 4.63 0 0 1-.346-1.762c0-2.545 2.042-4.602 4.568-4.602h4.568v4.602zm2.284 0c0-2.545 2.042-4.602 4.568-4.602s4.568 2.057 4.568 4.602v11.506c0 2.545-2.042 4.603-4.568 4.603a4.53 4.53 0 0 1-1.749-.349 4.56 4.56 0 0 1-1.482-.998 4.6 4.6 0 0 1-.99-1.494c-.229-.559-.347-1.157-.346-1.762V27.684h0z" fill="#e01e5a"/><path d="M16.023 9.205c-.6.001-1.194-.118-1.749-.349s-1.058-.57-1.482-.998a4.6 4.6 0 0 1-.99-1.494 4.63 4.63 0 0 1-.346-1.762C11.455 2.057 13.497 0 16.023 0s4.568 2.057 4.568 4.602v4.603h-4.568zm0 2.336c2.526 0 4.568 2.057 4.568 4.602s-2.042 4.603-4.568 4.603H4.568a4.53 4.53 0 0 1-1.749-.349 4.56 4.56 0 0 1-1.483-.998 4.6 4.6 0 0 1-.99-1.494A4.63 4.63 0 0 1 0 16.144c0-2.545 2.042-4.602 4.568-4.602h11.455 0z" fill="#36c5f0"/><path d="M34.331 16.144c0-2.545 2.042-4.602 4.568-4.602s4.568 2.057 4.568 4.602-2.042 4.603-4.568 4.603h-4.568v-4.603zm-2.284 0c0 2.545-2.042 4.603-4.568 4.603a4.53 4.53 0 0 1-1.749-.349 4.56 4.56 0 0 1-1.483-.998 4.6 4.6 0 0 1-.99-1.494 4.63 4.63 0 0 1-.346-1.762V4.602C22.91 2.057 24.952 0 27.478 0s4.568 2.057 4.568 4.602v11.542h0z" fill="#2eb67d"/><path d="M27.478 34.588c2.526 0 4.568 2.057 4.568 4.602s-2.042 4.603-4.568 4.603c-.6.001-1.194-.118-1.749-.349a4.56 4.56 0 0 1-1.483-.998 4.6 4.6 0 0 1-.99-1.494c-.229-.559-.347-1.157-.346-1.762v-4.602h4.568zm0-2.302c-.6.001-1.194-.118-1.749-.349a4.56 4.56 0 0 1-1.483-.998 4.6 4.6 0 0 1-.99-1.494 4.63 4.63 0 0 1-.346-1.762c0-2.545 2.042-4.602 4.568-4.602h11.456c2.526 0 4.568 2.057 4.568 4.602s-2.042 4.603-4.568 4.603H27.478h0z" fill="#ecb22e"/></g><defs><clipPath id="A"><path fill="#fff" d="M0 0h172v44H0z"/></clipPath></defs></svg>