<?xml version="1.0" encoding="UTF-8"?>
<svg width="24px" height="24px" viewBox="0 0 24 24" version="1.1" xmlns="http://www.w3.org/2000/svg" xmlns:xlink="http://www.w3.org/1999/xlink">
    <!-- Generator: Sketch 54.1 (76490) - https://sketchapp.com -->
    <title>GITHUB Copy 3</title>
    <desc>Created with Sketch.</desc>
    <g id="GITHUB-Copy-3" stroke="none" stroke-width="1" fill="none" fill-rule="evenodd">
        <path d="M1.92,0.672 C1.23074863,0.672 0.672,1.23074863 0.672,1.92 L0.672,22.08 C0.672,22.7692514 1.23074863,23.328 1.92,23.328 L22.08,23.328 C22.7692514,23.328 23.328,22.7692514 23.328,22.08 L23.328,1.92 C23.328,1.23074863 22.7692514,0.672 22.08,0.672 L1.92,0.672 Z M1.92,4.26325641e-16 L22.08,0 C23.1403867,-2.07841508e-15 24,0.85961328 24,1.92 L24,22.08 C24,23.1403867 23.1403867,24 22.08,24 L1.92,24 C0.85961328,24 5.56185562e-16,23.1403867 4.26325641e-16,22.08 L0,1.92 C-1.2985992e-16,0.85961328 0.85961328,6.21115522e-16 1.92,4.26325641e-16 Z" id="Rectangle-Copy-15" fill="#FFFFFF" fill-rule="nonzero"></path>
        <path d="M9.9083449,19.1861391 C9.9083449,19.5904437 9.91685327,19.9369906 9.9083449,20.2835374 C9.88281979,20.8693665 9.47441791,21.1416533 8.90435696,20.9271243 C5.65415871,19.6647038 3.64618282,17.3708938 3.11015536,14.0209411 C2.4209772,9.73861246 5.02453915,5.76982616 9.27021697,4.42489442 C14.7411004,2.69216028 20.4927602,6.46291982 20.969229,12.0324224 C21.3095639,15.9764554 18.7910857,19.5904437 15.1835358,20.8941199 C14.4858492,21.1416533 14.1199892,20.8941199 14.1114809,20.1680218 C14.1029725,19.5161837 14.1199892,18.8643456 14.1029725,18.2125075 C14.0859557,17.6926873 14.0434139,17.172867 14.0093804,16.669549 C14.5879497,16.4632712 15.2260776,16.3065 15.8131553,16.0342132 C18.3316336,14.8625549 19.071862,11.7353823 17.3616791,9.5983435 C17.1915117,9.39206563 17.1404614,9.22704333 17.2340535,8.96300765 C17.4382545,8.37717849 17.404221,7.7748471 17.1915117,7.18076682 C17.0468693,6.7847133 16.8086349,6.57018431 16.3832163,6.74345773 C15.7450884,7.00749341 15.1239772,7.32928689 14.4943576,7.60157368 C14.3071734,7.68408483 14.0859557,7.7748471 13.8987716,7.73359152 C12.6054989,7.46955584 11.3292431,7.46955584 10.0444789,7.76659598 C9.89132816,7.79960044 9.67011048,7.73359152 9.54248489,7.63457814 C8.95540719,7.14776236 8.28324578,6.84247111 7.52600063,6.71045327 C7.19417411,6.65269546 6.99848155,6.75170884 6.87085596,7.04874898 C6.61560479,7.6675826 6.54753781,8.29466734 6.78577224,8.91350096 C6.92190619,9.25179668 6.83682247,9.44982343 6.63262153,9.705608 C5.37338242,11.3228265 5.44995777,13.6413898 6.81129735,15.0688327 C7.56003412,15.8609398 8.52998858,16.2652444 9.58502675,16.521029 C9.73817745,16.5622845 9.89983653,16.595289 10.0614956,16.6447957 C10.0189537,16.8675758 9.92536165,17.0738537 9.94237839,17.2636293 C9.98492025,17.8577096 9.61055187,17.9402207 9.14259139,17.9319696 C8.32578764,17.9237185 7.64511785,17.6761851 7.16014062,16.9830914 C6.64963828,16.2487422 6.01151035,16.0094598 5.3478573,16.2734955 C5.40741591,16.3642578 5.44995777,16.45502 5.51802475,16.5375312 C5.87537639,16.9995936 6.29228664,17.4286516 6.59007967,17.9237185 C7.16864899,18.889099 8.03650298,19.2603991 9.13408301,19.2356458 C9.38082581,19.2356458 9.6020435,19.2108924 9.9083449,19.1861391 Z" id="Path" fill="#FFFFFF"></path>
    </g>
</svg>