<?xml version="1.0" encoding="UTF-8"?>
<svg width="24px" height="24px" viewBox="0 0 24 24" version="1.1" xmlns="http://www.w3.org/2000/svg" xmlns:xlink="http://www.w3.org/1999/xlink">
    <!-- Generator: Sketch 54.1 (76490) - https://sketchapp.com -->
    <title>TWITTER Copy 3</title>
    <desc>Created with Sketch.</desc>
    <g id="TWITTER-Copy-3" stroke="none" stroke-width="1" fill="none" fill-rule="evenodd">
        <path d="M1.92,0.672 C1.23074863,0.672 0.672,1.23074863 0.672,1.92 L0.672,22.08 C0.672,22.7692514 1.23074863,23.328 1.92,23.328 L22.08,23.328 C22.7692514,23.328 23.328,22.7692514 23.328,22.08 L23.328,1.92 C23.328,1.23074863 22.7692514,0.672 22.08,0.672 L1.92,0.672 Z M1.92,0 L22.08,0 C23.1403867,-1.9478988e-16 24,0.85961328 24,1.92 L24,22.08 C24,23.1403867 23.1403867,24 22.08,24 L1.92,24 C0.85961328,24 1.2985992e-16,23.1403867 0,22.08 L0,1.92 C-1.2985992e-16,0.85961328 0.85961328,1.9478988e-16 1.92,0 Z" id="Rectangle" fill="#FFFFFF" fill-rule="nonzero"></path>
        <path d="M3.03331791,17.4187263 C5.01573346,17.5934808 6.80657103,17.1248211 8.39750116,15.9571434 C7.62285979,15.9094831 6.91485423,15.679125 6.29847293,15.2342954 C5.68209162,14.7974092 5.25728829,14.2175421 5.00740398,13.5423544 C5.28227672,13.5423544 5.54049051,13.5502977 5.80703378,13.5423544 C6.06524757,13.5264676 6.32346136,13.4867507 6.58167515,13.4390904 C5.51550208,13.1610719 4.69921333,12.5970915 4.15779732,11.6756588 C3.83294771,11.1196219 3.64969921,10.4126606 3.69967608,9.95194427 C3.95788987,10.0472649 4.20777418,10.1505289 4.47431745,10.2220194 C4.74086071,10.2935098 5.01573346,10.3252834 5.2906062,10.3570569 C3.66635817,9.04639836 3.30819065,7.48949487 4.19111522,5.63074274 C6.21517816,7.89460751 8.74733919,9.1337756 11.8375752,9.34030361 C11.8125868,9.11788883 11.7792689,8.91136081 11.7709394,8.71277618 C11.712633,7.61658903 12.1124479,6.68721297 12.9537251,5.94053476 C13.8782971,5.12236609 14.9861175,4.852291 16.2105507,5.07470578 C16.9185562,5.20179994 17.543267,5.51953535 18.0513651,6.01202523 C18.1263304,6.0835157 18.1929662,6.10734585 18.3012494,6.0835157 C18.992596,5.93259138 19.6589542,5.71017659 20.2753355,5.37655442 C20.3336418,5.34478088 20.4002776,5.32095072 20.5002314,5.27329041 C20.2086997,6.09940247 19.6922721,6.70309974 18.9759371,7.17970285 C19.6756131,7.12409915 20.3253124,6.93345791 21,6.6713262 C20.6584914,7.16381608 20.283665,7.57687211 19.8588616,7.94226782 C19.6756131,8.10113553 19.4923646,8.24411646 19.2924572,8.38709739 C19.1925035,8.45858786 19.1591856,8.53802171 19.1591856,8.65717249 C19.2008329,9.6659824 19.0592318,10.6589055 18.7760296,11.6359419 C18.5344748,12.4699974 18.1846367,13.2643359 17.734845,14.0110141 C17.2517353,14.8212394 16.6603424,15.5599742 15.9689958,16.2192752 C15.0277649,17.1089343 13.9366034,17.8000088 12.7038408,18.2686685 C11.5460435,18.7134981 10.3299398,18.9517997 9.08051828,18.9915166 C8.20592318,19.0232901 7.33132809,18.9676864 6.47339195,18.7929319 C5.60712633,18.6181775 4.76584914,18.3560458 3.97454882,17.9588765 C3.64969921,17.8000088 3.32484961,17.6252543 3,17.4584432 C3.02498843,17.4425565 3.02498843,17.4346131 3.03331791,17.4187263 Z" id="Path" fill="#FFFFFF"></path>
    </g>
</svg>