<?xml version="1.0" encoding="UTF-8"?>
<svg width="24px" height="24px" viewBox="0 0 24 24" version="1.1" xmlns="http://www.w3.org/2000/svg" xmlns:xlink="http://www.w3.org/1999/xlink">
    <!-- Generator: Sketch 54.1 (76490) - https://sketchapp.com -->
    <title>YOUTUBE Copy 4</title>
    <desc>Created with Sketch.</desc>
    <g id="YOUTUBE-Copy-4" stroke="none" stroke-width="1" fill="none" fill-rule="evenodd">
        <g id="Group-25-Copy" fill="#FFFFFF" fill-rule="nonzero">
            <path d="M1.92,0.672 C1.23074863,0.672 0.672,1.23074863 0.672,1.92 L0.672,22.08 C0.672,22.7692514 1.23074863,23.328 1.92,23.328 L22.08,23.328 C22.7692514,23.328 23.328,22.7692514 23.328,22.08 L23.328,1.92 C23.328,1.23074863 22.7692514,0.672 22.08,0.672 L1.92,0.672 Z M1.92,-1.77635684e-17 L22.08,-4.4408921e-16 C23.1403867,-2.52250429e-15 24,0.85961328 24,1.92 L24,22.08 C24,23.1403867 23.1403867,24 22.08,24 L1.92,24 C0.85961328,24 1.12096352e-16,23.1403867 -1.77635684e-17,22.08 L-4.4408921e-16,1.92 C-5.7394913e-16,0.85961328 0.85961328,1.77026312e-16 1.92,-1.77635684e-17 Z" id="Rectangle-Copy-15"></path>
        </g>
        <path d="M11.0730195,5.00456869 C13.0178716,5.00716095 14.9626735,4.97832207 16.9075758,5.03947161 C17.8415358,5.06881969 18.7746939,5.09779744 19.7036421,5.19065586 C20.2837147,5.24865766 20.6990475,5.55931214 21.0107852,5.99583006 C21.4272707,6.57894949 21.6119076,7.2416883 21.7410131,7.91683293 C22.0621731,9.59670941 22.0132573,11.2922783 21.9646924,12.98669 C21.9353229,14.0116507 21.819148,15.0264739 21.497136,16.0136154 C21.3958965,16.3240384 21.2574188,16.618121 21.0751876,16.8959556 C20.6965416,17.4731036 20.1458886,17.7584372 19.4168134,17.8221327 C18.2772167,17.9217495 17.1359662,17.9443855 15.9934126,17.9669289 C13.4473879,18.0172465 10.9011628,17.9979434 8.35503791,17.9874818 C7.45440675,17.9837786 6.55362523,17.9448484 5.65354538,17.9086494 C5.18834457,17.8899481 4.72304353,17.8537953 4.2604489,17.8043109 C3.57607947,17.7310796 3.10711978,17.3567759 2.76285514,16.8320286 C2.42139715,16.31154 2.28347078,15.7253191 2.15526741,15.1395612 C2.07477694,14.7719233 2.00340806,14.4009988 2,14.0232233 C2.17802125,14.0534509 2.29249212,13.9659159 2.41082213,13.8564392 C5.46635242,11.0301361 8.52463924,8.20633272 11.5824249,5.38206642 C11.6178587,5.34933915 11.6518892,5.31526946 11.6887264,5.28397719 C11.8138725,5.17764828 11.7412006,5.11973906 11.6231713,5.10052857 C11.5095524,5.08201243 11.3904707,5.09395534 11.2740452,5.08830792 C11.1968124,5.0845584 11.0978783,5.11816519 11.0730195,5.00456869 Z M9.93542759,14.8663556 C10.0125601,14.8273791 10.0704471,14.8022434 10.123673,14.7705346 C11.8826854,13.723447 13.641397,12.6758966 15.3997578,11.627837 C15.6274967,11.4921137 15.6270958,11.4898455 15.398555,11.3528261 C14.1908973,10.6288914 12.9833399,9.90481793 11.7748302,9.18208683 C11.1705001,8.82069813 10.5642155,8.46213315 9.93542759,8.08838494 C9.93542759,10.3611018 9.93542759,12.5999342 9.93542759,14.8663556 Z" id="Shape" fill="#FFFFFF" fill-rule="nonzero"></path>
        <path d="M11.7529088,5.01101494 C11.7793609,5.12480433 12.1756783,5.02645385 12.1483504,5.06619706 C12.1210224,5.10594027 12.21654,5.08859018 12.3371447,5.10713776 C12.4624332,5.12638087 12.5396607,5.18438842 12.4067613,5.29089788 C12.3676419,5.32224329 12.331503,5.35637083 12.2938739,5.38915367 C9.04664604,8.21816927 5.89500783,11.1870236 2.65012179,14.0181258 C2.52440754,14.1277883 2.19470362,14.3126886 2.00565323,14.2824096 C2.00565323,13.9004436 2.00634513,13.2768154 2.00565323,12.8922778 C2.00389685,11.9115282 1.98248437,10.9327463 2.03645315,9.95412977 C2.09739422,8.84934332 2.16610595,7.73704511 2.65012179,6.6892461 C2.72255917,6.53242634 2.81048464,6.38103174 2.89303451,6.22782875 C3.2707095,5.52659122 3.94015653,5.20326058 4.79343802,5.15248659 C7.11052946,5.01458535 9.43097399,4.97883489 11.7529088,5.01101494 Z" id="Path" fill="#FFFFFF" fill-rule="nonzero"></path>
    </g>
</svg>