<svg xmlns="http://www.w3.org/2000/svg" xmlns:xlink="http://www.w3.org/1999/xlink" version="1.1" x="0px" y="0px" viewBox="0 0 512 640" style="enable-background:new 0 0 512 512;" xml:space="preserve"><g><g><g><path fill="#f26d00" d="M395.7,337c-2.8,0-5-2.2-5-5s2.2-5,5-5c52.5,0,95.3-42.8,95.3-95.3c0-23.2-8.6-45.7-24.1-63.2c-0.7-0.8-1.1-1.8-1.2-2.8     c-5.4-54.9-51.1-96.3-106.3-96.3c-25.4,0-50.1,9.1-69.3,25.6c-1.2,1-2.7,1.4-4.2,1.1c-1.5-0.3-2.8-1.3-3.5-2.6     C262.6,55,223.5,31.1,180.3,31.1C117,31.1,65.5,82.6,65.5,145.9c0,1,0,2,0.1,3c0.1,1.7-0.8,3.3-2.2,4.3     c-26,17.9-41.5,47.2-41.5,78.5c0,52.6,42.8,95.3,95.3,95.3c2.8,0,5,2.2,5,5s-2.2,5-5,5c-58.1,0-105.3-47.3-105.3-105.3     c0-33.7,16.2-65.3,43.6-85.1c0-0.2,0-0.4,0-0.6c0-68.8,56-124.8,124.8-124.8c44.9,0,85.8,23.7,108.1,62.4     c20.3-15.6,45.3-24.1,71.1-24.1c29.2,0,57.1,10.8,78.7,30.5c21,19.2,34.2,45.1,37.4,73.2c16.5,19.2,25.5,43.5,25.5,68.6     C501,289.7,453.8,337,395.7,337z"/></g><g><path fill="#f26d00" d="M349.9,253.4H163.1c-2.8,0-5-2.2-5-5v-96.2c0-2.8,2.2-5,5-5h186.8c2.8,0,5,2.2,5,5v96.2     C354.9,251.1,352.6,253.4,349.9,253.4z M168.1,243.4h176.8v-86.2H168.1V243.4z"/></g><g><path fill="#f26d00" d="M256.5,409.6c-2.8,0-5-2.2-5-5V248.4c0-2.8,2.2-5,5-5c2.8,0,5,2.2,5,5v156.2C261.5,407.3,259.2,409.6,256.5,409.6z"/></g><g><path fill="#f26d00" d="M423.7,409.6H89.2c-2.8,0-5-2.2-5-5s2.2-5,5-5h334.5c2.8,0,5,2.2,5,5S426.5,409.6,423.7,409.6z"/></g><g><path fill="#f26d00" d="M256.5,452c-2.8,0-5-2.2-5-5v-42.5c0-2.8,2.2-5,5-5c2.8,0,5,2.2,5,5V447C261.5,449.8,259.2,452,256.5,452z"/></g><g><path fill="#f26d00" d="M423.7,452c-2.8,0-5-2.2-5-5v-42.5c0-2.8,2.2-5,5-5s5,2.2,5,5V447C428.7,449.8,426.5,452,423.7,452z"/></g><g><path fill="#f26d00" d="M89.2,452c-2.8,0-5-2.2-5-5v-42.5c0-2.8,2.2-5,5-5s5,2.2,5,5V447C94.2,449.8,92,452,89.2,452z"/></g><g><path fill="#f26d00" d="M111.2,491.8H67.3c-2.8,0-5-2.2-5-5V447c0-2.8,2.2-5,5-5h43.9c2.8,0,5,2.2,5,5v39.8C116.2,489.6,113.9,491.8,111.2,491.8     z M72.3,481.8h33.9V452H72.3V481.8z"/></g><g><path fill="#f26d00" d="M278.4,491.8h-43.9c-2.8,0-5-2.2-5-5V447c0-2.8,2.2-5,5-5h43.9c2.8,0,5,2.2,5,5v39.8     C283.4,489.6,281.2,491.8,278.4,491.8z M239.5,481.8h33.9V452h-33.9L239.5,481.8L239.5,481.8z"/></g><g><path fill="#f26d00" d="M445.7,491.8h-43.9c-2.8,0-5-2.2-5-5V447c0-2.8,2.2-5,5-5h43.9c2.8,0,5,2.2,5,5v39.8     C450.7,489.6,448.4,491.8,445.7,491.8z M406.8,481.8h33.9V452h-33.9V481.8z"/></g><g><path fill="#f26d00" d="M197.1,215c-8.1,0-14.7-6.6-14.7-14.8c0-8.1,6.6-14.7,14.7-14.7c8.1,0,14.7,6.6,14.7,14.7     C211.8,208.4,205.2,215,197.1,215z M197.1,195.5c-2.6,0-4.7,2.1-4.7,4.7c0,2.6,2.1,4.8,4.7,4.8c2.6,0,4.7-2.1,4.7-4.8     C201.8,197.6,199.7,195.5,197.1,195.5z"/></g><g><path fill="#f26d00" d="M256.5,215c-8.1,0-14.8-6.6-14.8-14.8c0-8.1,6.6-14.7,14.8-14.7c8.1,0,14.7,6.6,14.7,14.7     C271.2,208.4,264.6,215,256.5,215z M256.5,195.5c-2.6,0-4.8,2.1-4.8,4.7c0,2.6,2.1,4.8,4.8,4.8c2.6,0,4.7-2.1,4.7-4.8     C261.2,197.6,259.1,195.5,256.5,195.5z"/></g><g><path fill="#f26d00" d="M315.9,215c-8.1,0-14.7-6.6-14.7-14.8c0-8.1,6.6-14.7,14.7-14.7s14.7,6.6,14.7,14.7C330.6,208.4,324,215,315.9,215z      M315.9,195.5c-2.6,0-4.7,2.1-4.7,4.7c0,2.6,2.1,4.8,4.7,4.8c2.6,0,4.7-2.1,4.7-4.8C320.6,197.6,318.5,195.5,315.9,195.5z"/></g></g></g></svg>
