<svg xmlns:dc="http://purl.org/dc/elements/1.1/" xmlns:cc="http://creativecommons.org/ns#" xmlns:rdf="http://www.w3.org/1999/02/22-rdf-syntax-ns#" xmlns:svg="http://www.w3.org/2000/svg" xmlns="http://www.w3.org/2000/svg" xmlns:sodipodi="http://sodipodi.sourceforge.net/DTD/sodipodi-0.dtd" xmlns:inkscape="http://www.inkscape.org/namespaces/inkscape" version="1.1" x="0px" y="0px" viewBox="0 0 100 125"><g transform="translate(0,-952.36218)"><path d="m 58.000002,958.36219 0,4 -7,0 0,4.5 c 0,0.8483 0.076,1.3916 0.4375,1.9375 0.361801,0.5459 1.086,1.15329 2.5625,1.8125 a 1.0001,1.0001 0 0 1 0.031,0.031 c 3.482199,1.615 5.9688,5.12959 5.9688,9.34379 0,3.78279 -1.962499,7.12439 -4.906199,8.9375 l 25.1876,13.43772 8.7188,0 a 1.0001,1.0001 0 0 1 0.999999,1 l 0,42 a 1.0001,1.0001 0 0 1 -0.999999,1 l -78.000005,0 a 1.0001,1.0001 0 0 1 -1.0000005,-1 l 0,-42 a 1.0001,1.0001 0 0 1 1.0000005,-1 l 8.718805,0 25.1874,-13.43753 c -2.943701,-1.81309 -4.9062,-5.1547 -4.9062,-8.93749 a 1.0001,1.0001 0 1 1 2,0 c 0,3.56589 2.0986,6.56359 5.0625,7.78119 l 2.4687,-1.3124 a 1.0001,1.0001 0 0 1 0.6876,-0.094 1.0001,1.0001 0 0 1 0.25,0.094 l 2.4687,1.3124 c 2.9639,-1.21759 5.0625,-4.21529 5.0625,-7.78119 0,-3.4284 -1.9983,-6.226 -4.8125,-7.5312 -1.6735,-0.7471 -2.7555,-1.5495 -3.4063,-2.5313 -0.650501,-0.9818 -0.7812,-2.0528 -0.7812,-3.0625 l 0,-4.5 -7,0 0,-4 16,0 z m -5.25,31.59379 c -0.875101,0.2606 -1.7935,0.4062 -2.75,0.4062 -0.956499,0 -1.874899,-0.1456 -2.75,-0.4062 l -23.250001,12.40622 52.000001,0 -23.25,-12.40622 z m 35.25,14.40622 -76.000001,0 0,40 76.000001,0 0,-40 z m -11,6 0,28 -2,0 0,-28 2,0 z m -13,0 0,28 -2,0 0,-28 2,0 z m -13,0 0,28 -2,0 0,-28 2,0 z m -13,0 0,28 -2,0 0,-28 2,0 z m -13.000001,0 0,28 -2,0 0,-28 2,0 z" fill="#f26d00" fill-opacity="1" fill-rule="nonzero" stroke="none" marker="none" visibility="visible" display="inline" overflow="visible"/></g></svg>
