<svg xmlns="http://www.w3.org/2000/svg" xmlns:xlink="http://www.w3.org/1999/xlink" version="1.1" x="0px" y="0px" viewBox="0 0 1024 1280" style="enable-background:new 0 0 1024 1024;" xml:space="preserve"><g><g><g><path fill="#f26d00" d="M282.6,836.5c20.7,0,41.5,0,62.2,0c49.8,0,99.6,0,149.4,0c59.9,0,119.7,0,179.6,0c52,0,104.1,0,156.1,0     c25.2,0,50.5,0.8,75.7,0c0.3,0,0.7,0,1,0c12.9,0,12.9-20,0-20c-20.7,0-41.5,0-62.2,0c-49.8,0-99.6,0-149.4,0     c-59.9,0-119.7,0-179.6,0c-52,0-104.1,0-156.1,0c-25.2,0-50.5-0.8-75.7,0c-0.3,0-0.7,0-1,0C269.7,816.5,269.7,836.5,282.6,836.5     L282.6,836.5z"/></g></g><g><g><path fill="#f26d00" d="M198.9,755c29.4,0.2,57.1,18.7,67.1,46.8c10.2,28.8,1.5,60.5-21.9,80.1c-23,19.3-57.1,21.1-82.5,5.7     c-25.2-15.3-38.9-45.8-33-74.8C135.5,779.4,164.9,755.3,198.9,755c12.9-0.1,12.9-20.1,0-20c-38.6,0.3-72.9,24.6-86.2,60.8     c-12.9,35.1-1.6,76.8,27.3,100.6c29.8,24.6,72.9,28.6,106.2,8.4c33-20,49.7-59,42.3-96.7c-8.3-42.3-47-72.7-89.6-73.1     C186.1,734.9,186,754.9,198.9,755z"/></g></g><g><g><path fill="#f26d00" d="M755.9,522c43.9,0,87.9,0,131.8,0c6.3,0,12.6,0,18.9,0c12.9,0,12.9-20,0-20c-43.9,0-87.9,0-131.8,0     c-6.3,0-12.6,0-18.9,0C743,502,743,522,755.9,522L755.9,522z"/></g></g><g><g><path fill="#f26d00" d="M117.4,522c15.5,0,31,0,46.5,0c37.2,0,74.4,0,111.6,0c45,0,90,0,135,0c38.9,0,77.8,0,116.8,0     c18.9,0,37.9,0.7,56.8,0c0.3,0,0.5,0,0.8,0c12.9,0,12.9-20,0-20c-15.5,0-31,0-46.5,0c-37.2,0-74.4,0-111.6,0c-45,0-90,0-135,0     c-38.9,0-77.8,0-116.8,0c-18.9,0-37.9-0.7-56.8,0c-0.3,0-0.5,0-0.8,0C104.6,502,104.6,522,117.4,522L117.4,522z"/></g></g><g><g><path fill="#f26d00" d="M670.7,440.5c29.4,0.2,57.1,18.7,67.1,46.8c10.2,28.8,1.5,60.5-21.9,80.1c-23,19.3-57.1,21.1-82.5,5.7     c-25.2-15.3-38.9-45.8-33-74.8C607.3,464.9,636.7,440.8,670.7,440.5c12.9-0.1,12.9-20.1,0-20c-38.6,0.3-72.9,24.6-86.2,60.8     c-12.9,35.1-1.6,76.8,27.3,100.6c29.8,24.6,72.9,28.6,106.2,8.4c33-20,49.7-59,42.3-96.7c-8.3-42.3-47-72.7-89.6-73.1     C657.8,420.4,657.8,440.4,670.7,440.5z"/></g></g><g><g><path fill="#f26d00" d="M455.7,207.5c14.9,0,29.8,0,44.7,0c36,0,72,0,107.9,0c43.4,0,86.7,0,130.1,0c37.5,0,75,0,112.5,0     c18.2,0,36.6,0.6,54.8,0c0.3,0,0.5,0,0.8,0c12.9,0,12.9-20,0-20c-14.9,0-29.8,0-44.7,0c-36,0-72,0-107.9,0     c-43.4,0-86.7,0-130.1,0c-37.5,0-75,0-112.5,0c-18.2,0-36.6-0.6-54.8,0c-0.3,0-0.5,0-0.8,0C442.8,187.5,442.8,207.5,455.7,207.5     L455.7,207.5z"/></g></g><g><g><path fill="#f26d00" d="M117.4,207.5c48.9,0,97.8,0,146.7,0c6.9,0,13.7,0,20.6,0c12.9,0,12.9-20,0-20c-48.9,0-97.8,0-146.7,0     c-6.9,0-13.7,0-20.6,0C104.6,187.5,104.6,207.5,117.4,207.5L117.4,207.5z"/></g></g><g><g><path fill="#f26d00" d="M370.5,126c29.4,0.2,57.1,18.7,67.1,46.8c10.2,28.8,1.5,60.5-21.9,80.1c-23,19.3-57.1,21.1-82.5,5.7     c-25.2-15.3-38.9-45.8-33-74.8C307.1,150.4,336.5,126.3,370.5,126c12.9-0.1,12.9-20.1,0-20c-38.6,0.3-72.9,24.6-86.2,60.8     c-12.9,35.1-1.6,76.8,27.3,100.6c29.8,24.6,72.9,28.6,106.2,8.4c33-20,49.7-59,42.3-96.7c-8.3-42.3-47-72.7-89.6-73.1     C357.6,105.9,357.6,125.9,370.5,126z"/></g></g></g></svg>
