<svg xmlns="http://www.w3.org/2000/svg" xmlns:xlink="http://www.w3.org/1999/xlink" xml:space="preserve" style="shape-rendering:geometricPrecision;text-rendering:geometricPrecision;image-rendering:optimizeQuality;" viewBox="0 0 6.82666 8.533325000000001" x="0px" y="0px" fill-rule="evenodd" clip-rule="evenodd"><defs><style type="text/css">

    .fil1 {fill:none}
    .fil0 {fill:#f26d00;fill-rule:nonzero}

  </style></defs><g><g><g><path class="fil0" d="M4.71962 3.21583c0.249516,0 0.475421,0.101146 0.638941,0.264665 0.16352,0.16352 0.264661,0.389421 0.264661,0.638937 0,0.249516 -0.101146,0.475421 -0.264661,0.638941 -0.16352,0.163516 -0.389425,0.264661 -0.638941,0.264661 -0.249516,0 -0.475417,-0.101142 -0.638941,-0.264661 -0.163516,-0.16352 -0.264661,-0.389425 -0.264661,-0.638941 0,-0.249516 0.101142,-0.475417 0.264665,-0.638937 0.16352,-0.163524 0.389421,-0.264665 0.638937,-0.264665zm0.563524 0.340083c-0.144213,-0.144213 -0.343453,-0.233413 -0.563524,-0.233413 -0.220071,0 -0.419311,0.0892008 -0.56352,0.233413 -0.144213,0.144209 -0.233413,0.343449 -0.233413,0.56352 0,0.220071 0.0892008,0.419311 0.233409,0.563524 0.144213,0.144209 0.343453,0.233409 0.563524,0.233409 0.220071,0 0.419311,-0.0892008 0.563524,-0.233409 0.144209,-0.144213 0.233409,-0.343453 0.233409,-0.563524 0,-0.220071 -0.0892008,-0.419311 -0.233409,-0.56352z"/><path class="fil0" d="M4.71307 4.63117l0 -0.101614c-0.0509055,-0.0063622 -0.0921654,-0.0177402 -0.12398,-0.0341299 -0.031815,-0.0163898 -0.0593898,-0.0429961 -0.0825276,-0.0794409 -0.0231378,-0.0366339 -0.0366339,-0.0811732 -0.0402953,-0.133811l0.102189 -0.0192835c0.00790551,0.0545669 0.0217913,0.0946732 0.0418425,0.120319 0.0285354,0.036248 0.0628583,0.0562992 0.102772,0.0603504l0 -0.323543c-0.0418425,-0.00790551 -0.0844528,-0.0241024 -0.128224,-0.0485906 -0.0323937,-0.018126 -0.0572638,-0.043189 -0.074811,-0.0751969 -0.0175472,-0.0320079 -0.0262244,-0.0682559 -0.0262244,-0.108941 0,-0.0723071 0.0256457,-0.130921 0.0767402,-0.175654 0.0343228,-0.0302717 0.0852244,-0.0485906 0.15252,-0.0553386l0 -0.0485906 0.0599646 0 0 0.0485906c0.059,0.00559055 0.106047,0.0229449 0.140563,0.0518661 0.0445394,0.0368268 0.0711457,0.0875394 0.0802087,0.151941l-0.105083 0.0158071c-0.00597638,-0.0399094 -0.0185118,-0.0705669 -0.0375984,-0.0917795 -0.0188976,-0.0212087 -0.0449252,-0.0352835 -0.0780906,-0.0420315l0 0.293079c0.0510945,0.0129173 0.0850315,0.0229449 0.101614,0.0300787 0.031622,0.0138819 0.0574567,0.0308504 0.0773189,0.0507087 0.0200512,0.0200551 0.0354764,0.0437717 0.0460827,0.0711496 0.0107953,0.0275748 0.0161969,0.0572677 0.0161969,0.0892756 0,0.0705669 -0.0225591,0.129185 -0.0672953,0.176232 -0.0447323,0.0472402 -0.102768,0.0723031 -0.173917,0.0757756l0 0.102772 -0.0599646 0zm0 -0.890228c-0.0395276,0.00597638 -0.0707638,0.0217874 -0.0935157,0.0474331 -0.022752,0.0256417 -0.0341299,0.0559173 -0.0341299,0.0910079 0,0.0345157 0.00964173,0.0636299 0.0291142,0.0869606 0.0194764,0.0233307 0.0522559,0.0420315 0.0985315,0.0559134l0 -0.281315zm0.0599646 0.702618c0.0395276,-0.00482283 0.0721142,-0.0219803 0.0979488,-0.0512874 0.0258386,-0.029311 0.0387559,-0.065752 0.0387559,-0.109134 0,-0.0368307 -0.00925591,-0.0665236 -0.027378,-0.0888898 -0.0183189,-0.0223661 -0.0547598,-0.0424173 -0.109327,-0.0601575l0 0.309469z"/><path class="fil0" d="M4.71962 2.86572c0.346197,0 0.65963,0.140331 0.886504,0.367209 0.226878,0.226874 0.367209,0.540307 0.367209,0.886504 0,0.346197 -0.140331,0.65963 -0.367209,0.886504 -0.226874,0.226878 -0.540307,0.367209 -0.886504,0.367209 -0.346197,0 -0.65963,-0.140331 -0.886504,-0.367209 -0.226878,-0.226878 -0.367209,-0.540307 -0.367209,-0.886504 0,-0.346197 0.140331,-0.659626 0.367209,-0.886504 0.226874,-0.226878 0.540307,-0.367209 0.886504,-0.367209zm0.811087 0.442626c-0.207567,-0.207571 -0.494335,-0.335957 -0.811087,-0.335957 -0.316752,0 -0.60352,0.128386 -0.811087,0.335957 -0.207567,0.207567 -0.335957,0.494335 -0.335957,0.811087 0,0.316752 0.12839,0.60352 0.335957,0.811087 0.207567,0.207571 0.494335,0.335957 0.811087,0.335957 0.316752,0 0.60352,-0.128386 0.811087,-0.335957 0.207571,-0.207567 0.335957,-0.494335 0.335957,-0.811087 0,-0.316752 -0.128386,-0.60352 -0.335957,-0.811087z"/></g><g><g><path class="fil0" d="M2.10704 1.67438c0.242945,0 0.463839,0.0484843 0.624563,0.126858 0.172402,0.0840709 0.279039,0.204417 0.279039,0.341106 0,0.136685 -0.106638,0.257035 -0.279035,0.341106 -0.160728,0.078374 -0.381622,0.126858 -0.624567,0.126858 -0.242945,0 -0.463843,-0.0484843 -0.624567,-0.126858 -0.172398,-0.0840709 -0.279035,-0.204421 -0.279035,-0.341106 0,-0.136689 0.106638,-0.257035 0.279039,-0.341106 0.160724,-0.078374 0.381618,-0.126858 0.624563,-0.126858zm0.577894 0.222693c-0.147,-0.0716811 -0.351248,-0.116024 -0.577894,-0.116024 -0.226642,0 -0.430894,0.0443425 -0.577894,0.116024 -0.135331,0.0659921 -0.219039,0.152969 -0.219039,0.245272 0,0.0923031 0.0837087,0.17928 0.219035,0.245272 0.147,0.0716811 0.351252,0.116024 0.577898,0.116024 0.226642,0 0.430894,-0.0443425 0.577898,-0.116024 0.135327,-0.0659921 0.219035,-0.152969 0.219035,-0.245272 0,-0.0923031 -0.0837087,-0.17928 -0.219039,-0.245272z"/><path class="fil0" d="M2.08872 2.28526l0 -0.125248c-0.0738465,-0.0112283 -0.128028,-0.0280709 -0.162543,-0.0507323 -0.0343189,-0.0226614 -0.0516693,-0.050122 -0.0516693,-0.082378 0,-0.0326654 0.0194724,-0.060122 0.0584252,-0.082378 0.0391378,-0.022252 0.0910079,-0.0350118 0.155787,-0.0384803l0 -0.0296024 0.0817559 0 0 0.0296024c0.0599646,0.00387795 0.107587,0.0145945 0.143067,0.0324606 0.0352874,0.0178622 0.0578425,0.041748 0.0676811,0.0716575l-0.142882 0.00990157c-0.00867717,-0.0235787 -0.0312323,-0.0395039 -0.0678661,-0.047874l0 0.116878c0.0904291,0.0129646 0.15213,0.0298071 0.184713,0.0504252 0.0327795,0.020622 0.0491693,0.0470591 0.0491693,0.0794173 0,0.0360315 -0.0206299,0.0664528 -0.0617008,0.0911535 -0.0412598,0.0248071 -0.0987205,0.0399134 -0.172181,0.0455276l0 0.0559409 -0.0817559 0 0 -0.0545118c-0.0651654,-0.00418504 -0.118189,-0.0170472 -0.158874,-0.0385866 -0.040685,-0.0214331 -0.0665197,-0.0518543 -0.0778976,-0.0911535l0.147504 -0.00837008c0.00597638,0.0159252 0.0173504,0.0297047 0.0339331,0.0412402 0.0163898,0.0115354 0.0348976,0.0199055 0.0553346,0.0251102zm0 -0.313988c-0.0223622,0.00398031 -0.0399134,0.0108189 -0.0532165,0.020311 -0.0131102,0.00959449 -0.0196614,0.0202126 -0.0196614,0.031748 0,0.0105118 0.00597244,0.0204134 0.0179291,0.0293976 0.0121457,0.00908268 0.0304685,0.0164331 0.0549488,0.0220472l0 -0.103504zm0.0817559 0.318173c0.0283425,-0.00275591 0.0512835,-0.00969685 0.0690276,-0.0207205 0.0177362,-0.011126 0.0266102,-0.0240906 0.0266102,-0.0390984 0,-0.0133701 -0.00751969,-0.0248031 -0.0223701,-0.0345 -0.0148425,-0.00969685 -0.0393346,-0.0171496 -0.0732677,-0.022252l0 0.116571z"/><path class="fil0" d="M2.10704 1.45352c0.340126,0 0.649067,0.0735197 0.873587,0.192382 0.234854,0.124339 0.380126,0.299646 0.380126,0.496445 0,0.196799 -0.145264,0.37211 -0.380126,0.496445 -0.224516,0.118862 -0.533461,0.192386 -0.873587,0.192386 -0.340126,0 -0.649071,-0.0735236 -0.873587,-0.192386 -0.234862,-0.124335 -0.380126,-0.299646 -0.380126,-0.496445 0,-0.196799 0.145272,-0.372106 0.380126,-0.496445 0.22452,-0.118862 0.533457,-0.192382 0.873587,-0.192382zm0.824004 0.286547c-0.209925,-0.111134 -0.501185,-0.179878 -0.824004,-0.179878 -0.322819,0 -0.614079,0.0687441 -0.824004,0.179878 -0.199587,0.105665 -0.323039,0.24811 -0.323039,0.40228 0,0.154173 0.123449,0.296618 0.323039,0.40228 0.209925,0.111138 0.501185,0.179882 0.824004,0.179882 0.322819,0 0.614079,-0.0687441 0.824004,-0.179882 0.199591,-0.105661 0.323039,-0.248106 0.323039,-0.40228 0,-0.154169 -0.123453,-0.296614 -0.323039,-0.40228z"/></g><path class="fil0" d="M3.28319 2.32459c0.0251339,0.0376417 0.0445591,0.0769252 0.0576693,0.117531 0.0130748,0.0404961 0.0198976,0.0818937 0.0198976,0.123882 0,0.196799 -0.145272,0.37211 -0.380126,0.496449 -0.22452,0.118862 -0.533465,0.192382 -0.873591,0.192382 -0.34013,0 -0.649067,-0.0735197 -0.873587,-0.192382 -0.234854,-0.124339 -0.380122,-0.29965 -0.380122,-0.496449 0,-0.0419882 0.00682283,-0.0833858 0.0198976,-0.123886 0.0131102,-0.0406063 0.0325354,-0.0798819 0.0576693,-0.117528l0.0441693 -0.0661417 0.0441614 0.0661417c0.0773189,0.115803 0.223701,0.215917 0.414323,0.287256 0.189594,0.0709606 0.42189,0.112657 0.673488,0.112657 0.251602,0 0.483898,-0.0416969 0.673496,-0.112657 0.190618,-0.0713425 0.337008,-0.171457 0.414323,-0.287256l0.0441654 -0.0661417 0.0441654 0.0661417zm-0.0435827 0.150028c-0.00258661,-0.00801181 -0.00550787,-0.0159764 -0.00875591,-0.0238898 -0.0948976,0.105374 -0.237909,0.195087 -0.413228,0.260701 -0.201528,0.0754252 -0.44672,0.119744 -0.710583,0.119744 -0.263858,0 -0.509051,-0.0443189 -0.710575,-0.119744 -0.175323,-0.0656142 -0.318331,-0.155331 -0.413228,-0.260705 -0.00324803,0.00791339 -0.00616929,0.015878 -0.00875591,0.0238898 -0.00951181,0.0294685 -0.0144803,0.06 -0.0144803,0.0913898 0,0.154173 0.123453,0.296618 0.323035,0.402283 0.209925,0.111134 0.501185,0.179878 0.824004,0.179878 0.322819,0 0.614083,-0.0687441 0.824008,-0.179878 0.199587,-0.105665 0.323039,-0.24811 0.323039,-0.402283 0,-0.0313858 -0.0049685,-0.0619173 -0.0144803,-0.0913858z"/><path class="fil0" d="M3.28319 2.74826c0.0251339,0.0376417 0.0445591,0.0769252 0.0576693,0.117531 0.0130748,0.0404961 0.0198976,0.0818937 0.0198976,0.123882 0,0.196799 -0.145272,0.372106 -0.380126,0.496445 -0.224524,0.118862 -0.533461,0.192382 -0.873591,0.192382 -0.34013,0 -0.649063,-0.0735197 -0.873583,-0.192382 -0.234862,-0.124339 -0.380126,-0.299646 -0.380126,-0.496445 0,-0.0419921 0.00682283,-0.0833898 0.0198976,-0.123886 0.0131102,-0.0406063 0.0325354,-0.0798819 0.0576693,-0.117528l0.0883307 0.0591654c-0.0196378,0.0294134 -0.0347165,0.0597874 -0.044748,0.0908583 -0.00951181,0.0294685 -0.0144803,0.06 -0.0144803,0.0913898 0,0.154173 0.123453,0.296614 0.323039,0.40228 0.209925,0.111134 0.501181,0.179878 0.824,0.179878 0.322819,0 0.614083,-0.0687441 0.824008,-0.179878 0.199587,-0.105665 0.323039,-0.24811 0.323039,-0.40228 0,-0.0313858 -0.0049685,-0.0619173 -0.0144803,-0.0913858 -0.0100315,-0.0310709 -0.0251102,-0.0614488 -0.044748,-0.0908622l0.0883307 -0.0591654z"/><path class="fil0" d="M3.28319 3.17192c0.0251339,0.0376417 0.0445591,0.0769252 0.0576693,0.117531 0.0130748,0.0404961 0.0198976,0.0818937 0.0198976,0.123882 0,0.196799 -0.145264,0.37211 -0.380126,0.496445 -0.22452,0.118862 -0.533457,0.192382 -0.873591,0.192382 -0.34013,0 -0.649067,-0.0735197 -0.873587,-0.192382 -0.234858,-0.124335 -0.380122,-0.299646 -0.380122,-0.496445 0,-0.0419921 0.00682283,-0.0833898 0.0198976,-0.123886 0.0131102,-0.0406063 0.0325354,-0.0798819 0.0576693,-0.117528l0.0883307 0.0591654c-0.0196378,0.0294134 -0.0347165,0.0597874 -0.044748,0.0908583 -0.00951181,0.0294685 -0.0144803,0.06 -0.0144803,0.0913898 0,0.154173 0.123449,0.296618 0.323035,0.40228 0.209925,0.111134 0.501185,0.179878 0.824004,0.179878 0.322823,0 0.614083,-0.0687441 0.824008,-0.179878 0.199591,-0.105661 0.323039,-0.248106 0.323039,-0.40228 0,-0.0313858 -0.0049685,-0.0619173 -0.0144803,-0.0913858 -0.0100315,-0.0310709 -0.0251102,-0.0614488 -0.044748,-0.0908622l0.0883307 -0.0591654z"/><path class="fil0" d="M3.28319 3.59558c0.0251339,0.0376417 0.0445591,0.0769252 0.0576693,0.117531 0.0130748,0.0404961 0.0198976,0.0818937 0.0198976,0.123882 0,0.196799 -0.145264,0.37211 -0.380126,0.496445 -0.22452,0.118862 -0.533457,0.192382 -0.873591,0.192382 -0.34013,0 -0.649067,-0.0735197 -0.873587,-0.192382 -0.234858,-0.124335 -0.380122,-0.299646 -0.380122,-0.496445 0,-0.0419921 0.00682283,-0.0833898 0.0198976,-0.123886 0.0131102,-0.0406063 0.0325354,-0.0798819 0.0576693,-0.117528l0.0883307 0.0591654c-0.0196378,0.0294134 -0.0347165,0.0597874 -0.044748,0.0908583 -0.00951181,0.0294685 -0.0144803,0.06 -0.0144803,0.0913898 0,0.154173 0.123449,0.296618 0.323035,0.40228 0.209925,0.111134 0.501185,0.179878 0.824004,0.179878 0.322823,0 0.614083,-0.0687441 0.824008,-0.179878 0.199591,-0.105661 0.323039,-0.248106 0.323039,-0.40228 0,-0.0313858 -0.0049685,-0.0619173 -0.0144803,-0.0913858 -0.0100315,-0.0310709 -0.0251102,-0.0614488 -0.044748,-0.0908622l0.0883307 -0.0591654z"/><path class="fil0" d="M3.28319 4.01924c0.0251339,0.0376417 0.0445591,0.0769252 0.0576693,0.117531 0.0130748,0.0404961 0.0198976,0.0818937 0.0198976,0.123882 0,0.196799 -0.145264,0.37211 -0.380126,0.496445 -0.22452,0.118862 -0.533457,0.192382 -0.873591,0.192382 -0.34013,0 -0.649067,-0.0735197 -0.873587,-0.192382 -0.234858,-0.124335 -0.380122,-0.299646 -0.380122,-0.496445 0,-0.0419882 0.00682283,-0.0833858 0.0198976,-0.123886 0.0131102,-0.0406063 0.0325354,-0.0798819 0.0576693,-0.117528l0.0883307 0.0591654c-0.0196378,0.0294134 -0.0347165,0.0597874 -0.044748,0.0908583 -0.00951181,0.0294685 -0.0144803,0.06 -0.0144803,0.0913898 0,0.154173 0.123449,0.296618 0.323035,0.40228 0.209925,0.111134 0.501185,0.179878 0.824004,0.179878 0.322823,0 0.614083,-0.0687441 0.824008,-0.179878 0.199591,-0.105661 0.323039,-0.248106 0.323039,-0.40228 0,-0.0313858 -0.0049685,-0.0619173 -0.0144803,-0.0913858 -0.0100315,-0.0310709 -0.0251102,-0.0614488 -0.044748,-0.0908622l0.0883307 -0.0591654z"/><path class="fil0" d="M3.28319 4.4429c0.0251339,0.0376417 0.0445591,0.0769252 0.0576693,0.117531 0.0130748,0.0404961 0.0198976,0.0818937 0.0198976,0.123882 0,0.196799 -0.145272,0.37211 -0.380126,0.496449 -0.22452,0.118862 -0.533465,0.192382 -0.873591,0.192382 -0.34013,0 -0.649067,-0.0735197 -0.873587,-0.192382 -0.234854,-0.124339 -0.380122,-0.29965 -0.380122,-0.496449 0,-0.0419882 0.00682283,-0.0833858 0.0198976,-0.123886 0.0131102,-0.0406063 0.0325354,-0.0798819 0.0576693,-0.117528l0.0883307 0.0591654c-0.0196378,0.0294134 -0.0347165,0.0597874 -0.044748,0.0908583 -0.00951181,0.0294685 -0.0144803,0.06 -0.0144803,0.0913898 0,0.154173 0.123453,0.296618 0.323035,0.402283 0.209925,0.111134 0.501185,0.179878 0.824004,0.179878 0.322819,0 0.614083,-0.0687441 0.824008,-0.179878 0.199587,-0.105665 0.323039,-0.248114 0.323039,-0.402283 0,-0.0313858 -0.0049685,-0.0619173 -0.0144803,-0.0913858 -0.0100315,-0.0310709 -0.0251102,-0.0614488 -0.044748,-0.0908622l0.0883307 -0.0591654z"/></g></g></g></svg>
