<svg xmlns="http://www.w3.org/2000/svg" xmlns:xlink="http://www.w3.org/1999/xlink" version="1.1" x="0px" y="0px" viewBox="0 0 512 640" style="enable-background:new 0 0 512 512;" xml:space="preserve"><g><g><g><g><path fill="#f26d00" d="M260,384c-68.374,0-124-55.626-124-124s55.626-124,124-124s124,55.626,124,124S328.374,384,260,384z M260,144      c-63.962,0-116,52.038-116,116c0,63.963,52.038,116,116,116c63.963,0,116-52.037,116-116C376,196.038,323.963,144,260,144z"/></g><g><path fill="#f26d00" d="M260,336.174c-42.002,0-76.174-34.172-76.174-76.174c0-42.002,34.171-76.174,76.174-76.174      c42.002,0,76.174,34.171,76.174,76.174C336.174,302.002,302.002,336.174,260,336.174z M260,191.826      c-37.591,0-68.174,30.583-68.174,68.174c0,37.591,30.583,68.174,68.174,68.174c37.591,0,68.174-30.583,68.174-68.174      C328.174,222.409,297.591,191.826,260,191.826z"/></g><g><g><g><path fill="#f26d00" d="M260,104c-2.209,0-4-1.791-4-4V38l-33.6,25.2c-1.767,1.324-4.274,0.967-5.6-0.8c-1.325-1.767-0.967-4.274,0.8-5.6        l40-30c1.213-0.91,2.834-1.056,4.189-0.377C263.144,27.1,264,28.485,264,30v70C264,102.209,262.209,104,260,104z"/></g><g><path fill="#f26d00" d="M299.997,64c-0.835,0-1.678-0.26-2.397-0.8l-40-30c-1.767-1.326-2.125-3.833-0.8-5.6        c1.327-1.767,3.833-2.125,5.601-0.8l40,30c1.767,1.326,2.125,3.833,0.8,5.6C302.414,63.448,301.213,64,299.997,64z"/></g></g><g><g><path fill="#f26d00" d="M260,494c-0.85,0-1.694-0.271-2.4-0.8l-40-30c-1.768-1.326-2.125-3.833-0.8-5.601c1.326-1.766,3.833-2.123,5.6-0.8        L256,482v-62c0-2.209,1.791-4,4-4s4,1.791,4,4v70c0,1.515-0.856,2.9-2.211,3.578C261.223,493.86,260.61,494,260,494z"/></g><g><path fill="#f26d00" d="M260.003,494c-1.216,0-2.417-0.552-3.203-1.6c-1.325-1.768-0.967-4.275,0.8-5.601l40-30        c1.769-1.323,4.275-0.967,5.601,0.8c1.325,1.768,0.967,4.275-0.8,5.601l-40,30C261.681,493.739,260.838,494,260.003,494z"/></g></g></g><g><g><g><path fill="#f26d00" d="M373.432,150.863c-1.023,0-2.047-0.391-2.828-1.171c-1.563-1.563-1.563-4.095,0-5.657l43.84-43.84l-41.577-5.939        c-2.188-0.313-3.707-2.339-3.395-4.525c0.313-2.188,2.348-3.706,4.525-3.395l49.497,7.071c1.5,0.214,2.75,1.258,3.229,2.695        c0.479,1.438,0.104,3.022-0.967,4.094l-49.497,49.498C375.479,150.472,374.455,150.863,373.432,150.863z"/></g><g><path fill="#f26d00" d="M429.995,150.863c-1.959,0-3.67-1.439-3.955-3.435l-7.071-49.498c-0.313-2.187,1.207-4.213,3.395-4.526        c2.185-0.312,4.213,1.207,4.525,3.394l7.071,49.498c0.313,2.187-1.207,4.213-3.395,4.526        C430.374,150.85,430.184,150.863,429.995,150.863z"/></g></g><g><g><path fill="#f26d00" d="M97.659,426.635c-0.423,0-0.85-0.067-1.265-0.205c-1.437-0.479-2.48-1.729-2.695-3.229l-7.071-49.498        c-0.312-2.187,1.208-4.213,3.395-4.525c2.184-0.312,4.213,1.208,4.525,3.395l5.939,41.578l43.84-43.841        c1.563-1.563,4.095-1.563,5.657,0c1.562,1.562,1.562,4.095,0,5.656l-49.498,49.498        C99.726,426.226,98.703,426.635,97.659,426.635z"/></g><g><path fill="#f26d00"
 d="M147.162,433.707c-0.188,0-0.378-0.014-0.571-0.041l-49.498-7.071c-2.187-0.313-3.707-2.339-3.394-4.525        c0.313-2.188,2.33-3.71,4.526-3.395l49.498,7.071c2.187,0.313,3.707,2.339,3.394,4.525        C150.832,432.267,149.121,433.707,147.162,433.707z"/></g></g></g><g><g><g><path fill="#f26d00" d="M490,264h-70c-2.209,0-4-1.791-4-4s1.791-4,4-4h62l-25.2-33.6c-1.325-1.767-0.967-4.274,0.8-5.6        c1.769-1.325,4.275-0.967,5.601,0.8l30,40c0.909,1.213,1.055,2.834,0.378,4.189C492.9,263.144,491.515,264,490,264z"/></g><g><path fill="#f26d00" d="M459.997,304c-0.835,0-1.678-0.261-2.397-0.8c-1.767-1.325-2.125-3.833-0.8-5.601l30-40        c1.326-1.766,3.834-2.125,5.601-0.8c1.767,1.325,2.125,3.833,0.8,5.601l-30,40C462.414,303.447,461.213,304,459.997,304z"/></g></g><g><g><path fill="#f26d00" d="M100,264H30c-1.515,0-2.9-0.856-3.578-2.211c-0.678-1.355-0.531-2.977,0.377-4.189l30-40        c1.327-1.768,3.833-2.125,5.6-0.8c1.768,1.326,2.125,3.833,0.8,5.6L38,256h62c2.209,0,4,1.791,4,4S102.209,264,100,264z"/></g><g><path fill="#f26d00" d="M60.003,304c-1.216,0-2.417-0.552-3.203-1.6l-30-40c-1.325-1.768-0.967-4.275,0.8-5.601        c1.766-1.325,4.273-0.967,5.6,0.8l30,40c1.325,1.768,0.967,4.275-0.8,5.601C61.681,303.739,60.838,304,60.003,304z"/></g></g></g><g><g><g><path fill="#f26d00" d="M422.93,426.635c-1.045,0-2.067-0.409-2.829-1.172l-49.497-49.498c-1.563-1.562-1.563-4.095,0-5.656        c1.561-1.563,4.094-1.563,5.656,0l43.841,43.841l5.939-41.578c0.313-2.188,2.343-3.706,4.525-3.395        c2.188,0.313,3.707,2.339,3.395,4.525l-7.071,49.498c-0.215,1.5-1.258,2.75-2.695,3.229        C423.779,426.567,423.353,426.635,422.93,426.635z"/></g><g><path fill="#f26d00" d="M373.427,433.707c-1.959,0-3.67-1.44-3.955-3.436c-0.313-2.187,1.207-4.213,3.395-4.525l49.497-7.071        c2.185-0.308,4.213,1.207,4.525,3.395c0.313,2.187-1.207,4.213-3.395,4.525l-49.497,7.071        C373.806,433.693,373.615,433.707,373.427,433.707z"/></g></g><g><g><path fill="#f26d00" d="M147.157,150.863c-1.024,0-2.047-0.391-2.829-1.171l-49.498-49.498c-1.071-1.071-1.445-2.656-0.966-4.094        c0.479-1.437,1.729-2.48,3.229-2.695l49.498-7.071c2.184-0.312,4.213,1.207,4.525,3.395c0.312,2.187-1.208,4.213-3.395,4.525        l-41.578,5.939l43.841,43.84c1.562,1.563,1.562,4.095,0,5.657C149.205,150.472,148.181,150.863,147.157,150.863z"/></g><g><path fill="#f26d00" d="M90.594,150.863c-0.188,0-0.378-0.013-0.57-0.041c-2.187-0.313-3.707-2.339-3.395-4.525L93.7,96.8        c0.313-2.187,2.336-3.707,4.525-3.395c2.187,0.313,3.707,2.339,3.395,4.525l-7.071,49.498        C94.264,149.423,92.552,150.863,90.594,150.863z"/></g></g></g></g></g></g></svg>
