<svg xmlns="http://www.w3.org/2000/svg" xmlns:xlink="http://www.w3.org/1999/xlink" version="1.1" x="0px" y="0px" viewBox="0 0 100 125" style="enable-background:new 0 0 100 100;" xml:space="preserve"><path fill="#f26d00" d="M49.8925781,10.1298828c-10.0087891,0-18.1513672,8.1425781-18.1513672,18.1503906v12.7354736  c-5.8530273,5.104126-9.5625,12.6070557-9.5625,20.9647217c0,15.3398438,12.4804688,27.8203125,27.8212891,27.8203125  c15.3398438,0,27.8203125-12.4804688,27.8203125-27.8203125c0-8.4592896-3.7997437-16.043396-9.7763672-21.1502075V28.2802734  C68.0439453,18.2724609,59.9013672,10.1298828,49.8925781,10.1298828z M33.7412109,28.2802734  c0-8.9052734,7.2451172-16.1503906,16.1513672-16.1503906S66.0439453,19.375,66.0439453,28.2802734v10.9928589  c-1.2941895-0.9172363-2.6664429-1.7305908-4.1103516-2.4191895v-8.7719116c0-6.6396484-5.4013672-12.0410156-12.0410156-12.0410156  s-12.0410156,5.4013672-12.0410156,12.0410156v8.8748169c-1.4453735,0.7045898-2.8178101,1.5343018-4.1103516,2.4686279V28.2802734z   M59.9335938,35.9993896c-3.0873413-1.1845703-6.4345093-1.84021-9.9335938-1.84021  c-3.5806885,0-7.00177,0.687439-10.1484375,1.9249268v-8.0020752c0-5.5371094,4.5039062-10.0410156,10.0410156-10.0410156  s10.0410156,4.5039062,10.0410156,10.0410156V35.9993896z M75.8203125,61.9804688  c0,14.2373047-11.5830078,25.8203125-25.8203125,25.8203125c-14.2382812,0-25.8212891-11.5830078-25.8212891-25.8203125  c0-14.2382812,11.5830078-25.8212891,25.8212891-25.8212891C64.2373047,36.1591797,75.8203125,47.7421875,75.8203125,61.9804688z"/><path fill="#f26d00" d="M29.7695312,61.9804688c0,11.1542969,9.0751953,20.2294922,20.2304688,20.2294922  s20.2304688-9.0751953,20.2304688-20.2294922C70.2304688,50.8251953,61.1552734,41.75,50,41.75  S29.7695312,50.8251953,29.7695312,61.9804688z M36.5476685,49.7195435l2.5812378,2.5812378  c0.1953125,0.1953125,0.4511719,0.2929688,0.7070312,0.2929688s0.5117188-0.0976562,0.7070312-0.2929688  c0.390625-0.390625,0.390625-1.0234375,0-1.4140625l-2.5706177-2.5706177  c2.9876099-2.6329346,6.8349609-4.2952271,11.0667114-4.517395v3.5460205c0,0.5527344,0.4472656,1,1,1s1-0.4472656,1-1v-3.5421143  c4.1929932,0.2380981,8.0049438,1.8900146,10.9717407,4.4981079l-2.475647,2.475647  c-0.390625,0.390625-0.390625,1.0234375,0,1.4140625c0.1953125,0.1953125,0.4511719,0.2929688,0.7070312,0.2929688  s0.5117188-0.0976562,0.7070312-0.2929688l2.487793-2.487793c2.7275391,2.9824219,4.4718628,6.8635864,4.7362671,11.1489258  h-3.4711304c-0.5527344,0-1,0.4472656-1,1s0.4472656,1,1,1h3.4841919c-0.203125,4.2668457-1.8705444,8.147522-4.5223389,11.156189  l-2.6044312-2.6044312c-0.390625-0.390625-1.0234375-0.390625-1.4140625,0s-0.390625,1.0234375,0,1.4140625l2.6149902,2.6149902  c-3.0009766,2.7373657-6.9089966,4.4801025-11.2214355,4.7249756V76.359375c0-0.5527344-0.4472656-1-1-1s-1,0.4472656-1,1v3.8018799  c-4.3513184-0.2284546-8.295166-1.9815063-11.3164062-4.7442627l2.7099609-2.7099609  c0.390625-0.390625,0.390625-1.0234375,0-1.4140625s-1.0234375-0.390625-1.4140625,0l-2.697876,2.697876  c-2.6430664-3.0062866-4.3043213-6.8804932-4.507019-11.1392822H35.6875c0.5527344,0,1-0.4472656,1-1s-0.4472656-1-1-1h-3.8607788  C32.0906372,56.5742798,33.8289795,52.6998291,36.5476685,49.7195435z"/><path fill="#f26d00" d="M50.0390625,69.2529297c4.1884766,0,7.5957031-3.4072266,7.5957031-7.5957031s-3.4072266-7.5957031-7.5957031-7.5957031  s-7.5957031,3.4072266-7.5957031,7.5957031S45.8505859,69.2529297,50.0390625,69.2529297z M50.0390625,56.0615234  c3.0859375,0,5.5957031,2.5097656,5.5957031,5.5957031S53.125,67.2529297,50.0390625,67.2529297  s-5.5957031-2.5097656-5.5957031-5.5957031S46.953125,56.0615234,50.0390625,56.0615234z"/></svg>
